<?xml version="1.0" encoding="UTF-8" standalone="no"?>
<!-- Created with matplotlib (http://matplotlib.org/) -->

<svg
   xmlns:dc="http://purl.org/dc/elements/1.1/"
   xmlns:cc="http://creativecommons.org/ns#"
   xmlns:rdf="http://www.w3.org/1999/02/22-rdf-syntax-ns#"
   xmlns:svg="http://www.w3.org/2000/svg"
   xmlns="http://www.w3.org/2000/svg"
   xmlns:xlink="http://www.w3.org/1999/xlink"
   xmlns:sodipodi="http://sodipodi.sourceforge.net/DTD/sodipodi-0.dtd"
   xmlns:inkscape="http://www.inkscape.org/namespaces/inkscape"
   height="50"
   version="1.1"
   viewBox="0 0 205.5 37.5"
   width="274"
   id="svg2"
   inkscape:version="0.92.1 r15371"
   sodipodi:docname="eccw-gui_title.svg"
   inkscape:export-filename="/home/bmary/Programmation/eccw_gui/eccw_gui/images/eccw-gui_title.png"
   inkscape:export-xdpi="300"
   inkscape:export-ydpi="300">
  <metadata
     id="metadata563">
    <rdf:RDF>
      <cc:Work
         rdf:about="">
        <dc:format>image/svg+xml</dc:format>
        <dc:type
           rdf:resource="http://purl.org/dc/dcmitype/StillImage" />
        <dc:title></dc:title>
      </cc:Work>
    </rdf:RDF>
  </metadata>
  <sodipodi:namedview
     pagecolor="#ffffff"
     bordercolor="#666666"
     borderopacity="1"
     objecttolerance="10"
     gridtolerance="10"
     guidetolerance="10"
     inkscape:pageopacity="0"
     inkscape:pageshadow="2"
     inkscape:window-width="1920"
     inkscape:window-height="1016"
     id="namedview561"
     showgrid="false"
     inkscape:zoom="2.4218006"
     inkscape:cx="120.46688"
     inkscape:cy="-25.900063"
     inkscape:window-x="1920"
     inkscape:window-y="27"
     inkscape:window-maximized="1"
     inkscape:current-layer="svg2"
     fit-margin-top="0"
     fit-margin-left="0"
     fit-margin-right="0"
     fit-margin-bottom="0"
     units="px" />
  <defs
     id="defs4"
     style="stroke-linecap:butt;stroke-linejoin:round">
    <linearGradient
       inkscape:collect="always"
       id="linearGradient4479">
      <stop
         style="stop-color:#ffffff;stop-opacity:1;"
         offset="0"
         id="stop4481" />
      <stop
         style="stop-color:#ffffff;stop-opacity:0;"
         offset="1"
         id="stop4483" />
    </linearGradient>
    <linearGradient
       inkscape:collect="always"
       id="linearGradient4359">
      <stop
         style="stop-color:#000000;stop-opacity:1;"
         offset="0"
         id="stop4361" />
      <stop
         style="stop-color:#000000;stop-opacity:0;"
         offset="1"
         id="stop4363" />
    </linearGradient>
    <linearGradient
       inkscape:collect="always"
       id="linearGradient4296">
      <stop
         style="stop-color:#624000;stop-opacity:1;"
         offset="0"
         id="stop4298" />
      <stop
         style="stop-color:#624000;stop-opacity:0;"
         offset="1"
         id="stop4300" />
    </linearGradient>
    <linearGradient
       inkscape:collect="always"
       id="linearGradient4630">
      <stop
         style="stop-color:#ffffff;stop-opacity:1;"
         offset="0"
         id="stop4632" />
      <stop
         style="stop-color:#ffffff;stop-opacity:0;"
         offset="1"
         id="stop4634" />
    </linearGradient>
    <linearGradient
       inkscape:collect="always"
       id="linearGradient4622">
      <stop
         style="stop-color:#ffffff;stop-opacity:1;"
         offset="0"
         id="stop4624" />
      <stop
         style="stop-color:#ffffff;stop-opacity:0;"
         offset="1"
         id="stop4626" />
    </linearGradient>
    <linearGradient
       inkscape:collect="always"
       id="linearGradient4602">
      <stop
         style="stop-color:#ffffff;stop-opacity:1;"
         offset="0"
         id="stop4604" />
      <stop
         style="stop-color:#ffffff;stop-opacity:0;"
         offset="1"
         id="stop4606" />
    </linearGradient>
    <linearGradient
       inkscape:collect="always"
       id="linearGradient4594">
      <stop
         style="stop-color:#ffffff;stop-opacity:1;"
         offset="0"
         id="stop4596" />
      <stop
         style="stop-color:#ffffff;stop-opacity:0;"
         offset="1"
         id="stop4598" />
    </linearGradient>
    <linearGradient
       inkscape:collect="always"
       id="linearGradient4434">
      <stop
         style="stop-color:#ffffff;stop-opacity:1;"
         offset="0"
         id="stop4436" />
      <stop
         style="stop-color:#ffffff;stop-opacity:0;"
         offset="1"
         id="stop4438" />
    </linearGradient>
    <linearGradient
       inkscape:collect="always"
       id="linearGradient4368">
      <stop
         style="stop-color:#ffffff;stop-opacity:1;"
         offset="0"
         id="stop4370" />
      <stop
         style="stop-color:#ffffff;stop-opacity:0;"
         offset="1"
         id="stop4372" />
    </linearGradient>
    <linearGradient
       inkscape:collect="always"
       id="linearGradient4348">
      <stop
         style="stop-color:#ffffff;stop-opacity:1;"
         offset="0"
         id="stop4350" />
      <stop
         style="stop-color:#ffffff;stop-opacity:0;"
         offset="1"
         id="stop4352" />
    </linearGradient>
    <style
       type="text/css"
       id="style6">
*{stroke-linecap:butt;stroke-linejoin:round;}
  </style>
    <defs
       id="defs514">
      <path
         style="stroke-linecap:butt;stroke-linejoin:round"
         inkscape:connector-curvature="0"
         id="DejaVuSans-2e"
         d="M 10.6875,12.4062 H 21 V 0 H 10.6875 Z" />
      <path
         style="stroke-linecap:butt;stroke-linejoin:round"
         inkscape:connector-curvature="0"
         id="Cmmi10-42"
         d="M 4.98438,0 Q 4,0 4,1.3125 q 0.04688,0.25 0.1875,0.82812 0.15625,0.59376 0.39062,0.98438 0.25,0.39062 0.75,0.39062 2.82813,0 4.92188,0.14063 2.1094,0.15625 3.5625,0.54687 1.1719,0.4375 1.9063,2.6875 L 29.3906,61.8125 q 0.2032,0.9844 0.2032,1.375 0,1.0781 -1.1719,1.2187 -1.9063,0.3907 -7.2344,0.3907 -0.9687,0 -0.9687,1.3125 0.0468,0.25 0.1874,0.8594 0.1563,0.6093 0.4219,0.9687 0.2657,0.375 0.6563,0.375 h 35.8437 q 3.2657,0 6.4688,-0.8125 3.2031,-0.7969 5.9062,-2.5625 2.7031,-1.75 4.2969,-4.375 1.5938,-2.6094 1.5938,-6.0625 0,-3.7656 -1.9376,-7 -1.9218,-3.2188 -4.9843,-5.6094 -3.0469,-2.3906 -6.5938,-3.9375 -3.5312,-1.5312 -7.3906,-2.2656 2.7344,0 5.5313,-1.0781 2.8124,-1.0625 5.0156,-2.9219 2.2031,-1.8594 3.5468,-4.4531 1.3438,-2.5782 1.3438,-5.5469 0,-6.0156 -4.2031,-11 Q 61.7188,5.71875 55.3438,2.85938 48.9688,0 43.0156,0 Z M 23.3906,4.29688 q 0,-0.78126 3.4219,-0.78126 h 14.2969 q 4.8906,0 9.375,2.70313 4.5,2.71875 7.2031,7.20315 2.7187,4.5 2.7187,9.375 0,2.9843 -1.25,5.6406 -1.25,2.6719 -3.5937,4.2031 -2.3437,1.5469 -5.3594,1.5469 H 30.7188 L 23.7812,6.5 Q 23.3906,5.125 23.3906,4.29688 m 8,32.51562 h 15.1875 q 4.7969,0 9.3125,2.4375 4.5156,2.4531 7.3594,6.6406 2.8594,4.2032 2.8594,8.8906 0,4.3438 -2.7188,7.1719 -2.7031,2.8438 -7,2.8438 H 42.6719 q -2.6875,0 -3.6094,-0.5 Q 38.1406,63.8125 37.5,61.375 Z" />
      <path
         style="stroke-linecap:butt;stroke-linejoin:round"
         inkscape:connector-curvature="0"
         id="Cmmi10-44"
         d="m 4.89062,0 q -0.98437,0 -0.98437,1.3125 0.04687,0.25 0.1875,0.85938 0.15625,0.60937 0.42187,0.96874 0.26563,0.375 0.65626,0.375 6.10932,0 8.54692,0.6875 1.2656,0.4375 1.8593,2.6875 L 29.2969,61.8125 q 0.2031,0.9844 0.2031,1.375 0,1.0781 -1.1719,1.2187 -1.9062,0.3907 -7.2343,0.3907 -0.9688,0 -0.9688,1.3125 0.0469,0.25 0.1875,0.8594 0.1406,0.6093 0.4063,0.9687 0.2812,0.375 0.6718,0.375 h 35.9375 q 6.9844,0 12.2031,-3.3906 5.2188,-3.3907 8,-9.1407 2.7969,-5.7343 2.7969,-12.6718 0,-7.6563 -3.1875,-15.3282 Q 73.9688,20.125 68.25,13.7656 62.5469,7.42188 55.2188,3.70312 47.9062,0 40.1875,0 Z M 23.5781,4.29688 q 0,-0.78126 3.4219,-0.78126 h 11.625 q 5.5625,0 10.7344,2.29688 5.1875,2.29688 9.2344,6.2969 3.7656,3.7656 6.6406,9.8594 2.875,6.1093 4.4687,12.75 1.5938,6.6406 1.5938,12.2031 0,4.0625 -1.2031,7.3281 -1.2032,3.2656 -3.375,5.6094 -2.1719,2.3437 -5.4376,3.6406 -3.2656,1.2969 -7.375,1.2969 H 42.9219 q -2.7344,0 -3.625,-0.4688 -0.875,-0.4531 -1.5938,-2.9531 L 24.0312,6.5 Q 23.5781,5.28125 23.5781,4.29688" />
      <path
         style="stroke-linecap:butt;stroke-linejoin:round"
         inkscape:connector-curvature="0"
         id="DejaVuSans-3d"
         d="M 10.5938,45.4062 H 73.1875 V 37.2031 H 10.5938 Z m 0,-19.9218 H 73.1875 V 17.1875 H 10.5938 Z" />
      <path
         style="stroke-linecap:butt;stroke-linejoin:round"
         inkscape:connector-curvature="0"
         id="DejaVuSans-2c"
         d="M 11.7188,12.4062 H 22.0156 V 4 l -8,-15.625 H 7.71875 L 11.7188,4 Z" />
      <path
         style="stroke-linecap:butt;stroke-linejoin:round"
         inkscape:connector-curvature="0"
         id="Cmmi10-c1"
         d="m 19.3906,-19.4844 4.4844,18.06252 q -5.0781,0 -9.4688,2.375005 -4.3906,2.374995 -7.06245,6.609375 -2.65625,4.25 -2.65625,9.2344 0,5.4219 2.6875,10.3437 2.6875,4.9375 7.3438,8.9688 4.6718,4.0312 10.0312,6.2031 5.375,2.1719 10.6562,2.1719 l 6,24.3125 q 0.2032,0.5937 0.7813,0.5937 h 1.2187 q 0.3907,0 0.625,-0.3437 0.25,-0.3438 0.25,-0.6407 l -6,-23.9218 q 3.7657,0 7.2813,-1.375 Q 49.0781,41.75 51.7812,39.2812 54.5,36.8125 56,33.4688 q 1.5156,-3.3438 1.5156,-7.1563 0,-5.4063 -2.6875,-10.3437 Q 52.1562,11.0312 47.6094,7.07812 43.0625,3.125 37.4688,0.84375 31.8906,-1.42188 26.8125,-1.42188 L 22.2188,-19.9219 q -0.2032,-0.5937 -0.8282,-0.5937 h -1.1718 q -0.3907,0 -0.6094,0.375 -0.2188,0.3594 -0.2188,0.6562 m 5.125,20.70315 10.2032,40.67185 q -2.5469,0 -5.3282,-1.0312 -2.7812,-1.0156 -5.25,-2.5782 -2.4531,-1.5624 -4.4687,-3.5624 -2.4375,-2.4376 -4.2969,-5.7657 -1.8438,-3.3125 -2.7969,-7 -0.9531,-3.6875 -0.9531,-7.25 0,-3.7656 1.6094,-6.84372 Q 14.8438,4.78125 17.7656,3 q 2.9375,-1.78125 6.75,-1.78125 m 2.9688,0 q 3.7656,0 8.0156,2.14063 4.25,2.15624 6.9844,5.04687 3.75,3.70315 5.9218,9.09375 2.1876,5.4062 2.1876,10.9219 0,3.7031 -1.625,6.7969 -1.6094,3.1093 -4.5469,4.8906 -2.9219,1.7812 -6.7188,1.7812 z" />
    </defs>
    <defs
       id="defs26">
      <path
         inkscape:connector-curvature="0"
         style="stroke:#000000;stroke-width:0.5;stroke-linecap:butt;stroke-linejoin:round"
         id="md21b4ff0a3"
         d="M 0,3 C 0.795609,3 1.55874,2.6839 2.12132,2.12132 2.6839,1.55874 3,0.795609 3,0 3,-0.795609 2.6839,-1.55874 2.12132,-2.12132 1.55874,-2.6839 0.795609,-3 0,-3 -0.795609,-3 -1.55874,-2.6839 -2.12132,-2.12132 -2.6839,-1.55874 -3,-0.795609 -3,0 -3,0.795609 -2.6839,1.55874 -2.12132,2.12132 -1.55874,2.6839 -0.795609,3 0,3 Z" />
    </defs>
    <style
       id="style5699"
       type="text/css">
*{stroke-linecap:butt;stroke-linejoin:round;}
  </style>
    <defs
       id="defs6191">
      <path
         style="stroke-linecap:butt;stroke-linejoin:round"
         inkscape:connector-curvature="0"
         d="m 4.89062,0 q -0.98437,0 -0.98437,1.3125 0.04687,0.25 0.1875,0.85938 0.15625,0.60937 0.42187,0.96874 0.26563,0.375 0.65626,0.375 6.10932,0 8.54692,0.6875 1.2656,0.4375 1.8593,2.6875 L 29.2969,61.8125 q 0.2031,0.9844 0.2031,1.375 0,1.0781 -1.1719,1.2187 -1.9062,0.3907 -7.2343,0.3907 -0.9688,0 -0.9688,1.3125 0.0469,0.25 0.1875,0.8594 0.1406,0.6093 0.4063,0.9687 0.2812,0.375 0.6718,0.375 h 35.9375 q 6.9844,0 12.2031,-3.3906 5.2188,-3.3907 8,-9.1407 2.7969,-5.7343 2.7969,-12.6718 0,-7.6563 -3.1875,-15.3282 Q 73.9688,20.125 68.25,13.7656 62.5469,7.42188 55.2188,3.70312 47.9062,0 40.1875,0 Z M 23.5781,4.29688 q 0,-0.78126 3.4219,-0.78126 h 11.625 q 5.5625,0 10.7344,2.29688 5.1875,2.29688 9.2344,6.2969 3.7656,3.7656 6.6406,9.8594 2.875,6.1093 4.4687,12.75 1.5938,6.6406 1.5938,12.2031 0,4.0625 -1.2031,7.3281 -1.2032,3.2656 -3.375,5.6094 -2.1719,2.3437 -5.4376,3.6406 -3.2656,1.2969 -7.375,1.2969 H 42.9219 q -2.7344,0 -3.625,-0.4688 -0.875,-0.4531 -1.5938,-2.9531 L 24.0312,6.5 Q 23.5781,5.28125 23.5781,4.29688"
         id="Cmmi10-44-0" />
      <path
         style="stroke-linecap:butt;stroke-linejoin:round"
         inkscape:connector-curvature="0"
         d="M 10.6875,12.4062 H 21 V 0 H 10.6875 Z"
         id="DejaVuSans-2e-5" />
      <path
         style="stroke-linecap:butt;stroke-linejoin:round"
         inkscape:connector-curvature="0"
         d="M 4.98438,0 Q 4,0 4,1.3125 q 0.04688,0.25 0.1875,0.82812 0.15625,0.59376 0.39062,0.98438 0.25,0.39062 0.75,0.39062 2.82813,0 4.92188,0.14063 2.1094,0.15625 3.5625,0.54687 1.1719,0.4375 1.9063,2.6875 L 29.3906,61.8125 q 0.2032,0.9844 0.2032,1.375 0,1.0781 -1.1719,1.2187 -1.9063,0.3907 -7.2344,0.3907 -0.9687,0 -0.9687,1.3125 0.0468,0.25 0.1874,0.8594 0.1563,0.6093 0.4219,0.9687 0.2657,0.375 0.6563,0.375 h 35.8437 q 3.2657,0 6.4688,-0.8125 3.2031,-0.7969 5.9062,-2.5625 2.7031,-1.75 4.2969,-4.375 1.5938,-2.6094 1.5938,-6.0625 0,-3.7656 -1.9376,-7 -1.9218,-3.2188 -4.9843,-5.6094 -3.0469,-2.3906 -6.5938,-3.9375 -3.5312,-1.5312 -7.3906,-2.2656 2.7344,0 5.5313,-1.0781 2.8124,-1.0625 5.0156,-2.9219 2.2031,-1.8594 3.5468,-4.4531 1.3438,-2.5782 1.3438,-5.5469 0,-6.0156 -4.2031,-11 Q 61.7188,5.71875 55.3438,2.85938 48.9688,0 43.0156,0 Z M 23.3906,4.29688 q 0,-0.78126 3.4219,-0.78126 h 14.2969 q 4.8906,0 9.375,2.70313 4.5,2.71875 7.2031,7.20315 2.7187,4.5 2.7187,9.375 0,2.9843 -1.25,5.6406 -1.25,2.6719 -3.5937,4.2031 -2.3437,1.5469 -5.3594,1.5469 H 30.7188 L 23.7812,6.5 Q 23.3906,5.125 23.3906,4.29688 m 8,32.51562 h 15.1875 q 4.7969,0 9.3125,2.4375 4.5156,2.4531 7.3594,6.6406 2.8594,4.2032 2.8594,8.8906 0,4.3438 -2.7188,7.1719 -2.7031,2.8438 -7,2.8438 H 42.6719 q -2.6875,0 -3.6094,-0.5 Q 38.1406,63.8125 37.5,61.375 Z"
         id="Cmmi10-42-7" />
      <path
         style="stroke-linecap:butt;stroke-linejoin:round"
         inkscape:connector-curvature="0"
         d="M 11.7188,12.4062 H 22.0156 V 4 l -8,-15.625 H 7.71875 L 11.7188,4 Z"
         id="DejaVuSans-2c-2" />
      <path
         style="stroke-linecap:butt;stroke-linejoin:round"
         inkscape:connector-curvature="0"
         d="m 19.3906,-19.4844 4.4844,18.06252 q -5.0781,0 -9.4688,2.375005 -4.3906,2.374995 -7.06245,6.609375 -2.65625,4.25 -2.65625,9.2344 0,5.4219 2.6875,10.3437 2.6875,4.9375 7.3438,8.9688 4.6718,4.0312 10.0312,6.2031 5.375,2.1719 10.6562,2.1719 l 6,24.3125 q 0.2032,0.5937 0.7813,0.5937 h 1.2187 q 0.3907,0 0.625,-0.3437 0.25,-0.3438 0.25,-0.6407 l -6,-23.9218 q 3.7657,0 7.2813,-1.375 Q 49.0781,41.75 51.7812,39.2812 54.5,36.8125 56,33.4688 q 1.5156,-3.3438 1.5156,-7.1563 0,-5.4063 -2.6875,-10.3437 Q 52.1562,11.0312 47.6094,7.07812 43.0625,3.125 37.4688,0.84375 31.8906,-1.42188 26.8125,-1.42188 L 22.2188,-19.9219 q -0.2032,-0.5937 -0.8282,-0.5937 h -1.1718 q -0.3907,0 -0.6094,0.375 -0.2188,0.3594 -0.2188,0.6562 m 5.125,20.70315 10.2032,40.67185 q -2.5469,0 -5.3282,-1.0312 -2.7812,-1.0156 -5.25,-2.5782 -2.4531,-1.5624 -4.4687,-3.5624 -2.4375,-2.4376 -4.2969,-5.7657 -1.8438,-3.3125 -2.7969,-7 -0.9531,-3.6875 -0.9531,-7.25 0,-3.7656 1.6094,-6.84372 Q 14.8438,4.78125 17.7656,3 q 2.9375,-1.78125 6.75,-1.78125 m 2.9688,0 q 3.7656,0 8.0156,2.14063 4.25,2.15624 6.9844,5.04687 3.75,3.70315 5.9218,9.09375 2.1876,5.4062 2.1876,10.9219 0,3.7031 -1.625,6.7969 -1.6094,3.1093 -4.5469,4.8906 -2.9219,1.7812 -6.7188,1.7812 z"
         id="Cmmi10-c1-6" />
      <path
         style="stroke-linecap:butt;stroke-linejoin:round"
         inkscape:connector-curvature="0"
         d="M 10.5938,45.4062 H 73.1875 V 37.2031 H 10.5938 Z m 0,-19.9218 H 73.1875 V 17.1875 H 10.5938 Z"
         id="DejaVuSans-3d-4" />
    </defs>
    <style
       id="style7733"
       type="text/css">
*{stroke-linecap:butt;stroke-linejoin:round;}
  </style>
    <defs
       id="defs8657">
      <path
         style="stroke-linecap:butt;stroke-linejoin:round"
         inkscape:connector-curvature="0"
         d="m 4.89062,0 q -0.98437,0 -0.98437,1.3125 0.04687,0.25 0.1875,0.85938 0.15625,0.60937 0.42187,0.96874 0.26563,0.375 0.65626,0.375 6.10932,0 8.54692,0.6875 1.2656,0.4375 1.8593,2.6875 L 29.2969,61.8125 q 0.2031,0.9844 0.2031,1.375 0,1.0781 -1.1719,1.2187 -1.9062,0.3907 -7.2343,0.3907 -0.9688,0 -0.9688,1.3125 0.0469,0.25 0.1875,0.8594 0.1406,0.6093 0.4063,0.9687 0.2812,0.375 0.6718,0.375 h 35.9375 q 6.9844,0 12.2031,-3.3906 5.2188,-3.3907 8,-9.1407 2.7969,-5.7343 2.7969,-12.6718 0,-7.6563 -3.1875,-15.3282 Q 73.9688,20.125 68.25,13.7656 62.5469,7.42188 55.2188,3.70312 47.9062,0 40.1875,0 Z M 23.5781,4.29688 q 0,-0.78126 3.4219,-0.78126 h 11.625 q 5.5625,0 10.7344,2.29688 5.1875,2.29688 9.2344,6.2969 3.7656,3.7656 6.6406,9.8594 2.875,6.1093 4.4687,12.75 1.5938,6.6406 1.5938,12.2031 0,4.0625 -1.2031,7.3281 -1.2032,3.2656 -3.375,5.6094 -2.1719,2.3437 -5.4376,3.6406 -3.2656,1.2969 -7.375,1.2969 H 42.9219 q -2.7344,0 -3.625,-0.4688 -0.875,-0.4531 -1.5938,-2.9531 L 24.0312,6.5 Q 23.5781,5.28125 23.5781,4.29688"
         id="Cmmi10-44-1" />
      <path
         style="stroke-linecap:butt;stroke-linejoin:round"
         inkscape:connector-curvature="0"
         d="M 10.6875,12.4062 H 21 V 0 H 10.6875 Z"
         id="DejaVuSans-2e-9" />
      <path
         style="stroke-linecap:butt;stroke-linejoin:round"
         inkscape:connector-curvature="0"
         d="M 40.5781,39.3125 Q 47.6562,37.7969 51.625,33 q 3.9844,-4.7812 3.9844,-11.8125 0,-10.7813 -7.4219,-16.70312 -7.4219,-5.90626 -21.0937,-5.90626 -4.5782,0 -9.4376,0.906255 Q 12.7969,0.390625 7.625,2.20312 v 9.51568 q 4.0938,-2.39068 8.9688,-3.60942 4.8906,-1.21876 10.2187,-1.21876 9.2656,0 14.125,3.65628 4.8594,3.6562 4.8594,10.6406 0,6.4531 -4.5157,10.0781 -4.5156,3.6406 -12.5624,3.6406 h -8.5 v 8.1094 h 8.8906 q 7.2656,0 11.125,2.9063 3.8594,2.9062 3.8594,8.375 0,5.6093 -3.9844,8.6093 -3.9688,3.0157 -11.3906,3.0157 -4.0626,0 -8.7032,-0.8907 -4.6406,-0.875 -10.2031,-2.7187 v 8.7813 q 5.625,1.5624 10.5313,2.3437 4.9062,0.7813 9.25,0.7813 11.2343,0 17.7656,-5.1094 6.5468,-5.0938 6.5468,-13.7813 0,-6.0625 -3.4687,-10.2343 -3.4687,-4.1719 -9.8594,-5.7813"
         id="DejaVuSans-33" />
      <path
         style="stroke-linecap:butt;stroke-linejoin:round"
         inkscape:connector-curvature="0"
         d="M 11.7188,12.4062 H 22.0156 V 4 l -8,-15.625 H 7.71875 L 11.7188,4 Z"
         id="DejaVuSans-2c-8" />
      <path
         style="stroke-linecap:butt;stroke-linejoin:round"
         inkscape:connector-curvature="0"
         d="m 19.3906,-19.4844 4.4844,18.06252 q -5.0781,0 -9.4688,2.375005 -4.3906,2.374995 -7.06245,6.609375 -2.65625,4.25 -2.65625,9.2344 0,5.4219 2.6875,10.3437 2.6875,4.9375 7.3438,8.9688 4.6718,4.0312 10.0312,6.2031 5.375,2.1719 10.6562,2.1719 l 6,24.3125 q 0.2032,0.5937 0.7813,0.5937 h 1.2187 q 0.3907,0 0.625,-0.3437 0.25,-0.3438 0.25,-0.6407 l -6,-23.9218 q 3.7657,0 7.2813,-1.375 Q 49.0781,41.75 51.7812,39.2812 54.5,36.8125 56,33.4688 q 1.5156,-3.3438 1.5156,-7.1563 0,-5.4063 -2.6875,-10.3437 Q 52.1562,11.0312 47.6094,7.07812 43.0625,3.125 37.4688,0.84375 31.8906,-1.42188 26.8125,-1.42188 L 22.2188,-19.9219 q -0.2032,-0.5937 -0.8282,-0.5937 h -1.1718 q -0.3907,0 -0.6094,0.375 -0.2188,0.3594 -0.2188,0.6562 m 5.125,20.70315 10.2032,40.67185 q -2.5469,0 -5.3282,-1.0312 -2.7812,-1.0156 -5.25,-2.5782 -2.4531,-1.5624 -4.4687,-3.5624 -2.4375,-2.4376 -4.2969,-5.7657 -1.8438,-3.3125 -2.7969,-7 -0.9531,-3.6875 -0.9531,-7.25 0,-3.7656 1.6094,-6.84372 Q 14.8438,4.78125 17.7656,3 q 2.9375,-1.78125 6.75,-1.78125 m 2.9688,0 q 3.7656,0 8.0156,2.14063 4.25,2.15624 6.9844,5.04687 3.75,3.70315 5.9218,9.09375 2.1876,5.4062 2.1876,10.9219 0,3.7031 -1.625,6.7969 -1.6094,3.1093 -4.5469,4.8906 -2.9219,1.7812 -6.7188,1.7812 z"
         id="Cmmi10-c1-0" />
      <path
         style="stroke-linecap:butt;stroke-linejoin:round"
         inkscape:connector-curvature="0"
         d="M 10.5938,45.4062 H 73.1875 V 37.2031 H 10.5938 Z m 0,-19.9218 H 73.1875 V 17.1875 H 10.5938 Z"
         id="DejaVuSans-3d-46" />
      <path
         style="stroke-linecap:butt;stroke-linejoin:round"
         inkscape:connector-curvature="0"
         d="M 4.98438,0 Q 4,0 4,1.3125 q 0.04688,0.25 0.1875,0.82812 0.15625,0.59376 0.39062,0.98438 0.25,0.39062 0.75,0.39062 2.82813,0 4.92188,0.14063 2.1094,0.15625 3.5625,0.54687 1.1719,0.4375 1.9063,2.6875 L 29.3906,61.8125 q 0.2032,0.9844 0.2032,1.375 0,1.0781 -1.1719,1.2187 -1.9063,0.3907 -7.2344,0.3907 -0.9687,0 -0.9687,1.3125 0.0468,0.25 0.1874,0.8594 0.1563,0.6093 0.4219,0.9687 0.2657,0.375 0.6563,0.375 h 35.8437 q 3.2657,0 6.4688,-0.8125 3.2031,-0.7969 5.9062,-2.5625 2.7031,-1.75 4.2969,-4.375 1.5938,-2.6094 1.5938,-6.0625 0,-3.7656 -1.9376,-7 -1.9218,-3.2188 -4.9843,-5.6094 -3.0469,-2.3906 -6.5938,-3.9375 -3.5312,-1.5312 -7.3906,-2.2656 2.7344,0 5.5313,-1.0781 2.8124,-1.0625 5.0156,-2.9219 2.2031,-1.8594 3.5468,-4.4531 1.3438,-2.5782 1.3438,-5.5469 0,-6.0156 -4.2031,-11 Q 61.7188,5.71875 55.3438,2.85938 48.9688,0 43.0156,0 Z M 23.3906,4.29688 q 0,-0.78126 3.4219,-0.78126 h 14.2969 q 4.8906,0 9.375,2.70313 4.5,2.71875 7.2031,7.20315 2.7187,4.5 2.7187,9.375 0,2.9843 -1.25,5.6406 -1.25,2.6719 -3.5937,4.2031 -2.3437,1.5469 -5.3594,1.5469 H 30.7188 L 23.7812,6.5 Q 23.3906,5.125 23.3906,4.29688 m 8,32.51562 h 15.1875 q 4.7969,0 9.3125,2.4375 4.5156,2.4531 7.3594,6.6406 2.8594,4.2032 2.8594,8.8906 0,4.3438 -2.7188,7.1719 -2.7031,2.8438 -7,2.8438 H 42.6719 q -2.6875,0 -3.6094,-0.5 Q 38.1406,63.8125 37.5,61.375 Z"
         id="Cmmi10-42-6" />
    </defs>
    <defs
       id="defs7750">
      <path
         inkscape:connector-curvature="0"
         d="m 0,-3 -0.673542,2.072949 H -2.85317 L -1.08981,0.354102 -1.76336,2.42705 0,1.1459 1.76336,2.42705 1.08981,0.354102 2.85317,-0.927051 H 0.673542 Z"
         id="m11ac47eaca"
         style="stroke:#000000;stroke-width:0.5;stroke-linecap:butt;stroke-linejoin:bevel" />
    </defs>
    <filter
       inkscape:collect="always"
       style="color-interpolation-filters:sRGB;stroke-linecap:butt;stroke-linejoin:round"
       id="filter4330"
       x="-0.1081301"
       width="1.2162602"
       y="-0.13317639"
       height="1.2663528">
      <feGaussianBlur
         inkscape:collect="always"
         stdDeviation="17.879568"
         id="feGaussianBlur4332"
         style="stroke-linecap:butt;stroke-linejoin:round" />
    </filter>
    <filter
       inkscape:collect="always"
       style="color-interpolation-filters:sRGB;stroke-linecap:butt;stroke-linejoin:round"
       id="filter4425"
       x="-0.090851381"
       width="1.1817029"
       y="-0.17668845"
       height="1.3533769">
      <feGaussianBlur
         inkscape:collect="always"
         stdDeviation="3.4415953"
         id="feGaussianBlur4427"
         style="stroke-linecap:butt;stroke-linejoin:round" />
    </filter>
    <filter
       inkscape:collect="always"
       style="color-interpolation-filters:sRGB;stroke-linecap:butt;stroke-linejoin:round"
       id="filter4433"
       x="-0.0908527"
       width="1.1817054"
       y="-0.17668346"
       height="1.3533669">
      <feGaussianBlur
         inkscape:collect="always"
         stdDeviation="3.441618"
         id="feGaussianBlur4435"
         style="stroke-linecap:butt;stroke-linejoin:round" />
    </filter>
    <radialGradient
       inkscape:collect="always"
       xlink:href="#linearGradient4368"
       id="radialGradient4783"
       gradientUnits="userSpaceOnUse"
       gradientTransform="matrix(-1.6377358e-4,0.02870534,-0.04445694,-2.5453355e-4,6.9916683,2.4467513)"
       cx="56.072598"
       cy="44.250137"
       fx="56.072598"
       fy="44.250137"
       r="204.22871" />
    <radialGradient
       inkscape:collect="always"
       xlink:href="#linearGradient4368"
       id="radialGradient4785"
       gradientUnits="userSpaceOnUse"
       gradientTransform="matrix(0.0143815,0.01085204,-0.02153571,0.02853925,5.1680693,38.993348)"
       cx="1075.0796"
       cy="-602.66077"
       fx="1075.0796"
       fy="-602.66077"
       r="204.22871" />
    <linearGradient
       inkscape:collect="always"
       xlink:href="#linearGradient4359"
       id="linearGradient4787"
       gradientUnits="userSpaceOnUse"
       gradientTransform="matrix(0.07783953,0,0,0.07783953,-4.3745954,1.353795)"
       x1="227.97458"
       y1="691.84906"
       x2="227.97458"
       y2="292.89349" />
    <linearGradient
       inkscape:collect="always"
       xlink:href="#linearGradient4296"
       id="linearGradient4789"
       gradientUnits="userSpaceOnUse"
       x1="514.13861"
       y1="-44.488976"
       x2="279.71564"
       y2="-232.89227" />
    <linearGradient
       inkscape:collect="always"
       xlink:href="#linearGradient4296"
       id="linearGradient4791"
       gradientUnits="userSpaceOnUse"
       x1="471.87506"
       y1="-78.45575"
       x2="337.19406"
       y2="-186.69746" />
    <linearGradient
       inkscape:collect="always"
       xlink:href="#linearGradient4434"
       id="linearGradient4793"
       gradientUnits="userSpaceOnUse"
       x1="198.34358"
       y1="-341.36197"
       x2="549.41272"
       y2="-59.211342" />
    <linearGradient
       inkscape:collect="always"
       xlink:href="#linearGradient4434"
       id="linearGradient4795"
       gradientUnits="userSpaceOnUse"
       x1="198.34358"
       y1="-341.36197"
       x2="549.41272"
       y2="-59.211342" />
    <radialGradient
       inkscape:collect="always"
       xlink:href="#linearGradient4348"
       id="radialGradient4797"
       gradientUnits="userSpaceOnUse"
       gradientTransform="matrix(0.30219636,0.42066677,-0.90739292,0.42103977,-245.21242,-300.50234)"
       cx="213.97231"
       cy="-389.35092"
       fx="213.97231"
       fy="-389.35092"
       r="191.19141" />
    <radialGradient
       inkscape:collect="always"
       xlink:href="#linearGradient4348"
       id="radialGradient4799"
       gradientUnits="userSpaceOnUse"
       gradientTransform="matrix(0.12243167,0.13991031,-0.29532637,0.16692562,183.54592,-142.1746)"
       cx="935.20312"
       cy="-449.63297"
       fx="935.20312"
       fy="-449.63297"
       r="191.19141" />
    <linearGradient
       inkscape:collect="always"
       xlink:href="#linearGradient4622"
       id="linearGradient4801"
       gradientUnits="userSpaceOnUse"
       x1="297.56653"
       y1="-71.589592"
       x2="297.56653"
       y2="-54.548664" />
    <linearGradient
       inkscape:collect="always"
       xlink:href="#linearGradient4630"
       id="linearGradient4803"
       gradientUnits="userSpaceOnUse"
       x1="302.1445"
       y1="-29.879274"
       x2="302.1445"
       y2="-26.330183" />
    <linearGradient
       inkscape:collect="always"
       xlink:href="#linearGradient4602"
       id="linearGradient4805"
       gradientUnits="userSpaceOnUse"
       x1="286.61276"
       y1="-68.71032"
       x2="286.61276"
       y2="-54.096489" />
    <linearGradient
       inkscape:collect="always"
       xlink:href="#linearGradient4594"
       id="linearGradient4807"
       gradientUnits="userSpaceOnUse"
       x1="284.25464"
       y1="-29.440853"
       x2="284.25464"
       y2="-25.96298" />
    <linearGradient
       inkscape:collect="always"
       xlink:href="#linearGradient4602"
       id="linearGradient4809"
       gradientUnits="userSpaceOnUse"
       x1="286.61276"
       y1="-68.71032"
       x2="286.61276"
       y2="-54.096489" />
    <linearGradient
       inkscape:collect="always"
       xlink:href="#linearGradient4594"
       id="linearGradient4811"
       gradientUnits="userSpaceOnUse"
       x1="284.25464"
       y1="-29.440853"
       x2="284.25464"
       y2="-25.96298" />
    <linearGradient
       inkscape:collect="always"
       xlink:href="#linearGradient4622"
       id="linearGradient4813"
       gradientUnits="userSpaceOnUse"
       x1="297.56653"
       y1="-71.589592"
       x2="297.56653"
       y2="-54.548664" />
    <linearGradient
       inkscape:collect="always"
       xlink:href="#linearGradient4630"
       id="linearGradient4815"
       gradientUnits="userSpaceOnUse"
       x1="302.1445"
       y1="-29.879274"
       x2="302.1445"
       y2="-26.330183" />
    <radialGradient
       inkscape:collect="always"
       xlink:href="#linearGradient4479"
       id="radialGradient4817"
       gradientUnits="userSpaceOnUse"
       gradientTransform="matrix(0,0.04953424,-0.07783953,1.0885575e-8,16.654639,0.75147623)"
       cx="127.22529"
       cy="67.607956"
       fx="127.22529"
       fy="67.607956"
       r="43.60392" />
    <radialGradient
       inkscape:collect="always"
       xlink:href="#linearGradient4479"
       id="radialGradient4819"
       gradientUnits="userSpaceOnUse"
       gradientTransform="matrix(0,0.04953424,-0.07783953,1.0885575e-8,10.581919,-2.4848829)"
       cx="127.22529"
       cy="67.607956"
       fx="127.22529"
       fy="67.607956"
       r="43.60392" />
  </defs>
  <defs
     id="defs556">
    <clipPath
       id="p5873ec822d"
       style="stroke-linecap:butt;stroke-linejoin:round">
      <rect
         height="352.79999"
         width="453.375"
         x="73.125"
         y="44.099998"
         id="rect559"
         style="stroke-linecap:butt;stroke-linejoin:round" />
    </clipPath>
  </defs>
  <g
     style="stroke-linecap:butt;stroke-linejoin:round"
     id="line2d_128"
     transform="translate(-177.66408,1295.3986)" />
  <g
     style="stroke-linecap:butt;stroke-linejoin:round"
     id="line2d_130"
     transform="translate(-177.66408,1295.3986)" />
  <g
     id="g4226"
     transform="matrix(-0.8660254,-0.5,-0.5,0.8660254,1218.3058,613.73537)"
     style="stroke-linecap:butt;stroke-linejoin:round" />
  <rect
     style="opacity:1;fill:#e6e6e6;fill-opacity:1;stroke:none;stroke-width:0.62271619;stroke-linecap:round;stroke-linejoin:bevel;stroke-miterlimit:4;stroke-dasharray:none;stroke-dashoffset:0;stroke-opacity:1"
     id="rect4649"
     width="30.824453"
     height="30.824453"
     x="3.9851346"
     y="3.4863615"
     ry="4.0205812"
     rx="4.0205812" />
  <path
     inkscape:connector-curvature="0"
     id="path4651"
     d="m 7.8811749,3.3617759 v 0.00374 c -0.035496,0.00115 -0.071585,0.00115 -0.106664,0.00302 l -0.029554,0.00149 -0.025662,0.014715 C 6.4345705,4.1228301 5.1358071,4.8690157 4.5833332,5.1862486 l -0.025663,0.014719 -0.016299,0.024812 C 4.4277906,5.3983654 4.3270645,5.5798664 4.2399871,5.7690755 l -0.1629765,0.3544141 0.024203,-0.013865 -0.00632,0.018122 c -0.036122,0.1029768 -0.068768,0.2079625 -0.096936,0.3150071 l -0.02408,0.09183 4.5690584,2.6452069 C 5.9405557,10.675116 4.6194594,11.433586 3.9231598,11.833388 l -0.062637,0.03588 V 12.51558 L 4.0472166,12.408548 C 4.6988307,12.034413 6.1760258,11.186106 9.1030151,9.5041621 l 4.8722679,2.8209529 c -2.182165,1.254835 -4.1954736,2.412023 -5.9151963,3.400103 l -4.1995635,-2.43127 v 0.647528 l 3.6380249,2.106412 C 5.5757046,17.15255 4.5889689,17.719197 3.9231598,18.101514 l -0.062637,0.03588 v 0.64619 l 0.1866938,-0.107152 c 0.6217308,-0.35699 1.7157808,-0.985023 4.0117759,-2.304172 l 4.8725105,2.820954 C 10.433755,20.629338 8.7539032,21.5948 7.0157003,22.593253 L 3.8605232,20.766578 v 0.647527 L 6.4540388,22.9158 c -1.1350543,0.651942 -1.8694197,1.073758 -2.530879,1.453652 l -0.062637,0.03588 v 0.646432 L 4.0472166,24.944492 C 4.699887,24.569629 5.5793484,24.064653 7.0144832,23.240293 l 4.8728748,2.821074 c -2.7642588,1.589095 -4.3252019,2.486175 -5.9161678,3.399884 l -2.110667,-1.22208 v 0.647648 l 1.5491279,0.896858 c -0.5078655,0.291668 -0.9199418,0.528249 -1.4621672,0.839695 l -0.070541,0.0405 0.00876,0.08088 c 0.012475,0.115228 0.029746,0.228679 0.051326,0.340548 l 0.033203,0.17137 0.1511783,-0.08684 c 0.6151651,-0.353339 1.1463381,-0.658673 1.8484459,-1.0619 l 4.8733619,2.82144 c -1.031364,0.59277 -1.4360201,0.825102 -2.2162365,1.273405 l -0.4046441,0.232546 h 1.1249024 l 0.028705,-0.01654 C 10.120761,33.990778 10.401094,33.829986 11.403417,33.25386 l 2.040489,1.181458 h 1.118701 l -2.597896,-1.504126 c 1.866858,-1.073177 3.820619,-2.196815 5.913494,-3.401101 l 4.867888,2.818155 c -0.99324,0.572323 -1.962899,1.13145 -2.974927,1.714051 -0.08319,0.04789 -0.161711,0.09304 -0.244345,0.140597 l -0.403913,0.232425 h 1.123321 l 0.0287,-0.01654 c 1.02536,-0.590407 2.018103,-1.162852 3.030876,-1.746402 l 3.044864,1.762943 h 1.118699 l -3.602992,-2.08598 c 2.119925,-1.221679 4.088616,-2.357713 5.903763,-3.406818 l 4.85074,2.808426 -0.256626,0.149598 c -0.810363,0.472284 -1.736398,1.010519 -2.871913,1.667954 -0.321853,0.186353 -0.72876,0.420966 -1.098268,0.634393 l -0.402333,0.232424 h 0.797248 c 0.109489,0 0.216622,-0.0055 0.321939,-0.0135 l 0.02846,-0.0021 0.02445,-0.01423 c 0.19682,-0.113752 0.430549,-0.248589 0.609338,-0.352102 0.925415,-0.535808 1.701004,-0.98633 2.410107,-1.398921 l 0.02469,-0.01436 0.01593,-0.02335 c 0.119169,-0.17602 0.224514,-0.361986 0.315738,-0.555702 l 0.170639,-0.362318 -0.02554,0.01496 0.02785,-0.08185 c 0.03509,-0.103203 0.06711,-0.208556 0.09438,-0.316466 l 0.02311,-0.0911 -4.49961,-2.605192 c 0.48045,-0.277568 1.01955,-0.588614 1.442706,-0.833612 1.231063,-0.712769 2.238788,-1.29845 3.099108,-1.80004 l 0.06191,-0.036 v -0.648866 l -0.187301,0.109341 c -0.883618,0.515593 -1.949615,1.135124 -3.254543,1.890649 -0.504596,0.292151 -1.159865,0.669818 -1.721713,0.994521 l -4.861578,-2.814585 c 2.138093,-1.232568 4.136598,-2.386085 5.902668,-3.407668 l 4.122455,2.386873 v -0.647648 l -3.562497,-2.062504 c 0.138715,-0.08009 0.283647,-0.163711 0.401482,-0.231937 1.231066,-0.71277 2.238792,-1.298411 3.099108,-1.80004 l 0.06191,-0.036 v -0.648864 l -0.187302,0.109341 c -0.883618,0.515584 -1.949615,1.135116 -3.254543,1.890649 -0.199186,0.115326 -0.461975,0.266925 -0.680002,0.392968 l -4.860223,-2.813909 c 2.118269,-1.221593 4.133639,-2.385063 5.821058,-3.362059 0.02938,-0.017 0.05466,-0.03154 0.08015,-0.04634 l 3.080865,1.78374 v -0.647648 l -2.522365,-1.460343 c 0.933698,-0.541154 1.759397,-1.020835 2.460459,-1.429449 l 0.06191,-0.036 v -0.648864 l -0.187301,0.10934 c -0.798793,0.465968 -1.758927,1.023902 -2.89405,1.681456 l -4.858768,-2.813049 c 1.718641,-0.991563 3.377904,-1.9494789 4.779104,-2.7607485 0.409767,-0.2372483 0.751822,-0.4359006 1.119553,-0.6492306 L 34.93419,9.5145051 V 8.8668543 L 33.45134,8.008186 c 0.514885,-0.2990983 0.957433,-0.5569077 1.399287,-0.8143947 l 0.06945,-0.040381 -0.0084,-0.080027 c -0.01198,-0.1163011 -0.02957,-0.2301583 -0.0506,-0.3420094 l -0.03259,-0.1735557 -0.152396,0.089028 c -0.544825,0.3176294 -1.098558,0.6402769 -1.78362,1.037819 L 28.035533,4.8729583 c 0.764255,-0.4412513 1.478672,-0.8542054 2.213563,-1.278758 l 0.402211,-0.2323016 h -1.120161 l -0.02882,0.016538 C 28.817316,3.7740889 28.183751,4.140495 27.476187,4.5489502 L 25.42572,3.3618973 h -1.118456 l 2.60884,1.5104515 C 25.031325,5.9599856 23.0637,7.0942912 21.009301,8.2773424 L 16.140073,5.4582131 C 17.21342,4.8407939 18.288156,4.2225548 19.379778,3.5943203 l 0.404035,-0.232423 h -1.123685 l -0.02871,0.016538 c -1.023049,0.5886915 -2.04248,1.1751783 -3.051424,1.7555259 L 12.519197,3.3618958 h -1.118701 l 0.401239,0.2323017 3.217084,1.8626752 C 12.874466,6.6902101 10.873251,7.8405555 9.1042312,8.8571232 L 4.2301394,6.0354402 4.4151298,5.9292614 C 5.0045603,5.5908361 6.7391611,4.5943108 8.4795688,3.5943189 L 8.8842129,3.3617744 H 7.8811783 Z m 19.5945201,1.8344577 4.857672,2.8128052 c -0.274008,0.1589693 -0.533283,0.309533 -0.841032,0.4877139 -1.482693,0.8584662 -3.227586,1.8660153 -5.057622,2.9217793 L 21.569011,8.6013487 c 2.056304,-1.1842348 4.027828,-2.3207774 5.906684,-3.4051151 z m -11.896679,0.5848925 4.86935,2.8192507 c -0.22565,0.130015 -0.446838,0.2576717 -0.677203,0.3902913 -1.782921,1.0263939 -3.532268,2.0324459 -5.234953,3.0116599 L 9.6644299,9.181619 C 11.450407,8.1552525 13.430462,7.0169385 15.579016,5.7811261 Z m 5.429186,3.1433784 4.866308,2.8173045 c -1.894358,1.092601 -3.896516,2.246272 -5.908142,3.404384 L 15.09629,12.326456 c 1.61743,-0.930221 3.266876,-1.878882 4.954242,-2.8502639 0.325855,-0.1875876 0.63457,-0.3655928 0.95767,-0.5516876 z m 5.426024,3.1414325 4.859375,2.813413 c -1.726648,0.999475 -3.748619,2.166788 -5.901331,3.408155 l -4.866065,-2.817182 c 2.017701,-1.161676 4.018981,-2.314753 5.908021,-3.404386 z m -11.898867,0.583432 4.869958,2.819738 c -2.017373,1.161273 -4.024119,2.31566 -5.912643,3.401586 L 8.6202858,16.04962 c 1.7300182,-0.994071 3.7546352,-2.157821 5.9150732,-3.400251 z m 5.430037,3.143867 4.866187,2.817425 c -1.650823,0.951792 -3.338967,1.924738 -5.060543,2.915819 -0.288901,0.166314 -0.562022,0.3232 -0.848329,0.487958 l -4.869957,-2.819373 c 1.896019,-1.0903 3.898975,-2.242621 5.912642,-3.401829 z m 5.426266,3.141554 4.860592,2.814264 c -1.782748,1.030997 -3.760488,2.172444 -5.90279,3.407302 L 19.482791,22.33881 c 0.188678,-0.108544 0.374363,-0.215244 0.567741,-0.326561 1.817012,-1.046027 3.605479,-2.07671 5.34113,-3.077459 z m -11.900082,0.583067 4.869958,2.819493 c -2.057685,1.184216 -4.033345,2.32081 -5.913008,3.401466 L 7.575898,22.917741 c 1.7443595,-1.002068 3.426298,-1.968504 5.915682,-3.399884 z m 5.430279,3.143865 4.866916,2.817791 c -1.328801,0.765864 -2.650936,1.528033 -4.017735,2.314875 -0.644353,0.370949 -1.253726,0.721282 -1.891987,1.088536 L 13.00861,26.063065 c 1.885656,-1.084152 3.857881,-2.218397 5.913249,-3.401343 z m 5.426876,3.141798 4.861686,2.815114 c -1.826906,1.055696 -3.780482,2.183136 -5.903886,3.406696 l -4.867281,-2.818156 c 0.540384,-0.310916 1.062443,-0.611062 1.611278,-0.927019 1.46224,-0.841789 2.879161,-1.658718 4.298203,-2.476635 z m -11.9013,0.582335 4.870566,2.819982 c -2.09201,1.203726 -4.054543,2.332456 -5.913616,3.4011 L 6.5312673,29.785498 C 8.1498097,28.85589 9.6694797,27.982902 12.447435,26.385855 Z"
     style="color:#000000;font-style:normal;font-variant:normal;font-weight:normal;font-stretch:normal;font-size:medium;line-height:normal;font-family:sans-serif;text-indent:0;text-align:start;text-decoration:none;text-decoration-line:none;text-decoration-style:solid;text-decoration-color:#000000;letter-spacing:normal;word-spacing:normal;text-transform:none;writing-mode:lr-tb;direction:ltr;baseline-shift:baseline;text-anchor:start;white-space:normal;clip-rule:nonzero;display:inline;overflow:visible;visibility:visible;opacity:1;isolation:auto;mix-blend-mode:normal;color-interpolation:sRGB;color-interpolation-filters:linearRGB;solid-color:#000000;solid-opacity:1;fill:#999999;fill-opacity:1;fill-rule:evenodd;stroke:none;stroke-width:0.24908648;stroke-linecap:butt;stroke-linejoin:miter;stroke-miterlimit:4;stroke-dasharray:none;stroke-dashoffset:0;stroke-opacity:1;color-rendering:auto;image-rendering:auto;shape-rendering:auto;text-rendering:auto;enable-background:accumulate" />
  <path
     inkscape:connector-curvature="0"
     id="path4653"
     d="M 8.0368566,3.5177935 C 7.447065,3.5521997 6.9806025,4.0697062 6.4397739,4.2993859 5.840486,4.6967951 5.1102885,4.9578287 4.5910893,5.4386968 4.2411287,5.9202598 4.7491594,5.5561645 5.0316032,5.3955942 6.1212782,4.7695592 7.2109537,4.1435238 8.3006292,3.5174873 8.212898,3.5178151 8.12406,3.5170074 8.0368566,3.5178151 Z M 15.09684,5.3222417 C 15.624335,5.5555272 14.556301,5.7864932 14.354069,6.018682 12.604024,7.024708 10.854038,8.0308378 9.1039572,9.0367981 7.4791824,8.0961457 5.8543559,7.1555822 4.2295611,6.2149629 3.987116,6.6078977 4.6720682,6.6633695 4.895924,6.8885816 6.2154885,7.6525495 7.5350814,8.416468 8.8546276,9.1804671 7.2417686,10.106664 5.6290623,11.033128 4.0162625,11.959429 c -0.070921,0.607508 0.6946784,-0.230259 1.0124284,-0.294266 1.358222,-0.780237 2.7164224,-1.560511 4.0746582,-2.340724 1.7278119,1.000382 3.4556119,2.000785 5.1834739,3.001079 -2.075631,1.193203 -4.151307,2.386324 -6.2270099,3.579402 -1.347828,-0.780358 -2.6957041,-1.560635 -4.0435506,-2.340962 -0.071109,0.526123 0.6931249,0.570666 1.0104243,0.872871 0.9278306,0.537254 1.8556634,1.074504 2.7834925,1.61176 -1.2647089,0.726228 -2.5292667,1.45272 -3.7939168,2.17905 -0.070705,0.607021 0.6948337,-0.230604 1.0124813,-0.294476 1.0102058,-0.580199 2.0204004,-1.160417 3.0306129,-1.740602 1.7278619,1.000385 3.4557173,2.000776 5.1836263,3.00108 -2.075815,1.193184 -4.1517214,2.386208 -6.2276182,3.579248 -0.9996793,-0.578815 -1.9994052,-1.157551 -2.9991023,-1.736337 -0.071109,0.526123 0.6931245,0.570668 1.0104238,0.872872 0.5796814,0.335661 1.1593647,0.67132 1.7390447,1.006982 -0.9165578,0.526261 -1.8329686,1.052779 -2.7494685,1.579139 -0.070814,0.607262 0.6947693,-0.230407 1.0124742,-0.294337 0.6620086,-0.380222 1.3240037,-0.760467 1.9860201,-1.140676 1.7280106,1.000437 3.4560262,2.000868 5.1840812,3.00123 -2.07591,1.193195 -4.1519263,2.386204 -6.2279214,3.579251 C 5.3193791,29.2637 4.6678114,28.886439 4.0162625,28.509146 c -0.071222,0.526242 0.6930954,0.570752 1.0104681,0.872948 0.4873119,0.231304 0.9248866,0.462442 0.1904396,0.691612 -0.3640503,0.258606 -0.909983,0.426096 -1.1665488,0.738549 0.020831,0.449886 0.5874744,-0.229284 0.8413876,-0.264648 0.3852146,-0.15521 0.7708735,-0.571551 1.1558347,-0.574408 1.7022901,0.985549 3.404527,1.971193 5.1068503,2.956685 -0.782822,0.450052 -1.5658224,0.899796 -2.3487159,1.349725 0.7392582,0.104408 1.2783639,-0.541335 1.9169259,-0.814321 0.387932,-0.260265 0.775911,-0.54468 1.162687,-0.11212 0.591659,0.285094 1.129484,0.770614 1.755863,0.926441 0.760003,0.07598 -0.395339,-0.362482 -0.601492,-0.545999 -0.462257,-0.267601 -0.924477,-0.53526 -1.386761,-0.802813 2.075083,-1.193542 4.150095,-2.387205 6.225339,-3.580467 1.726234,0.999432 3.452499,1.998809 5.17876,2.998191 -1.117243,0.643651 -2.234345,1.287588 -3.351661,1.931088 0.739204,0.104511 1.277344,-0.542654 1.91545,-0.816099 0.561621,-0.32371 1.123416,-0.647121 1.684933,-0.971018 1.058261,0.582618 2.088546,1.269721 3.164358,1.787117 0.862397,0.103485 -0.193488,-0.30828 -0.456275,-0.50702 -0.819639,-0.474534 -1.639252,-0.949107 -2.458905,-1.423613 2.072227,-1.194528 4.144019,-2.389816 6.215151,-3.586244 1.602171,0.927772 3.204508,1.855256 4.806743,2.782916 0.233131,-0.403527 -0.449662,-0.450035 -0.668029,-0.674846 -1.296512,-0.75063 -2.593029,-1.501253 -3.889536,-2.251889 1.588116,-0.916618 3.174696,-1.835876 4.759004,-2.759048 0.07123,-0.609115 -0.692094,0.233189 -1.009097,0.299267 -1.331225,0.774714 -2.664712,1.545983 -3.998932,2.315807 -1.724151,-0.998363 -3.448457,-1.996457 -5.172682,-2.994693 2.072025,-1.194625 4.143436,-2.390309 6.214088,-3.587307 1.322135,0.765701 2.644428,1.531126 3.966623,2.296721 0.07122,-0.526242 -0.693101,-0.57074 -1.010476,-0.87293 -0.902423,-0.52244 -1.80486,-1.044851 -2.707272,-1.567308 1.240637,-0.716774 2.479611,-1.436388 3.717748,-2.157463 0.07123,-0.609115 -0.692094,0.233189 -1.009097,0.299268 -0.984853,0.572726 -1.970427,1.144627 -2.957221,1.714223 -1.723654,-0.998043 -3.447387,-1.995948 -5.171159,-2.993781 2.071235,-1.195137 4.142743,-2.390875 6.212262,-3.588221 0.975074,0.564537 1.950143,1.129079 2.925215,1.693618 0.07122,-0.526244 -0.693101,-0.570738 -1.010476,-0.872929 -0.555545,-0.321601 -1.111064,-0.643244 -1.666625,-0.964813 0.892653,-0.517948 1.785262,-1.03593 2.677101,-1.555271 0.07124,-0.60911 -0.692126,0.233133 -1.009143,0.299185 -0.638249,0.371489 -1.277668,0.741438 -1.916376,1.112417 -1.723274,-0.997843 -3.446559,-1.99567 -5.169943,-2.993324 2.070639,-1.195266 4.141616,-2.3899245 6.209679,-3.589589 0.628594,0.3639114 1.25719,0.7278186 1.885783,1.0917286 C 34.849753,8.7182347 34.085466,8.6736732 33.768105,8.3714558 33.176299,8.1408028 33.045626,7.9098641 33.709385,7.6778327 34.03088,7.4411959 34.533356,7.2952783 34.747064,7.004609 34.749464,6.5407751 34.206819,7.2105491 33.976092,7.2348508 33.592547,7.3951706 33.208912,7.8003071 32.825258,7.8256018 31.124997,6.8413521 29.424797,5.856994 27.724479,4.8728402 28.506493,4.4211414 29.288462,3.96937 30.070459,3.5176409 29.331629,3.4132585 28.794661,4.0617643 28.157183,4.3353975 27.769355,4.5966327 27.381539,4.8832571 26.99403,4.4497217 26.399293,4.1619579 25.857656,3.6764829 25.228292,3.5176409 c -0.7598,-0.07594 0.395612,0.3625403 0.601636,0.5460177 0.465806,0.2696738 0.931592,0.5393787 1.397412,0.8090295 C 25.155024,6.0683049 23.082154,7.2628399 21.009148,8.4572587 19.282352,7.4572913 17.555456,6.4574981 15.828562,5.4576996 16.9526,4.8109719 18.076689,4.1643345 19.200747,3.5176409 18.461608,3.413245 17.923062,4.0597025 17.284785,4.3328471 16.71639,4.6597579 16.148211,4.9870421 15.579688,5.3137277 14.516168,4.7279685 13.480521,4.0383461 12.399518,3.5176409 11.537124,3.414153 12.593001,3.8259323 12.855785,4.0246791 13.602803,4.4572 14.349821,4.8897208 15.09684,5.3222417 Z M 27.553749,5.06151 c 1.696717,0.9824557 3.393368,1.9650256 5.090127,2.9474108 -2.06785,1.1998041 -4.13884,2.3942212 -6.209375,3.5894362 -1.725474,-0.999213 -3.451077,-1.9982029 -5.176633,-2.9972771 2.073059,-1.194296 4.14586,-2.3889131 6.218041,-3.5847232 l 0.06733,0.039057 0.01051,0.0061 z M 15.657072,5.6463693 c 1.700818,0.984745 3.401606,1.9695428 5.102441,2.9542532 C 18.685947,9.7959331 16.610482,10.988324 14.535849,12.182002 12.808238,11.181724 11.080644,10.181417 9.3529829,9.1812273 11.428439,7.9879214 13.503871,6.7945747 15.579385,5.6013687 l 0.06735,0.039013 0.01033,0.00598 z m 5.429155,3.1433798 c 1.699854,0.984137 3.399685,1.9683149 5.099552,2.9524289 -2.072916,1.195024 -4.146044,2.389677 -6.21956,3.583659 -1.72723,-0.999842 -3.454281,-1.999996 -5.181497,-2.999863 2.074481,-1.194017 4.15005,-2.3865089 6.223666,-3.5813777 l 0.06733,0.039057 z m 5.425963,3.1415539 c 1.697417,0.982726 3.394842,1.965438 5.092254,2.948173 -2.070018,1.197244 -4.140811,2.39315 -6.212262,3.587916 -1.725735,-0.99925 -3.451517,-1.998422 -5.177393,-2.99743 2.073528,-1.194011 4.146865,-2.388354 6.21956,-3.583812 l 0.06733,0.03906 0.01051,0.0061 z m -11.898806,0.583341 c 1.701175,0.984941 3.402292,1.969984 5.103505,2.954861 -2.074861,1.193636 -4.149573,2.387535 -6.224576,3.580922 -1.727816,-1.000426 -3.455606,-2.000896 -5.1834746,-3.00123 2.0755886,-1.193239 4.1512026,-2.386433 6.2268576,-3.579554 l 0.06735,0.03901 0.01033,0.006 z m 5.430066,3.143835 c 1.699805,0.984137 3.39958,1.968322 5.099402,2.952429 -2.073596,1.194219 -4.146165,2.390242 -6.220473,3.583202 -1.727048,-0.99988 -3.4541,-1.999754 -5.181193,-2.999558 2.074867,-1.193677 4.14957,-2.38764 6.224578,-3.581074 l 0.06735,0.03902 0.01032,0.006 z m 5.426267,3.141554 c 1.697826,0.983077 3.39564,1.966173 5.093473,2.949237 -2.070607,1.196891 -4.142038,2.392351 -6.213937,3.587002 -1.725931,-0.999414 -3.451976,-1.99863 -5.178,-2.997885 2.074055,-1.192945 4.1475,-2.388257 6.220624,-3.583507 l 0.06733,0.03906 0.01051,0.0061 z m -11.900174,0.58319 c 1.701174,0.984842 3.402306,1.969759 5.103507,2.954556 -2.074952,1.193606 -4.149782,2.387425 -6.224882,3.58077 -1.727914,-1.000433 -3.4558157,-2.000883 -5.1837774,-3.00123 2.0757614,-1.193137 4.1516204,-2.386105 6.2274654,-3.579098 l 0.06735,0.03902 0.01033,0.006 z m 5.430372,3.143834 c 1.700006,0.984238 3.399988,1.968521 5.100009,2.952734 -2.073741,1.19444 -4.146467,2.390373 -6.221233,3.582898 -1.727204,-1.000026 -3.454397,-2.000073 -5.181649,-3.000016 2.07504,-1.193574 4.149989,-2.387311 6.225186,-3.580617 l 0.06735,0.03901 0.01032,0.006 z m 5.426874,3.141706 c 1.698245,0.983306 3.396368,1.966822 5.094688,2.949997 -2.07107,1.196587 -4.142868,2.391911 -6.215151,3.586395 -1.726139,-0.999608 -3.452371,-1.999056 -5.178609,-2.998493 2.074658,-1.192707 4.147637,-2.38806 6.221233,-3.583052 l 0.06733,0.03906 0.01051,0.0061 z m -11.90139,0.582429 c 1.701378,0.985044 3.4027,1.970184 5.104115,2.955164 -2.075126,1.193506 -4.150201,2.387097 -6.22549,3.580316 C 9.6759544,31.786094 7.9479126,30.78547 6.2197901,29.784985 8.2956835,28.591914 10.371725,27.399099 12.447711,26.20619 l 0.06735,0.03902 0.01033,0.006 z m 20.60315,6.548402 c -0.851442,0.494028 -1.703074,0.988412 -2.556086,1.480015 0.744881,0.09969 1.286583,-0.551901 1.930968,-0.829597 0.543764,-0.365493 1.213572,-0.599208 1.675952,-1.050714 0.369207,-0.497204 -0.146686,-0.124417 -0.431143,0.03974 -0.206563,0.120185 -0.413128,0.240372 -0.619691,0.360558 z"
     style="color:#000000;font-style:normal;font-variant:normal;font-weight:normal;font-stretch:normal;font-size:medium;line-height:normal;font-family:sans-serif;text-indent:0;text-align:start;text-decoration:none;text-decoration-line:none;text-decoration-style:solid;text-decoration-color:#000000;letter-spacing:normal;word-spacing:normal;text-transform:none;writing-mode:lr-tb;direction:ltr;baseline-shift:baseline;text-anchor:start;white-space:normal;clip-rule:nonzero;display:inline;overflow:visible;visibility:visible;opacity:1;isolation:auto;mix-blend-mode:normal;color-interpolation:sRGB;color-interpolation-filters:linearRGB;solid-color:#000000;solid-opacity:1;fill:#5d5d5d;fill-opacity:1;fill-rule:evenodd;stroke:none;stroke-width:0.24908648;stroke-linecap:butt;stroke-linejoin:miter;stroke-miterlimit:4;stroke-dasharray:none;stroke-dashoffset:0;stroke-opacity:1;color-rendering:auto;image-rendering:auto;shape-rendering:auto;text-rendering:auto;enable-background:accumulate" />
  <g
     id="g4657"
     transform="matrix(0.06453007,0,0,0.08029228,-0.36475352,37.343052)"
     style="fill:#747474;fill-opacity:1;stroke:none;stroke-width:17.30223465;stroke-linecap:butt;stroke-linejoin:round;stroke-miterlimit:4;stroke-dasharray:none;stroke-opacity:1">
    <path
       inkscape:connector-curvature="0"
       id="path4655"
       d="m 207.69922,-385.10573 c -31.24302,1.04844 -57.21052,23.82932 -72.34766,49.69922 -11.82601,20.44607 -24.63942,41.31988 -29.36328,64.70703 4.37136,12.97172 18.52724,17.9732 26.95071,27.73201 67.24099,57.96418 130.51301,122.31299 208.20845,166.658008 26.11792,13.894044 58.15146,23.720343 87.06461,12.547207 30.22192,-12.083583 48.84202,-41.126235 62.62884,-69.126915 6.46488,-12.92724 13.38069,-26.17265 15.78802,-40.51539 -4.12991,-12.30821 -17.68786,-16.87963 -25.55044,-26.24585 -67.54466,-58.33346 -131.25137,-122.80588 -209.14488,-167.67797 -19.74992,-10.45852 -41.62548,-18.17636 -64.23437,-17.77735 z"
       style="opacity:1;fill:#333333;fill-opacity:1;stroke:none;stroke-width:17.30223465;stroke-linecap:round;stroke-linejoin:round;stroke-miterlimit:4;stroke-dasharray:none;stroke-opacity:1;filter:url(#filter4330)" />
  </g>
  <path
     inkscape:connector-curvature="0"
     id="path4659"
     d="m 7.7756359,2.5523057 c -2.6066139,0 -4.7246469,2.1178821 -4.7246469,4.7244944 V 30.520411 c 0,2.606614 2.118033,4.724496 4.7246469,4.724496 H 31.019094 c 2.606614,0 4.724495,-2.117882 4.724495,-4.724496 V 7.2768001 c 0,-2.6066123 -2.117881,-4.7244944 -4.724495,-4.7244944 z m 0,1.2454326 H 31.019094 c 1.938187,0 3.479062,1.5408762 3.479062,3.4790618 V 30.520411 c 0,1.938187 -1.540875,3.479064 -3.479062,3.479064 H 7.7756359 c -1.9381865,0 -3.4792144,-1.540877 -3.4792144,-3.479064 V 7.2768001 c 0,-1.9381856 1.5410279,-3.4790618 3.4792144,-3.4790618 z"
     style="color:#000000;font-style:normal;font-variant:normal;font-weight:normal;font-stretch:normal;font-size:medium;line-height:normal;font-family:sans-serif;text-indent:0;text-align:start;text-decoration:none;text-decoration-line:none;text-decoration-style:solid;text-decoration-color:#000000;letter-spacing:normal;word-spacing:normal;text-transform:none;writing-mode:lr-tb;direction:ltr;baseline-shift:baseline;text-anchor:start;white-space:normal;clip-rule:nonzero;display:inline;overflow:visible;visibility:visible;opacity:1;isolation:auto;mix-blend-mode:normal;color-interpolation:sRGB;color-interpolation-filters:linearRGB;solid-color:#000000;solid-opacity:1;fill:#000000;fill-opacity:1;fill-rule:nonzero;stroke:none;stroke-width:1.24543238;stroke-linecap:round;stroke-linejoin:bevel;stroke-miterlimit:4;stroke-dasharray:none;stroke-dashoffset:0;stroke-opacity:1;color-rendering:auto;image-rendering:auto;shape-rendering:auto;text-rendering:auto;enable-background:accumulate" />
  <path
     inkscape:connector-curvature="0"
     id="path4661"
     d="M 30.960901,3.0092527 C 23.087353,3.0437308 15.211332,2.9937173 7.3378209,3.034185 5.0845449,3.2225433 3.244989,5.4614052 3.5292979,7.7126133 3.5182191,15.489315 3.4935723,23.267219 3.5445131,31.043188 c 0.2315246,2.226183 2.4401398,3.994725 4.6668743,3.723539 7.8021956,0.0051 15.6069866,0.04716 23.4075736,-0.02432 2.174924,-0.275296 3.897752,-2.428427 3.652,-4.6149 -0.01197,-7.82856 0.05376,-15.659123 -0.03603,-23.4864034 C 34.963125,4.6021212 33.016475,2.9483644 30.960898,3.0092527 Z M 7.7419174,3.3189382 c 7.6629026,0.037939 15.3275636,-0.017244 22.9907246,0.02833 1.052992,-0.078978 2.131234,0.2451148 2.906272,0.9755279 0.978274,0.8607181 1.473451,2.1998167 1.324677,3.4904635 -0.01801,7.7631064 0.04614,15.5280274 -0.0347,23.2899824 -0.24834,2.050343 -2.331037,3.620235 -4.368744,3.361819 -7.788899,-0.01867 -15.579615,0.04614 -23.367364,-0.03494 C 5.1423889,34.181998 3.5724136,32.099222 3.8308284,30.061527 3.8506121,22.271002 3.7826806,14.478681 3.8672728,6.6892987 4.0998879,4.8183029 5.8658791,3.3086164 7.7419174,3.3189382 Z"
     style="color:#000000;font-style:normal;font-variant:normal;font-weight:normal;font-stretch:normal;font-size:medium;line-height:normal;font-family:sans-serif;text-indent:0;text-align:start;text-decoration:none;text-decoration-line:none;text-decoration-style:solid;text-decoration-color:#000000;letter-spacing:normal;word-spacing:normal;text-transform:none;writing-mode:lr-tb;direction:ltr;baseline-shift:baseline;text-anchor:start;white-space:normal;clip-rule:nonzero;display:inline;overflow:visible;visibility:visible;opacity:1;isolation:auto;mix-blend-mode:normal;color-interpolation:sRGB;color-interpolation-filters:linearRGB;solid-color:#000000;solid-opacity:1;fill:url(#radialGradient4783);fill-opacity:1;fill-rule:nonzero;stroke:none;stroke-width:1.24543238;stroke-linecap:round;stroke-linejoin:bevel;stroke-miterlimit:4;stroke-dasharray:none;stroke-dashoffset:0;stroke-opacity:1;color-rendering:auto;image-rendering:auto;shape-rendering:auto;text-rendering:auto;enable-background:accumulate" />
  <g
     transform="matrix(0.06741101,-0.03891977,0.03891977,0.06741101,6.7458705,21.051962)"
     id="g4667"
     style="fill:#616161;fill-opacity:1;stroke-linecap:butt;stroke-linejoin:round">
    <path
       inkscape:connector-curvature="0"
       id="path4663"
       d="m 277.24805,-80.273438 c -1.48859,4.773783 3.64972,16.174464 -4,14.78711 -10.38086,0 -20.76172,0 -31.14258,0 1.16657,5.017669 -2.43997,14.808462 2,16.552734 31.14127,0 62.28255,0 93.42383,0 -20.09386,-11.601379 -40.18775,-23.202694 -60.28125,-34.804687 0,1.154948 0,2.309896 0,3.464843 z"
       style="fill:#616161;fill-opacity:1;fill-rule:evenodd;stroke:none;stroke-width:0.80000001px;stroke-linecap:butt;stroke-linejoin:miter;stroke-opacity:1;filter:url(#filter4425)" />
    <path
       inkscape:connector-curvature="0"
       id="path4665"
       d="m 243.10547,-32.142578 c 17.93877,10.35812 35.87777,20.715852 53.81641,31.0742186 -10e-6,-6.0839843 0,-12.1679686 0,-18.2519526 11.71419,0 23.42838,-10e-7 35.14257,0 -1.16656,-5.018329 2.43995,-14.80974 -2,-16.554688 -31.14062,0 -62.28125,0 -93.42187,0 2.1543,1.244141 4.30859,2.488281 6.46289,3.732422 z"
       style="fill:#616161;fill-opacity:1;fill-rule:evenodd;stroke:none;stroke-width:0.80000001px;stroke-linecap:butt;stroke-linejoin:miter;stroke-opacity:1;filter:url(#filter4433)" />
  </g>
  <g
     style="fill:#616161;fill-opacity:1;stroke-linecap:butt;stroke-linejoin:round"
     id="g4673"
     transform="matrix(-0.06741101,-0.03891977,-0.03891977,0.06741101,48.109113,28.197692)">
    <path
       style="fill:#616161;fill-opacity:1;fill-rule:evenodd;stroke:none;stroke-width:0.80000001px;stroke-linecap:butt;stroke-linejoin:miter;stroke-opacity:1;filter:url(#filter4425)"
       d="m 277.24805,-80.273438 c -1.48859,4.773783 3.64972,16.174464 -4,14.78711 -10.38086,0 -20.76172,0 -31.14258,0 1.16657,5.017669 -2.43997,14.808462 2,16.552734 31.14127,0 62.28255,0 93.42383,0 -20.09386,-11.601379 -40.18775,-23.202694 -60.28125,-34.804687 0,1.154948 0,2.309896 0,3.464843 z"
       id="path4669"
       inkscape:connector-curvature="0" />
    <path
       style="fill:#616161;fill-opacity:1;fill-rule:evenodd;stroke:none;stroke-width:0.80000001px;stroke-linecap:butt;stroke-linejoin:miter;stroke-opacity:1;filter:url(#filter4433)"
       d="m 243.10547,-32.142578 c 17.93877,10.35812 35.87777,20.715852 53.81641,31.0742186 -10e-6,-6.0839843 0,-12.1679686 0,-18.2519526 11.71419,0 23.42838,-10e-7 35.14257,0 -1.16656,-5.018329 2.43995,-14.80974 -2,-16.554688 -31.14062,0 -62.28125,0 -93.42187,0 2.1543,1.244141 4.30859,2.488281 6.46289,3.732422 z"
       id="path4671"
       inkscape:connector-curvature="0" />
  </g>
  <g
     style="fill:#616161;fill-opacity:1;stroke-linecap:butt;stroke-linejoin:round"
     id="g4679"
     transform="matrix(0.06741101,-0.03891977,0.03891977,0.06741101,-3.0376463,45.409732)">
    <path
       style="fill:#616161;fill-opacity:1;fill-rule:evenodd;stroke:none;stroke-width:0.80000001px;stroke-linecap:butt;stroke-linejoin:miter;stroke-opacity:1;filter:url(#filter4425)"
       d="m 277.24805,-80.273438 c -1.48859,4.773783 3.64972,16.174464 -4,14.78711 -10.38086,0 -20.76172,0 -31.14258,0 1.16657,5.017669 -2.43997,14.808462 2,16.552734 31.14127,0 62.28255,0 93.42383,0 -20.09386,-11.601379 -40.18775,-23.202694 -60.28125,-34.804687 0,1.154948 0,2.309896 0,3.464843 z"
       id="path4675"
       inkscape:connector-curvature="0" />
    <path
       style="fill:#616161;fill-opacity:1;fill-rule:evenodd;stroke:none;stroke-width:0.80000001px;stroke-linecap:butt;stroke-linejoin:miter;stroke-opacity:1;filter:url(#filter4433)"
       d="m 243.10547,-32.142578 c 17.93877,10.35812 35.87777,20.715852 53.81641,31.0742186 -10e-6,-6.0839843 0,-12.1679686 0,-18.2519526 11.71419,0 23.42838,-10e-7 35.14257,0 -1.16656,-5.018329 2.43995,-14.80974 -2,-16.554688 -31.14062,0 -62.28125,0 -93.42187,0 2.1543,1.244141 4.30859,2.488281 6.46289,3.732422 z"
       id="path4677"
       inkscape:connector-curvature="0" />
  </g>
  <g
     id="g4685"
     transform="matrix(-0.06741101,-0.03891977,-0.03891977,0.06741101,75.369782,91.480447)"
     style="stroke-linecap:butt;stroke-linejoin:round">
    <path
       sodipodi:nodetypes="cccccc"
       inkscape:connector-curvature="0"
       style="fill:#000000;fill-opacity:1;fill-rule:evenodd;stroke:none;stroke-width:0.80000001px;stroke-linecap:butt;stroke-linejoin:miter;stroke-opacity:1"
       d="m 1168.8438,-361.31875 v 16.7875 h -35.1422 v 12.55312 h 85.9594 z"
       id="path4681" />
    <path
       sodipodi:nodetypes="cccccc"
       id="path4683"
       d="m 1184.5188,-285.57814 v -16.7875 h 35.1422 v -12.5531 h -85.9594 z"
       style="fill:#000000;fill-opacity:1;fill-rule:evenodd;stroke:none;stroke-width:0.80000001px;stroke-linecap:butt;stroke-linejoin:miter;stroke-opacity:1"
       inkscape:connector-curvature="0" />
  </g>
  <g
     transform="matrix(-0.06741101,-0.03891977,-0.03891977,0.06741101,26.588494,38.161151)"
     id="g4691"
     style="fill:#616161;fill-opacity:1;stroke-linecap:butt;stroke-linejoin:round">
    <path
       inkscape:connector-curvature="0"
       id="path4687"
       d="m 277.24805,-80.273438 c -1.48859,4.773783 3.64972,16.174464 -4,14.78711 -10.38086,0 -20.76172,0 -31.14258,0 1.16657,5.017669 -2.43997,14.808462 2,16.552734 31.14127,0 62.28255,0 93.42383,0 -20.09386,-11.601379 -40.18775,-23.202694 -60.28125,-34.804687 0,1.154948 0,2.309896 0,3.464843 z"
       style="fill:#616161;fill-opacity:1;fill-rule:evenodd;stroke:none;stroke-width:0.80000001px;stroke-linecap:butt;stroke-linejoin:miter;stroke-opacity:1;filter:url(#filter4425)" />
    <path
       inkscape:connector-curvature="0"
       id="path4689"
       d="m 243.10547,-32.142578 c 17.93877,10.35812 35.87777,20.715852 53.81641,31.0742186 -10e-6,-6.0839843 0,-12.1679686 0,-18.2519526 11.71419,0 23.42838,-10e-7 35.14257,0 -1.16656,-5.018329 2.43995,-14.80974 -2,-16.554688 -31.14062,0 -62.28125,0 -93.42187,0 2.1543,1.244141 4.30859,2.488281 6.46289,3.732422 z"
       style="fill:#616161;fill-opacity:1;fill-rule:evenodd;stroke:none;stroke-width:0.80000001px;stroke-linecap:butt;stroke-linejoin:miter;stroke-opacity:1;filter:url(#filter4433)" />
  </g>
  <path
     style="color:#000000;font-style:normal;font-variant:normal;font-weight:normal;font-stretch:normal;font-size:medium;line-height:normal;font-family:sans-serif;text-indent:0;text-align:start;text-decoration:none;text-decoration-line:none;text-decoration-style:solid;text-decoration-color:#000000;letter-spacing:normal;word-spacing:normal;text-transform:none;writing-mode:lr-tb;direction:ltr;baseline-shift:baseline;text-anchor:start;white-space:normal;clip-rule:nonzero;display:inline;overflow:visible;visibility:visible;opacity:0.5;isolation:auto;mix-blend-mode:normal;color-interpolation:sRGB;color-interpolation-filters:linearRGB;solid-color:#000000;solid-opacity:1;fill:url(#radialGradient4785);fill-opacity:1;fill-rule:nonzero;stroke:none;stroke-width:1.24543238;stroke-linecap:round;stroke-linejoin:bevel;stroke-miterlimit:4;stroke-dasharray:none;stroke-dashoffset:0;stroke-opacity:1;color-rendering:auto;image-rendering:auto;shape-rendering:auto;text-rendering:auto;enable-background:accumulate"
     d="M 30.960901,3.0092527 C 23.087353,3.0437308 15.211332,2.9937173 7.3378209,3.034185 5.0845449,3.2225433 3.244989,5.4614052 3.5292979,7.7126133 3.5182191,15.489315 3.4935723,23.267219 3.5445131,31.043188 c 0.2315246,2.226183 2.4401398,3.994725 4.6668743,3.723539 7.8021956,0.0051 15.6069866,0.04716 23.4075736,-0.02432 2.174924,-0.275296 3.897752,-2.428427 3.652,-4.6149 -0.01197,-7.82856 0.05376,-15.659123 -0.03603,-23.4864034 C 34.963125,4.6021212 33.016475,2.9483644 30.960898,3.0092527 Z M 7.7419174,3.3189382 c 7.6629026,0.037939 15.3275636,-0.017244 22.9907246,0.02833 1.052992,-0.078978 2.131234,0.2451148 2.906272,0.9755279 0.978274,0.8607181 1.473451,2.1998167 1.324677,3.4904635 -0.01801,7.7631064 0.04614,15.5280274 -0.0347,23.2899824 -0.24834,2.050343 -2.331037,3.620235 -4.368744,3.361819 -7.788899,-0.01867 -15.579615,0.04614 -23.367364,-0.03494 C 5.1423889,34.181998 3.5724136,32.099222 3.8308284,30.061527 3.8506121,22.271002 3.7826806,14.478681 3.8672728,6.6892987 4.0998879,4.8183029 5.8658791,3.3086164 7.7419174,3.3189382 Z"
     id="path4693"
     inkscape:connector-curvature="0" />
  <path
     style="opacity:1;fill:url(#linearGradient4787);fill-opacity:1;stroke:none;stroke-width:0.62271619;stroke-linecap:round;stroke-linejoin:bevel;stroke-miterlimit:4;stroke-dasharray:none;stroke-dashoffset:0;stroke-opacity:1"
     d="M 8.0784431,3.5590906 H 30.861733 c 2.227402,0 4.020581,1.7931789 4.020581,4.020581 V 30.362962 c 0,2.227402 -1.793179,4.020581 -4.020581,4.020581 H 8.0784431 c -2.2274019,0 -4.0205811,-1.793179 -4.0205811,-4.020581 V 7.5796716 c 0,-2.2274021 1.7931792,-4.020581 4.0205811,-4.020581 z"
     id="rect4695"
     inkscape:connector-curvature="0" />
  <g
     transform="matrix(0.07783953,0,0,0.07783953,1.852567,1.3537945)"
     style="stroke-linecap:butt;stroke-linejoin:round"
     id="g4725">
    <g
       style="fill:#ffbc3b;fill-opacity:1;stroke:none;stroke-width:17.30223465;stroke-linecap:butt;stroke-linejoin:round;stroke-miterlimit:4;stroke-dasharray:none;stroke-opacity:1"
       transform="matrix(0.8290142,0,0,1.0315104,-28.48579,462.35198)"
       id="g4699">
      <path
         sodipodi:nodetypes="cccccccccccccccccccccccccccccccccccccccccccccccccccccccccccccccccccccccccccccccccccccccccccccccccccccccccccccc"
         id="path4697"
         style="opacity:1;fill:#ffbc3b;fill-opacity:1;stroke:none;stroke-width:17.30223465;stroke-linecap:round;stroke-linejoin:round;stroke-miterlimit:4;stroke-dasharray:none;stroke-opacity:1"
         d="m 495.14386,-179.30676 -0.513,1.24 -4.597,10.826 -4.264,9.525 -4.042,8.528 -3.853,7.651 -3.719,6.925 -3.613,6.29 -3.523,5.715 -3.452,5.201 -3.402,4.748 -3.357,4.324 -3.32,3.932 -3.29,3.568 -3.27,3.236 -3.268,2.933 -3.288,2.661 -3.298,2.389 -3.292,2.117 -3.317,1.875 -3.328,1.633 -3.394,1.421 -3.463,1.209 -3.539,0.998 -3.627,0.787 -3.743,0.574 -3.991,0.363 -6.151,0.091 -2.096,-0.091 -3.989,-0.333 -4.26,-0.574 -4.404,-0.817 -4.64,-1.088 -4.917,-1.391 -5.133,-1.694 -5.396,-2.026 -5.693,-2.389 -6.018,-2.782 -6.308,-3.175 -6.685,-3.629 -7.084,-4.113 -7.549,-4.656 -8.031,-5.232 -8.615,-5.897 -9.254,-6.622 -9.984,-7.439 -10.839,-8.377 -11.892,-9.495 -13.24,-10.887 -15.016,-12.67 -17.767,-15.332 -62.038,-54.885 -23.202,-20.473 -17.821,-15.483 -0.02,-0.03 4.847,-11.461 4.444,-9.949 4.169,-8.8 3.966,-7.862 3.831,-7.107 3.705,-6.411 3.609,-5.806 3.529,-5.261 3.468,-4.778 3.409,-4.3246 3.378,-3.9312 3.356,-3.5683 3.316,-3.2055 3.318,-2.903 3.307,-2.6006 3.317,-2.3285 3.31,-2.0563 3.335,-1.8144 3.345,-1.5725 3.411,-1.3608 3.481,-1.1491 3.559,-0.9375 3.649,-0.7257 3.774,-0.5141 3.471,-0.2722 1.487,-0.0605 6.219,0.0908 4.262,0.3628 4.359,0.6048 4.459,0.8468 4.677,1.1188 4.845,1.3911 5.082,1.6934 5.282,1.9959 5.603,2.3587 5.881,2.7216 6.192,3.1147 6.532,3.5381 6.897,3.9917 7.336,4.5057 7.792,5.0499 8.31,5.655 8.889,6.32 9.563,7.076 10.327,7.923 11.257,8.921 12.342,10.07 13.761,11.521 15.68,13.427 18.751,16.36 25.835,22.861 48.213,42.699 17.648,15.332 0.01,0.015 z"
         clip-path="url(#p5873ec822d-3)"
         inkscape:connector-curvature="0" />
    </g>
    <g
       id="g4703"
       transform="matrix(0.8290142,0,0,1.0315104,-28.48579,462.35198)"
       style="fill:url(#linearGradient4791);fill-opacity:1;stroke:none;stroke-width:17.30223465;stroke-linecap:butt;stroke-linejoin:round;stroke-miterlimit:4;stroke-dasharray:none;stroke-opacity:1">
      <path
         inkscape:connector-curvature="0"
         clip-path="url(#p5873ec822d-3)"
         d="m 495.14386,-179.30676 -0.513,1.24 -4.597,10.826 -4.264,9.525 -4.042,8.528 -3.853,7.651 -3.719,6.925 -3.613,6.29 -3.523,5.715 -3.452,5.201 -3.402,4.748 -3.357,4.324 -3.32,3.932 -3.29,3.568 -3.27,3.236 -3.268,2.933 -3.288,2.661 -3.298,2.389 -3.292,2.117 -3.317,1.875 -3.328,1.633 -3.394,1.421 -3.463,1.209 -3.539,0.998 -3.627,0.787 -3.743,0.574 -3.991,0.363 -6.151,0.091 -2.096,-0.091 -3.989,-0.333 -4.26,-0.574 -4.404,-0.817 -4.64,-1.088 -4.917,-1.391 -5.133,-1.694 -5.396,-2.026 -5.693,-2.389 -6.018,-2.782 -6.308,-3.175 -6.685,-3.629 -7.084,-4.113 -7.549,-4.656 -8.031,-5.232 -8.615,-5.897 -9.254,-6.622 -9.984,-7.439 -10.839,-8.377 -11.892,-9.495 -13.24,-10.887 -15.016,-12.67 -17.767,-15.332 -62.038,-54.885 -23.202,-20.473 -17.821,-15.483 -0.02,-0.03 4.847,-11.461 4.444,-9.949 4.169,-8.8 3.966,-7.862 3.831,-7.107 3.705,-6.411 3.609,-5.806 3.529,-5.261 3.468,-4.778 3.409,-4.3246 3.378,-3.9312 3.356,-3.5683 3.316,-3.2055 3.318,-2.903 3.307,-2.6006 3.317,-2.3285 3.31,-2.0563 3.335,-1.8144 3.345,-1.5725 3.411,-1.3608 3.481,-1.1491 3.559,-0.9375 3.649,-0.7257 3.774,-0.5141 3.471,-0.2722 1.487,-0.0605 6.219,0.0908 4.262,0.3628 4.359,0.6048 4.459,0.8468 4.677,1.1188 4.845,1.3911 5.082,1.6934 5.282,1.9959 5.603,2.3587 5.881,2.7216 6.192,3.1147 6.532,3.5381 6.897,3.9917 7.336,4.5057 7.792,5.0499 8.31,5.655 8.889,6.32 9.563,7.076 10.327,7.923 11.257,8.921 12.342,10.07 13.761,11.521 15.68,13.427 18.751,16.36 25.835,22.861 48.213,42.699 17.648,15.332 0.01,0.015 z"
         style="opacity:1;fill:url(#linearGradient4789);fill-opacity:1;stroke:none;stroke-width:17.30223465;stroke-linecap:round;stroke-linejoin:round;stroke-miterlimit:4;stroke-dasharray:none;stroke-opacity:1"
         id="path4701"
         sodipodi:nodetypes="cccccccccccccccccccccccccccccccccccccccccccccccccccccccccccccccccccccccccccccccccccccccccccccccccccccccccccccc" />
    </g>
    <g
       id="g4707"
       transform="matrix(0.8290142,0,0,1.0315104,-172.48579,462.35198)"
       style="fill:#105a00;fill-opacity:0;stroke:none;stroke-width:17.30223465;stroke-linecap:butt;stroke-linejoin:round;stroke-miterlimit:4;stroke-dasharray:none;stroke-opacity:1">
      <path
         inkscape:connector-curvature="0"
         clip-path="url(#p5873ec822d-3)"
         d="m 668.84413,-179.30676 -0.513,1.24 -4.597,10.826 -4.264,9.525 -4.042,8.528 -3.853,7.651 -3.719,6.925 -3.613,6.29 -3.523,5.715 -3.452,5.201 -3.402,4.748 -3.357,4.324 -3.32,3.932 -3.29,3.568 -3.27,3.236 -3.268,2.933 -3.288,2.661 -3.298,2.389 -3.292,2.117 -3.317,1.875 -3.328,1.633 -3.394,1.421 -3.463,1.209 -3.539,0.998 -3.627,0.787 -3.743,0.574 -3.991,0.363 -6.151,0.091 -2.096,-0.091 -3.989,-0.333 -4.26,-0.574 -4.404,-0.817 -4.64,-1.088 -4.917,-1.391 -5.133,-1.694 -5.396,-2.026 -5.693,-2.389 -6.018,-2.782 -6.308,-3.175 -6.685,-3.629 -7.084,-4.113 -7.549,-4.656 -8.031,-5.232 -8.615,-5.897 -9.254,-6.622 -9.984,-7.439 -10.839,-8.377 -11.892,-9.495 -13.24,-10.887 -15.016,-12.67 -17.767,-15.332 -62.038,-54.885 -23.202,-20.473 -17.821,-15.483 -0.02,-0.03 4.847,-11.461 4.444,-9.949 4.169,-8.8 3.966,-7.862 3.831,-7.107 3.705,-6.411 3.609,-5.806 3.529,-5.261 3.468,-4.778 3.409,-4.3246 3.378,-3.9312 3.356,-3.5683 3.316,-3.2055 3.318,-2.903 3.307,-2.6006 3.317,-2.3285 3.31,-2.0563 3.335,-1.8144 3.345,-1.5725 3.411,-1.3608 3.481,-1.1491 3.559,-0.9375 3.649,-0.7257 3.774,-0.5141 3.471,-0.2722 1.487,-0.0605 6.219,0.0908 4.262,0.3628 4.359,0.6048 4.459,0.8468 4.677,1.1188 4.845,1.3911 5.082,1.6934 5.282,1.9959 5.603,2.3587 5.881,2.7216 6.192,3.1147 6.532,3.5381 6.897,3.9917 7.336,4.5057 7.792,5.0499 8.31,5.655 8.889,6.32 9.563,7.076 10.327,7.923 11.257,8.921 12.342,10.07 13.761,11.521 15.68,13.427 18.751,16.36 25.835,22.861 48.213,42.699 17.648,15.332 0.01,0.015 z"
         style="opacity:1;fill:#105a00;fill-opacity:0;stroke:none;stroke-width:17.30223465;stroke-linecap:round;stroke-linejoin:round;stroke-miterlimit:4;stroke-dasharray:none;stroke-opacity:1"
         id="path4705"
         sodipodi:nodetypes="cccccccccccccccccccccccccccccccccccccccccccccccccccccccccccccccccccccccccccccccccccccccccccccccccccccccccccccc" />
    </g>
    <g
       id="g4711"
       transform="matrix(0.8290142,0,0,1.0315104,-28.48579,462.35198)"
       style="fill:url(#linearGradient4795);fill-opacity:1;stroke:none;stroke-width:17.30223465;stroke-linecap:butt;stroke-linejoin:round;stroke-miterlimit:4;stroke-dasharray:none;stroke-opacity:1">
      <path
         style="opacity:1;fill:url(#linearGradient4793);fill-opacity:1;stroke:none;stroke-width:17.30223465;stroke-linecap:round;stroke-linejoin:round;stroke-miterlimit:4;stroke-dasharray:none;stroke-opacity:1"
         d="m 207.50391,-364.76562 c -23.68658,1.93761 -40.48655,21.95735 -51.46541,41.32561 -7.44828,12.43672 -13.63907,25.53404 -19.3842,38.80329 31.17537,-4.50239 78.52078,-20.93083 134.23799,19.58609 55.71721,40.51691 75.97387,63.33274 112.69564,75.09587 36.72177,11.76313 55.26737,19.4332 91.46691,14.47626 -71.15092,-60.6148 -136.96402,-129.14511 -218.52535,-176.07036 -15.14321,-7.75016 -31.79799,-13.65826 -49.02558,-13.21676 z"
         id="path4709"
         inkscape:connector-curvature="0"
         sodipodi:nodetypes="ccczzccc" />
    </g>
    <g
       id="g4715"
       transform="matrix(0.8290142,0,0,1.0315104,-28.48579,462.35198)"
       style="fill:none;fill-opacity:1;stroke:#000000;stroke-width:17.30223465;stroke-linecap:butt;stroke-linejoin:round;stroke-miterlimit:4;stroke-dasharray:none;stroke-opacity:1">
      <path
         inkscape:connector-curvature="0"
         id="path4713"
         clip-path="url(#p5873ec822d-3)"
         d="m 209.25586,-389.53711 a 8.6519824,8.6519824 0 0 0 -0.47852,0.006 l -1.48632,0.0605 a 8.6519824,8.6519824 0 0 0 -0.32422,0.0195 l -3.47071,0.27344 a 8.6519824,8.6519824 0 0 0 -0.49218,0.0527 l -3.77344,0.51367 a 8.6519824,8.6519824 0 0 0 -0.51953,0.0859 l -3.65039,0.72656 a 8.6519824,8.6519824 0 0 0 -0.51563,0.11914 l -3.55859,0.9375 a 8.6519824,8.6519824 0 0 0 -0.50781,0.15039 l -3.48243,1.14844 a 8.6519824,8.6519824 0 0 0 -0.49218,0.17969 l -3.41211,1.36133 a 8.6519824,8.6519824 0 0 0 -0.47461,0.20703 l -3.34571,1.57226 a 8.6519824,8.6519824 0 0 0 -0.45312,0.23047 l -3.33398,1.81446 a 8.6519824,8.6519824 0 0 0 -0.43165,0.25 l -3.31054,2.05664 a 8.6519824,8.6519824 0 0 0 -0.4043,0.26757 l -3.31836,2.32813 a 8.6519824,8.6519824 0 0 0 -0.37695,0.28125 l -3.30664,2.59961 a 8.6519824,8.6519824 0 0 0 -0.34766,0.28906 l -3.31836,2.9043 a 8.6519824,8.6519824 0 0 0 -0.3164,0.29101 l -3.31641,3.20508 a 8.6519824,8.6519824 0 0 0 -0.28906,0.29297 l -3.35547,3.56836 a 8.6519824,8.6519824 0 0 0 -0.25977,0.28906 l -3.3789,3.92969 a 8.6519824,8.6519824 0 0 0 -0.23243,0.2832 l -3.4082,4.32422 a 8.6519824,8.6519824 0 0 0 -0.20703,0.27539 l -3.46875,4.77735 a 8.6519824,8.6519824 0 0 0 -0.18359,0.26171 l -3.5293,5.26172 a 8.6519824,8.6519824 0 0 0 -0.16211,0.25196 l -3.60938,5.80664 a 8.6519824,8.6519824 0 0 0 -0.14257,0.23828 l -3.70508,6.41015 a 8.6519824,8.6519824 0 0 0 -0.125,0.22461 l -3.83008,7.10743 a 8.6519824,8.6519824 0 0 0 -0.10937,0.20703 l -3.9668,7.86328 a 8.6519824,8.6519824 0 0 0 -0.0937,0.1914 l -4.16797,8.80079 a 8.6519824,8.6519824 0 0 0 -0.082,0.17578 l -4.44336,9.94922 a 8.6519824,8.6519824 0 0 0 -0.0684,0.1582 l -4.84766,11.46094 a 8.6519824,8.6519824 0 0 0 0.76953,8.16797 l 0.0195,0.0293 a 8.6519824,8.6519824 0 0 0 1.52539,1.73242 l 17.79492,15.46094 23.17383,20.44727 62.0332,54.88086 a 8.6519824,8.6519824 0 0 0 0.0801,0.0703 l 17.76758,15.33203 a 8.6519824,8.6519824 0 0 0 0.0723,0.0625 l 15.01563,12.66992 a 8.6519824,8.6519824 0 0 0 0.0859,0.0703 l 13.24024,10.88672 a 8.6519824,8.6519824 0 0 0 0.0957,0.0801 l 11.89258,9.49414 a 8.6519824,8.6519824 0 0 0 0.10742,0.084 l 10.83789,8.37695 a 8.6519824,8.6519824 0 0 0 0.12305,0.0937 l 9.98242,7.4375 a 8.6519824,8.6519824 0 0 0 0.13477,0.0996 l 9.2539,6.62109 a 8.6519824,8.6519824 0 0 0 0.14844,0.10352 l 8.61523,5.89648 a 8.6519824,8.6519824 0 0 0 0.16407,0.10938 l 8.03125,5.23242 a 8.6519824,8.6519824 0 0 0 0.17968,0.115234 l 7.55079,4.65625 a 8.6519824,8.6519824 0 0 0 0.19726,0.117187 l 7.08399,4.113281 a 8.6519824,8.6519824 0 0 0 0.21679,0.121094 l 6.6836,3.63086 a 8.6519824,8.6519824 0 0 0 0.23828,0.123046 l 6.30859,3.175782 a 8.6519824,8.6519824 0 0 0 0.25977,0.125 l 6.01758,2.78125 a 8.6519824,8.6519824 0 0 0 0.28125,0.125 l 5.69336,2.388672 a 8.6519824,8.6519824 0 0 0 0.30664,0.123046 l 5.39648,2.025391 a 8.6519824,8.6519824 0 0 0 0.33008,0.115235 l 5.13281,1.695312 a 8.6519824,8.6519824 0 0 0 0.35547,0.109375 l 4.91797,1.390625 a 8.6519824,8.6519824 0 0 0 0.3789,0.09766 l 4.64063,1.087891 a 8.6519824,8.6519824 0 0 0 0.39648,0.08398 l 4.4043,0.816407 a 8.6519824,8.6519824 0 0 0 0.42383,0.06836 l 4.25976,0.574219 a 8.6519824,8.6519824 0 0 0 0.43555,0.04687 l 3.98828,0.332031 a 8.6519824,8.6519824 0 0 0 0.34375,0.02344 l 2.09766,0.08984 a 8.6519824,8.6519824 0 0 0 0.50195,0.0078 l 6.15235,-0.0918 a 8.6519824,8.6519824 0 0 0 0.65429,-0.0332 l 3.99219,-0.363282 a 8.6519824,8.6519824 0 0 0 0.52734,-0.06445 l 3.74219,-0.574219 a 8.6519824,8.6519824 0 0 0 0.52344,-0.09766 l 3.62695,-0.787109 a 8.6519824,8.6519824 0 0 0 0.51367,-0.126953 l 3.53907,-0.998047 a 8.6519824,8.6519824 0 0 0 0.5039,-0.158203 l 3.46289,-1.208985 a 8.6519824,8.6519824 0 0 0 0.48828,-0.1875 l 3.39454,-1.421875 a 8.6519824,8.6519824 0 0 0 0.4707,-0.21289 l 3.32812,-1.632813 a 8.6519824,8.6519824 0 0 0 0.44532,-0.236328 l 3.3164,-1.875 a 8.6519824,8.6519824 0 0 0 0.42383,-0.253906 l 3.29102,-2.117188 a 8.6519824,8.6519824 0 0 0 0.39648,-0.271484 l 3.29688,-2.388672 a 8.6519824,8.6519824 0 0 0 0.36718,-0.28125 l 3.28907,-2.660156 a 8.6519824,8.6519824 0 0 0 0.33593,-0.287109 l 3.26758,-2.933594 a 8.6519824,8.6519824 0 0 0 0.30664,-0.289063 l 3.26953,-3.236328 a 8.6519824,8.6519824 0 0 0 0.27539,-0.283203 l 3.29102,-3.568359 a 8.6519824,8.6519824 0 0 0 0.25,-0.283203 l 3.31836,-3.931639 a 8.6519824,8.6519824 0 0 0 0.22461,-0.27735 L 467,-107.35156 a 8.6519824,8.6519824 0 0 0 0.19727,-0.26758 l 3.40234,-4.74805 a 8.6519824,8.6519824 0 0 0 0.17578,-0.2539 l 3.45313,-5.20118 a 8.6519824,8.6519824 0 0 0 0.15625,-0.24414 l 3.52148,-5.71484 a 8.6519824,8.6519824 0 0 0 0.13867,-0.23242 l 3.61328,-6.28906 a 8.6519824,8.6519824 0 0 0 0.11914,-0.2168 l 3.71875,-6.92383 a 8.6519824,8.6519824 0 0 0 0.10547,-0.20312 l 3.85352,-7.6504 a 8.6519824,8.6519824 0 0 0 0.0898,-0.18554 l 4.04297,-8.52735 a 8.6519824,8.6519824 0 0 0 0.0781,-0.17187 l 4.26367,-9.52344 a 8.6519824,8.6519824 0 0 0 0.0664,-0.1543 l 4.59766,-10.82617 a 8.6519824,8.6519824 0 0 0 0.0312,-0.0742 L 503.13867,-176 a 8.6519824,8.6519824 0 0 0 -0.79687,-8.10547 l -0.01,-0.0156 -0.01,-0.0137 a 8.6519824,8.6519824 0 0 0 -1.52539,-1.73242 l -17.61524,-15.30469 -48.18359,-42.67187 a 8.6519824,8.6519824 0 0 0 -0.002,-0.002 l -25.83593,-22.86133 a 8.6519824,8.6519824 0 0 0 -0.0449,-0.041 l -18.75,-16.35937 a 8.6519824,8.6519824 0 0 0 -0.0605,-0.0527 l -15.68164,-13.42578 a 8.6519824,8.6519824 0 0 0 -0.0723,-0.0625 l -13.76172,-11.52148 a 8.6519824,8.6519824 0 0 0 -0.084,-0.0703 l -12.3418,-10.07032 a 8.6519824,8.6519824 0 0 0 -0.0957,-0.0762 l -11.25781,-8.92187 a 8.6519824,8.6519824 0 0 0 -0.10743,-0.082 l -10.32617,-7.92383 a 8.6519824,8.6519824 0 0 0 -0.12109,-0.0898 l -9.5625,-7.07617 a 8.6519824,8.6519824 0 0 0 -0.13281,-0.0976 l -8.88868,-6.31836 a 8.6519824,8.6519824 0 0 0 -0.14648,-0.10157 l -8.31055,-5.65625 a 8.6519824,8.6519824 0 0 0 -0.16211,-0.10742 l -7.79101,-5.04883 a 8.6519824,8.6519824 0 0 0 -0.17774,-0.11328 l -7.33593,-4.50586 a 8.6519824,8.6519824 0 0 0 -0.19336,-0.11523 l -6.89844,-3.99219 a 8.6519824,8.6519824 0 0 0 -0.21289,-0.11914 l -6.53125,-3.53711 a 8.6519824,8.6519824 0 0 0 -0.23242,-0.12305 l -6.19336,-3.11328 a 8.6519824,8.6519824 0 0 0 -0.25391,-0.12304 l -5.88086,-2.72266 a 8.6519824,8.6519824 0 0 0 -0.27539,-0.12109 l -5.60351,-2.35938 a 8.6519824,8.6519824 0 0 0 -0.29883,-0.11914 l -5.28321,-1.99609 a 8.6519824,8.6519824 0 0 0 -0.32226,-0.11524 l -5.08203,-1.69336 a 8.6519824,8.6519824 0 0 0 -0.34766,-0.10742 l -4.84375,-1.39062 a 8.6519824,8.6519824 0 0 0 -0.375,-0.0977 l -4.67773,-1.11914 a 8.6519824,8.6519824 0 0 0 -0.39844,-0.0859 l -4.45899,-0.84765 a 8.6519824,8.6519824 0 0 0 -0.42578,-0.0684 l -4.35937,-0.60547 a 8.6519824,8.6519824 0 0 0 -0.45508,-0.0508 l -4.26172,-0.36329 a 8.6519824,8.6519824 0 0 0 -0.60742,-0.0293 l -6.21875,-0.0918 z m -0.0137,17.30469 5.67578,0.082 3.73047,0.31836 3.91992,0.54297 4.04687,0.76953 4.28907,1.02539 4.48437,1.28711 4.7461,1.58203 4.97265,1.87891 5.31446,2.23828 5.61523,2.59765 5.94922,2.99219 6.30859,3.41797 6.69336,3.87305 7.15039,4.39257 7.62305,4.93946 8.15625,5.55078 8.75,6.2207 9.43555,6.98242 10.21289,7.83594 11.15625,8.83985 12.25195,9.99609 13.68164,11.45508 15.61328,13.37109 18.69727,16.3125 25.8125,22.83985 48.21093,42.69921 a 8.6519824,8.6519824 0 0 0 0.0625,0.0527 l 12.93555,11.23633 -2.63476,6.20312 -4.19141,9.36328 -3.95703,8.34961 -3.75586,7.45703 -3.60742,6.71485 -3.48438,6.0664 -3.375,5.47852 -3.28711,4.95117 -3.21484,4.48633 -3.14649,4.05273 -3.08398,3.65235 -3.02734,3.2832 -2.97852,2.94922 -2.94726,2.64453 -2.93555,2.375 -2.91797,2.113281 -2.88281,1.853516 -2.88282,1.630859 -2.86914,1.408203 -2.91406,1.21875 -2.9668,1.035157 -3.02929,0.855468 -3.10742,0.673828 -3.2168,0.494141 -3.40039,0.308594 -5.57031,0.08203 -1.67188,-0.07227 -3.59961,-0.300781 -3.83008,-0.515625 -3.99414,-0.740234 -4.25,-0.998047 -4.54883,-1.287109 -4.79101,-1.580078 -5.07813,-1.90625 -5.39843,-2.265626 -5.7461,-2.65625 -6.06054,-3.050787 -6.45704,-3.50586 -6.87695,-3.99219 -7.36133,-4.53906 -7.85742,-5.11914 -8.45898,-5.79101 -9.11328,-6.52149 -9.85547,-7.34375 -10.72461,-8.28906 -11.79102,-9.41211 -13.14844,-10.8125 -14.9375,-12.60352 -17.6914,-15.26562 -61.99805,-54.85156 a 8.6519824,8.6519824 0 0 0 -0.008,-0.006 l -23.20117,-20.47461 a 8.6519824,8.6519824 0 0 0 -0.0508,-0.043 l -13.10547,-11.38672 2.37109,-5.60742 4.37109,-9.78125 4.08008,-8.61524 3.86524,-7.66211 3.71484,-6.89062 3.57031,-6.17969 3.45703,-5.56054 3.35547,-5.00391 3.27344,-4.50977 3.18945,-4.04492 3.13282,-3.64453 3.08203,-3.27734 3.01367,-2.91407 2.98437,-2.61132 2.94532,-2.31446 2.92578,-2.05468 2.89062,-1.79688 2.89258,-1.57422 2.88086,-1.35351 2.92578,-1.16797 2.98047,-0.98242 3.04492,-0.80274 3.13086,-0.62305 3.26758,-0.44531 3.0625,-0.24023 1.08594,-0.043 z"
         style="color:#000000;font-style:normal;font-variant:normal;font-weight:normal;font-stretch:normal;font-size:medium;line-height:normal;font-family:sans-serif;text-indent:0;text-align:start;text-decoration:none;text-decoration-line:none;text-decoration-style:solid;text-decoration-color:#000000;letter-spacing:normal;word-spacing:normal;text-transform:none;writing-mode:lr-tb;direction:ltr;baseline-shift:baseline;text-anchor:start;white-space:normal;clip-rule:nonzero;display:inline;overflow:visible;visibility:visible;opacity:1;isolation:auto;mix-blend-mode:normal;color-interpolation:sRGB;color-interpolation-filters:linearRGB;solid-color:#000000;solid-opacity:1;fill:#000000;fill-opacity:1;fill-rule:nonzero;stroke:none;stroke-width:17.30223465;stroke-linecap:round;stroke-linejoin:round;stroke-miterlimit:4;stroke-dasharray:none;stroke-dashoffset:0;stroke-opacity:1;color-rendering:auto;image-rendering:auto;shape-rendering:auto;text-rendering:auto;enable-background:accumulate" />
    </g>
    <g
       style="fill:#ffffff;fill-opacity:1;stroke:none;stroke-width:17.30223465;stroke-linecap:butt;stroke-linejoin:round;stroke-miterlimit:4;stroke-dasharray:none;stroke-opacity:1"
       transform="matrix(0.8290142,0,0,1.0315104,-28.48579,462.35198)"
       id="g4719">
      <path
         style="color:#000000;font-style:normal;font-variant:normal;font-weight:normal;font-stretch:normal;font-size:medium;line-height:normal;font-family:sans-serif;text-indent:0;text-align:start;text-decoration:none;text-decoration-line:none;text-decoration-style:solid;text-decoration-color:#000000;letter-spacing:normal;word-spacing:normal;text-transform:none;writing-mode:lr-tb;direction:ltr;baseline-shift:baseline;text-anchor:start;white-space:normal;clip-rule:nonzero;display:inline;overflow:visible;visibility:visible;opacity:1;isolation:auto;mix-blend-mode:normal;color-interpolation:sRGB;color-interpolation-filters:linearRGB;solid-color:#000000;solid-opacity:1;fill:url(#radialGradient4797);fill-opacity:1;fill-rule:nonzero;stroke:none;stroke-width:17.30223465;stroke-linecap:round;stroke-linejoin:round;stroke-miterlimit:4;stroke-dasharray:none;stroke-dashoffset:0;stroke-opacity:1;color-rendering:auto;image-rendering:auto;shape-rendering:auto;text-rendering:auto;enable-background:accumulate"
         d="m 207.66016,-383.50781 c -27.62454,0.93696 -50.16522,21.79245 -63.67188,44.21655 -11.86365,18.64171 -21.6594,38.61127 -29.01367,59.45142 3.72263,6.90428 11.87754,9.70526 16.73909,15.69702 65.27335,56.01614 126.52343,117.64297 199.48942,163.70141 23.99757,14.354847 51.27637,27.256819 79.82813,23.955082 23.8851,-3.542152 43.12994,-21.048596 55.63672,-40.923832 12.91658,-19.28661 23.25832,-40.67193 30.68945,-62.39453 -3.73372,-6.82596 -11.84429,-9.5251 -16.61162,-15.52831 -64.30506,-55.41684 -125.01098,-115.89528 -196.68525,-161.94044 -23.03852,-14.29828 -48.76285,-26.76131 -76.40039,-26.23437 z m 3.21484,5.24219 c 36.54772,1.3543 67.82984,23.0773 96.82812,43.17773 64.03559,46.87966 121.28214,102.11782 181.10352,154.0332 4.49686,7.03234 -3.23431,14.24554 -4.97066,20.87883 -12.23945,27.08961 -27.19841,55.43726 -53.21684,71.586016 -21.47319,11.820342 -47.92567,7.975796 -69.20656,-2.270148 -42.5833,-18.587318 -78.02456,-49.507718 -113.71634,-78.545948 -42.1231,-35.72715 -83.01949,-72.97187 -124.44624,-109.41828 -3.24306,-9.01587 4.90977,-16.42409 7.26146,-24.58321 12.80005,-26.8818 28.13551,-55.83676 55.98073,-69.65116 7.64026,-3.43071 16.01464,-5.16798 24.38281,-5.20703 z"
         id="path4717"
         inkscape:connector-curvature="0" />
    </g>
    <g
       id="g4723"
       transform="matrix(0.8290142,0,0,1.0315104,-28.48579,462.35198)"
       style="opacity:0.5;fill:#ffffff;fill-opacity:1;stroke:none;stroke-width:17.30223465;stroke-linecap:butt;stroke-linejoin:round;stroke-miterlimit:4;stroke-dasharray:none;stroke-opacity:1">
      <path
         inkscape:connector-curvature="0"
         id="path4721"
         d="m 207.66016,-383.50781 c -27.62454,0.93696 -50.16522,21.79245 -63.67188,44.21655 -11.86365,18.64171 -21.6594,38.61127 -29.01367,59.45142 3.72263,6.90428 11.87754,9.70526 16.73909,15.69702 65.27335,56.01614 126.52343,117.64297 199.48942,163.70141 23.99757,14.354847 51.27637,27.256819 79.82813,23.955082 23.8851,-3.542152 43.12994,-21.048596 55.63672,-40.923832 12.91658,-19.28661 23.25832,-40.67193 30.68945,-62.39453 -3.73372,-6.82596 -11.84429,-9.5251 -16.61162,-15.52831 -64.30506,-55.41684 -125.01098,-115.89528 -196.68525,-161.94044 -23.03852,-14.29828 -48.76285,-26.76131 -76.40039,-26.23437 z m 3.21484,5.24219 c 36.54772,1.3543 67.82984,23.0773 96.82812,43.17773 64.03559,46.87966 121.28214,102.11782 181.10352,154.0332 4.49686,7.03234 -3.23431,14.24554 -4.97066,20.87883 -12.23945,27.08961 -27.19841,55.43726 -53.21684,71.586016 -21.47319,11.820342 -47.92567,7.975796 -69.20656,-2.270148 -42.5833,-18.587318 -78.02456,-49.507718 -113.71634,-78.545948 -42.1231,-35.72715 -83.01949,-72.97187 -124.44624,-109.41828 -3.24306,-9.01587 4.90977,-16.42409 7.26146,-24.58321 12.80005,-26.8818 28.13551,-55.83676 55.98073,-69.65116 7.64026,-3.43071 16.01464,-5.16798 24.38281,-5.20703 z"
         style="color:#000000;font-style:normal;font-variant:normal;font-weight:normal;font-stretch:normal;font-size:medium;line-height:normal;font-family:sans-serif;text-indent:0;text-align:start;text-decoration:none;text-decoration-line:none;text-decoration-style:solid;text-decoration-color:#000000;letter-spacing:normal;word-spacing:normal;text-transform:none;writing-mode:lr-tb;direction:ltr;baseline-shift:baseline;text-anchor:start;white-space:normal;clip-rule:nonzero;display:inline;overflow:visible;visibility:visible;opacity:0.328;isolation:auto;mix-blend-mode:normal;color-interpolation:sRGB;color-interpolation-filters:linearRGB;solid-color:#000000;solid-opacity:1;fill:url(#radialGradient4799);fill-opacity:1;fill-rule:nonzero;stroke:none;stroke-width:17.30223465;stroke-linecap:round;stroke-linejoin:round;stroke-miterlimit:4;stroke-dasharray:none;stroke-dashoffset:0;stroke-opacity:1;color-rendering:auto;image-rendering:auto;shape-rendering:auto;text-rendering:auto;enable-background:accumulate" />
    </g>
  </g>
  <g
     id="g4737"
     transform="matrix(-0.06741101,-0.03891977,-0.03891977,0.06741101,26.339362,37.912059)"
     style="stroke-linecap:butt;stroke-linejoin:round">
    <g
       id="g4731"
       style="stroke-linecap:butt;stroke-linejoin:round">
      <path
         id="path4727"
         d="m 279.24714,-80.27421 v 16.7875 h -35.1422 v 12.55312 h 85.9594 z"
         style="fill:#000000;fill-opacity:1;fill-rule:evenodd;stroke:none;stroke-width:0.80000001px;stroke-linecap:butt;stroke-linejoin:miter;stroke-opacity:1"
         inkscape:connector-curvature="0"
         sodipodi:nodetypes="cccccc" />
      <path
         inkscape:connector-curvature="0"
         style="fill:#000000;fill-opacity:1;fill-rule:evenodd;stroke:none;stroke-width:0.80000001px;stroke-linecap:butt;stroke-linejoin:miter;stroke-opacity:1"
         d="m 294.92214,-4.5336 v -16.7875 h 35.1422 v -12.5531 h -85.9594 z"
         id="path4729"
         sodipodi:nodetypes="cccccc" />
    </g>
    <path
       id="path4733"
       d="m 284.04714,-72.27421 v 13.5875 h -35.1422 v 2.95312 h 38.1797 l -0.0551,-11.2 20.34457,11.2 h 5.0902 z"
       style="fill:url(#linearGradient4801);fill-opacity:1;fill-rule:evenodd;stroke:none;stroke-width:0.80000001px;stroke-linecap:butt;stroke-linejoin:miter;stroke-opacity:1"
       inkscape:connector-curvature="0"
       sodipodi:nodetypes="ccccccccc" />
    <path
       sodipodi:nodetypes="cccccc"
       inkscape:connector-curvature="0"
       style="fill:url(#linearGradient4803);fill-opacity:1;fill-rule:evenodd;stroke:none;stroke-width:0.80000001px;stroke-linecap:butt;stroke-linejoin:miter;stroke-opacity:1"
       d="m 267.72214,-26.12109 h 57.5422 v -2.95312 h -63.5594 l 3.55215,2.067577 z"
       id="path4735" />
  </g>
  <g
     style="stroke-linecap:butt;stroke-linejoin:round"
     transform="matrix(0.06741101,-0.03891977,0.03891977,0.06741101,-3.2866874,45.160639)"
     id="g4749">
    <g
       style="stroke-linecap:butt;stroke-linejoin:round"
       id="g4743">
      <path
         sodipodi:nodetypes="cccccc"
         inkscape:connector-curvature="0"
         style="fill:#000000;fill-opacity:1;fill-rule:evenodd;stroke:none;stroke-width:0.80000001px;stroke-linecap:butt;stroke-linejoin:miter;stroke-opacity:1"
         d="m 279.24714,-80.27421 v 16.7875 h -35.1422 v 12.55312 h 85.9594 z"
         id="path4739" />
      <path
         sodipodi:nodetypes="cccccc"
         id="path4741"
         d="m 294.92214,-4.5336 v -16.7875 h 35.1422 v -12.5531 h -85.9594 z"
         style="fill:#000000;fill-opacity:1;fill-rule:evenodd;stroke:none;stroke-width:0.80000001px;stroke-linecap:butt;stroke-linejoin:miter;stroke-opacity:1"
         inkscape:connector-curvature="0" />
    </g>
    <path
       sodipodi:nodetypes="ccccccccc"
       inkscape:connector-curvature="0"
       style="fill:url(#linearGradient4805);fill-opacity:1;fill-rule:evenodd;stroke:none;stroke-width:0.80000001px;stroke-linecap:butt;stroke-linejoin:miter;stroke-opacity:1"
       d="m 284.04714,-72.27421 v 13.5875 h -35.1422 v 2.95312 h 38.1797 l -0.0551,-11.2 20.34457,11.2 h 5.0902 z"
       id="path4745" />
    <path
       id="path4747"
       d="m 267.72214,-26.12109 h 57.5422 v -2.95312 h -63.5594 l 3.55215,2.067577 z"
       style="fill:url(#linearGradient4807);fill-opacity:1;fill-rule:evenodd;stroke:none;stroke-width:0.80000001px;stroke-linecap:butt;stroke-linejoin:miter;stroke-opacity:1"
       inkscape:connector-curvature="0"
       sodipodi:nodetypes="cccccc" />
  </g>
  <g
     id="g4761"
     transform="matrix(0.06741101,-0.03891977,0.03891977,0.06741101,6.4967838,20.802877)"
     style="stroke-linecap:butt;stroke-linejoin:round">
    <g
       id="g4755"
       style="stroke-linecap:butt;stroke-linejoin:round">
      <path
         id="path4751"
         d="m 279.24714,-80.27421 v 16.7875 h -35.1422 v 12.55312 h 85.9594 z"
         style="fill:#000000;fill-opacity:1;fill-rule:evenodd;stroke:none;stroke-width:0.80000001px;stroke-linecap:butt;stroke-linejoin:miter;stroke-opacity:1"
         inkscape:connector-curvature="0"
         sodipodi:nodetypes="cccccc" />
      <path
         inkscape:connector-curvature="0"
         style="fill:#000000;fill-opacity:1;fill-rule:evenodd;stroke:none;stroke-width:0.80000001px;stroke-linecap:butt;stroke-linejoin:miter;stroke-opacity:1"
         d="m 294.92214,-4.5336 v -16.7875 h 35.1422 v -12.5531 h -85.9594 z"
         id="path4753"
         sodipodi:nodetypes="cccccc" />
    </g>
    <path
       id="path4757"
       d="m 284.04714,-72.27421 v 13.5875 h -35.1422 v 2.95312 h 38.1797 l -0.0551,-11.2 20.34457,11.2 h 5.0902 z"
       style="fill:url(#linearGradient4809);fill-opacity:1;fill-rule:evenodd;stroke:none;stroke-width:0.80000001px;stroke-linecap:butt;stroke-linejoin:miter;stroke-opacity:1"
       inkscape:connector-curvature="0"
       sodipodi:nodetypes="ccccccccc" />
    <path
       sodipodi:nodetypes="cccccc"
       inkscape:connector-curvature="0"
       style="fill:url(#linearGradient4811);fill-opacity:1;fill-rule:evenodd;stroke:none;stroke-width:0.80000001px;stroke-linecap:butt;stroke-linejoin:miter;stroke-opacity:1"
       d="m 267.72214,-26.12109 h 57.5422 v -2.95312 h -63.5594 l 3.55215,2.067577 z"
       id="path4759" />
  </g>
  <g
     style="stroke-linecap:butt;stroke-linejoin:round"
     transform="matrix(-0.06741101,-0.03891977,-0.03891977,0.06741101,47.859981,27.9486)"
     id="g4773">
    <g
       style="stroke-linecap:butt;stroke-linejoin:round"
       id="g4767">
      <path
         sodipodi:nodetypes="cccccc"
         inkscape:connector-curvature="0"
         style="fill:#000000;fill-opacity:1;fill-rule:evenodd;stroke:none;stroke-width:0.80000001px;stroke-linecap:butt;stroke-linejoin:miter;stroke-opacity:1"
         d="m 279.24714,-80.27421 v 16.7875 h -35.1422 v 12.55312 h 85.9594 z"
         id="path4763" />
      <path
         sodipodi:nodetypes="cccccc"
         id="path4765"
         d="m 294.92214,-4.5336 v -16.7875 h 35.1422 v -12.5531 h -85.9594 z"
         style="fill:#000000;fill-opacity:1;fill-rule:evenodd;stroke:none;stroke-width:0.80000001px;stroke-linecap:butt;stroke-linejoin:miter;stroke-opacity:1"
         inkscape:connector-curvature="0" />
    </g>
    <path
       sodipodi:nodetypes="ccccccccc"
       inkscape:connector-curvature="0"
       style="fill:url(#linearGradient4813);fill-opacity:1;fill-rule:evenodd;stroke:none;stroke-width:0.80000001px;stroke-linecap:butt;stroke-linejoin:miter;stroke-opacity:1"
       d="m 284.04714,-72.27421 v 13.5875 h -35.1422 v 2.95312 h 38.1797 l -0.0551,-11.2 20.34457,11.2 h 5.0902 z"
       id="path4769" />
    <path
       id="path4771"
       d="m 267.72214,-26.12109 h 57.5422 v -2.95312 h -63.5594 l 3.55215,2.067577 z"
       style="fill:url(#linearGradient4815);fill-opacity:1;fill-rule:evenodd;stroke:none;stroke-width:0.80000001px;stroke-linecap:butt;stroke-linejoin:miter;stroke-opacity:1"
       inkscape:connector-curvature="0"
       sodipodi:nodetypes="cccccc" />
  </g>
  <circle
     r="3.3941085"
     cy="7.5163217"
     cx="11.75205"
     id="circle4775"
     style="opacity:0.631;fill:url(#radialGradient4817);fill-opacity:1;stroke:none;stroke-width:1.55679059;stroke-linecap:round;stroke-linejoin:bevel;stroke-miterlimit:4;stroke-dasharray:none;stroke-dashoffset:0;stroke-opacity:1" />
  <circle
     style="opacity:0.631;fill:url(#radialGradient4819);fill-opacity:1;stroke:none;stroke-width:1.55679059;stroke-linecap:round;stroke-linejoin:bevel;stroke-miterlimit:4;stroke-dasharray:none;stroke-dashoffset:0;stroke-opacity:1"
     id="circle4777"
     cx="5.6793299"
     cy="4.2799611"
     r="3.3941085" />
  <text
     transform="scale(1.0058053,0.9942282)"
     id="text4645"
     y="29.678312"
     x="37.556778"
     style="font-style:normal;font-variant:normal;font-weight:bold;font-stretch:normal;font-size:29.31211662px;line-height:1.25;font-family:sans-serif;-inkscape-font-specification:'sans-serif Bold';letter-spacing:0px;word-spacing:0px;fill:#000000;fill-opacity:1;stroke:none;stroke-width:0.13761252;stroke-linecap:butt;stroke-linejoin:round"
     xml:space="preserve"><tspan
       y="29.678312"
       x="37.556778"
       style="font-style:normal;font-variant:normal;font-weight:bold;font-stretch:normal;font-family:sans-serif;-inkscape-font-specification:'sans-serif Bold';stroke-width:0.13761252;stroke-linecap:butt;stroke-linejoin:round"
       id="tspan4643"
       sodipodi:role="line">ECCW-GUI</tspan></text>
</svg>
