<?xml version="1.0" encoding="UTF-8" standalone="no"?>
<!-- Created with matplotlib (http://matplotlib.org/) -->

<svg
   xmlns:dc="http://purl.org/dc/elements/1.1/"
   xmlns:cc="http://creativecommons.org/ns#"
   xmlns:rdf="http://www.w3.org/1999/02/22-rdf-syntax-ns#"
   xmlns:svg="http://www.w3.org/2000/svg"
   xmlns="http://www.w3.org/2000/svg"
   xmlns:xlink="http://www.w3.org/1999/xlink"
   xmlns:sodipodi="http://sodipodi.sourceforge.net/DTD/sodipodi-0.dtd"
   xmlns:inkscape="http://www.inkscape.org/namespaces/inkscape"
   height="450.79391pt"
   version="1.1"
   viewBox="0 0 450.79391 450.79391"
   width="450.79391pt"
   id="svg2"
   inkscape:version="0.92.1 r15371"
   sodipodi:docname="icon_eccw.svg"
   inkscape:export-filename="/home/bmary/Programmation/eccw/eccw/images/icon_eccw_512×512.png"
   inkscape:export-xdpi="81.775726"
   inkscape:export-ydpi="81.775726">
  <metadata
     id="metadata563">
    <rdf:RDF>
      <cc:Work
         rdf:about="">
        <dc:format>image/svg+xml</dc:format>
        <dc:type
           rdf:resource="http://purl.org/dc/dcmitype/StillImage" />
        <dc:title />
      </cc:Work>
    </rdf:RDF>
  </metadata>
  <sodipodi:namedview
     pagecolor="#ffffff"
     bordercolor="#666666"
     borderopacity="1"
     objecttolerance="10"
     gridtolerance="10"
     guidetolerance="10"
     inkscape:pageopacity="0"
     inkscape:pageshadow="2"
     inkscape:window-width="1920"
     inkscape:window-height="1016"
     id="namedview561"
     showgrid="false"
     inkscape:zoom="0.42811792"
     inkscape:cx="538.9792"
     inkscape:cy="232.93705"
     inkscape:window-x="1920"
     inkscape:window-y="27"
     inkscape:window-maximized="1"
     inkscape:current-layer="svg2"
     fit-margin-top="0"
     fit-margin-left="0"
     fit-margin-right="0"
     fit-margin-bottom="0" />
  <defs
     id="defs4"
     style="stroke-linecap:butt;stroke-linejoin:round">
    <linearGradient
       inkscape:collect="always"
       id="linearGradient4479">
      <stop
         style="stop-color:#ffffff;stop-opacity:1;"
         offset="0"
         id="stop4481" />
      <stop
         style="stop-color:#ffffff;stop-opacity:0;"
         offset="1"
         id="stop4483" />
    </linearGradient>
    <linearGradient
       inkscape:collect="always"
       id="linearGradient4359">
      <stop
         style="stop-color:#000000;stop-opacity:1;"
         offset="0"
         id="stop4361" />
      <stop
         style="stop-color:#000000;stop-opacity:0;"
         offset="1"
         id="stop4363" />
    </linearGradient>
    <linearGradient
       inkscape:collect="always"
       id="linearGradient4296">
      <stop
         style="stop-color:#624000;stop-opacity:1;"
         offset="0"
         id="stop4298" />
      <stop
         style="stop-color:#624000;stop-opacity:0;"
         offset="1"
         id="stop4300" />
    </linearGradient>
    <linearGradient
       inkscape:collect="always"
       id="linearGradient4630">
      <stop
         style="stop-color:#ffffff;stop-opacity:1;"
         offset="0"
         id="stop4632" />
      <stop
         style="stop-color:#ffffff;stop-opacity:0;"
         offset="1"
         id="stop4634" />
    </linearGradient>
    <linearGradient
       inkscape:collect="always"
       id="linearGradient4622">
      <stop
         style="stop-color:#ffffff;stop-opacity:1;"
         offset="0"
         id="stop4624" />
      <stop
         style="stop-color:#ffffff;stop-opacity:0;"
         offset="1"
         id="stop4626" />
    </linearGradient>
    <linearGradient
       inkscape:collect="always"
       id="linearGradient4602">
      <stop
         style="stop-color:#ffffff;stop-opacity:1;"
         offset="0"
         id="stop4604" />
      <stop
         style="stop-color:#ffffff;stop-opacity:0;"
         offset="1"
         id="stop4606" />
    </linearGradient>
    <linearGradient
       inkscape:collect="always"
       id="linearGradient4594">
      <stop
         style="stop-color:#ffffff;stop-opacity:1;"
         offset="0"
         id="stop4596" />
      <stop
         style="stop-color:#ffffff;stop-opacity:0;"
         offset="1"
         id="stop4598" />
    </linearGradient>
    <linearGradient
       inkscape:collect="always"
       id="linearGradient4434">
      <stop
         style="stop-color:#ffffff;stop-opacity:1;"
         offset="0"
         id="stop4436" />
      <stop
         style="stop-color:#ffffff;stop-opacity:0;"
         offset="1"
         id="stop4438" />
    </linearGradient>
    <linearGradient
       inkscape:collect="always"
       id="linearGradient4368">
      <stop
         style="stop-color:#ffffff;stop-opacity:1;"
         offset="0"
         id="stop4370" />
      <stop
         style="stop-color:#ffffff;stop-opacity:0;"
         offset="1"
         id="stop4372" />
    </linearGradient>
    <linearGradient
       inkscape:collect="always"
       id="linearGradient4348">
      <stop
         style="stop-color:#ffffff;stop-opacity:1;"
         offset="0"
         id="stop4350" />
      <stop
         style="stop-color:#ffffff;stop-opacity:0;"
         offset="1"
         id="stop4352" />
    </linearGradient>
    <style
       type="text/css"
       id="style6">
*{stroke-linecap:butt;stroke-linejoin:round;}
  </style>
    <defs
       id="defs514">
      <path
         style="stroke-linecap:butt;stroke-linejoin:round"
         inkscape:connector-curvature="0"
         id="DejaVuSans-2e"
         d="M 10.6875,12.4062 21,12.4062 21,0 10.6875,0 Z" />
      <path
         style="stroke-linecap:butt;stroke-linejoin:round"
         inkscape:connector-curvature="0"
         id="Cmmi10-42"
         d="M 4.98438,0 Q 4,0 4,1.3125 q 0.04688,0.25 0.1875,0.82812 0.15625,0.59376 0.39062,0.98438 0.25,0.39062 0.75,0.39062 2.82813,0 4.92188,0.14063 2.1094,0.15625 3.5625,0.54687 1.1719,0.4375 1.9063,2.6875 L 29.3906,61.8125 q 0.2032,0.9844 0.2032,1.375 0,1.0781 -1.1719,1.2187 -1.9063,0.3907 -7.2344,0.3907 -0.9687,0 -0.9687,1.3125 0.0468,0.25 0.1874,0.8594 0.1563,0.6093 0.4219,0.9687 0.2657,0.375 0.6563,0.375 l 35.8437,0 q 3.2657,0 6.4688,-0.8125 3.2031,-0.7969 5.9062,-2.5625 2.7031,-1.75 4.2969,-4.375 1.5938,-2.6094 1.5938,-6.0625 0,-3.7656 -1.9376,-7 -1.9218,-3.2188 -4.9843,-5.6094 -3.0469,-2.3906 -6.5938,-3.9375 -3.5312,-1.5312 -7.3906,-2.2656 2.7344,0 5.5313,-1.0781 2.8124,-1.0625 5.0156,-2.9219 2.2031,-1.8594 3.5468,-4.4531 1.3438,-2.5782 1.3438,-5.5469 0,-6.0156 -4.2031,-11 Q 61.7188,5.71875 55.3438,2.85938 48.9688,0 43.0156,0 Z M 23.3906,4.29688 q 0,-0.78126 3.4219,-0.78126 l 14.2969,0 q 4.8906,0 9.375,2.70313 4.5,2.71875 7.2031,7.20315 2.7187,4.5 2.7187,9.375 0,2.9843 -1.25,5.6406 -1.25,2.6719 -3.5937,4.2031 -2.3437,1.5469 -5.3594,1.5469 l -19.4843,0 L 23.7812,6.5 Q 23.3906,5.125 23.3906,4.29688 m 8,32.51562 15.1875,0 q 4.7969,0 9.3125,2.4375 4.5156,2.4531 7.3594,6.6406 2.8594,4.2032 2.8594,8.8906 0,4.3438 -2.7188,7.1719 -2.7031,2.8438 -7,2.8438 l -13.7187,0 q -2.6875,0 -3.6094,-0.5 Q 38.1406,63.8125 37.5,61.375 Z" />
      <path
         style="stroke-linecap:butt;stroke-linejoin:round"
         inkscape:connector-curvature="0"
         id="Cmmi10-44"
         d="m 4.89062,0 q -0.98437,0 -0.98437,1.3125 0.04687,0.25 0.1875,0.85938 0.15625,0.60937 0.42187,0.96874 0.26563,0.375 0.65626,0.375 6.10932,0 8.54692,0.6875 1.2656,0.4375 1.8593,2.6875 L 29.2969,61.8125 q 0.2031,0.9844 0.2031,1.375 0,1.0781 -1.1719,1.2187 -1.9062,0.3907 -7.2343,0.3907 -0.9688,0 -0.9688,1.3125 0.0469,0.25 0.1875,0.8594 0.1406,0.6093 0.4063,0.9687 0.2812,0.375 0.6718,0.375 l 35.9375,0 q 6.9844,0 12.2031,-3.3906 5.2188,-3.3907 8,-9.1407 2.7969,-5.7343 2.7969,-12.6718 0,-7.6563 -3.1875,-15.3282 Q 73.9688,20.125 68.25,13.7656 62.5469,7.42188 55.2188,3.70312 47.9062,0 40.1875,0 Z M 23.5781,4.29688 q 0,-0.78126 3.4219,-0.78126 l 11.625,0 q 5.5625,0 10.7344,2.29688 5.1875,2.29688 9.2344,6.2969 3.7656,3.7656 6.6406,9.8594 2.875,6.1093 4.4687,12.75 1.5938,6.6406 1.5938,12.2031 0,4.0625 -1.2031,7.3281 -1.2032,3.2656 -3.375,5.6094 -2.1719,2.3437 -5.4376,3.6406 -3.2656,1.2969 -7.375,1.2969 l -10.9843,0 q -2.7344,0 -3.625,-0.4688 -0.875,-0.4531 -1.5938,-2.9531 L 24.0312,6.5 Q 23.5781,5.28125 23.5781,4.29688" />
      <path
         style="stroke-linecap:butt;stroke-linejoin:round"
         inkscape:connector-curvature="0"
         id="DejaVuSans-3d"
         d="m 10.5938,45.4062 62.5937,0 0,-8.2031 -62.5937,0 z m 0,-19.9218 62.5937,0 0,-8.2969 -62.5937,0 z" />
      <path
         style="stroke-linecap:butt;stroke-linejoin:round"
         inkscape:connector-curvature="0"
         id="DejaVuSans-2c"
         d="m 11.7188,12.4062 10.2968,0 0,-8.4062 -8,-15.625 -6.29685,0 L 11.7188,4 Z" />
      <path
         style="stroke-linecap:butt;stroke-linejoin:round"
         inkscape:connector-curvature="0"
         id="Cmmi10-c1"
         d="m 19.3906,-19.4844 4.4844,18.06252 q -5.0781,0 -9.4688,2.375005 -4.3906,2.374995 -7.06245,6.609375 -2.65625,4.25 -2.65625,9.2344 0,5.4219 2.6875,10.3437 2.6875,4.9375 7.3438,8.9688 4.6718,4.0312 10.0312,6.2031 5.375,2.1719 10.6562,2.1719 l 6,24.3125 q 0.2032,0.5937 0.7813,0.5937 l 1.2187,0 q 0.3907,0 0.625,-0.3437 0.25,-0.3438 0.25,-0.6407 l -6,-23.9218 q 3.7657,0 7.2813,-1.375 Q 49.0781,41.75 51.7812,39.2812 54.5,36.8125 56,33.4688 q 1.5156,-3.3438 1.5156,-7.1563 0,-5.4063 -2.6875,-10.3437 Q 52.1562,11.0312 47.6094,7.07812 43.0625,3.125 37.4688,0.84375 31.8906,-1.42188 26.8125,-1.42188 L 22.2188,-19.9219 q -0.2032,-0.5937 -0.8282,-0.5937 l -1.1718,0 q -0.3907,0 -0.6094,0.375 -0.2188,0.3594 -0.2188,0.6562 m 5.125,20.70315 10.2032,40.67185 q -2.5469,0 -5.3282,-1.0312 -2.7812,-1.0156 -5.25,-2.5782 -2.4531,-1.5624 -4.4687,-3.5624 -2.4375,-2.4376 -4.2969,-5.7657 -1.8438,-3.3125 -2.7969,-7 -0.9531,-3.6875 -0.9531,-7.25 0,-3.7656 1.6094,-6.84372 Q 14.8438,4.78125 17.7656,3 q 2.9375,-1.78125 6.75,-1.78125 m 2.9688,0 q 3.7656,0 8.0156,2.14063 4.25,2.15624 6.9844,5.04687 3.75,3.70315 5.9218,9.09375 2.1876,5.4062 2.1876,10.9219 0,3.7031 -1.625,6.7969 -1.6094,3.1093 -4.5469,4.8906 -2.9219,1.7812 -6.7188,1.7812 z" />
    </defs>
    <defs
       id="defs26">
      <path
         inkscape:connector-curvature="0"
         style="stroke:#000000;stroke-width:0.5;stroke-linecap:butt;stroke-linejoin:round"
         id="md21b4ff0a3"
         d="M 0,3 C 0.795609,3 1.55874,2.6839 2.12132,2.12132 2.6839,1.55874 3,0.795609 3,0 3,-0.795609 2.6839,-1.55874 2.12132,-2.12132 1.55874,-2.6839 0.795609,-3 0,-3 -0.795609,-3 -1.55874,-2.6839 -2.12132,-2.12132 -2.6839,-1.55874 -3,-0.795609 -3,0 -3,0.795609 -2.6839,1.55874 -2.12132,2.12132 -1.55874,2.6839 -0.795609,3 0,3 Z" />
    </defs>
    <style
       id="style5699"
       type="text/css">
*{stroke-linecap:butt;stroke-linejoin:round;}
  </style>
    <defs
       id="defs6191">
      <path
         style="stroke-linecap:butt;stroke-linejoin:round"
         inkscape:connector-curvature="0"
         d="m 4.89062,0 q -0.98437,0 -0.98437,1.3125 0.04687,0.25 0.1875,0.85938 0.15625,0.60937 0.42187,0.96874 0.26563,0.375 0.65626,0.375 6.10932,0 8.54692,0.6875 1.2656,0.4375 1.8593,2.6875 L 29.2969,61.8125 q 0.2031,0.9844 0.2031,1.375 0,1.0781 -1.1719,1.2187 -1.9062,0.3907 -7.2343,0.3907 -0.9688,0 -0.9688,1.3125 0.0469,0.25 0.1875,0.8594 0.1406,0.6093 0.4063,0.9687 0.2812,0.375 0.6718,0.375 l 35.9375,0 q 6.9844,0 12.2031,-3.3906 5.2188,-3.3907 8,-9.1407 2.7969,-5.7343 2.7969,-12.6718 0,-7.6563 -3.1875,-15.3282 Q 73.9688,20.125 68.25,13.7656 62.5469,7.42188 55.2188,3.70312 47.9062,0 40.1875,0 Z M 23.5781,4.29688 q 0,-0.78126 3.4219,-0.78126 l 11.625,0 q 5.5625,0 10.7344,2.29688 5.1875,2.29688 9.2344,6.2969 3.7656,3.7656 6.6406,9.8594 2.875,6.1093 4.4687,12.75 1.5938,6.6406 1.5938,12.2031 0,4.0625 -1.2031,7.3281 -1.2032,3.2656 -3.375,5.6094 -2.1719,2.3437 -5.4376,3.6406 -3.2656,1.2969 -7.375,1.2969 l -10.9843,0 q -2.7344,0 -3.625,-0.4688 -0.875,-0.4531 -1.5938,-2.9531 L 24.0312,6.5 Q 23.5781,5.28125 23.5781,4.29688"
         id="Cmmi10-44-0" />
      <path
         style="stroke-linecap:butt;stroke-linejoin:round"
         inkscape:connector-curvature="0"
         d="M 10.6875,12.4062 21,12.4062 21,0 10.6875,0 Z"
         id="DejaVuSans-2e-5" />
      <path
         style="stroke-linecap:butt;stroke-linejoin:round"
         inkscape:connector-curvature="0"
         d="M 4.98438,0 Q 4,0 4,1.3125 q 0.04688,0.25 0.1875,0.82812 0.15625,0.59376 0.39062,0.98438 0.25,0.39062 0.75,0.39062 2.82813,0 4.92188,0.14063 2.1094,0.15625 3.5625,0.54687 1.1719,0.4375 1.9063,2.6875 L 29.3906,61.8125 q 0.2032,0.9844 0.2032,1.375 0,1.0781 -1.1719,1.2187 -1.9063,0.3907 -7.2344,0.3907 -0.9687,0 -0.9687,1.3125 0.0468,0.25 0.1874,0.8594 0.1563,0.6093 0.4219,0.9687 0.2657,0.375 0.6563,0.375 l 35.8437,0 q 3.2657,0 6.4688,-0.8125 3.2031,-0.7969 5.9062,-2.5625 2.7031,-1.75 4.2969,-4.375 1.5938,-2.6094 1.5938,-6.0625 0,-3.7656 -1.9376,-7 -1.9218,-3.2188 -4.9843,-5.6094 -3.0469,-2.3906 -6.5938,-3.9375 -3.5312,-1.5312 -7.3906,-2.2656 2.7344,0 5.5313,-1.0781 2.8124,-1.0625 5.0156,-2.9219 2.2031,-1.8594 3.5468,-4.4531 1.3438,-2.5782 1.3438,-5.5469 0,-6.0156 -4.2031,-11 Q 61.7188,5.71875 55.3438,2.85938 48.9688,0 43.0156,0 Z M 23.3906,4.29688 q 0,-0.78126 3.4219,-0.78126 l 14.2969,0 q 4.8906,0 9.375,2.70313 4.5,2.71875 7.2031,7.20315 2.7187,4.5 2.7187,9.375 0,2.9843 -1.25,5.6406 -1.25,2.6719 -3.5937,4.2031 -2.3437,1.5469 -5.3594,1.5469 l -19.4843,0 L 23.7812,6.5 Q 23.3906,5.125 23.3906,4.29688 m 8,32.51562 15.1875,0 q 4.7969,0 9.3125,2.4375 4.5156,2.4531 7.3594,6.6406 2.8594,4.2032 2.8594,8.8906 0,4.3438 -2.7188,7.1719 -2.7031,2.8438 -7,2.8438 l -13.7187,0 q -2.6875,0 -3.6094,-0.5 Q 38.1406,63.8125 37.5,61.375 Z"
         id="Cmmi10-42-7" />
      <path
         style="stroke-linecap:butt;stroke-linejoin:round"
         inkscape:connector-curvature="0"
         d="m 11.7188,12.4062 10.2968,0 0,-8.4062 -8,-15.625 -6.29685,0 L 11.7188,4 Z"
         id="DejaVuSans-2c-2" />
      <path
         style="stroke-linecap:butt;stroke-linejoin:round"
         inkscape:connector-curvature="0"
         d="m 19.3906,-19.4844 4.4844,18.06252 q -5.0781,0 -9.4688,2.375005 -4.3906,2.374995 -7.06245,6.609375 -2.65625,4.25 -2.65625,9.2344 0,5.4219 2.6875,10.3437 2.6875,4.9375 7.3438,8.9688 4.6718,4.0312 10.0312,6.2031 5.375,2.1719 10.6562,2.1719 l 6,24.3125 q 0.2032,0.5937 0.7813,0.5937 l 1.2187,0 q 0.3907,0 0.625,-0.3437 0.25,-0.3438 0.25,-0.6407 l -6,-23.9218 q 3.7657,0 7.2813,-1.375 Q 49.0781,41.75 51.7812,39.2812 54.5,36.8125 56,33.4688 q 1.5156,-3.3438 1.5156,-7.1563 0,-5.4063 -2.6875,-10.3437 Q 52.1562,11.0312 47.6094,7.07812 43.0625,3.125 37.4688,0.84375 31.8906,-1.42188 26.8125,-1.42188 L 22.2188,-19.9219 q -0.2032,-0.5937 -0.8282,-0.5937 l -1.1718,0 q -0.3907,0 -0.6094,0.375 -0.2188,0.3594 -0.2188,0.6562 m 5.125,20.70315 10.2032,40.67185 q -2.5469,0 -5.3282,-1.0312 -2.7812,-1.0156 -5.25,-2.5782 -2.4531,-1.5624 -4.4687,-3.5624 -2.4375,-2.4376 -4.2969,-5.7657 -1.8438,-3.3125 -2.7969,-7 -0.9531,-3.6875 -0.9531,-7.25 0,-3.7656 1.6094,-6.84372 Q 14.8438,4.78125 17.7656,3 q 2.9375,-1.78125 6.75,-1.78125 m 2.9688,0 q 3.7656,0 8.0156,2.14063 4.25,2.15624 6.9844,5.04687 3.75,3.70315 5.9218,9.09375 2.1876,5.4062 2.1876,10.9219 0,3.7031 -1.625,6.7969 -1.6094,3.1093 -4.5469,4.8906 -2.9219,1.7812 -6.7188,1.7812 z"
         id="Cmmi10-c1-6" />
      <path
         style="stroke-linecap:butt;stroke-linejoin:round"
         inkscape:connector-curvature="0"
         d="m 10.5938,45.4062 62.5937,0 0,-8.2031 -62.5937,0 z m 0,-19.9218 62.5937,0 0,-8.2969 -62.5937,0 z"
         id="DejaVuSans-3d-4" />
    </defs>
    <style
       id="style7733"
       type="text/css">
*{stroke-linecap:butt;stroke-linejoin:round;}
  </style>
    <defs
       id="defs8657">
      <path
         style="stroke-linecap:butt;stroke-linejoin:round"
         inkscape:connector-curvature="0"
         d="m 4.89062,0 q -0.98437,0 -0.98437,1.3125 0.04687,0.25 0.1875,0.85938 0.15625,0.60937 0.42187,0.96874 0.26563,0.375 0.65626,0.375 6.10932,0 8.54692,0.6875 1.2656,0.4375 1.8593,2.6875 L 29.2969,61.8125 q 0.2031,0.9844 0.2031,1.375 0,1.0781 -1.1719,1.2187 -1.9062,0.3907 -7.2343,0.3907 -0.9688,0 -0.9688,1.3125 0.0469,0.25 0.1875,0.8594 0.1406,0.6093 0.4063,0.9687 0.2812,0.375 0.6718,0.375 l 35.9375,0 q 6.9844,0 12.2031,-3.3906 5.2188,-3.3907 8,-9.1407 2.7969,-5.7343 2.7969,-12.6718 0,-7.6563 -3.1875,-15.3282 Q 73.9688,20.125 68.25,13.7656 62.5469,7.42188 55.2188,3.70312 47.9062,0 40.1875,0 Z M 23.5781,4.29688 q 0,-0.78126 3.4219,-0.78126 l 11.625,0 q 5.5625,0 10.7344,2.29688 5.1875,2.29688 9.2344,6.2969 3.7656,3.7656 6.6406,9.8594 2.875,6.1093 4.4687,12.75 1.5938,6.6406 1.5938,12.2031 0,4.0625 -1.2031,7.3281 -1.2032,3.2656 -3.375,5.6094 -2.1719,2.3437 -5.4376,3.6406 -3.2656,1.2969 -7.375,1.2969 l -10.9843,0 q -2.7344,0 -3.625,-0.4688 -0.875,-0.4531 -1.5938,-2.9531 L 24.0312,6.5 Q 23.5781,5.28125 23.5781,4.29688"
         id="Cmmi10-44-1" />
      <path
         style="stroke-linecap:butt;stroke-linejoin:round"
         inkscape:connector-curvature="0"
         d="M 10.6875,12.4062 21,12.4062 21,0 10.6875,0 Z"
         id="DejaVuSans-2e-9" />
      <path
         style="stroke-linecap:butt;stroke-linejoin:round"
         inkscape:connector-curvature="0"
         d="M 40.5781,39.3125 Q 47.6562,37.7969 51.625,33 q 3.9844,-4.7812 3.9844,-11.8125 0,-10.7813 -7.4219,-16.70312 -7.4219,-5.90626 -21.0937,-5.90626 -4.5782,0 -9.4376,0.906255 Q 12.7969,0.390625 7.625,2.20312 l 0,9.51568 q 4.0938,-2.39068 8.9688,-3.60942 4.8906,-1.21876 10.2187,-1.21876 9.2656,0 14.125,3.65628 4.8594,3.6562 4.8594,10.6406 0,6.4531 -4.5157,10.0781 -4.5156,3.6406 -12.5624,3.6406 l -8.5,0 0,8.1094 8.8906,0 q 7.2656,0 11.125,2.9063 3.8594,2.9062 3.8594,8.375 0,5.6093 -3.9844,8.6093 -3.9688,3.0157 -11.3906,3.0157 -4.0626,0 -8.7032,-0.8907 -4.6406,-0.875 -10.2031,-2.7187 l 0,8.7813 q 5.625,1.5624 10.5313,2.3437 4.9062,0.7813 9.25,0.7813 11.2343,0 17.7656,-5.1094 6.5468,-5.0938 6.5468,-13.7813 0,-6.0625 -3.4687,-10.2343 -3.4687,-4.1719 -9.8594,-5.7813"
         id="DejaVuSans-33" />
      <path
         style="stroke-linecap:butt;stroke-linejoin:round"
         inkscape:connector-curvature="0"
         d="m 11.7188,12.4062 10.2968,0 0,-8.4062 -8,-15.625 -6.29685,0 L 11.7188,4 Z"
         id="DejaVuSans-2c-8" />
      <path
         style="stroke-linecap:butt;stroke-linejoin:round"
         inkscape:connector-curvature="0"
         d="m 19.3906,-19.4844 4.4844,18.06252 q -5.0781,0 -9.4688,2.375005 -4.3906,2.374995 -7.06245,6.609375 -2.65625,4.25 -2.65625,9.2344 0,5.4219 2.6875,10.3437 2.6875,4.9375 7.3438,8.9688 4.6718,4.0312 10.0312,6.2031 5.375,2.1719 10.6562,2.1719 l 6,24.3125 q 0.2032,0.5937 0.7813,0.5937 l 1.2187,0 q 0.3907,0 0.625,-0.3437 0.25,-0.3438 0.25,-0.6407 l -6,-23.9218 q 3.7657,0 7.2813,-1.375 Q 49.0781,41.75 51.7812,39.2812 54.5,36.8125 56,33.4688 q 1.5156,-3.3438 1.5156,-7.1563 0,-5.4063 -2.6875,-10.3437 Q 52.1562,11.0312 47.6094,7.07812 43.0625,3.125 37.4688,0.84375 31.8906,-1.42188 26.8125,-1.42188 L 22.2188,-19.9219 q -0.2032,-0.5937 -0.8282,-0.5937 l -1.1718,0 q -0.3907,0 -0.6094,0.375 -0.2188,0.3594 -0.2188,0.6562 m 5.125,20.70315 10.2032,40.67185 q -2.5469,0 -5.3282,-1.0312 -2.7812,-1.0156 -5.25,-2.5782 -2.4531,-1.5624 -4.4687,-3.5624 -2.4375,-2.4376 -4.2969,-5.7657 -1.8438,-3.3125 -2.7969,-7 -0.9531,-3.6875 -0.9531,-7.25 0,-3.7656 1.6094,-6.84372 Q 14.8438,4.78125 17.7656,3 q 2.9375,-1.78125 6.75,-1.78125 m 2.9688,0 q 3.7656,0 8.0156,2.14063 4.25,2.15624 6.9844,5.04687 3.75,3.70315 5.9218,9.09375 2.1876,5.4062 2.1876,10.9219 0,3.7031 -1.625,6.7969 -1.6094,3.1093 -4.5469,4.8906 -2.9219,1.7812 -6.7188,1.7812 z"
         id="Cmmi10-c1-0" />
      <path
         style="stroke-linecap:butt;stroke-linejoin:round"
         inkscape:connector-curvature="0"
         d="m 10.5938,45.4062 62.5937,0 0,-8.2031 -62.5937,0 z m 0,-19.9218 62.5937,0 0,-8.2969 -62.5937,0 z"
         id="DejaVuSans-3d-46" />
      <path
         style="stroke-linecap:butt;stroke-linejoin:round"
         inkscape:connector-curvature="0"
         d="M 4.98438,0 Q 4,0 4,1.3125 q 0.04688,0.25 0.1875,0.82812 0.15625,0.59376 0.39062,0.98438 0.25,0.39062 0.75,0.39062 2.82813,0 4.92188,0.14063 2.1094,0.15625 3.5625,0.54687 1.1719,0.4375 1.9063,2.6875 L 29.3906,61.8125 q 0.2032,0.9844 0.2032,1.375 0,1.0781 -1.1719,1.2187 -1.9063,0.3907 -7.2344,0.3907 -0.9687,0 -0.9687,1.3125 0.0468,0.25 0.1874,0.8594 0.1563,0.6093 0.4219,0.9687 0.2657,0.375 0.6563,0.375 l 35.8437,0 q 3.2657,0 6.4688,-0.8125 3.2031,-0.7969 5.9062,-2.5625 2.7031,-1.75 4.2969,-4.375 1.5938,-2.6094 1.5938,-6.0625 0,-3.7656 -1.9376,-7 -1.9218,-3.2188 -4.9843,-5.6094 -3.0469,-2.3906 -6.5938,-3.9375 -3.5312,-1.5312 -7.3906,-2.2656 2.7344,0 5.5313,-1.0781 2.8124,-1.0625 5.0156,-2.9219 2.2031,-1.8594 3.5468,-4.4531 1.3438,-2.5782 1.3438,-5.5469 0,-6.0156 -4.2031,-11 Q 61.7188,5.71875 55.3438,2.85938 48.9688,0 43.0156,0 Z M 23.3906,4.29688 q 0,-0.78126 3.4219,-0.78126 l 14.2969,0 q 4.8906,0 9.375,2.70313 4.5,2.71875 7.2031,7.20315 2.7187,4.5 2.7187,9.375 0,2.9843 -1.25,5.6406 -1.25,2.6719 -3.5937,4.2031 -2.3437,1.5469 -5.3594,1.5469 l -19.4843,0 L 23.7812,6.5 Q 23.3906,5.125 23.3906,4.29688 m 8,32.51562 15.1875,0 q 4.7969,0 9.3125,2.4375 4.5156,2.4531 7.3594,6.6406 2.8594,4.2032 2.8594,8.8906 0,4.3438 -2.7188,7.1719 -2.7031,2.8438 -7,2.8438 l -13.7187,0 q -2.6875,0 -3.6094,-0.5 Q 38.1406,63.8125 37.5,61.375 Z"
         id="Cmmi10-42-6" />
    </defs>
    <defs
       id="defs7750">
      <path
         inkscape:connector-curvature="0"
         d="m 0,-3 -0.673542,2.072949 -2.179628,0 1.76336,1.281153 L -1.76336,2.42705 0,1.1459 1.76336,2.42705 1.08981,0.354102 l 1.76336,-1.281153 -2.179628,0 z"
         id="m11ac47eaca"
         style="stroke:#000000;stroke-width:0.5;stroke-linecap:butt;stroke-linejoin:bevel" />
    </defs>
    <radialGradient
       inkscape:collect="always"
       xlink:href="#linearGradient4348"
       id="radialGradient4354"
       cx="213.97231"
       cy="-389.35092"
       fx="213.97231"
       fy="-389.35092"
       r="191.19141"
       gradientTransform="matrix(0.30219636,0.42066677,-0.90739292,0.42103977,-245.21242,-300.50234)"
       gradientUnits="userSpaceOnUse" />
    <radialGradient
       inkscape:collect="always"
       xlink:href="#linearGradient4368"
       id="radialGradient4374"
       cx="56.072598"
       cy="44.250137"
       fx="56.072598"
       fy="44.250137"
       r="204.22872"
       gradientTransform="matrix(-0.00210399,0.36877592,-0.57113581,-0.00326997,66.021743,14.041155)"
       gradientUnits="userSpaceOnUse" />
    <linearGradient
       inkscape:collect="always"
       xlink:href="#linearGradient4434"
       id="linearGradient4440"
       x1="198.34358"
       y1="-341.36197"
       x2="549.41272"
       y2="-59.211342"
       gradientUnits="userSpaceOnUse" />
    <linearGradient
       inkscape:collect="always"
       xlink:href="#linearGradient4594"
       id="linearGradient4600"
       x1="284.25464"
       y1="-29.440853"
       x2="284.25464"
       y2="-25.96298"
       gradientUnits="userSpaceOnUse" />
    <linearGradient
       inkscape:collect="always"
       xlink:href="#linearGradient4602"
       id="linearGradient4608"
       x1="286.61276"
       y1="-68.71032"
       x2="286.61276"
       y2="-54.096489"
       gradientUnits="userSpaceOnUse" />
    <linearGradient
       inkscape:collect="always"
       xlink:href="#linearGradient4622"
       id="linearGradient4628"
       x1="297.56653"
       y1="-71.589592"
       x2="297.56653"
       y2="-54.548664"
       gradientUnits="userSpaceOnUse" />
    <linearGradient
       inkscape:collect="always"
       xlink:href="#linearGradient4630"
       id="linearGradient4636"
       x1="302.1445"
       y1="-29.879274"
       x2="302.1445"
       y2="-26.330183"
       gradientUnits="userSpaceOnUse" />
    <linearGradient
       inkscape:collect="always"
       xlink:href="#linearGradient4622"
       id="linearGradient4650"
       gradientUnits="userSpaceOnUse"
       x1="297.56653"
       y1="-71.589592"
       x2="297.56653"
       y2="-54.548664" />
    <linearGradient
       inkscape:collect="always"
       xlink:href="#linearGradient4630"
       id="linearGradient4652"
       gradientUnits="userSpaceOnUse"
       x1="302.1445"
       y1="-29.879274"
       x2="302.1445"
       y2="-26.330183" />
    <linearGradient
       inkscape:collect="always"
       xlink:href="#linearGradient4602"
       id="linearGradient4666"
       gradientUnits="userSpaceOnUse"
       x1="286.61276"
       y1="-68.71032"
       x2="286.61276"
       y2="-54.096489" />
    <linearGradient
       inkscape:collect="always"
       xlink:href="#linearGradient4594"
       id="linearGradient4668"
       gradientUnits="userSpaceOnUse"
       x1="284.25464"
       y1="-29.440853"
       x2="284.25464"
       y2="-25.96298" />
    <linearGradient
       inkscape:collect="always"
       xlink:href="#linearGradient4296"
       id="linearGradient4302"
       x1="471.87506"
       y1="-78.45575"
       x2="337.19406"
       y2="-186.69746"
       gradientUnits="userSpaceOnUse" />
    <filter
       inkscape:collect="always"
       style="color-interpolation-filters:sRGB"
       id="filter4330"
       x="-0.1081301"
       width="1.2162602"
       y="-0.13317638"
       height="1.2663528">
      <feGaussianBlur
         inkscape:collect="always"
         stdDeviation="17.879568"
         id="feGaussianBlur4332" />
    </filter>
    <linearGradient
       inkscape:collect="always"
       xlink:href="#linearGradient4296"
       id="linearGradient4336"
       gradientUnits="userSpaceOnUse"
       x1="514.13861"
       y1="-44.488976"
       x2="279.71564"
       y2="-232.89227" />
    <linearGradient
       inkscape:collect="always"
       xlink:href="#linearGradient4434"
       id="linearGradient4340"
       gradientUnits="userSpaceOnUse"
       x1="198.34358"
       y1="-341.36197"
       x2="549.41272"
       y2="-59.211342" />
    <linearGradient
       inkscape:collect="always"
       xlink:href="#linearGradient4359"
       id="linearGradient4365"
       x1="227.97458"
       y1="691.84906"
       x2="227.97458"
       y2="292.89349"
       gradientUnits="userSpaceOnUse"
       gradientTransform="translate(-80,0)" />
    <radialGradient
       inkscape:collect="always"
       xlink:href="#linearGradient4348"
       id="radialGradient4371"
       gradientUnits="userSpaceOnUse"
       gradientTransform="matrix(0.12243167,0.13991031,-0.29532637,0.16692562,183.54592,-142.1746)"
       cx="935.20312"
       cy="-449.63297"
       fx="935.20312"
       fy="-449.63297"
       r="191.19141" />
    <radialGradient
       inkscape:collect="always"
       xlink:href="#linearGradient4368"
       id="radialGradient4381"
       gradientUnits="userSpaceOnUse"
       gradientTransform="matrix(0.18475833,0.13941563,-0.27666801,0.36664213,42.59407,483.55322)"
       cx="1075.0796"
       cy="-602.66077"
       fx="1075.0796"
       fy="-602.66077"
       r="204.22872" />
    <filter
       inkscape:collect="always"
       style="color-interpolation-filters:sRGB"
       id="filter4425"
       x="-0.090851383"
       width="1.1817028"
       y="-0.17668845"
       height="1.3533769">
      <feGaussianBlur
         inkscape:collect="always"
         stdDeviation="3.4415953"
         id="feGaussianBlur4427" />
    </filter>
    <filter
       inkscape:collect="always"
       style="color-interpolation-filters:sRGB"
       id="filter4433"
       x="-0.090852702"
       width="1.1817054"
       y="-0.17668346"
       height="1.3533669">
      <feGaussianBlur
         inkscape:collect="always"
         stdDeviation="3.441618"
         id="feGaussianBlur4435" />
    </filter>
    <radialGradient
       inkscape:collect="always"
       xlink:href="#linearGradient4479"
       id="radialGradient4485"
       cx="127.22529"
       cy="67.607956"
       fx="127.22529"
       fy="67.607956"
       r="43.60392"
       gradientUnits="userSpaceOnUse"
       gradientTransform="matrix(0,0.63636364,-1,1.3984636e-7,190.16139,-7.7379449)" />
    <radialGradient
       inkscape:collect="always"
       xlink:href="#linearGradient4479"
       id="radialGradient4489"
       gradientUnits="userSpaceOnUse"
       gradientTransform="matrix(0,0.63636364,-1,1.3984636e-7,112.1455,-49.315275)"
       cx="127.22529"
       cy="67.607956"
       fx="127.22529"
       fy="67.607956"
       r="43.60392" />
  </defs>
  <defs
     id="defs556">
    <clipPath
       id="p5873ec822d"
       style="stroke-linecap:butt;stroke-linejoin:round">
      <rect
         height="352.79999"
         width="453.375"
         x="73.125"
         y="44.099998"
         id="rect559"
         style="stroke-linecap:butt;stroke-linejoin:round" />
    </clipPath>
  </defs>
  <g
     style="stroke-linecap:butt;stroke-linejoin:round"
     id="line2d_128"
     transform="translate(-175.02416,1711.5153)" />
  <g
     style="stroke-linecap:butt;stroke-linejoin:round"
     id="line2d_130"
     transform="translate(-175.02416,1711.5153)" />
  <path
     style="opacity:1;fill:#ffffff;fill-opacity:1;stroke:none;stroke-width:16.00000191;stroke-linecap:round;stroke-linejoin:bevel;stroke-miterlimit:4;stroke-dasharray:none;stroke-dashoffset:0;stroke-opacity:1"
     d="m 72.14533,0 306.50326,0 c 39.96851,0 72.14533,32.17681 72.14533,72.14532 l 0,306.50327 c 0,39.96851 -32.17682,72.14532 -72.14533,72.14532 l -306.50326,0 C 32.17682,450.79391 0,418.6171 0,378.64859 L 0,72.14532 C 0,32.17681 32.17682,0 72.14533,0 Z"
     id="rect4202"
     inkscape:connector-curvature="0" />
  <rect
     ry="51.652176"
     y="27.396973"
     x="27.396976"
     height="396"
     width="396"
     id="rect4204"
     style="opacity:1;fill:#e6e6e6;fill-opacity:1;stroke:none;stroke-width:8;stroke-linecap:round;stroke-linejoin:bevel;stroke-miterlimit:4;stroke-dasharray:none;stroke-dashoffset:0;stroke-opacity:1" />
  <path
     style="color:#000000;font-style:normal;font-variant:normal;font-weight:normal;font-stretch:normal;font-size:medium;line-height:normal;font-family:sans-serif;text-indent:0;text-align:start;text-decoration:none;text-decoration-line:none;text-decoration-style:solid;text-decoration-color:#000000;letter-spacing:normal;word-spacing:normal;text-transform:none;direction:ltr;block-progression:tb;writing-mode:lr-tb;baseline-shift:baseline;text-anchor:start;white-space:normal;clip-rule:nonzero;display:inline;overflow:visible;visibility:visible;opacity:1;isolation:auto;mix-blend-mode:normal;color-interpolation:sRGB;color-interpolation-filters:linearRGB;solid-color:#000000;solid-opacity:1;fill:#999999;fill-opacity:1;fill-rule:evenodd;stroke:none;stroke-width:3.20000005;stroke-linecap:butt;stroke-linejoin:miter;stroke-miterlimit:4;stroke-dasharray:none;stroke-dashoffset:0;stroke-opacity:1;color-rendering:auto;image-rendering:auto;shape-rendering:auto;text-rendering:auto;enable-background:accumulate"
     d="m 77.44919,25.79644 0,0.0484 c -0.45599,0.0147 -0.91966,0.0145 -1.37031,0.0391 l -0.37969,0.0188 -0.32969,0.18906 C 58.86474,35.57386 42.1796,45.16006 35.082,49.23554 l -0.32969,0.18907 -0.20938,0.31875 c -1.45917,2.2172 -2.75319,4.54892 -3.87187,6.97969 l -2.09375,4.55313 0.31093,-0.17813 -0.0812,0.23281 c -0.46404,1.32293 -0.88344,2.67169 -1.24532,4.04688 l -0.30937,1.17968 58.69844,33.98281 c -33.43263,19.21039 -50.40468,28.95439 -59.35,34.09063 l -0.80469,0.46094 0,8.30312 2.39844,-1.375 c 8.37125,-4.8065 27.34869,-15.70466 64.95156,-37.3125 l 62.59375,36.24063 c -28.03414,16.12111 -53.89901,30.98745 -75.99219,43.68125 l -53.95156,-31.23438 0,8.31875 46.7375,27.06094 c -24.70266,14.19154 -37.3792,21.47121 -45.93281,26.38281 l -0.80469,0.46094 0,8.30156 2.39844,-1.37656 c 7.98734,-4.58623 22.04254,-12.65454 51.53906,-29.60156 l 62.59688,36.24062 c -32.08845,18.44941 -53.6694,30.85263 -76,43.67969 l -40.53438,-23.46719 0,8.31875 33.31875,19.29219 c -14.58198,8.37548 -24.01633,13.79453 -32.51406,18.675 l -0.80469,0.46094 0,8.30469 2.39844,-1.37813 c 8.38482,-4.81585 19.68321,-11.30324 38.12031,-21.89375 l 62.60156,36.24219 c -35.51229,20.415 -55.56564,31.93975 -76.00469,43.67812 l -27.11562,-15.7 0,8.32031 19.90156,11.52188 c -6.52452,3.74704 -11.81844,6.78638 -18.78438,10.7875 l -0.90624,0.52031 0.1125,1.03906 c 0.16026,1.48031 0.38214,2.93781 0.65938,4.375 l 0.42656,2.20156 1.94218,-1.11562 c 7.90299,-4.53933 14.72694,-8.46194 23.74688,-13.64218 l 62.60781,36.24687 c -13.24988,7.6153 -18.44847,10.60004 -28.47187,16.35937 l -5.19844,2.98751 14.45156,0 0.36875,-0.21251 c 9.56866,-5.49848 13.17008,-7.56417 26.04688,-14.96562 l 26.21405,15.17813 14.37188,0 -33.375,-19.32344 c 23.98341,-13.78704 49.08327,-28.22235 75.97032,-43.69375 l 62.53749,36.20468 c -12.76012,7.3526 -25.21726,14.53567 -38.21874,22.02032 -1.06876,0.61524 -2.07749,1.19523 -3.13907,1.80624 l -5.18906,2.98595 14.43125,0 0.36875,-0.21251 c 13.17274,-7.58492 25.92645,-14.93908 38.9375,-22.43593 l 39.11719,22.64844 14.37187,0 -46.2875,-26.79844 c 27.23454,-15.69484 52.52623,-30.2894 75.84532,-43.76719 l 62.31718,36.07968 -3.29687,1.92188 c -10.41069,6.0674 -22.3074,12.98207 -36.89531,21.42812 -4.13483,2.39406 -9.36232,5.40812 -14.10938,8.15 l -5.16875,2.98595 10.24219,0 c 1.40661,0 2.78295,-0.0706 4.13594,-0.17344 l 0.36562,-0.0266 0.31406,-0.18282 c 2.52852,-1.46137 5.53123,-3.19362 7.82812,-4.52344 11.88876,-6.8835 21.85272,-12.67131 30.96251,-17.97187 l 0.31718,-0.18438 0.20469,-0.3 c 1.53095,-2.26132 2.88431,-4.65042 4.05626,-7.13906 l 2.19218,-4.65469 -0.32813,0.19219 0.35782,-1.05156 c 0.4508,-1.32585 0.86211,-2.67932 1.21249,-4.06563 l 0.29688,-1.17031 -57.80624,-33.46874 c 6.17232,-3.5659 13.09811,-7.56189 18.53436,-10.70938 15.81539,-9.1569 28.7616,-16.6811 39.81407,-23.125 l 0.79531,-0.4625 0,-8.33594 -2.40625,1.40469 c -11.35179,6.62379 -25.0466,14.58289 -41.81093,24.28906 -6.48252,3.75324 -14.90073,8.60511 -22.11876,12.77656 l -62.45624,-36.15937 c 27.46795,-15.83472 53.14264,-30.65388 75.83124,-43.77812 l 52.96094,30.66405 0,-8.32031 -45.76718,-26.49687 c 1.78204,-1.02887 3.64398,-2.10319 5.1578,-2.97969 15.81544,-9.15692 28.76164,-16.68061 39.81407,-23.125 l 0.79531,-0.4625 0,-8.33594 -2.40625,1.40469 c -11.3518,6.62369 -25.0466,14.58279 -41.81093,24.28906 -2.55893,1.48159 -5.93497,3.42919 -8.73594,5.04844 l -62.43906,-36.15 c 27.21328,-15.69374 53.10462,-30.64079 74.7828,-43.19219 0.37736,-0.21846 0.70216,-0.40523 1.02969,-0.59531 l 39.57969,22.91562 0,-8.32031 -32.40469,-18.76094 c 11.99518,-6.95216 22.60289,-13.1146 31.60938,-18.36406 l 0.79531,-0.4625 0,-8.33593 -2.40625,1.40469 c -10.26205,5.98625 -22.59682,13.154 -37.17969,21.60156 l -62.42031,-36.13907 c 22.07928,-12.73855 43.39573,-25.04485 61.39687,-35.46718 5.26424,-3.04792 9.65862,-5.6 14.38282,-8.34063 l 26.22656,15.18437 0,-8.32031 -19.05,-11.03125 c 6.6147,-3.84251 12.30008,-7.15456 17.97657,-10.46249 l 0.89218,-0.51876 -0.10781,-1.02812 c -0.15397,-1.4941 -0.37995,-2.95682 -0.65,-4.39376 l -0.41875,-2.22968 -1.95781,1.14375 c -6.99933,4.08056 -14.11312,8.22561 -22.91407,13.33281 L 336.3711,45.2105 c 9.81834,-5.66873 18.99641,-10.97392 28.4375,-16.42812 l 5.16719,-2.98437 -14.39063,0 -0.37031,0.21249 c -8.80027,5.08292 -16.93967,9.79011 -26.02969,15.03751 l -26.34219,-15.25 -14.36874,0 33.51562,19.40469 C 297.77621,59.1755 272.49824,73.74786 246.10548,88.94645 L 183.55079,52.72926 C 197.34002,44.79732 211.1471,36.85483 225.1711,28.78394 l 5.19062,-2.98593 -14.43593,0 -0.36875,0.21249 c -13.14314,7.56287 -26.23971,15.09744 -39.20156,22.55313 l -39.32188,-22.76562 -14.37188,0 5.15469,2.98437 41.32969,23.92969 C 141.59772,68.55668 115.88823,83.3351 93.16172,96.39488 l -62.61718,-36.25 2.37656,-1.36406 C 40.49348,54.43307 62.7778,41.63077 85.13672,28.78394 l 5.19844,-2.98749 -12.88593,0 z m 251.72969,23.56718 62.40624,36.13594 c -3.52016,2.04227 -6.85105,3.97656 -10.80468,6.26562 -19.04809,11.02867 -41.46463,23.9726 -64.975,37.53595 l -62.50938,-36.1922 c 26.41722,-15.21379 51.74527,-29.8149 75.88282,-43.74531 z m -152.83595,7.51407 62.55626,36.21875 c -2.89891,1.67029 -5.74051,3.31031 -8.7,5.01405 -22.90507,13.18603 -45.37884,26.11074 -67.25313,38.69064 l -62.5875,-36.23751 c 22.94436,-13.18565 48.38201,-27.80953 75.98437,-43.68593 z m 69.74844,40.3828 62.51719,36.19376 c -24.33672,14.03658 -50.05832,28.85772 -75.90156,43.73593 l -62.56563,-36.225 c 20.77903,-11.95049 41.96937,-24.13789 63.64687,-36.61718 4.18624,-2.40993 8.15228,-4.69675 12.30313,-7.08751 z m 69.70782,40.35782 62.42812,36.14375 c -22.18216,12.8402 -48.15829,27.8366 -75.81407,43.78438 l -62.51405,-36.19219 c 25.92128,-14.92398 51.63161,-29.7375 75.9,-43.73594 z m -152.86407,7.49531 62.56407,36.225 c -25.91707,14.91883 -51.69762,29.74917 -75.95938,43.7 L 86.9445,188.79644 c 22.22545,-12.77075 48.2356,-27.72139 75.99062,-43.68282 z m 69.75938,40.38907 62.51562,36.19531 c -21.20803,12.22761 -42.89551,24.72701 -65.0125,37.45937 -3.7115,2.13661 -7.22027,4.15213 -10.89843,6.26876 l -62.56407,-36.22032 c 24.35805,-14.00702 50.08992,-28.81083 75.95938,-43.70312 z m 69.71094,40.35937 62.44375,36.15469 c -22.90287,13.24517 -48.31078,27.90926 -75.83282,43.77343 L 226.4945,269.59331 c 2.42394,-1.39446 4.80942,-2.76522 7.29374,-4.19531 23.34304,-13.43824 46.3194,-26.67936 68.6172,-39.53594 z m -152.87969,7.49063 62.56406,36.22187 c -26.43495,15.21357 -51.81614,29.81531 -75.96406,43.69844 L 73.52731,277.03081 c 22.40969,-12.8735 44.01747,-25.28927 75.99844,-43.67812 z m 69.76249,40.38906 62.525,36.2 c -17.07104,9.83902 -34.05642,19.63055 -51.61562,29.73906 -8.27798,4.76556 -16.10654,9.26629 -24.30625,13.98437 l -62.57031,-36.22656 c 24.22492,-13.92805 49.56198,-28.49962 75.96718,-43.69687 z m 69.71876,40.3625 62.45781,36.16562 c -23.47016,13.56247 -48.56764,28.04662 -75.84688,43.76562 l -62.52969,-36.20468 c 6.94228,-3.99432 13.64915,-7.85029 20.7,-11.90937 18.78532,-10.81443 36.9884,-21.30945 55.21876,-31.81719 z m -152.89532,7.48124 62.57188,36.22813 c -26.87593,15.46421 -52.08848,29.96495 -75.97188,43.69375 L 60.107,365.26049 c 20.79332,-11.94261 40.31644,-23.15785 76.00468,-43.675 z"
     id="path4260"
     inkscape:connector-curvature="0" />
  <path
     style="color:#000000;font-style:normal;font-variant:normal;font-weight:normal;font-stretch:normal;font-size:medium;line-height:normal;font-family:sans-serif;text-indent:0;text-align:start;text-decoration:none;text-decoration-line:none;text-decoration-style:solid;text-decoration-color:#000000;letter-spacing:normal;word-spacing:normal;text-transform:none;direction:ltr;block-progression:tb;writing-mode:lr-tb;baseline-shift:baseline;text-anchor:start;white-space:normal;clip-rule:nonzero;display:inline;overflow:visible;visibility:visible;opacity:1;isolation:auto;mix-blend-mode:normal;color-interpolation:sRGB;color-interpolation-filters:linearRGB;solid-color:#000000;solid-opacity:1;fill:#5d5d5d;fill-opacity:1;fill-rule:evenodd;stroke:none;stroke-width:3.20000005;stroke-linecap:butt;stroke-linejoin:miter;stroke-miterlimit:4;stroke-dasharray:none;stroke-dashoffset:0;stroke-opacity:1;color-rendering:auto;image-rendering:auto;shape-rendering:auto;text-rendering:auto;enable-background:accumulate"
     d="m 79.449219,27.800781 c -7.57702,0.442005 -13.569635,7.090396 -20.517628,10.041074 -7.699024,5.105494 -17.079827,8.458974 -23.74995,14.636661 -4.495922,6.186629 2.030718,1.509097 5.659258,-0.553712 13.998997,-8.042643 27.997994,-16.085286 41.996992,-24.127929 -1.127079,0.0037 -2.268372,-0.0065 -3.388672,0.0039 z m 90.699221,23.181641 c 6.7767,2.997014 -6.94428,5.964226 -9.54234,8.947142 C 138.12337,72.853918 115.6414,85.779596 93.158203,98.703125 72.284812,86.618612 51.410755,74.535246 30.537109,62.451172 c -3.114677,5.048005 5.684865,5.760659 8.560727,8.653939 16.952369,9.814651 33.905108,19.628661 50.857242,29.443719 -20.720306,11.89881 -41.438655,23.80104 -62.158203,35.70117 -0.911115,7.80462 8.924492,-2.95812 13.006609,-3.78042 17.449005,-10.02365 34.897725,-20.0478 52.346907,-30.07114 22.197109,12.85183 44.394059,25.70395 66.591799,38.55468 -26.66551,15.32902 -53.33161,30.65698 -79.998049,45.98438 -17.315472,-10.02523 -34.631559,-20.0494 -51.947266,-30.07422 -0.913533,6.75908 8.904535,7.33133 12.980863,11.21373 11.919787,6.90207 23.839602,13.80409 35.759371,20.70619 -16.247641,9.32982 -32.493346,18.66301 -48.740234,27.99414 -0.908341,7.79837 8.926489,-2.96255 13.007289,-3.78313 12.978057,-7.45377 25.955971,-14.90779 38.934117,-22.3614 22.197739,12.85188 44.395409,25.70386 66.593749,38.55469 -26.66787,15.32877 -53.336929,30.65549 -80.005858,45.98242 -12.842826,-7.43602 -25.686245,-14.87101 -38.529297,-22.30664 -0.913533,6.75908 8.904531,7.33134 12.980857,11.21374 7.447134,4.31222 14.89429,8.6244 22.341409,12.93665 -11.774967,6.76084 -23.548045,13.52497 -35.322266,20.28711 -0.909746,7.80146 8.925662,-2.96003 13.007199,-3.78134 8.504784,-4.8847 17.0094,-9.76968 25.514285,-14.65421 22.199658,12.85258 44.399381,25.70506 66.599611,38.55665 -26.6691,15.3289 -53.339573,30.65542 -80.009767,45.98242 -8.370264,-4.84732 -16.740917,-9.69396 -25.111328,-14.54102 -0.914979,6.76061 8.904156,7.33241 12.981425,11.21471 6.260469,2.97154 11.881966,5.94096 2.446567,8.88509 -4.676932,3.3223 -11.690499,5.47405 -14.986586,9.48809 0.267619,5.77968 7.547249,-2.94557 10.809258,-3.3999 4.948832,-1.99396 9.903365,-7.34268 14.848945,-7.37939 21.869226,12.66131 43.737769,25.3238 65.607426,37.98437 -10.05688,5.7818 -20.116043,11.55963 -30.173832,17.33984 9.497212,1.34133 16.423072,-6.95449 24.626652,-10.46153 4.98373,-3.3436 9.96808,-6.99747 14.93697,-1.44041 7.60101,3.6626 14.51042,9.90003 22.55747,11.90194 9.76372,0.97609 -5.0789,-4.65678 -7.72733,-7.01443 -5.93859,-3.43784 -11.87671,-6.87645 -17.81564,-10.31369 26.65848,-15.33335 53.31604,-30.66828 79.97657,-45.99805 22.17683,12.83963 44.35406,25.67857 66.53125,38.51758 -14.35317,8.26895 -28.70451,16.54157 -43.0586,24.80859 9.49651,1.34264 16.40996,-6.97144 24.60766,-10.48437 7.21514,-4.15868 14.43249,-8.31353 21.64625,-12.47461 13.59543,7.48485 26.83143,16.31202 40.65234,22.95898 11.07916,1.32947 -2.48574,-3.96047 -5.86175,-6.51366 -10.52985,-6.0963 -21.05938,-12.19312 -31.58942,-18.28907 26.6218,-15.34604 53.23798,-30.70183 79.8457,-46.07227 20.583,11.91903 41.16814,23.83435 61.75196,35.75196 2.99501,-5.18409 -5.77678,-5.78159 -8.58214,-8.6697 -16.65621,-9.64332 -33.31249,-19.28651 -49.96864,-28.92991 20.40243,-11.77574 40.78514,-23.58539 61.13867,-35.44532 0.91514,-7.82528 -8.89131,2.99576 -12.96382,3.84466 -17.10218,9.95271 -34.23341,19.86117 -51.37407,29.75105 -22.15007,-12.82591 -44.30212,-25.64838 -66.45313,-38.47266 26.61916,-15.34729 53.23047,-30.70817 79.83203,-46.08594 16.98538,9.83693 33.97282,19.6703 50.95899,29.50586 0.91498,-6.76062 -8.90424,-7.33226 -12.98155,-11.21449 -11.59337,-6.71175 -23.18694,-13.42314 -34.78017,-20.13512 15.93839,-9.20835 31.85543,-18.45319 47.76172,-27.71679 0.91514,-7.82528 -8.89131,2.99575 -12.96382,3.84466 -12.65236,7.35778 -25.31398,14.70496 -37.99126,22.02253 -22.14368,-12.82179 -44.28837,-25.64183 -66.43359,-38.46094 26.60904,-15.35385 53.22158,-30.71543 79.80859,-46.09766 12.52671,7.25257 25.05338,14.50522 37.58008,21.75781 0.91499,-6.76062 -8.90425,-7.33224 -12.98156,-11.21447 -7.13704,-4.13158 -14.27376,-8.26372 -21.41102,-12.3949 11.46786,-6.65405 22.93516,-13.30853 34.39258,-19.98047 0.91518,-7.82521 -8.89173,2.99504 -12.96442,3.84362 -8.19955,4.77249 -16.41412,9.52521 -24.61957,14.29115 -22.13881,-12.81924 -44.27775,-25.63827 -66.41797,-38.45508 26.60138,-15.35551 53.2071,-30.7032 79.77539,-46.115237 8.07551,4.675164 16.15105,9.350255 24.22657,14.025387 0.91494,-6.760543 -8.90381,-7.33301 -12.98092,-11.215589 -7.60291,-2.96318 -9.28166,-5.930035 -0.7544,-8.91092 4.13025,-3.040065 10.58551,-4.914669 13.33102,-8.648878 0.0313,-5.958842 -6.9405,2.645698 -9.90464,2.957903 -4.9274,2.059631 -9.85593,7.26438 -14.7847,7.589358 -21.84316,-12.644621 -43.68553,-25.290602 -65.52941,-37.93398 10.04648,-5.802937 20.09241,-11.606835 30.13867,-17.410156 -9.49171,-1.341012 -16.3901,6.990319 -24.57974,10.50567 -4.9824,3.356063 -9.96466,7.038319 -14.94297,1.46872 -7.64056,-3.696895 -14.59893,-9.933758 -22.68432,-11.97439 -9.76112,-0.9756 5.08239,4.657523 7.72917,7.014646 5.98418,3.464487 11.96812,6.929372 17.95247,10.393557 -26.62293,15.36003 -53.25297,30.706143 -79.88476,46.050781 -22.18405,-12.84652 -44.36939,-25.690805 -66.55469,-38.535156 14.44045,-8.30847 28.88156,-16.615802 43.32226,-24.923828 -9.49566,-1.341166 -16.41434,6.963821 -24.61425,10.472915 -7.30213,4.199788 -14.6015,8.404392 -21.90528,12.601304 -13.66298,-7.525205 -26.96789,-16.384764 -40.85547,-23.074219 -11.07913,-1.329507 2.48567,3.960601 5.86164,6.513883 9.5969,5.55657 19.1938,11.11314 28.79071,16.669711 z m 160.0332,-3.34961 c 21.79763,12.621561 43.59441,25.244593 65.39258,37.865235 -26.56555,15.413813 -53.17145,30.758423 -79.77149,46.113283 -22.16707,-12.83684 -44.3358,-25.6708 -66.5039,-38.505861 26.63246,-15.343045 53.26161,-30.690216 79.88281,-46.052735 l 0.865,0.501769 0.135,0.07831 z M 177.3457,55.146484 c 21.85031,12.650957 43.70023,25.302597 65.55078,37.953125 C 216.25749,108.45569 189.59411,123.77426 162.94141,139.10938 140.74689,126.25886 118.55259,113.40798 96.357422,100.55859 123.02069,85.228273 149.68365,69.897402 176.34766,54.568359 l 0.86531,0.501237 0.13273,0.07689 z m 69.74805,40.382813 c 21.83793,12.643163 43.67556,25.286833 65.51367,37.929683 -26.63063,15.3524 -53.264,30.70005 -79.90234,46.03907 -22.18963,-12.84492 -44.37696,-25.69384 -66.56641,-38.53907 26.65074,-15.33947 53.31546,-30.65933 79.95508,-46.009761 l 0.865,0.501768 0.135,0.07831 z m 69.70703,40.359373 c 21.80663,12.62503 43.61336,25.24986 65.41992,37.875 -26.59342,15.38093 -53.19677,30.74467 -79.80859,46.09375 -22.17043,-12.8373 -44.34145,-25.6736 -66.51367,-38.50781 26.6385,-15.33939 53.27455,-30.68304 79.90234,-46.04102 l 0.865,0.50177 0.135,0.0783 z m -152.86328,7.49414 c 21.85491,12.65348 43.70906,25.30828 65.56445,37.96094 -26.65563,15.33458 -53.30933,30.67252 -79.96679,46.00391 -22.19715,-12.85242 -44.39397,-25.7054 -66.591801,-38.55664 26.664961,-15.32948 53.330261,-30.65838 79.996091,-45.98633 l 0.86531,0.50123 0.13274,0.0769 z m 69.75977,40.38867 c 21.83728,12.64316 43.67421,25.28692 65.51171,37.92969 -26.63937,15.34206 -53.26554,30.70731 -79.91406,46.03321 -22.18729,-12.84542 -44.37463,-25.69074 -66.5625,-38.53516 26.6557,-15.33511 53.3093,-30.67388 79.9668,-46.00586 l 0.86531,0.50124 0.13274,0.0769 z m 69.71093,40.35938 c 21.81187,12.62952 43.62359,25.25931 65.43555,37.88867 -26.60095,15.3764 -53.21252,30.7344 -79.83008,46.08203 -22.17293,-12.83944 -44.34735,-25.67631 -66.52148,-38.51367 26.64527,-15.32571 53.2827,-30.68181 79.91601,-46.03711 l 0.865,0.50177 0.135,0.0783 z m -152.88086,7.49219 c 21.85489,12.65222 43.70923,25.30539 65.56446,37.95703 -26.65678,15.33419 -53.31201,30.6711 -79.97071,46.00195 -22.1984,-12.8525 -44.396669,-25.70523 -66.595699,-38.55664 26.667195,-15.32817 53.335639,-30.65416 80.003909,-45.98047 l 0.86531,0.50124 0.13273,0.0769 z m 69.76368,40.38867 c 21.83988,12.64446 43.67945,25.28947 65.51953,37.93359 -26.64125,15.34492 -53.26942,30.70899 -79.92383,46.0293 -22.18929,-12.84728 -44.37844,-25.69483 -66.56836,-38.54102 26.65793,-15.3338 53.31468,-30.66967 79.97461,-46 l 0.86531,0.50124 0.13274,0.0769 z m 69.71875,40.36133 c 21.81725,12.63247 43.63294,25.26764 65.45117,37.89843 -26.60693,15.37248 -53.22321,30.72874 -79.84571,46.07422 -22.1756,-12.84192 -44.35241,-25.68177 -66.52929,-38.52148 26.65303,-15.32263 53.28446,-30.67926 79.92383,-46.03125 l 0.865,0.50177 0.135,0.0783 z m -152.89649,7.48242 c 21.85751,12.65479 43.7143,25.31084 65.57227,37.96484 -26.65902,15.33289 -53.31739,30.66689 -79.97852,45.9961 -22.20041,-12.85437 -44.40047,-25.70932 -66.601561,-38.5625 26.668886,-15.32733 53.339671,-30.65135 80.009761,-45.97657 l 0.86531,0.50124 0.13274,0.0769 z m 264.6875,84.12695 c -10.93842,6.34675 -21.8793,12.69808 -32.83789,19.01367 9.56945,1.28074 16.52866,-7.09023 24.80703,-10.65778 6.9857,-4.69548 15.5907,-7.69799 21.53086,-13.49847 4.74319,-6.38755 -1.88445,-1.59837 -5.53885,0.51051 -2.65371,1.54403 -5.30743,3.08805 -7.96115,4.63207 z"
     id="path4471"
     inkscape:connector-curvature="0" />
  <g
     style="fill:#747474;fill-opacity:1;stroke:none;stroke-width:17.30223465;stroke-linecap:butt;stroke-linejoin:round;stroke-miterlimit:4;stroke-dasharray:none;stroke-opacity:1"
     transform="matrix(0.8290142,0,0,1.0315104,-28.48579,462.35198)"
     id="g4316">
    <path
       style="opacity:1;fill:#333333;fill-opacity:1;stroke:none;stroke-width:17.30223465;stroke-linecap:round;stroke-linejoin:round;stroke-miterlimit:4;stroke-dasharray:none;stroke-opacity:1;filter:url(#filter4330)"
       d="m 207.69922,-385.10573 c -31.24302,1.04844 -57.21052,23.82932 -72.34766,49.69922 -11.82601,20.44607 -24.63942,41.31988 -29.36328,64.70703 4.37136,12.97172 18.52724,17.9732 26.95071,27.73201 67.24099,57.96418 130.51301,122.31299 208.20845,166.658008 26.11792,13.894044 58.15146,23.720343 87.06461,12.547207 30.22192,-12.083583 48.84202,-41.126235 62.62884,-69.126915 6.46488,-12.92724 13.38069,-26.17265 15.78802,-40.51539 -4.12991,-12.30821 -17.68786,-16.87963 -25.55044,-26.24585 -67.54466,-58.33346 -131.25137,-122.80588 -209.14488,-167.67797 -19.74992,-10.45852 -41.62548,-18.17636 -64.23437,-17.77735 z"
       id="path4318"
       inkscape:connector-curvature="0" />
  </g>
  <g
     id="g4226"
     transform="matrix(-0.8660254,-0.5,-0.5,0.8660254,1220.9457,1029.852)"
     style="stroke-linecap:butt;stroke-linejoin:round" />
  <path
     style="color:#000000;font-style:normal;font-variant:normal;font-weight:normal;font-stretch:normal;font-size:medium;line-height:normal;font-family:sans-serif;text-indent:0;text-align:start;text-decoration:none;text-decoration-line:none;text-decoration-style:solid;text-decoration-color:#000000;letter-spacing:normal;word-spacing:normal;text-transform:none;direction:ltr;block-progression:tb;writing-mode:lr-tb;baseline-shift:baseline;text-anchor:start;white-space:normal;clip-rule:nonzero;display:inline;overflow:visible;visibility:visible;opacity:1;isolation:auto;mix-blend-mode:normal;color-interpolation:sRGB;color-interpolation-filters:linearRGB;solid-color:#000000;solid-opacity:1;fill:#000000;fill-opacity:1;fill-rule:nonzero;stroke:none;stroke-width:16;stroke-linecap:round;stroke-linejoin:bevel;stroke-miterlimit:4;stroke-dasharray:none;stroke-dashoffset:0;stroke-opacity:1;color-rendering:auto;image-rendering:auto;shape-rendering:auto;text-rendering:auto;enable-background:accumulate"
     d="m 76.09333,15.39722 c -33.48702,0 -60.69727,27.2083 -60.69727,60.69531 l 0,298.60937 c 0,33.48702 27.21025,60.69532 60.69727,60.69532 l 298.60742,0 c 33.48701,0 60.69531,-27.2083 60.69531,-60.69532 l 0,-298.60937 c 0,-33.48701 -27.2083,-60.69531 -60.69531,-60.69531 l -298.60742,0 z m 0,16 298.60742,0 c 24.89977,0 44.69531,19.79554 44.69531,44.69531 l 0,298.60937 c 0,24.89977 -19.79554,44.69532 -44.69531,44.69532 l -298.60742,0 c -24.89977,0 -44.69727,-19.79555 -44.69727,-44.69532 l 0,-298.60937 c 0,-24.89977 19.7975,-44.69531 44.69727,-44.69531 z"
     id="rect4248"
     inkscape:connector-curvature="0" />
  <path
     style="color:#000000;font-style:normal;font-variant:normal;font-weight:normal;font-stretch:normal;font-size:medium;line-height:normal;font-family:sans-serif;text-indent:0;text-align:start;text-decoration:none;text-decoration-line:none;text-decoration-style:solid;text-decoration-color:#000000;letter-spacing:normal;word-spacing:normal;text-transform:none;direction:ltr;block-progression:tb;writing-mode:lr-tb;baseline-shift:baseline;text-anchor:start;white-space:normal;clip-rule:nonzero;display:inline;overflow:visible;visibility:visible;opacity:1;isolation:auto;mix-blend-mode:normal;color-interpolation:sRGB;color-interpolation-filters:linearRGB;solid-color:#000000;solid-opacity:1;fill:url(#radialGradient4374);fill-opacity:1;fill-rule:nonzero;stroke:none;stroke-width:16;stroke-linecap:round;stroke-linejoin:bevel;stroke-miterlimit:4;stroke-dasharray:none;stroke-dashoffset:0;stroke-opacity:1;color-rendering:auto;image-rendering:auto;shape-rendering:auto;text-rendering:auto;enable-background:accumulate"
     d="M 373.95312,21.267578 C 272.80209,21.71056 171.61931,21.067912 70.46875,21.587891 41.521038,24.007723 17.888366,52.770258 21.540867,81.691402 21.398538,181.59826 21.081903,281.52055 21.736328,381.41797 c 2.974384,28.59965 31.348338,51.32002 59.955074,47.83609 100.234368,0.0662 200.502078,0.60585 300.715798,-0.3124 27.94113,-3.5367 50.07419,-31.19786 46.91702,-59.28736 C 429.1705,269.08121 430.01494,168.4824 428.86133,67.925781 425.3695,41.731071 400.36099,20.48536 373.95312,21.267578 Z M 75.660156,25.246094 c 98.444884,0.487395 196.912344,-0.221537 295.360534,0.363936 13.52774,-1.014619 27.37985,3.148983 37.33673,12.532548 12.56781,11.05761 18.92933,28.260929 17.01804,44.841795 -0.23138,99.732177 0.59278,199.487677 -0.44577,299.205077 -3.19042,26.34066 -29.9467,46.50895 -56.125,43.18911 C 268.74113,425.13874 168.65425,425.97135 68.605469,424.92969 42.264156,421.74209 22.094773,394.98477 25.414613,368.80664 25.668773,268.72219 24.796061,168.61468 25.882812,68.544922 28.871205,44.508353 51.558795,25.113488 75.660156,25.246094 Z"
     id="path4360"
     inkscape:connector-curvature="0" />
  <g
     style="fill:#616161;fill-opacity:1;stroke-linecap:butt;stroke-linejoin:round"
     id="g4397"
     transform="matrix(0.8660254,-0.5,0.5,0.8660254,62.863993,253.06127)">
    <path
       style="fill:#616161;fill-opacity:1;fill-rule:evenodd;stroke:none;stroke-width:0.80000001px;stroke-linecap:butt;stroke-linejoin:miter;stroke-opacity:1;filter:url(#filter4425)"
       d="m 277.24805,-80.273438 c -1.48859,4.773783 3.64972,16.174464 -4,14.78711 -10.38086,0 -20.76172,0 -31.14258,0 1.16657,5.017669 -2.43997,14.808462 2,16.552734 31.14127,0 62.28255,0 93.42383,0 -20.09386,-11.601379 -40.18775,-23.202694 -60.28125,-34.804687 0,1.154948 0,2.309896 0,3.464843 z"
       id="path4399"
       inkscape:connector-curvature="0" />
    <path
       style="fill:#616161;fill-opacity:1;fill-rule:evenodd;stroke:none;stroke-width:0.80000001px;stroke-linecap:butt;stroke-linejoin:miter;stroke-opacity:1;filter:url(#filter4433)"
       d="m 243.10547,-32.142578 c 17.93877,10.35812 35.87777,20.715852 53.81641,31.0742186 -10e-6,-6.0839843 0,-12.1679686 0,-18.2519526 11.71419,0 23.42838,-10e-7 35.14257,0 -1.16656,-5.018329 2.43995,-14.80974 -2,-16.554688 -31.14062,0 -62.28125,0 -93.42187,0 2.1543,1.244141 4.30859,2.488281 6.46289,3.732422 z"
       id="path4401"
       inkscape:connector-curvature="0" />
  </g>
  <g
     transform="matrix(-0.8660254,-0.5,-0.5,0.8660254,594.25525,344.86205)"
     id="g4459"
     style="fill:#616161;fill-opacity:1;stroke-linecap:butt;stroke-linejoin:round">
    <path
       inkscape:connector-curvature="0"
       id="path4461"
       d="m 277.24805,-80.273438 c -1.48859,4.773783 3.64972,16.174464 -4,14.78711 -10.38086,0 -20.76172,0 -31.14258,0 1.16657,5.017669 -2.43997,14.808462 2,16.552734 31.14127,0 62.28255,0 93.42383,0 -20.09386,-11.601379 -40.18775,-23.202694 -60.28125,-34.804687 0,1.154948 0,2.309896 0,3.464843 z"
       style="fill:#616161;fill-opacity:1;fill-rule:evenodd;stroke:none;stroke-width:0.80000001px;stroke-linecap:butt;stroke-linejoin:miter;stroke-opacity:1;filter:url(#filter4425)" />
    <path
       inkscape:connector-curvature="0"
       id="path4463"
       d="m 243.10547,-32.142578 c 17.93877,10.35812 35.87777,20.715852 53.81641,31.0742186 -10e-6,-6.0839843 0,-12.1679686 0,-18.2519526 11.71419,0 23.42838,-10e-7 35.14257,0 -1.16656,-5.018329 2.43995,-14.80974 -2,-16.554688 -31.14062,0 -62.28125,0 -93.42187,0 2.1543,1.244141 4.30859,2.488281 6.46289,3.732422 z"
       style="fill:#616161;fill-opacity:1;fill-rule:evenodd;stroke:none;stroke-width:0.80000001px;stroke-linecap:butt;stroke-linejoin:miter;stroke-opacity:1;filter:url(#filter4433)" />
  </g>
  <g
     transform="matrix(0.8660254,-0.5,0.5,0.8660254,-62.824292,565.98415)"
     id="g4437"
     style="fill:#616161;fill-opacity:1;stroke-linecap:butt;stroke-linejoin:round">
    <path
       inkscape:connector-curvature="0"
       id="path4439"
       d="m 277.24805,-80.273438 c -1.48859,4.773783 3.64972,16.174464 -4,14.78711 -10.38086,0 -20.76172,0 -31.14258,0 1.16657,5.017669 -2.43997,14.808462 2,16.552734 31.14127,0 62.28255,0 93.42383,0 -20.09386,-11.601379 -40.18775,-23.202694 -60.28125,-34.804687 0,1.154948 0,2.309896 0,3.464843 z"
       style="fill:#616161;fill-opacity:1;fill-rule:evenodd;stroke:none;stroke-width:0.80000001px;stroke-linecap:butt;stroke-linejoin:miter;stroke-opacity:1;filter:url(#filter4425)" />
    <path
       inkscape:connector-curvature="0"
       id="path4441"
       d="m 243.10547,-32.142578 c 17.93877,10.35812 35.87777,20.715852 53.81641,31.0742186 -10e-6,-6.0839843 0,-12.1679686 0,-18.2519526 11.71419,0 23.42838,-10e-7 35.14257,0 -1.16656,-5.018329 2.43995,-14.80974 -2,-16.554688 -31.14062,0 -62.28125,0 -93.42187,0 2.1543,1.244141 4.30859,2.488281 6.46289,3.732422 z"
       style="fill:#616161;fill-opacity:1;fill-rule:evenodd;stroke:none;stroke-width:0.80000001px;stroke-linecap:butt;stroke-linejoin:miter;stroke-opacity:1;filter:url(#filter4433)" />
  </g>
  <g
     style="stroke-linecap:butt;stroke-linejoin:round"
     transform="matrix(-0.8660254,-0.5,-0.5,0.8660254,944.47151,1157.852)"
     id="g4232">
    <path
       id="path4234"
       d="m 1168.8438,-361.31875 0,16.7875 -35.1422,0 0,12.55312 85.9594,0 z"
       style="fill:#000000;fill-opacity:1;fill-rule:evenodd;stroke:none;stroke-width:0.80000001px;stroke-linecap:butt;stroke-linejoin:miter;stroke-opacity:1"
       inkscape:connector-curvature="0"
       sodipodi:nodetypes="cccccc" />
    <path
       inkscape:connector-curvature="0"
       style="fill:#000000;fill-opacity:1;fill-rule:evenodd;stroke:none;stroke-width:0.80000001px;stroke-linecap:butt;stroke-linejoin:miter;stroke-opacity:1"
       d="m 1184.5188,-285.57814 0,-16.7875 35.1422,0 0,-12.5531 -85.9594,0 z"
       id="path4236"
       sodipodi:nodetypes="cccccc" />
  </g>
  <g
     style="fill:#616161;fill-opacity:1;stroke-linecap:butt;stroke-linejoin:round"
     id="g4465"
     transform="matrix(-0.8660254,-0.5,-0.5,0.8660254,317.78106,472.86205)">
    <path
       style="fill:#616161;fill-opacity:1;fill-rule:evenodd;stroke:none;stroke-width:0.80000001px;stroke-linecap:butt;stroke-linejoin:miter;stroke-opacity:1;filter:url(#filter4425)"
       d="m 277.24805,-80.273438 c -1.48859,4.773783 3.64972,16.174464 -4,14.78711 -10.38086,0 -20.76172,0 -31.14258,0 1.16657,5.017669 -2.43997,14.808462 2,16.552734 31.14127,0 62.28255,0 93.42383,0 -20.09386,-11.601379 -40.18775,-23.202694 -60.28125,-34.804687 0,1.154948 0,2.309896 0,3.464843 z"
       id="path4467"
       inkscape:connector-curvature="0" />
    <path
       style="fill:#616161;fill-opacity:1;fill-rule:evenodd;stroke:none;stroke-width:0.80000001px;stroke-linecap:butt;stroke-linejoin:miter;stroke-opacity:1;filter:url(#filter4433)"
       d="m 243.10547,-32.142578 c 17.93877,10.35812 35.87777,20.715852 53.81641,31.0742186 -10e-6,-6.0839843 0,-12.1679686 0,-18.2519526 11.71419,0 23.42838,-10e-7 35.14257,0 -1.16656,-5.018329 2.43995,-14.80974 -2,-16.554688 -31.14062,0 -62.28125,0 -93.42187,0 2.1543,1.244141 4.30859,2.488281 6.46289,3.732422 z"
       id="path4469"
       inkscape:connector-curvature="0" />
  </g>
  <path
     inkscape:connector-curvature="0"
     id="path4379"
     d="M 373.95312,21.267578 C 272.80209,21.71056 171.61931,21.067912 70.46875,21.587891 41.521038,24.007723 17.888366,52.770258 21.540867,81.691402 21.398538,181.59826 21.081903,281.52055 21.736328,381.41797 c 2.974384,28.59965 31.348338,51.32002 59.955074,47.83609 100.234368,0.0662 200.502078,0.60585 300.715798,-0.3124 27.94113,-3.5367 50.07419,-31.19786 46.91702,-59.28736 C 429.1705,269.08121 430.01494,168.4824 428.86133,67.925781 425.3695,41.731071 400.36099,20.48536 373.95312,21.267578 Z M 75.660156,25.246094 c 98.444884,0.487395 196.912344,-0.221537 295.360534,0.363936 13.52774,-1.014619 27.37985,3.148983 37.33673,12.532548 12.56781,11.05761 18.92933,28.260929 17.01804,44.841795 -0.23138,99.732177 0.59278,199.487677 -0.44577,299.205077 -3.19042,26.34066 -29.9467,46.50895 -56.125,43.18911 C 268.74113,425.13874 168.65425,425.97135 68.605469,424.92969 42.264156,421.74209 22.094773,394.98477 25.414613,368.80664 25.668773,268.72219 24.796061,168.61468 25.882812,68.544922 28.871205,44.508353 51.558795,25.113488 75.660156,25.246094 Z"
     style="color:#000000;font-style:normal;font-variant:normal;font-weight:normal;font-stretch:normal;font-size:medium;line-height:normal;font-family:sans-serif;text-indent:0;text-align:start;text-decoration:none;text-decoration-line:none;text-decoration-style:solid;text-decoration-color:#000000;letter-spacing:normal;word-spacing:normal;text-transform:none;direction:ltr;block-progression:tb;writing-mode:lr-tb;baseline-shift:baseline;text-anchor:start;white-space:normal;clip-rule:nonzero;display:inline;overflow:visible;visibility:visible;opacity:0.5;isolation:auto;mix-blend-mode:normal;color-interpolation:sRGB;color-interpolation-filters:linearRGB;solid-color:#000000;solid-opacity:1;fill:url(#radialGradient4381);fill-opacity:1;fill-rule:nonzero;stroke:none;stroke-width:16;stroke-linecap:round;stroke-linejoin:bevel;stroke-miterlimit:4;stroke-dasharray:none;stroke-dashoffset:0;stroke-opacity:1;color-rendering:auto;image-rendering:auto;shape-rendering:auto;text-rendering:auto;enable-background:accumulate" />
  <rect
     style="opacity:1;fill:url(#linearGradient4365);fill-opacity:1;stroke:none;stroke-width:8;stroke-linecap:round;stroke-linejoin:bevel;stroke-miterlimit:4;stroke-dasharray:none;stroke-dashoffset:0;stroke-opacity:1"
     id="rect4206"
     width="396"
     height="396"
     x="28.331299"
     y="28.331295"
     ry="51.652176" />
  <g
     id="g4443"
     style="stroke-linecap:butt;stroke-linejoin:round">
    <g
       id="g4212"
       transform="matrix(0.8290142,0,0,1.0315104,-28.48579,462.35198)"
       style="fill:#ffbc3b;fill-opacity:1;stroke:none;stroke-width:17.30223465;stroke-linecap:butt;stroke-linejoin:round;stroke-miterlimit:4;stroke-dasharray:none;stroke-opacity:1">
      <path
         inkscape:connector-curvature="0"
         clip-path="url(#p5873ec822d-3)"
         d="m 495.14386,-179.30676 -0.513,1.24 -4.597,10.826 -4.264,9.525 -4.042,8.528 -3.853,7.651 -3.719,6.925 -3.613,6.29 -3.523,5.715 -3.452,5.201 -3.402,4.748 -3.357,4.324 -3.32,3.932 -3.29,3.568 -3.27,3.236 -3.268,2.933 -3.288,2.661 -3.298,2.389 -3.292,2.117 -3.317,1.875 -3.328,1.633 -3.394,1.421 -3.463,1.209 -3.539,0.998 -3.627,0.787 -3.743,0.574 -3.991,0.363 -6.151,0.091 -2.096,-0.091 -3.989,-0.333 -4.26,-0.574 -4.404,-0.817 -4.64,-1.088 -4.917,-1.391 -5.133,-1.694 -5.396,-2.026 -5.693,-2.389 -6.018,-2.782 -6.308,-3.175 -6.685,-3.629 -7.084,-4.113 -7.549,-4.656 -8.031,-5.232 -8.615,-5.897 -9.254,-6.622 -9.984,-7.439 -10.839,-8.377 -11.892,-9.495 -13.24,-10.887 -15.016,-12.67 -17.767,-15.332 -62.038,-54.885 -23.202,-20.473 -17.821,-15.483 -0.02,-0.03 4.847,-11.461 4.444,-9.949 4.169,-8.8 3.966,-7.862 3.831,-7.107 3.705,-6.411 3.609,-5.806 3.529,-5.261 3.468,-4.778 3.409,-4.3246 3.378,-3.9312 3.356,-3.5683 3.316,-3.2055 3.318,-2.903 3.307,-2.6006 3.317,-2.3285 3.31,-2.0563 3.335,-1.8144 3.345,-1.5725 3.411,-1.3608 3.481,-1.1491 3.559,-0.9375 3.649,-0.7257 3.774,-0.5141 3.471,-0.2722 1.487,-0.0605 6.219,0.0908 4.262,0.3628 4.359,0.6048 4.459,0.8468 4.677,1.1188 4.845,1.3911 5.082,1.6934 5.282,1.9959 5.603,2.3587 5.881,2.7216 6.192,3.1147 6.532,3.5381 6.897,3.9917 7.336,4.5057 7.792,5.0499 8.31,5.655 8.889,6.32 9.563,7.076 10.327,7.923 11.257,8.921 12.342,10.07 13.761,11.521 15.68,13.427 18.751,16.36 25.835,22.861 48.213,42.699 17.648,15.332 0.01,0.015 z"
         style="opacity:1;fill:#ffbc3b;fill-opacity:1;stroke:none;stroke-width:17.30223465;stroke-linecap:round;stroke-linejoin:round;stroke-miterlimit:4;stroke-dasharray:none;stroke-opacity:1"
         id="path4214"
         sodipodi:nodetypes="cccccccccccccccccccccccccccccccccccccccccccccccccccccccccccccccccccccccccccccccccccccccccccccccccccccccccccccc" />
    </g>
    <g
       style="fill:url(#linearGradient4302);fill-opacity:1;stroke:none;stroke-width:17.30223465;stroke-linecap:butt;stroke-linejoin:round;stroke-miterlimit:4;stroke-dasharray:none;stroke-opacity:1"
       transform="matrix(0.8290142,0,0,1.0315104,-28.48579,462.35198)"
       id="g4760">
      <path
         sodipodi:nodetypes="cccccccccccccccccccccccccccccccccccccccccccccccccccccccccccccccccccccccccccccccccccccccccccccccccccccccccccccc"
         id="path4762"
         style="opacity:1;fill:url(#linearGradient4336);fill-opacity:1;stroke:none;stroke-width:17.30223465;stroke-linecap:round;stroke-linejoin:round;stroke-miterlimit:4;stroke-dasharray:none;stroke-opacity:1"
         d="m 495.14386,-179.30676 -0.513,1.24 -4.597,10.826 -4.264,9.525 -4.042,8.528 -3.853,7.651 -3.719,6.925 -3.613,6.29 -3.523,5.715 -3.452,5.201 -3.402,4.748 -3.357,4.324 -3.32,3.932 -3.29,3.568 -3.27,3.236 -3.268,2.933 -3.288,2.661 -3.298,2.389 -3.292,2.117 -3.317,1.875 -3.328,1.633 -3.394,1.421 -3.463,1.209 -3.539,0.998 -3.627,0.787 -3.743,0.574 -3.991,0.363 -6.151,0.091 -2.096,-0.091 -3.989,-0.333 -4.26,-0.574 -4.404,-0.817 -4.64,-1.088 -4.917,-1.391 -5.133,-1.694 -5.396,-2.026 -5.693,-2.389 -6.018,-2.782 -6.308,-3.175 -6.685,-3.629 -7.084,-4.113 -7.549,-4.656 -8.031,-5.232 -8.615,-5.897 -9.254,-6.622 -9.984,-7.439 -10.839,-8.377 -11.892,-9.495 -13.24,-10.887 -15.016,-12.67 -17.767,-15.332 -62.038,-54.885 -23.202,-20.473 -17.821,-15.483 -0.02,-0.03 4.847,-11.461 4.444,-9.949 4.169,-8.8 3.966,-7.862 3.831,-7.107 3.705,-6.411 3.609,-5.806 3.529,-5.261 3.468,-4.778 3.409,-4.3246 3.378,-3.9312 3.356,-3.5683 3.316,-3.2055 3.318,-2.903 3.307,-2.6006 3.317,-2.3285 3.31,-2.0563 3.335,-1.8144 3.345,-1.5725 3.411,-1.3608 3.481,-1.1491 3.559,-0.9375 3.649,-0.7257 3.774,-0.5141 3.471,-0.2722 1.487,-0.0605 6.219,0.0908 4.262,0.3628 4.359,0.6048 4.459,0.8468 4.677,1.1188 4.845,1.3911 5.082,1.6934 5.282,1.9959 5.603,2.3587 5.881,2.7216 6.192,3.1147 6.532,3.5381 6.897,3.9917 7.336,4.5057 7.792,5.0499 8.31,5.655 8.889,6.32 9.563,7.076 10.327,7.923 11.257,8.921 12.342,10.07 13.761,11.521 15.68,13.427 18.751,16.36 25.835,22.861 48.213,42.699 17.648,15.332 0.01,0.015 z"
         clip-path="url(#p5873ec822d-3)"
         inkscape:connector-curvature="0" />
    </g>
    <g
       style="fill:#105a00;fill-opacity:0;stroke:none;stroke-width:17.30223465;stroke-linecap:butt;stroke-linejoin:round;stroke-miterlimit:4;stroke-dasharray:none;stroke-opacity:1"
       transform="matrix(0.8290142,0,0,1.0315104,-172.48579,462.35198)"
       id="g4414">
      <path
         sodipodi:nodetypes="cccccccccccccccccccccccccccccccccccccccccccccccccccccccccccccccccccccccccccccccccccccccccccccccccccccccccccccc"
         id="path4416"
         style="opacity:1;fill:#105a00;fill-opacity:0;stroke:none;stroke-width:17.30223465;stroke-linecap:round;stroke-linejoin:round;stroke-miterlimit:4;stroke-dasharray:none;stroke-opacity:1"
         d="m 668.84413,-179.30676 -0.513,1.24 -4.597,10.826 -4.264,9.525 -4.042,8.528 -3.853,7.651 -3.719,6.925 -3.613,6.29 -3.523,5.715 -3.452,5.201 -3.402,4.748 -3.357,4.324 -3.32,3.932 -3.29,3.568 -3.27,3.236 -3.268,2.933 -3.288,2.661 -3.298,2.389 -3.292,2.117 -3.317,1.875 -3.328,1.633 -3.394,1.421 -3.463,1.209 -3.539,0.998 -3.627,0.787 -3.743,0.574 -3.991,0.363 -6.151,0.091 -2.096,-0.091 -3.989,-0.333 -4.26,-0.574 -4.404,-0.817 -4.64,-1.088 -4.917,-1.391 -5.133,-1.694 -5.396,-2.026 -5.693,-2.389 -6.018,-2.782 -6.308,-3.175 -6.685,-3.629 -7.084,-4.113 -7.549,-4.656 -8.031,-5.232 -8.615,-5.897 -9.254,-6.622 -9.984,-7.439 -10.839,-8.377 -11.892,-9.495 -13.24,-10.887 -15.016,-12.67 -17.767,-15.332 -62.038,-54.885 -23.202,-20.473 -17.821,-15.483 -0.02,-0.03 4.847,-11.461 4.444,-9.949 4.169,-8.8 3.966,-7.862 3.831,-7.107 3.705,-6.411 3.609,-5.806 3.529,-5.261 3.468,-4.778 3.409,-4.3246 3.378,-3.9312 3.356,-3.5683 3.316,-3.2055 3.318,-2.903 3.307,-2.6006 3.317,-2.3285 3.31,-2.0563 3.335,-1.8144 3.345,-1.5725 3.411,-1.3608 3.481,-1.1491 3.559,-0.9375 3.649,-0.7257 3.774,-0.5141 3.471,-0.2722 1.487,-0.0605 6.219,0.0908 4.262,0.3628 4.359,0.6048 4.459,0.8468 4.677,1.1188 4.845,1.3911 5.082,1.6934 5.282,1.9959 5.603,2.3587 5.881,2.7216 6.192,3.1147 6.532,3.5381 6.897,3.9917 7.336,4.5057 7.792,5.0499 8.31,5.655 8.889,6.32 9.563,7.076 10.327,7.923 11.257,8.921 12.342,10.07 13.761,11.521 15.68,13.427 18.751,16.36 25.835,22.861 48.213,42.699 17.648,15.332 0.01,0.015 z"
         clip-path="url(#p5873ec822d-3)"
         inkscape:connector-curvature="0" />
    </g>
    <g
       style="fill:url(#linearGradient4440);fill-opacity:1;stroke:none;stroke-width:17.30223465;stroke-linecap:butt;stroke-linejoin:round;stroke-miterlimit:4;stroke-dasharray:none;stroke-opacity:1"
       transform="matrix(0.8290142,0,0,1.0315104,-28.48579,462.35198)"
       id="g4216">
      <path
         sodipodi:nodetypes="ccczzccc"
         inkscape:connector-curvature="0"
         id="path4218"
         d="m 207.50391,-364.76562 c -23.68658,1.93761 -40.48655,21.95735 -51.46541,41.32561 -7.44828,12.43672 -13.63907,25.53404 -19.3842,38.80329 31.17537,-4.50239 78.52078,-20.93083 134.23799,19.58609 55.71721,40.51691 75.97387,63.33274 112.69564,75.09587 36.72177,11.76313 55.26737,19.4332 91.46691,14.47626 -71.15092,-60.6148 -136.96402,-129.14511 -218.52535,-176.07036 -15.14321,-7.75016 -31.79799,-13.65826 -49.02558,-13.21676 z"
         style="opacity:1;fill:url(#linearGradient4340);fill-opacity:1;stroke:none;stroke-width:17.30223465;stroke-linecap:round;stroke-linejoin:round;stroke-miterlimit:4;stroke-dasharray:none;stroke-opacity:1" />
    </g>
    <g
       style="fill:none;fill-opacity:1;stroke:#000000;stroke-width:17.30223465;stroke-linecap:butt;stroke-linejoin:round;stroke-miterlimit:4;stroke-dasharray:none;stroke-opacity:1"
       transform="matrix(0.8290142,0,0,1.0315104,-28.48579,462.35198)"
       id="g4244">
      <path
         style="color:#000000;font-style:normal;font-variant:normal;font-weight:normal;font-stretch:normal;font-size:medium;line-height:normal;font-family:sans-serif;text-indent:0;text-align:start;text-decoration:none;text-decoration-line:none;text-decoration-style:solid;text-decoration-color:#000000;letter-spacing:normal;word-spacing:normal;text-transform:none;direction:ltr;block-progression:tb;writing-mode:lr-tb;baseline-shift:baseline;text-anchor:start;white-space:normal;clip-rule:nonzero;display:inline;overflow:visible;visibility:visible;opacity:1;isolation:auto;mix-blend-mode:normal;color-interpolation:sRGB;color-interpolation-filters:linearRGB;solid-color:#000000;solid-opacity:1;fill:#000000;fill-opacity:1;fill-rule:nonzero;stroke:none;stroke-width:17.30223465;stroke-linecap:round;stroke-linejoin:round;stroke-miterlimit:4;stroke-dasharray:none;stroke-dashoffset:0;stroke-opacity:1;color-rendering:auto;image-rendering:auto;shape-rendering:auto;text-rendering:auto;enable-background:accumulate"
         d="m 209.25586,-389.53711 a 8.6519824,8.6519824 0 0 0 -0.47852,0.006 l -1.48632,0.0605 a 8.6519824,8.6519824 0 0 0 -0.32422,0.0195 l -3.47071,0.27344 a 8.6519824,8.6519824 0 0 0 -0.49218,0.0527 l -3.77344,0.51367 a 8.6519824,8.6519824 0 0 0 -0.51953,0.0859 l -3.65039,0.72656 a 8.6519824,8.6519824 0 0 0 -0.51563,0.11914 l -3.55859,0.9375 a 8.6519824,8.6519824 0 0 0 -0.50781,0.15039 l -3.48243,1.14844 a 8.6519824,8.6519824 0 0 0 -0.49218,0.17969 l -3.41211,1.36133 a 8.6519824,8.6519824 0 0 0 -0.47461,0.20703 l -3.34571,1.57226 a 8.6519824,8.6519824 0 0 0 -0.45312,0.23047 l -3.33398,1.81446 a 8.6519824,8.6519824 0 0 0 -0.43165,0.25 l -3.31054,2.05664 a 8.6519824,8.6519824 0 0 0 -0.4043,0.26757 l -3.31836,2.32813 a 8.6519824,8.6519824 0 0 0 -0.37695,0.28125 l -3.30664,2.59961 a 8.6519824,8.6519824 0 0 0 -0.34766,0.28906 l -3.31836,2.9043 a 8.6519824,8.6519824 0 0 0 -0.3164,0.29101 l -3.31641,3.20508 a 8.6519824,8.6519824 0 0 0 -0.28906,0.29297 l -3.35547,3.56836 a 8.6519824,8.6519824 0 0 0 -0.25977,0.28906 l -3.3789,3.92969 a 8.6519824,8.6519824 0 0 0 -0.23243,0.2832 l -3.4082,4.32422 a 8.6519824,8.6519824 0 0 0 -0.20703,0.27539 l -3.46875,4.77735 a 8.6519824,8.6519824 0 0 0 -0.18359,0.26171 l -3.5293,5.26172 a 8.6519824,8.6519824 0 0 0 -0.16211,0.25196 l -3.60938,5.80664 a 8.6519824,8.6519824 0 0 0 -0.14257,0.23828 l -3.70508,6.41015 a 8.6519824,8.6519824 0 0 0 -0.125,0.22461 l -3.83008,7.10743 a 8.6519824,8.6519824 0 0 0 -0.10937,0.20703 l -3.9668,7.86328 a 8.6519824,8.6519824 0 0 0 -0.0937,0.1914 l -4.16797,8.80079 a 8.6519824,8.6519824 0 0 0 -0.082,0.17578 l -4.44336,9.94922 a 8.6519824,8.6519824 0 0 0 -0.0684,0.1582 l -4.84766,11.46094 a 8.6519824,8.6519824 0 0 0 0.76953,8.16797 l 0.0195,0.0293 a 8.6519824,8.6519824 0 0 0 1.52539,1.73242 l 17.79492,15.46094 23.17383,20.44727 62.0332,54.88086 a 8.6519824,8.6519824 0 0 0 0.0801,0.0703 l 17.76758,15.33203 a 8.6519824,8.6519824 0 0 0 0.0723,0.0625 l 15.01563,12.66992 a 8.6519824,8.6519824 0 0 0 0.0859,0.0703 l 13.24024,10.88672 a 8.6519824,8.6519824 0 0 0 0.0957,0.0801 l 11.89258,9.49414 a 8.6519824,8.6519824 0 0 0 0.10742,0.084 l 10.83789,8.37695 a 8.6519824,8.6519824 0 0 0 0.12305,0.0937 l 9.98242,7.4375 a 8.6519824,8.6519824 0 0 0 0.13477,0.0996 l 9.2539,6.62109 a 8.6519824,8.6519824 0 0 0 0.14844,0.10352 l 8.61523,5.89648 a 8.6519824,8.6519824 0 0 0 0.16407,0.10938 l 8.03125,5.23242 a 8.6519824,8.6519824 0 0 0 0.17968,0.115234 l 7.55079,4.65625 a 8.6519824,8.6519824 0 0 0 0.19726,0.117187 l 7.08399,4.113281 a 8.6519824,8.6519824 0 0 0 0.21679,0.121094 l 6.6836,3.63086 a 8.6519824,8.6519824 0 0 0 0.23828,0.123046 l 6.30859,3.175782 a 8.6519824,8.6519824 0 0 0 0.25977,0.125 l 6.01758,2.78125 a 8.6519824,8.6519824 0 0 0 0.28125,0.125 l 5.69336,2.388672 a 8.6519824,8.6519824 0 0 0 0.30664,0.123046 l 5.39648,2.025391 a 8.6519824,8.6519824 0 0 0 0.33008,0.115235 l 5.13281,1.695312 a 8.6519824,8.6519824 0 0 0 0.35547,0.109375 l 4.91797,1.390625 a 8.6519824,8.6519824 0 0 0 0.3789,0.09766 l 4.64063,1.087891 a 8.6519824,8.6519824 0 0 0 0.39648,0.08398 l 4.4043,0.816407 a 8.6519824,8.6519824 0 0 0 0.42383,0.06836 l 4.25976,0.574219 a 8.6519824,8.6519824 0 0 0 0.43555,0.04687 l 3.98828,0.332031 a 8.6519824,8.6519824 0 0 0 0.34375,0.02344 l 2.09766,0.08984 a 8.6519824,8.6519824 0 0 0 0.50195,0.0078 l 6.15235,-0.0918 a 8.6519824,8.6519824 0 0 0 0.65429,-0.0332 l 3.99219,-0.363282 a 8.6519824,8.6519824 0 0 0 0.52734,-0.06445 l 3.74219,-0.574219 a 8.6519824,8.6519824 0 0 0 0.52344,-0.09766 l 3.62695,-0.787109 a 8.6519824,8.6519824 0 0 0 0.51367,-0.126953 l 3.53907,-0.998047 a 8.6519824,8.6519824 0 0 0 0.5039,-0.158203 l 3.46289,-1.208985 a 8.6519824,8.6519824 0 0 0 0.48828,-0.1875 l 3.39454,-1.421875 a 8.6519824,8.6519824 0 0 0 0.4707,-0.21289 l 3.32812,-1.632813 a 8.6519824,8.6519824 0 0 0 0.44532,-0.236328 l 3.3164,-1.875 a 8.6519824,8.6519824 0 0 0 0.42383,-0.253906 l 3.29102,-2.117188 a 8.6519824,8.6519824 0 0 0 0.39648,-0.271484 l 3.29688,-2.388672 a 8.6519824,8.6519824 0 0 0 0.36718,-0.28125 l 3.28907,-2.660156 a 8.6519824,8.6519824 0 0 0 0.33593,-0.287109 l 3.26758,-2.933594 a 8.6519824,8.6519824 0 0 0 0.30664,-0.289063 l 3.26953,-3.236328 a 8.6519824,8.6519824 0 0 0 0.27539,-0.283203 l 3.29102,-3.568359 a 8.6519824,8.6519824 0 0 0 0.25,-0.283203 l 3.31836,-3.931639 a 8.6519824,8.6519824 0 0 0 0.22461,-0.27735 L 467,-107.35156 a 8.6519824,8.6519824 0 0 0 0.19727,-0.26758 l 3.40234,-4.74805 a 8.6519824,8.6519824 0 0 0 0.17578,-0.2539 l 3.45313,-5.20118 a 8.6519824,8.6519824 0 0 0 0.15625,-0.24414 l 3.52148,-5.71484 a 8.6519824,8.6519824 0 0 0 0.13867,-0.23242 l 3.61328,-6.28906 a 8.6519824,8.6519824 0 0 0 0.11914,-0.2168 l 3.71875,-6.92383 a 8.6519824,8.6519824 0 0 0 0.10547,-0.20312 l 3.85352,-7.6504 a 8.6519824,8.6519824 0 0 0 0.0898,-0.18554 l 4.04297,-8.52735 a 8.6519824,8.6519824 0 0 0 0.0781,-0.17187 l 4.26367,-9.52344 a 8.6519824,8.6519824 0 0 0 0.0664,-0.1543 l 4.59766,-10.82617 a 8.6519824,8.6519824 0 0 0 0.0312,-0.0742 L 503.13867,-176 a 8.6519824,8.6519824 0 0 0 -0.79687,-8.10547 l -0.01,-0.0156 -0.01,-0.0137 a 8.6519824,8.6519824 0 0 0 -1.52539,-1.73242 l -17.61524,-15.30469 -48.18359,-42.67187 a 8.6519824,8.6519824 0 0 0 -0.002,-0.002 l -25.83593,-22.86133 a 8.6519824,8.6519824 0 0 0 -0.0449,-0.041 l -18.75,-16.35937 a 8.6519824,8.6519824 0 0 0 -0.0605,-0.0527 l -15.68164,-13.42578 a 8.6519824,8.6519824 0 0 0 -0.0723,-0.0625 l -13.76172,-11.52148 a 8.6519824,8.6519824 0 0 0 -0.084,-0.0703 l -12.3418,-10.07032 a 8.6519824,8.6519824 0 0 0 -0.0957,-0.0762 l -11.25781,-8.92187 a 8.6519824,8.6519824 0 0 0 -0.10743,-0.082 l -10.32617,-7.92383 a 8.6519824,8.6519824 0 0 0 -0.12109,-0.0898 l -9.5625,-7.07617 a 8.6519824,8.6519824 0 0 0 -0.13281,-0.0976 l -8.88868,-6.31836 a 8.6519824,8.6519824 0 0 0 -0.14648,-0.10157 l -8.31055,-5.65625 a 8.6519824,8.6519824 0 0 0 -0.16211,-0.10742 l -7.79101,-5.04883 a 8.6519824,8.6519824 0 0 0 -0.17774,-0.11328 l -7.33593,-4.50586 a 8.6519824,8.6519824 0 0 0 -0.19336,-0.11523 l -6.89844,-3.99219 a 8.6519824,8.6519824 0 0 0 -0.21289,-0.11914 l -6.53125,-3.53711 a 8.6519824,8.6519824 0 0 0 -0.23242,-0.12305 l -6.19336,-3.11328 a 8.6519824,8.6519824 0 0 0 -0.25391,-0.12304 l -5.88086,-2.72266 a 8.6519824,8.6519824 0 0 0 -0.27539,-0.12109 l -5.60351,-2.35938 a 8.6519824,8.6519824 0 0 0 -0.29883,-0.11914 l -5.28321,-1.99609 a 8.6519824,8.6519824 0 0 0 -0.32226,-0.11524 l -5.08203,-1.69336 a 8.6519824,8.6519824 0 0 0 -0.34766,-0.10742 l -4.84375,-1.39062 a 8.6519824,8.6519824 0 0 0 -0.375,-0.0977 l -4.67773,-1.11914 a 8.6519824,8.6519824 0 0 0 -0.39844,-0.0859 l -4.45899,-0.84765 a 8.6519824,8.6519824 0 0 0 -0.42578,-0.0684 l -4.35937,-0.60547 a 8.6519824,8.6519824 0 0 0 -0.45508,-0.0508 l -4.26172,-0.36329 a 8.6519824,8.6519824 0 0 0 -0.60742,-0.0293 l -6.21875,-0.0918 z m -0.0137,17.30469 5.67578,0.082 3.73047,0.31836 3.91992,0.54297 4.04687,0.76953 4.28907,1.02539 4.48437,1.28711 4.7461,1.58203 4.97265,1.87891 5.31446,2.23828 5.61523,2.59765 5.94922,2.99219 6.30859,3.41797 6.69336,3.87305 7.15039,4.39257 7.62305,4.93946 8.15625,5.55078 8.75,6.2207 9.43555,6.98242 10.21289,7.83594 11.15625,8.83985 12.25195,9.99609 13.68164,11.45508 15.61328,13.37109 18.69727,16.3125 25.8125,22.83985 48.21093,42.69921 a 8.6519824,8.6519824 0 0 0 0.0625,0.0527 l 12.93555,11.23633 -2.63476,6.20312 -4.19141,9.36328 -3.95703,8.34961 -3.75586,7.45703 -3.60742,6.71485 -3.48438,6.0664 -3.375,5.47852 -3.28711,4.95117 -3.21484,4.48633 -3.14649,4.05273 -3.08398,3.65235 -3.02734,3.2832 -2.97852,2.94922 -2.94726,2.64453 -2.93555,2.375 -2.91797,2.113281 -2.88281,1.853516 -2.88282,1.630859 -2.86914,1.408203 -2.91406,1.21875 -2.9668,1.035157 -3.02929,0.855468 -3.10742,0.673828 -3.2168,0.494141 -3.40039,0.308594 -5.57031,0.08203 -1.67188,-0.07227 -3.59961,-0.300781 -3.83008,-0.515625 -3.99414,-0.740234 -4.25,-0.998047 -4.54883,-1.287109 -4.79101,-1.580078 -5.07813,-1.90625 -5.39843,-2.265626 -5.7461,-2.65625 -6.06054,-3.050787 -6.45704,-3.50586 -6.87695,-3.99219 -7.36133,-4.53906 -7.85742,-5.11914 -8.45898,-5.79101 -9.11328,-6.52149 -9.85547,-7.34375 -10.72461,-8.28906 -11.79102,-9.41211 -13.14844,-10.8125 -14.9375,-12.60352 -17.6914,-15.26562 -61.99805,-54.85156 a 8.6519824,8.6519824 0 0 0 -0.008,-0.006 l -23.20117,-20.47461 a 8.6519824,8.6519824 0 0 0 -0.0508,-0.043 l -13.10547,-11.38672 2.37109,-5.60742 4.37109,-9.78125 4.08008,-8.61524 3.86524,-7.66211 3.71484,-6.89062 3.57031,-6.17969 3.45703,-5.56054 3.35547,-5.00391 3.27344,-4.50977 3.18945,-4.04492 3.13282,-3.64453 3.08203,-3.27734 3.01367,-2.91407 2.98437,-2.61132 2.94532,-2.31446 2.92578,-2.05468 2.89062,-1.79688 2.89258,-1.57422 2.88086,-1.35351 2.92578,-1.16797 2.98047,-0.98242 3.04492,-0.80274 3.13086,-0.62305 3.26758,-0.44531 3.0625,-0.24023 1.08594,-0.043 z"
         clip-path="url(#p5873ec822d-3)"
         id="path4246"
         inkscape:connector-curvature="0" />
    </g>
    <g
       id="g4312"
       transform="matrix(0.8290142,0,0,1.0315104,-28.48579,462.35198)"
       style="fill:#ffffff;fill-opacity:1;stroke:none;stroke-width:17.30223465;stroke-linecap:butt;stroke-linejoin:round;stroke-miterlimit:4;stroke-dasharray:none;stroke-opacity:1">
      <path
         inkscape:connector-curvature="0"
         id="path4314"
         d="m 207.66016,-383.50781 c -27.62454,0.93696 -50.16522,21.79245 -63.67188,44.21655 -11.86365,18.64171 -21.6594,38.61127 -29.01367,59.45142 3.72263,6.90428 11.87754,9.70526 16.73909,15.69702 65.27335,56.01614 126.52343,117.64297 199.48942,163.70141 23.99757,14.354847 51.27637,27.256819 79.82813,23.955082 23.8851,-3.542152 43.12994,-21.048596 55.63672,-40.923832 12.91658,-19.28661 23.25832,-40.67193 30.68945,-62.39453 -3.73372,-6.82596 -11.84429,-9.5251 -16.61162,-15.52831 -64.30506,-55.41684 -125.01098,-115.89528 -196.68525,-161.94044 -23.03852,-14.29828 -48.76285,-26.76131 -76.40039,-26.23437 z m 3.21484,5.24219 c 36.54772,1.3543 67.82984,23.0773 96.82812,43.17773 64.03559,46.87966 121.28214,102.11782 181.10352,154.0332 4.49686,7.03234 -3.23431,14.24554 -4.97066,20.87883 -12.23945,27.08961 -27.19841,55.43726 -53.21684,71.586016 -21.47319,11.820342 -47.92567,7.975796 -69.20656,-2.270148 -42.5833,-18.587318 -78.02456,-49.507718 -113.71634,-78.545948 -42.1231,-35.72715 -83.01949,-72.97187 -124.44624,-109.41828 -3.24306,-9.01587 4.90977,-16.42409 7.26146,-24.58321 12.80005,-26.8818 28.13551,-55.83676 55.98073,-69.65116 7.64026,-3.43071 16.01464,-5.16798 24.38281,-5.20703 z"
         style="color:#000000;font-style:normal;font-variant:normal;font-weight:normal;font-stretch:normal;font-size:medium;line-height:normal;font-family:sans-serif;text-indent:0;text-align:start;text-decoration:none;text-decoration-line:none;text-decoration-style:solid;text-decoration-color:#000000;letter-spacing:normal;word-spacing:normal;text-transform:none;direction:ltr;block-progression:tb;writing-mode:lr-tb;baseline-shift:baseline;text-anchor:start;white-space:normal;clip-rule:nonzero;display:inline;overflow:visible;visibility:visible;opacity:1;isolation:auto;mix-blend-mode:normal;color-interpolation:sRGB;color-interpolation-filters:linearRGB;solid-color:#000000;solid-opacity:1;fill:url(#radialGradient4354);fill-opacity:1;fill-rule:nonzero;stroke:none;stroke-width:17.30223465;stroke-linecap:round;stroke-linejoin:round;stroke-miterlimit:4;stroke-dasharray:none;stroke-dashoffset:0;stroke-opacity:1;color-rendering:auto;image-rendering:auto;shape-rendering:auto;text-rendering:auto;enable-background:accumulate" />
    </g>
    <g
       style="opacity:0.5;fill:#ffffff;fill-opacity:1;stroke:none;stroke-width:17.30223465;stroke-linecap:butt;stroke-linejoin:round;stroke-miterlimit:4;stroke-dasharray:none;stroke-opacity:1"
       transform="matrix(0.8290142,0,0,1.0315104,-28.48579,462.35198)"
       id="g4367">
      <path
         style="color:#000000;font-style:normal;font-variant:normal;font-weight:normal;font-stretch:normal;font-size:medium;line-height:normal;font-family:sans-serif;text-indent:0;text-align:start;text-decoration:none;text-decoration-line:none;text-decoration-style:solid;text-decoration-color:#000000;letter-spacing:normal;word-spacing:normal;text-transform:none;direction:ltr;block-progression:tb;writing-mode:lr-tb;baseline-shift:baseline;text-anchor:start;white-space:normal;clip-rule:nonzero;display:inline;overflow:visible;visibility:visible;opacity:0.328;isolation:auto;mix-blend-mode:normal;color-interpolation:sRGB;color-interpolation-filters:linearRGB;solid-color:#000000;solid-opacity:1;fill:url(#radialGradient4371);fill-opacity:1;fill-rule:nonzero;stroke:none;stroke-width:17.30223465;stroke-linecap:round;stroke-linejoin:round;stroke-miterlimit:4;stroke-dasharray:none;stroke-dashoffset:0;stroke-opacity:1;color-rendering:auto;image-rendering:auto;shape-rendering:auto;text-rendering:auto;enable-background:accumulate"
         d="m 207.66016,-383.50781 c -27.62454,0.93696 -50.16522,21.79245 -63.67188,44.21655 -11.86365,18.64171 -21.6594,38.61127 -29.01367,59.45142 3.72263,6.90428 11.87754,9.70526 16.73909,15.69702 65.27335,56.01614 126.52343,117.64297 199.48942,163.70141 23.99757,14.354847 51.27637,27.256819 79.82813,23.955082 23.8851,-3.542152 43.12994,-21.048596 55.63672,-40.923832 12.91658,-19.28661 23.25832,-40.67193 30.68945,-62.39453 -3.73372,-6.82596 -11.84429,-9.5251 -16.61162,-15.52831 -64.30506,-55.41684 -125.01098,-115.89528 -196.68525,-161.94044 -23.03852,-14.29828 -48.76285,-26.76131 -76.40039,-26.23437 z m 3.21484,5.24219 c 36.54772,1.3543 67.82984,23.0773 96.82812,43.17773 64.03559,46.87966 121.28214,102.11782 181.10352,154.0332 4.49686,7.03234 -3.23431,14.24554 -4.97066,20.87883 -12.23945,27.08961 -27.19841,55.43726 -53.21684,71.586016 -21.47319,11.820342 -47.92567,7.975796 -69.20656,-2.270148 -42.5833,-18.587318 -78.02456,-49.507718 -113.71634,-78.545948 -42.1231,-35.72715 -83.01949,-72.97187 -124.44624,-109.41828 -3.24306,-9.01587 4.90977,-16.42409 7.26146,-24.58321 12.80005,-26.8818 28.13551,-55.83676 55.98073,-69.65116 7.64026,-3.43071 16.01464,-5.16798 24.38281,-5.20703 z"
         id="path4369"
         inkscape:connector-curvature="0" />
    </g>
  </g>
  <g
     style="stroke-linecap:butt;stroke-linejoin:round"
     transform="matrix(-0.8660254,-0.5,-0.5,0.8660254,314.58048,469.66196)"
     id="g4610">
    <g
       style="stroke-linecap:butt;stroke-linejoin:round"
       id="g4612">
      <path
         sodipodi:nodetypes="cccccc"
         inkscape:connector-curvature="0"
         style="fill:#000000;fill-opacity:1;fill-rule:evenodd;stroke:none;stroke-width:0.80000001px;stroke-linecap:butt;stroke-linejoin:miter;stroke-opacity:1"
         d="m 279.24714,-80.27421 0,16.7875 -35.1422,0 0,12.55312 85.9594,0 z"
         id="path4614" />
      <path
         sodipodi:nodetypes="cccccc"
         id="path4616"
         d="m 294.92214,-4.5336 0,-16.7875 35.1422,0 0,-12.5531 -85.9594,0 z"
         style="fill:#000000;fill-opacity:1;fill-rule:evenodd;stroke:none;stroke-width:0.80000001px;stroke-linecap:butt;stroke-linejoin:miter;stroke-opacity:1"
         inkscape:connector-curvature="0" />
    </g>
    <path
       sodipodi:nodetypes="ccccccccc"
       inkscape:connector-curvature="0"
       style="fill:url(#linearGradient4628);fill-opacity:1;fill-rule:evenodd;stroke:none;stroke-width:0.80000001px;stroke-linecap:butt;stroke-linejoin:miter;stroke-opacity:1"
       d="m 284.04714,-72.27421 0,13.5875 -35.1422,0 0,2.95312 38.1797,0 -0.0551,-11.2 20.34457,11.2 5.0902,0 z"
       id="path4618" />
    <path
       id="path4620"
       d="m 267.72214,-26.12109 57.5422,0 0,-2.95312 -63.5594,0 3.55215,2.067577 z"
       style="fill:url(#linearGradient4636);fill-opacity:1;fill-rule:evenodd;stroke:none;stroke-width:0.80000001px;stroke-linecap:butt;stroke-linejoin:miter;stroke-opacity:1"
       inkscape:connector-curvature="0"
       sodipodi:nodetypes="cccccc" />
  </g>
  <g
     id="g4654"
     transform="matrix(0.8660254,-0.5,0.5,0.8660254,-66.023707,562.78406)"
     style="stroke-linecap:butt;stroke-linejoin:round">
    <g
       id="g4656"
       style="stroke-linecap:butt;stroke-linejoin:round">
      <path
         id="path4658"
         d="m 279.24714,-80.27421 0,16.7875 -35.1422,0 0,12.55312 85.9594,0 z"
         style="fill:#000000;fill-opacity:1;fill-rule:evenodd;stroke:none;stroke-width:0.80000001px;stroke-linecap:butt;stroke-linejoin:miter;stroke-opacity:1"
         inkscape:connector-curvature="0"
         sodipodi:nodetypes="cccccc" />
      <path
         inkscape:connector-curvature="0"
         style="fill:#000000;fill-opacity:1;fill-rule:evenodd;stroke:none;stroke-width:0.80000001px;stroke-linecap:butt;stroke-linejoin:miter;stroke-opacity:1"
         d="m 294.92214,-4.5336 0,-16.7875 35.1422,0 0,-12.5531 -85.9594,0 z"
         id="path4660"
         sodipodi:nodetypes="cccccc" />
    </g>
    <path
       id="path4662"
       d="m 284.04714,-72.27421 0,13.5875 -35.1422,0 0,2.95312 38.1797,0 -0.0551,-11.2 20.34457,11.2 5.0902,0 z"
       style="fill:url(#linearGradient4666);fill-opacity:1;fill-rule:evenodd;stroke:none;stroke-width:0.80000001px;stroke-linecap:butt;stroke-linejoin:miter;stroke-opacity:1"
       inkscape:connector-curvature="0"
       sodipodi:nodetypes="ccccccccc" />
    <path
       sodipodi:nodetypes="cccccc"
       inkscape:connector-curvature="0"
       style="fill:url(#linearGradient4668);fill-opacity:1;fill-rule:evenodd;stroke:none;stroke-width:0.80000001px;stroke-linecap:butt;stroke-linejoin:miter;stroke-opacity:1"
       d="m 267.72214,-26.12109 57.5422,0 0,-2.95312 -63.5594,0 3.55215,2.067577 z"
       id="path4664" />
  </g>
  <g
     style="stroke-linecap:butt;stroke-linejoin:round"
     transform="matrix(0.8660254,-0.5,0.5,0.8660254,59.663993,249.86127)"
     id="g4558">
    <g
       style="stroke-linecap:butt;stroke-linejoin:round"
       id="g4560">
      <path
         sodipodi:nodetypes="cccccc"
         inkscape:connector-curvature="0"
         style="fill:#000000;fill-opacity:1;fill-rule:evenodd;stroke:none;stroke-width:0.80000001px;stroke-linecap:butt;stroke-linejoin:miter;stroke-opacity:1"
         d="m 279.24714,-80.27421 0,16.7875 -35.1422,0 0,12.55312 85.9594,0 z"
         id="path4562" />
      <path
         sodipodi:nodetypes="cccccc"
         id="path4564"
         d="m 294.92214,-4.5336 0,-16.7875 35.1422,0 0,-12.5531 -85.9594,0 z"
         style="fill:#000000;fill-opacity:1;fill-rule:evenodd;stroke:none;stroke-width:0.80000001px;stroke-linecap:butt;stroke-linejoin:miter;stroke-opacity:1"
         inkscape:connector-curvature="0" />
    </g>
    <path
       sodipodi:nodetypes="ccccccccc"
       inkscape:connector-curvature="0"
       style="fill:url(#linearGradient4608);fill-opacity:1;fill-rule:evenodd;stroke:none;stroke-width:0.80000001px;stroke-linecap:butt;stroke-linejoin:miter;stroke-opacity:1"
       d="m 284.04714,-72.27421 0,13.5875 -35.1422,0 0,2.95312 38.1797,0 -0.0551,-11.2 20.34457,11.2 5.0902,0 z"
       id="path4566" />
    <path
       id="path4568"
       d="m 267.72214,-26.12109 57.5422,0 0,-2.95312 -63.5594,0 3.55215,2.067577 z"
       style="fill:url(#linearGradient4600);fill-opacity:1;fill-rule:evenodd;stroke:none;stroke-width:0.80000001px;stroke-linecap:butt;stroke-linejoin:miter;stroke-opacity:1"
       inkscape:connector-curvature="0"
       sodipodi:nodetypes="cccccc" />
  </g>
  <g
     id="g4638"
     transform="matrix(-0.8660254,-0.5,-0.5,0.8660254,591.05467,341.66196)"
     style="stroke-linecap:butt;stroke-linejoin:round">
    <g
       id="g4640"
       style="stroke-linecap:butt;stroke-linejoin:round">
      <path
         id="path4642"
         d="m 279.24714,-80.27421 0,16.7875 -35.1422,0 0,12.55312 85.9594,0 z"
         style="fill:#000000;fill-opacity:1;fill-rule:evenodd;stroke:none;stroke-width:0.80000001px;stroke-linecap:butt;stroke-linejoin:miter;stroke-opacity:1"
         inkscape:connector-curvature="0"
         sodipodi:nodetypes="cccccc" />
      <path
         inkscape:connector-curvature="0"
         style="fill:#000000;fill-opacity:1;fill-rule:evenodd;stroke:none;stroke-width:0.80000001px;stroke-linecap:butt;stroke-linejoin:miter;stroke-opacity:1"
         d="m 294.92214,-4.5336 0,-16.7875 35.1422,0 0,-12.5531 -85.9594,0 z"
         id="path4644"
         sodipodi:nodetypes="cccccc" />
    </g>
    <path
       id="path4646"
       d="m 284.04714,-72.27421 0,13.5875 -35.1422,0 0,2.95312 38.1797,0 -0.0551,-11.2 20.34457,11.2 5.0902,0 z"
       style="fill:url(#linearGradient4650);fill-opacity:1;fill-rule:evenodd;stroke:none;stroke-width:0.80000001px;stroke-linecap:butt;stroke-linejoin:miter;stroke-opacity:1"
       inkscape:connector-curvature="0"
       sodipodi:nodetypes="ccccccccc" />
    <path
       sodipodi:nodetypes="cccccc"
       inkscape:connector-curvature="0"
       style="fill:url(#linearGradient4652);fill-opacity:1;fill-rule:evenodd;stroke:none;stroke-width:0.80000001px;stroke-linecap:butt;stroke-linejoin:miter;stroke-opacity:1"
       d="m 267.72214,-26.12109 57.5422,0 0,-2.95312 -63.5594,0 3.55215,2.067577 z"
       id="path4648" />
  </g>
  <circle
     style="opacity:0.631;fill:url(#radialGradient4485);fill-opacity:1;stroke:none;stroke-width:20;stroke-linecap:round;stroke-linejoin:bevel;stroke-miterlimit:4;stroke-dasharray:none;stroke-dashoffset:0;stroke-opacity:1"
     id="path4477"
     cx="127.1781"
     cy="79.169609"
     r="43.60392" />
  <circle
     r="43.60392"
     cy="37.592278"
     cx="49.162212"
     id="circle4487"
     style="opacity:0.631;fill:url(#radialGradient4489);fill-opacity:1;stroke:none;stroke-width:20;stroke-linecap:round;stroke-linejoin:bevel;stroke-miterlimit:4;stroke-dasharray:none;stroke-dashoffset:0;stroke-opacity:1" />
</svg>
