<?xml version="1.0" encoding="UTF-8" standalone="no"?>
<!-- Created with Inkscape (http://www.inkscape.org/) -->

<svg
   xmlns:dc="http://purl.org/dc/elements/1.1/"
   xmlns:cc="http://creativecommons.org/ns#"
   xmlns:rdf="http://www.w3.org/1999/02/22-rdf-syntax-ns#"
   xmlns:svg="http://www.w3.org/2000/svg"
   xmlns="http://www.w3.org/2000/svg"
   xmlns:xlink="http://www.w3.org/1999/xlink"
   xmlns:sodipodi="http://sodipodi.sourceforge.net/DTD/sodipodi-0.dtd"
   xmlns:inkscape="http://www.inkscape.org/namespaces/inkscape"
   width="52.916668mm"
   height="20.636871mm"
   viewBox="0 0 52.916669 20.636872"
   version="1.1"
   id="svg5271"
   inkscape:version="0.92.1 r15371"
   sodipodi:docname="calculator_drawing.svg"
   inkscape:export-filename="/home/bmary/SLAMTec/ECCW/calculator_drawing.png"
   inkscape:export-xdpi="300.10001"
   inkscape:export-ydpi="300.10001">
  <defs
     id="defs5265">
    <linearGradient
       inkscape:collect="always"
       id="linearGradient4857">
      <stop
         style="stop-color:#abbbff;stop-opacity:1;"
         offset="0"
         id="stop4853" />
      <stop
         style="stop-color:#abbbff;stop-opacity:0;"
         offset="1"
         id="stop4855" />
    </linearGradient>
    <linearGradient
       inkscape:collect="always"
       id="linearGradient4843">
      <stop
         style="stop-color:#0e86cc;stop-opacity:1;"
         offset="0"
         id="stop4839" />
      <stop
         style="stop-color:#0e86cc;stop-opacity:0;"
         offset="1"
         id="stop4841" />
    </linearGradient>
    <linearGradient
       inkscape:collect="always"
       id="linearGradient5457">
      <stop
         style="stop-color:#ababff;stop-opacity:1;"
         offset="0"
         id="stop5453" />
      <stop
         style="stop-color:#ababff;stop-opacity:0;"
         offset="1"
         id="stop5455" />
    </linearGradient>
    <linearGradient
       inkscape:collect="always"
       xlink:href="#linearGradient5457"
       id="linearGradient4658"
       gradientUnits="userSpaceOnUse"
       gradientTransform="matrix(0.57875165,0,0,0.57875165,-238.09322,0.97908494)"
       x1="148.67523"
       y1="67.457504"
       x2="164.71141"
       y2="67.457504" />
    <linearGradient
       inkscape:collect="always"
       xlink:href="#linearGradient4843"
       id="linearGradient4845"
       x1="160.27753"
       y1="24.182425"
       x2="176.96442"
       y2="24.182425"
       gradientUnits="userSpaceOnUse" />
    <linearGradient
       inkscape:collect="always"
       xlink:href="#linearGradient4857"
       id="linearGradient4859"
       x1="151.01631"
       y1="11.416957"
       x2="170.8737"
       y2="11.416957"
       gradientUnits="userSpaceOnUse" />
  </defs>
  <sodipodi:namedview
     id="base"
     pagecolor="#ffffff"
     bordercolor="#666666"
     borderopacity="1.0"
     inkscape:pageopacity="0.0"
     inkscape:pageshadow="2"
     inkscape:zoom="2.9963651"
     inkscape:cx="84.213615"
     inkscape:cy="60.15886"
     inkscape:document-units="mm"
     inkscape:current-layer="layer1"
     showgrid="false"
     fit-margin-top="0"
     fit-margin-left="0"
     fit-margin-right="0"
     fit-margin-bottom="0"
     inkscape:window-width="1920"
     inkscape:window-height="1016"
     inkscape:window-x="1920"
     inkscape:window-y="27"
     inkscape:window-maximized="1"
     inkscape:snap-global="false" />
  <metadata
     id="metadata5268">
    <rdf:RDF>
      <cc:Work
         rdf:about="">
        <dc:format>image/svg+xml</dc:format>
        <dc:type
           rdf:resource="http://purl.org/dc/dcmitype/StillImage" />
        <dc:title></dc:title>
      </cc:Work>
    </rdf:RDF>
  </metadata>
  <g
     inkscape:label="Calque 1"
     inkscape:groupmode="layer"
     id="layer1"
     transform="translate(216.60672,-39.578832)">
    <rect
       style="opacity:1;fill:#ffffff;fill-opacity:1;stroke:none;stroke-width:0.08839633;stroke-linecap:butt;stroke-linejoin:bevel;stroke-miterlimit:100;stroke-dasharray:none;stroke-dashoffset:0;stroke-opacity:1"
       id="rect6768"
       width="52.916668"
       height="20.636871"
       x="-216.60672"
       y="39.578831" />
    <path
       style="fill:url(#linearGradient4845);fill-opacity:1;fill-rule:evenodd;stroke:none;stroke-width:0.57875162px;stroke-linecap:butt;stroke-linejoin:miter;stroke-opacity:1"
       d="M 133.27734 8.1660156 C 133.22614 8.1660156 132.89219 8.4268748 132.53516 8.7460938 C 131.73898 9.4579186 130.79694 9.9698868 129.63867 10.318359 C 128.80414 10.569546 128.68294 10.582385 127.24414 10.585938 C 125.91261 10.589237 125.64168 10.565658 125.01758 10.390625 C 123.97325 10.097757 122.92956 9.5799756 122.23633 9.0097656 C 122.10845 8.9046486 122.07473 8.8993014 121.96484 8.8183594 C 121.95784 8.8127594 121.95151 8.8083244 121.94531 8.8027344 C 121.58827 8.4835154 121.25432 8.2226563 121.20312 8.2226562 C 121.15223 8.2226562 120.8658 8.445758 120.56641 8.71875 C 119.67481 9.531646 118.66611 10.072311 117.33594 10.447266 C 116.72573 10.619272 116.43317 10.646484 115.20703 10.646484 C 113.60773 10.646484 113.02075 10.541775 111.86719 10.052734 C 110.96023 9.6682468 110.42045 9.3250911 109.76367 8.7207031 C 109.46558 8.4463851 109.18178 8.2226562 109.13281 8.2226562 C 109.08401 8.2226562 108.83278 8.418211 108.57422 8.65625 C 107.55296 9.596531 106.32362 10.216294 104.85547 10.53125 C 104.16872 10.678574 103.82193 10.700435 102.79688 10.667969 C 101.72968 10.634329 101.44591 10.594019 100.66602 10.357422 C 99.537954 10.015224 98.568137 9.4760076 97.761719 8.7460938 C 97.185574 8.2245988 97.128602 8.193404 97.03125 8.34375 C 96.659901 8.917451 95.576749 9.7416086 94.625 10.175781 C 93.319871 10.771121 92.105402 10.996235 90.599609 10.919922 C 88.57922 10.817535 86.834121 10.100445 85.539062 8.8398438 L 85.046875 8.359375 L 84.449219 8.9082031 C 83.365807 9.9033371 82.053389 10.536808 80.492188 10.820312 C 80.301227 10.854992 80.07165 10.874828 79.837891 10.892578 C 79.734401 10.899478 79.634792 10.907929 79.529297 10.912109 C 79.372558 10.918809 79.211437 10.919922 79.048828 10.919922 C 78.886564 10.919882 78.724764 10.918709 78.568359 10.912109 C 78.461639 10.907909 78.358566 10.899538 78.253906 10.892578 C 78.021015 10.874838 77.791888 10.854882 77.601562 10.820312 C 76.040361 10.536808 74.729885 9.9033371 73.646484 8.9082031 L 73.046875 8.359375 L 72.556641 8.8398438 C 71.261582 10.100445 69.518436 10.817535 67.498047 10.919922 C 65.992254 10.996232 64.775833 10.771121 63.470703 10.175781 C 62.518954 9.7416086 61.437755 8.917451 61.066406 8.34375 C 60.969046 8.193404 60.908176 8.2245988 60.332031 8.7460938 C 59.525624 9.4760076 58.555773 10.015224 57.427734 10.357422 C 56.647852 10.594021 56.364078 10.634331 55.296875 10.667969 C 54.271825 10.700439 53.92894 10.678579 53.242188 10.53125 C 51.774037 10.216294 50.544699 9.596531 49.523438 8.65625 C 49.26488 8.418211 49.013681 8.2226562 48.964844 8.2226562 C 48.915824 8.2226562 48.632077 8.4463851 48.333984 8.7207031 C 47.677209 9.3250911 47.133518 9.6682468 46.226562 10.052734 C 45.073015 10.541775 44.48602 10.646484 42.886719 10.646484 C 41.660571 10.646484 41.369976 10.619274 40.759766 10.447266 C 39.429594 10.072311 38.418926 9.531646 37.527344 8.71875 C 37.227948 8.445758 36.941579 8.2226563 36.890625 8.2226562 C 36.839385 8.2226562 36.505471 8.4835154 36.148438 8.8027344 C 35.352213 9.5145594 34.410225 10.026527 33.251953 10.375 C 32.417418 10.626186 32.29623 10.639025 30.857422 10.642578 C 29.525935 10.645878 29.255006 10.622298 28.630859 10.447266 C 27.586526 10.154398 26.544754 9.6366162 25.851562 9.0664062 C 25.514982 8.7897104 25.192025 8.562499 25.134766 8.5625 C 24.991618 8.5625 25.007567 8.7871089 25.222656 9.9667969 C 25.324921 10.528027 25.409198 11.130175 25.410156 11.306641 L 25.410156 11.382812 L 24.722656 11.382812 L 24.835938 37.923828 L 163.5332 43.257812 L 179.13281 41.175781 L 179.13281 10.033203 C 178.57128 10.311626 177.98371 10.551361 177.44922 10.679688 C 176.5439 10.897047 174.93486 10.935573 173.98828 10.763672 C 172.42709 10.480166 171.11661 9.8466965 170.0332 8.8515625 L 169.43359 8.3027344 L 168.94141 8.78125 C 167.64634 10.04185 165.9032 10.75894 163.88281 10.861328 C 162.37698 10.937638 161.1606 10.714481 159.85547 10.119141 C 158.90367 9.6849672 157.82253 8.8608114 157.45117 8.2871094 C 157.35377 8.1367634 157.29489 8.1679571 156.71875 8.6894531 C 155.91234 9.4193661 154.94249 9.9566292 153.81445 10.298828 C 153.03457 10.535426 152.7508 10.57769 151.68359 10.611328 C 150.65854 10.643798 150.31561 10.621938 149.62891 10.474609 C 148.16076 10.159653 146.93142 9.5398914 145.91016 8.5996094 C 145.65163 8.3615704 145.39846 8.1660156 145.34961 8.1660156 C 145.30071 8.1660156 145.01684 8.3897445 144.71875 8.6640625 C 144.06197 9.2684505 143.52019 9.6116068 142.61328 9.9960938 C 141.45973 10.485135 140.87274 10.589844 139.27344 10.589844 C 138.04725 10.589844 137.75673 10.562634 137.14648 10.390625 C 135.8163 10.01567 134.80569 9.4750064 133.91406 8.6621094 C 133.61467 8.3891174 133.32871 8.1660156 133.27734 8.1660156 z "
       transform="matrix(0.26458333,0,0,0.26458333,-216.60672,39.578832)"
       id="path6842" />
    <path
       style="fill:#cec99b;fill-opacity:1;fill-rule:evenodd;stroke:#000000;stroke-width:0.15312803px;stroke-linecap:butt;stroke-linejoin:miter;stroke-opacity:1"
       d="m -210.18382,44.265703 37.84009,6.77444 -37.8159,6.242165 z"
       id="path6877"
       inkscape:connector-curvature="0" />
    <path
       style="fill:none;fill-rule:evenodd;stroke:#000000;stroke-width:0.1000125;stroke-linecap:butt;stroke-linejoin:miter;stroke-miterlimit:4;stroke-dasharray:none;stroke-opacity:1"
       d="m -172.37074,51.001239 -37.7747,-6.713998"
       id="path6770"
       inkscape:connector-curvature="0"
       sodipodi:nodetypes="cc" />
    <path
       style="fill:url(#linearGradient4859);fill-opacity:1;stroke-width:3.77952766"
       d="M 133.24609 8.1386719 L 132.56641 8.7382812 C 131.51842 9.6632639 130.51018 10.170704 129.04297 10.509766 C 128.12133 10.722742 126.25345 10.723414 125.34961 10.511719 C 124.44982 10.300972 123.39422 9.8395666 122.62305 9.3535156 C 122.38569 9.1850243 122.15174 9.0049304 121.91602 8.796875 L 121.23438 8.1953125 L 120.48438 8.8261719 C 119.67333 9.507341 118.9906 9.90972 118.11133 10.228516 C 117.00052 10.631289 116.41779 10.72691 115.11328 10.71875 C 114.07145 10.712325 113.7527 10.676514 113.04688 10.486328 C 111.64384 10.108239 110.55816 9.531262 109.68555 8.7011719 C 109.40889 8.4381546 109.16277 8.2226562 109.14062 8.2226562 C 109.11795 8.2226562 108.83444 8.4629951 108.50781 8.7558594 C 106.63184 10.438252 103.89048 11.116671 101.23438 10.558594 C 100.89573 10.487425 100.17603 10.234235 99.634766 9.9941406 C 98.859509 9.650317 98.497599 9.4236066 97.929688 8.9316406 C 97.533064 8.5881194 97.18723 8.3086126 97.158203 8.3085938 C 97.127967 8.3085749 96.978046 8.4612375 96.824219 8.6484375 C 96.12391 9.5038051 94.449099 10.425184 92.947266 10.78125 C 91.903511 11.028696 90.220905 11.030006 89.15625 10.783203 C 87.918757 10.496224 86.751388 9.9153759 85.828125 9.1308594 L 85.03125 8.4550781 L 84.392578 9.0078125 C 83.326676 9.9315593 82.059703 10.54396 80.662109 10.830078 C 80.52718 10.853133 80.401861 10.879477 80.25 10.896484 C 80.209937 10.901398 80.166953 10.905621 80.125 10.910156 C 79.88311 10.933967 79.628895 10.948603 79.371094 10.957031 C 79.263755 10.959231 79.158434 10.961693 79.048828 10.960938 C 78.939222 10.961671 78.833901 10.95911 78.726562 10.957031 C 78.468421 10.948716 78.210678 10.933967 77.96875 10.910156 C 77.926797 10.905621 77.885766 10.901776 77.845703 10.896484 C 77.693766 10.879477 77.566494 10.853209 77.431641 10.830078 C 76.034047 10.543968 74.769027 9.9315593 73.703125 9.0078125 L 73.0625 8.4550781 L 72.265625 9.1308594 C 71.3424 9.9153759 70.174955 10.49622 68.9375 10.783203 C 67.872807 11.030082 66.194145 11.028809 65.150391 10.78125 C 63.648558 10.425181 61.96984 9.5038051 61.269531 8.6484375 C 61.115704 8.4612375 60.968933 8.3085938 60.939453 8.3085938 C 60.909217 8.3086126 60.560686 8.5881307 60.164062 8.9316406 C 59.596188 9.4236066 59.234241 9.650317 58.458984 9.9941406 C 57.917718 10.234216 57.197907 10.487425 56.859375 10.558594 C 54.203274 11.116671 51.463859 10.438252 49.587891 8.7558594 C 49.261339 8.4629838 48.974177 8.2226562 48.953125 8.2226562 C 48.930448 8.2226562 48.688544 8.4381659 48.412109 8.7011719 C 47.53953 9.531262 46.449949 10.108239 45.046875 10.486328 C 44.341086 10.676514 44.024249 10.712325 42.982422 10.71875 C 41.677918 10.727065 41.093263 10.631292 39.982422 10.228516 C 39.10319 9.9097125 38.422377 9.507341 37.611328 8.8261719 L 36.859375 8.1953125 L 36.179688 8.796875 C 35.1317 9.7218577 34.123425 10.227345 32.65625 10.566406 C 31.734612 10.779383 29.866689 10.779941 28.962891 10.568359 C 27.728081 10.279112 26.18542 9.5197939 25.511719 8.8691406 C 25.205199 8.5732414 25.023197 8.5801101 25.085938 8.8828125 C 25.112394 9.0114298 25.228601 9.724236 25.347656 10.46875 L 25.566406 11.822266 L 25.890625 12.027344 C 26.633302 12.493839 27.929295 12.971719 28.921875 13.146484 C 29.651664 13.274988 31.703413 13.252077 32.496094 13.105469 C 33.974305 12.832058 35.559469 12.112747 36.390625 11.337891 L 36.712891 11.037109 L 37.177734 11.414062 C 38.701262 12.643671 40.537384 13.240234 42.792969 13.240234 C 44.049888 13.240234 45.01351 13.086934 46.089844 12.714844 C 46.906789 12.432437 48.017105 11.802652 48.515625 11.337891 L 48.837891 11.037109 L 49.353516 11.458984 C 50.323607 12.254892 51.645385 12.836555 53.095703 13.105469 C 54.034878 13.279592 55.799549 13.279629 56.746094 13.105469 C 58.232998 12.831831 59.686803 12.149796 60.601562 11.298828 C 60.861594 11.057127 61.110492 10.859628 61.154297 10.859375 C 61.198139 10.85911 61.454121 11.025732 61.722656 11.230469 C 63.537434 12.6126 65.884625 13.241043 68.273438 12.984375 C 70.166112 12.780999 71.721627 12.177428 72.943359 11.167969 L 73.097656 11.041016 C 73.64085 11.599214 75.417807 12.60714 77.03125 12.910156 C 77.480598 12.994553 78.281244 13.017372 79.048828 12.996094 C 79.815921 13.017259 80.613454 12.9945 81.0625 12.910156 C 82.437228 12.651977 84.262367 11.708703 85.027344 11.066406 L 85.152344 11.167969 C 86.374076 12.177428 87.927638 12.78101 89.820312 12.984375 C 92.209125 13.241043 94.556316 12.612619 96.371094 11.230469 C 96.639818 11.025732 96.895686 10.85911 96.939453 10.859375 C 96.983296 10.859628 97.232458 11.05712 97.492188 11.298828 C 98.406984 12.149796 99.862668 12.831846 101.34961 13.105469 C 102.29612 13.279629 104.05887 13.279592 104.99805 13.105469 C 106.44836 12.836555 107.77405 12.254892 108.74414 11.458984 L 109.25586 11.037109 L 109.57812 11.337891 C 110.07668 11.802652 111.18696 12.432441 112.00391 12.714844 C 113.08024 13.086938 114.04386 13.240234 115.30078 13.240234 C 117.55633 13.240234 119.39253 12.643671 120.91602 11.414062 L 121.18164 11.199219 L 121.25781 11.248047 C 122.18119 12.142272 124.31406 12.915078 125.30664 13.089844 C 125.49335 13.122726 125.76933 13.144824 126.08594 13.158203 C 127.03305 13.249365 128.55659 13.255146 129.17383 13.146484 C 130.16641 12.971719 132.02075 12.227534 133.20703 11.289062 L 133.36133 11.191406 L 133.56445 11.355469 C 135.08798 12.585078 136.92414 13.183594 139.17969 13.183594 C 140.43664 13.183594 141.40019 13.028329 142.47656 12.65625 C 143.29351 12.373844 144.40379 11.744058 144.90234 11.279297 L 145.22461 10.978516 L 145.73828 11.402344 C 146.70837 12.198252 148.03207 12.779915 149.48242 13.048828 C 150.42156 13.222951 152.18435 13.223027 153.13086 13.048828 C 154.61776 12.77519 156.07348 12.093156 156.98828 11.242188 C 157.24793 11.000487 157.49725 10.802988 157.54102 10.802734 C 157.58486 10.80247 157.84046 10.969091 158.10938 11.173828 C 159.92419 12.55596 162.27134 13.184402 164.66016 12.927734 C 166.55287 12.724358 168.10838 12.118834 169.33008 11.109375 L 169.73633 10.775391 L 170.04102 11.035156 C 170.96893 11.832043 172.47769 12.524689 173.91992 12.8125 C 174.75905 12.979971 176.65903 13.001938 177.44922 12.853516 C 178.02569 12.745254 178.59567 12.565749 179.13281 12.369141 L 179.13281 10.091797 C 178.5782 10.363702 177.97917 10.578554 177.35352 10.724609 C 176.45886 10.933466 174.82727 10.973242 173.94531 10.806641 C 172.49628 10.532889 171.18855 9.9033256 170.08984 8.9511719 L 169.44922 8.3984375 L 168.65234 9.0742188 C 167.72912 9.8587353 166.56164 10.439583 165.32422 10.726562 C 164.25949 10.973479 162.57692 10.972089 161.5332 10.724609 C 160.03129 10.36854 158.35656 9.4471644 157.65625 8.5917969 C 157.50318 8.4045969 157.35565 8.2519531 157.32617 8.2519531 C 157.29594 8.251972 156.9474 8.5314863 156.55078 8.875 C 155.98291 9.366966 155.62092 9.5936764 154.8457 9.9375 C 154.30444 10.177576 153.58459 10.430785 153.24609 10.501953 C 150.58999 11.060031 147.8505 10.381615 145.97461 8.6992188 C 145.64806 8.4063054 145.3609 8.1660156 145.33984 8.1660156 C 145.31717 8.1660156 145.07526 8.3815253 144.79883 8.6445312 C 143.92621 9.4746213 142.83667 10.051599 141.43359 10.429688 C 140.72777 10.619911 140.41101 10.655684 139.36914 10.662109 C 138.06467 10.670424 137.47998 10.574652 136.36914 10.171875 C 135.48991 9.8530719 134.80913 9.4507004 133.99805 8.7695312 L 133.24609 8.1386719 z "
       transform="matrix(0.26458333,0,0,0.26458333,-216.60672,39.578832)"
       id="path4732" />
    <path
       style="fill:none;fill-rule:evenodd;stroke:#000000;stroke-width:0.7656402;stroke-linecap:butt;stroke-linejoin:miter;stroke-miterlimit:4;stroke-dasharray:none;stroke-opacity:1"
       d="M -210.14537,57.29657 V 41.080164"
       id="path6772"
       inkscape:connector-curvature="0" />
    <text
       xml:space="preserve"
       style="font-style:normal;font-weight:normal;font-size:1.53288066px;line-height:2.39512634px;font-family:sans-serif;letter-spacing:0px;word-spacing:0px;fill:#000000;fill-opacity:1;stroke:none;stroke-width:0.15312803px;stroke-linecap:butt;stroke-linejoin:miter;stroke-opacity:1"
       x="-191.66068"
       y="46.262867"
       id="text6776"><tspan
         sodipodi:role="line"
         id="tspan6774"
         x="-191.66068"
         y="46.262867"
         style="font-size:1.53288066px;stroke-width:0.15312803px">α</tspan></text>
    <text
       id="text6780"
       y="54.795219"
       x="-179.93076"
       style="font-style:normal;font-weight:normal;font-size:1.53288066px;line-height:2.39512634px;font-family:sans-serif;letter-spacing:0px;word-spacing:0px;fill:#000000;fill-opacity:1;stroke:none;stroke-width:0.15312803px;stroke-linecap:butt;stroke-linejoin:miter;stroke-opacity:1"
       xml:space="preserve"><tspan
         style="font-size:1.53288066px;stroke-width:0.15312803px"
         y="54.795219"
         x="-179.93076"
         id="tspan6778"
         sodipodi:role="line">β</tspan></text>
    <path
       style="fill:none;fill-rule:evenodd;stroke:#000000;stroke-width:0.3;stroke-linecap:butt;stroke-linejoin:miter;stroke-miterlimit:4;stroke-dasharray:none;stroke-opacity:1"
       d="m -213.56698,57.84403 46.397,-7.664401"
       id="path6782"
       inkscape:connector-curvature="0" />
    <text
       xml:space="preserve"
       style="font-style:normal;font-weight:normal;font-size:1.53288066px;line-height:2.39512634px;font-family:sans-serif;letter-spacing:0px;word-spacing:0px;fill:#000000;fill-opacity:1;stroke:none;stroke-width:0.15312803px;stroke-linecap:butt;stroke-linejoin:miter;stroke-opacity:1"
       x="-205.84737"
       y="50.345833"
       id="text6788"><tspan
         sodipodi:role="line"
         id="tspan6786"
         x="-205.84737"
         y="50.345833"
         style="font-size:1.53288066px;stroke-width:0.15312803px">ϕ<tspan
   id="tspan6784"
   style="font-size:0.89418083px;baseline-shift:sub;stroke-width:0.15312803px">B</tspan></tspan></text>
    <text
       id="text6794"
       y="56.853722"
       x="-198.25839"
       style="font-style:normal;font-weight:normal;font-size:1.53288066px;line-height:2.39512634px;font-family:sans-serif;letter-spacing:0px;word-spacing:0px;fill:#000000;fill-opacity:1;stroke:none;stroke-width:0.15312803px;stroke-linecap:butt;stroke-linejoin:miter;stroke-opacity:1"
       xml:space="preserve"><tspan
         style="font-size:1.53288066px;stroke-width:0.15312803px"
         y="56.853722"
         x="-198.25839"
         id="tspan6792"
         sodipodi:role="line">ϕ<tspan
   style="font-size:0.89418083px;baseline-shift:sub;stroke-width:0.15312803px"
   id="tspan6790">D</tspan></tspan></text>
    <text
       xml:space="preserve"
       style="font-style:normal;font-weight:normal;font-size:1.53288066px;line-height:2.39512634px;font-family:sans-serif;letter-spacing:0px;word-spacing:0px;fill:#000000;fill-opacity:1;stroke:none;stroke-width:0.15312803px;stroke-linecap:butt;stroke-linejoin:miter;stroke-opacity:1"
       x="-206.01234"
       y="53.281841"
       id="text6816"><tspan
         sodipodi:role="line"
         id="tspan6814"
         x="-206.01234"
         y="53.281841"
         style="font-size:1.53288066px;stroke-width:0.15312803px">Δλ<tspan
   id="tspan6812"
   style="font-size:0.89418083px;baseline-shift:sub;stroke-width:0.15312803px">B</tspan></tspan></text>
    <text
       id="text6822"
       y="58.913666"
       x="-198.65253"
       style="font-style:normal;font-weight:normal;font-size:1.53288066px;line-height:2.39512634px;font-family:sans-serif;letter-spacing:0px;word-spacing:0px;fill:#000000;fill-opacity:1;stroke:none;stroke-width:0.15312803px;stroke-linecap:butt;stroke-linejoin:miter;stroke-opacity:1"
       xml:space="preserve"><tspan
         style="font-size:1.53288066px;stroke-width:0.15312803px"
         y="58.913666"
         x="-198.65253"
         id="tspan6820"
         sodipodi:role="line">Δλ<tspan
   style="font-size:0.89418083px;baseline-shift:sub;stroke-width:0.15312803px"
   id="tspan6818">D</tspan></tspan></text>
    <text
       id="text6834"
       y="47.521816"
       x="-206.01158"
       style="font-style:normal;font-weight:normal;font-size:1.53288066px;line-height:2.39512634px;font-family:sans-serif;letter-spacing:0px;word-spacing:0px;fill:#000000;fill-opacity:1;stroke:none;stroke-width:0.15312803px;stroke-linecap:butt;stroke-linejoin:miter;stroke-opacity:1"
       xml:space="preserve"><tspan
         style="font-size:1.53288066px;stroke-width:0.15312803px"
         y="47.521816"
         x="-206.01158"
         id="tspan6832"
         sodipodi:role="line">ρ<tspan
   style="font-size:0.89418048px;baseline-shift:sub;stroke-width:0.15312803px"
   id="tspan6830">sr</tspan></tspan></text>
    <text
       xml:space="preserve"
       style="font-style:normal;font-weight:normal;font-size:1.53288066px;line-height:2.39512634px;font-family:sans-serif;letter-spacing:0px;word-spacing:0px;fill:#000000;fill-opacity:1;stroke:none;stroke-width:0.15312803px;stroke-linecap:butt;stroke-linejoin:miter;stroke-opacity:1"
       x="-180.00719"
       y="47.092941"
       id="text6840"><tspan
         sodipodi:role="line"
         id="tspan6838"
         x="-180.00719"
         y="47.092941"
         style="font-size:1.53288066px;stroke-width:0.15312803px">ρ<tspan
   id="tspan6836"
   style="font-size:0.89418048px;baseline-shift:sub;stroke-width:0.15312803px">f</tspan></tspan></text>
    <path
       style="fill:none;fill-rule:evenodd;stroke:#000000;stroke-width:0.15312803px;stroke-linecap:butt;stroke-linejoin:miter;stroke-opacity:1"
       d="m -196.46088,46.696432 h 8.24608"
       id="path6844"
       inkscape:connector-curvature="0" />
    <path
       style="opacity:1;fill:none;fill-opacity:1;stroke:#000000;stroke-width:0.15336917;stroke-linecap:round;stroke-linejoin:round;stroke-miterlimit:4;stroke-dasharray:none;stroke-dashoffset:0;stroke-opacity:1"
       id="path6846"
       sodipodi:type="arc"
       sodipodi:cx="-196.26732"
       sodipodi:cy="46.730644"
       sodipodi:rx="5.2350616"
       sodipodi:ry="5.2350616"
       sodipodi:start="0"
       sodipodi:end="0.17699023"
       sodipodi:open="true"
       d="m -191.03226,46.730644 a 5.2350616,5.2350616 0 0 1 -0.0818,0.921725" />
    <path
       inkscape:connector-curvature="0"
       id="path6848"
       d="m -184.82336,53.096868 h 8.24608"
       style="fill:none;fill-rule:evenodd;stroke:#000000;stroke-width:0.15312803px;stroke-linecap:butt;stroke-linejoin:miter;stroke-opacity:1" />
    <path
       d="m -179.39474,-53.062653 a 5.2350616,5.2350616 0 0 1 -0.0707,0.85721"
       sodipodi:open="true"
       sodipodi:end="0.16448468"
       sodipodi:start="0"
       sodipodi:ry="5.2350616"
       sodipodi:rx="5.2350616"
       sodipodi:cy="-53.062653"
       sodipodi:cx="-184.62981"
       sodipodi:type="arc"
       id="path6850"
       style="opacity:1;fill:none;fill-opacity:1;stroke:#000000;stroke-width:0.15336917;stroke-linecap:round;stroke-linejoin:round;stroke-miterlimit:4;stroke-dasharray:none;stroke-dashoffset:0;stroke-opacity:1"
       transform="scale(1,-1)" />
    <path
       style="fill:#f52900;fill-opacity:1;fill-rule:evenodd;stroke:#000000;stroke-width:0.57875162;stroke-linecap:butt;stroke-linejoin:miter;stroke-miterlimit:4;stroke-dasharray:none;stroke-opacity:1"
       d="M 7.7519531 26.248047 L 1.1699219 36.396484 L 7.7519531 46.544922 L 7.7519531 40.996094 L 9.1152344 40.996094 L 14.958984 40.996094 L 16.322266 40.996094 L 16.322266 46.544922 L 22.904297 36.396484 L 16.322266 26.248047 L 16.322266 31.796875 L 14.958984 31.796875 L 9.1152344 31.796875 L 7.7519531 31.796875 L 7.7519531 26.248047 z "
       transform="matrix(0.26458333,0,0,0.26458333,-216.60672,39.578832)"
       id="path6875" />
    <g
       style="stroke-width:1.59832954"
       transform="matrix(0.62565322,0,0,0.62565322,-81.08603,-14.500112)"
       id="g4656">
      <rect
         style="opacity:1;fill:#ffffff;fill-opacity:1;stroke:none;stroke-width:0.14128646;stroke-linecap:butt;stroke-linejoin:bevel;stroke-miterlimit:100;stroke-dasharray:none;stroke-dashoffset:0;stroke-opacity:1"
         id="rect4572"
         width="84.57827"
         height="32.98452"
         x="-216.60672"
         y="27.231182" />
      <path
         style="fill:url(#linearGradient4658);fill-opacity:1;fill-rule:evenodd;stroke:none;stroke-width:0.24474904px;stroke-linecap:butt;stroke-linejoin:miter;stroke-opacity:1"
         d="m -206.15192,32.045132 c 1.12153,0.560771 -0.24458,-0.163048 0.46404,0.309367 0.0215,0.0143 0.0529,-0.0081 0.0773,0 0.0547,0.01823 0.1,0.05911 0.15468,0.07734 0.0245,0.0081 0.0543,-0.01153 0.0773,0 0.0326,0.0163 0.0447,0.06104 0.0773,0.07734 0.0173,0.0087 0.29099,0 0.30937,0 0.30936,0 0.61873,0 0.92809,0 0.15468,0 0.30937,0 0.46405,0 0.0773,0 0.15865,0.02446 0.23203,0 0.0882,-0.0294 0.15765,-0.09891 0.23202,-0.154682 0.0292,-0.02188 0.0428,-0.06581 0.0773,-0.07734 0.0489,-0.0163 0.10577,0.0163 0.15469,0 0.0692,-0.02306 0.0894,-0.122073 0.15468,-0.154682 0.023,-0.01153 0.0516,0 0.0773,0 0.0257,0 0.10312,0 0.0773,0 -0.0516,0 -0.20624,0 -0.15468,0 0.0773,0 0.15699,-0.01876 0.23202,0 0.0354,0.0088 0.047,0.05712 0.0773,0.07734 0.048,0.03198 0.11392,0.03658 0.15469,0.07734 0.16002,0.160021 -0.24454,-0.0063 0.0773,0.154682 0.023,0.01153 0.0591,-0.01823 0.0773,0 0.16003,0.160022 -0.24453,-0.0063 0.0773,0.154683 0.023,0.01153 0.0529,-0.0081 0.0773,0 0.0547,0.01823 0.1,0.05911 0.15468,0.07734 0.0489,0.0163 0.10857,-0.02306 0.15468,0 0.0327,0.0163 0.0416,0.07019 0.0773,0.07734 0.10111,0.02022 0.20703,-0.01278 0.30936,0 0.10548,0.01318 0.20452,0.05987 0.30936,0.07734 0.12543,0.0209 0.26129,-0.0209 0.38671,0 0.0804,0.0134 0.15294,0.05757 0.23203,0.07734 0.0659,0.01648 0.16383,0 0.23202,0 0.15469,0 0.30937,0 0.46405,0 0.0405,0 0.28903,0.01017 0.30936,0 0.0326,-0.0163 0.042,-0.0685 0.0773,-0.07734 0.075,-0.01876 0.15545,0.01093 0.23202,0 0.10523,-0.01504 0.20624,-0.05156 0.30936,-0.07734 0.10313,-0.02578 0.20717,-0.04814 0.30937,-0.07734 0.19977,-0.05708 0.32647,-0.127818 0.54139,-0.154682 0.10233,-0.01279 0.20765,0.01695 0.30937,0 0.0569,-0.0095 0.1,-0.05911 0.15468,-0.07734 0.017,-0.0057 0.29786,-0.0057 0.30936,0 0.0326,0.0163 0.0447,0.06104 0.0773,0.07734 0.023,0.01153 0.0516,0 0.0773,0 0.0258,0.02578 0.0447,0.06104 0.0773,0.07734 0.023,0.01153 0.0543,-0.01153 0.0773,0 0.0652,0.03261 0.0895,0.122073 0.15468,0.154683 0.023,0.01153 0.0591,-0.01823 0.0773,0 0.0182,0.01823 -0.0182,0.05911 0,0.07734 0.0182,0.01823 0.0543,-0.01153 0.0773,0 0.0652,0.03261 0.0895,0.122074 0.15469,0.154684 0.023,0.01153 0.0543,-0.01153 0.0773,0 0.0652,0.03261 0.0895,0.122072 0.15468,0.154682 0.0461,0.02306 0.10857,-0.02306 0.15468,0 0.0326,0.0163 0.0447,0.06104 0.0773,0.07734 0.0203,0.01017 0.26892,0 0.30936,0 0.0804,0 0.40321,0.0152 0.46405,0 0.0559,-0.01398 0.097,-0.07734 0.15468,-0.07734 0.0576,0 0.0988,0.06336 0.15469,0.07734 0.05,0.01251 0.10312,0 0.15468,0 0.0516,0 0.10312,0 0.15468,0 0.0516,0 0.10312,0 0.15468,0 0.0516,0 0.10466,0.01251 0.15468,0 0.0559,-0.01398 0.0988,-0.06336 0.15469,-0.07734 0.12132,-0.03033 0.26538,0.03033 0.38671,0 0.0559,-0.01398 0.1,-0.05911 0.15468,-0.07734 0.0245,-0.0081 0.0529,0.0081 0.0773,0 0.0547,-0.01823 0.10312,-0.05156 0.15468,-0.07734 0.18055,-0.09028 0.34535,-0.176014 0.54139,-0.232024 0.1022,-0.0292 0.20716,-0.04814 0.30936,-0.07734 0.0784,-0.0224 0.15209,-0.06135 0.23203,-0.07734 0.0506,-0.01011 0.10577,0.0163 0.15468,0 0.0346,-0.01153 0.0447,-0.06104 0.0773,-0.07734 0.0461,-0.02306 0.10857,0.02306 0.15469,0 0.0326,-0.0163 0.0447,-0.06104 0.0773,-0.07734 0.0843,-0.04217 0.10078,0.0414 0.15468,0.07734 0.048,0.03198 0.10312,0.05156 0.15469,0.07734 0.0516,0.02578 0.10671,0.04536 0.15467,0.07734 0.0303,0.02022 0.0447,0.06104 0.0774,0.07734 0.023,0.01153 0.0543,-0.01153 0.0773,0 0.0685,0.03427 0.16162,0.185088 0.23202,0.232024 0.0389,0.170394 0.15911,0.04088 0.23202,0.07734 0.0652,0.03261 0.094,0.114236 0.15469,0.154683 0.048,0.03198 0.10671,0.04536 0.15468,0.07734 0.0303,0.02022 0.0447,0.06104 0.0773,0.07734 0.023,0.01153 0.0543,-0.01153 0.0773,0 0.0326,0.0163 0.0447,0.06103 0.0773,0.07734 0.0236,0.01178 0.19719,0 0.23202,0 0.0648,0 0.32789,0.0147 0.38671,0 0.0559,-0.01398 0.0982,-0.06603 0.15468,-0.07734 0.0758,-0.01517 0.15573,0.01271 0.23202,0 0.0804,-0.0134 0.15161,-0.06394 0.23203,-0.07734 0.0763,-0.01271 0.15546,0.01093 0.23202,0 0.10523,-0.01504 0.20625,-0.05156 0.30937,-0.07734 0.19556,-0.04889 0.35646,-0.08071 0.54139,-0.154683 0.15845,-0.06338 0.30227,-0.178096 0.46404,-0.232024 0.0245,-0.0081 0.0543,0.01153 0.0773,0 0.0326,-0.0163 0.0447,-0.06103 0.0774,-0.07734 0.0461,-0.02306 0.10576,0.0163 0.15468,0 0.0547,-0.01823 0.1,-0.05911 0.15468,-0.07734 0.0245,-0.0081 0.0529,0.0081 0.0773,0 0.10938,-0.03645 0.19564,-0.135727 0.30937,-0.154682 0.178,-0.02967 0.36443,0.03539 0.54139,0 0.0565,-0.0113 0.0987,-0.06336 0.15468,-0.07734 0.0139,-0.0035 0.44283,-0.01061 0.46405,0 0.0652,0.03261 0.094,0.114236 0.15468,0.154683 0.048,0.03198 0.10672,0.04536 0.15468,0.07734 0.0303,0.02022 0.0516,0.05156 0.0773,0.07734 0.0257,0.02578 0.061,0.04473 0.0773,0.07734 0.0115,0.02306 -0.023,0.06581 0,0.07734 0.0461,0.02306 0.11178,-0.0286 0.15468,0 0.048,0.03198 0.0294,0.122706 0.0773,0.154682 0.0429,0.0286 0.10577,-0.0163 0.15468,0 0.0346,0.01153 0.0447,0.06104 0.0773,0.07734 0.023,0.01153 0.0591,-0.01823 0.0773,0 0.0182,0.01823 -0.0182,0.05911 0,0.07734 0.0365,0.03646 0.10856,-0.02306 0.15468,0 0.0326,0.0163 0.0447,0.06104 0.0773,0.07734 0.023,0.01153 0.0516,0 0.0773,0 0.0516,0 0.10312,0 0.15468,0 0.10312,0 0.20625,0 0.30937,0 0.0773,0 0.15468,0 0.23202,0 0.0516,0 0.10413,0.01011 0.15469,0 0.15987,-0.03198 0.30416,-0.122705 0.46404,-0.154682 0.0506,-0.0101 0.10412,0.01011 0.15468,0 0.0799,-0.01599 0.15208,-0.06135 0.23202,-0.07734 0.0506,-0.01011 0.10467,0.01251 0.15469,0 0.11184,-0.02797 0.19751,-0.126718 0.30936,-0.154682 0.05,-0.01251 0.10577,0.0163 0.15468,0 0.0346,-0.01153 0.0447,-0.06104 0.0773,-0.07734 0.023,-0.01153 0.0543,0.01153 0.0773,0 0.0326,-0.0163 0.0447,-0.06103 0.0773,-0.07734 0.0231,-0.01153 0.0543,0.01153 0.0774,0 0.0326,-0.0163 0.0428,-0.06581 0.0773,-0.07734 0.0489,-0.0163 0.10576,0.0163 0.15467,0 0.0346,-0.01153 0.0447,-0.06104 0.0773,-0.07734 0.0469,-0.02348 0.41708,0.02348 0.46404,0 0.19115,-0.09557 -0.0267,-0.07734 0.15468,-0.07734 0.0258,0 0.0529,-0.0081 0.0773,0 0.14046,0.04682 0.14353,0.06619 0.23202,0.154682 0.0258,0.02578 0.061,0.04473 0.0773,0.07734 0.0115,0.02306 -0.0143,0.05589 0,0.07734 0.0595,0.08924 0.17254,0.142785 0.23203,0.232024 0.032,0.04797 0.0454,0.106718 0.0773,0.154683 0.0219,0.03278 0.20003,0.216025 0.23203,0.232024 0.023,0.01153 0.0591,-0.01823 0.0773,0 0.0182,0.01823 -0.0182,0.05911 0,0.07734 0.0365,0.03646 0.10856,-0.02306 0.15469,0 0.0326,0.0163 0.0447,0.06104 0.0773,0.07734 0.0282,0.01409 0.34215,0 0.38671,0 0.23202,0 0.46405,0 0.69607,0 0.43827,0 0.87653,0 1.31481,0 0.035,0 0.44343,0.01031 0.46405,0 0.0326,-0.0163 0.042,-0.0685 0.0773,-0.07734 0.075,-0.01876 0.15865,0.02446 0.23203,0 0.0882,-0.0294 0.14887,-0.113113 0.23201,-0.154683 0.46712,-0.233561 0.0328,0.01115 0.38671,-0.07734 0.37348,-0.09337 -0.004,-0.03676 0.23203,-0.154682 0.0461,-0.02306 0.10856,0.02306 0.15468,0 0.14461,-0.07231 -0.003,-0.136022 0.23202,-0.07734 0.22624,0.05656 0.36604,0.332535 0.54139,0.464049 0.0461,0.03459 0.10672,0.04536 0.15469,0.07734 0.0704,0.04694 0.16347,0.197748 0.23202,0.232024 0.0307,0.01533 0.21621,-0.01581 0.23202,0 0.0182,0.01823 -0.0182,0.05911 0,0.07734 8e-5,7.3e-5 0.23168,-1.16e-4 0.23202,0 0.0346,0.01153 0.0516,0.05156 0.0773,0.07734 0.10313,0 0.20688,-0.01139 0.30937,0 0.13066,0.01452 0.25704,0.05573 0.38672,0.07734 0.17981,0.02997 0.36121,0.04962 0.54138,0.07734 0.15499,0.02385 0.30777,0.06432 0.46405,0.07734 0.15415,0.01285 0.30937,0 0.46404,0 0.38671,0 0.77342,0 1.16012,0 0.0188,0 0.22954,0.0025 0.23203,0 0.0182,-0.01823 -0.0182,-0.05911 0,-0.07734 0.0182,-0.01823 0.0543,0.01153 0.0773,0 0.0652,-0.03261 0.0895,-0.122072 0.1547,-0.154682 0.023,-0.01153 0.0543,0.01153 0.0773,0 0.0928,-0.0464 0.13921,-0.18562 0.23203,-0.232024 0.0461,-0.02306 0.11823,0.03646 0.15468,0 0.0182,-0.01823 -0.0182,-0.05911 0,-0.07734 0.0182,-0.01823 0.0543,0.01153 0.0773,0 0.0326,-0.0163 0.0447,-0.06103 0.0773,-0.07734 0.0159,-0.0079 0.36374,-0.0077 0.38671,0 0.0547,0.01823 0.0988,0.06336 0.15468,0.07734 0.05,0.01251 0.10313,0 0.15469,0 0.0257,0 0.0543,-0.01153 0.0773,0 0.0326,0.0163 0.0447,0.06104 0.0773,0.07734 0.0461,0.02306 0.10857,-0.02306 0.15469,0 0.0825,0.04126 0.0722,0.113419 0.15467,0.154682 0.0231,0.01153 0.0516,0 0.0773,0 0.0516,0 0.10312,0 0.15468,0 0.18046,0 0.36093,0 0.54139,0 0.18046,0 0.36092,0 0.54139,0 0.0773,0 0.15527,0.0096 0.23202,0 0.46885,-0.05861 0.29865,-0.120501 0.77342,-0.07734 0.15617,0.0142 0.308,0.06174 0.46405,0.07734 0.1026,0.01026 0.20624,0 0.30936,0 0.2578,0 0.51561,0 0.77341,0 0.10312,0 0.20625,0 0.30937,0 0.0516,0 0.10857,0.02306 0.15468,0 0.023,-0.01153 -0.0182,-0.05911 0,-0.07734 0.0182,-0.01823 0.0543,0.01153 0.0773,0 0.0133,-0.0066 0.22883,-0.222417 0.23203,-0.232024 0,-0.438268 -0.0516,-0.02578 0.0773,-0.154684 0.0182,-0.01823 -0.0258,-0.07734 0,-0.07734 0.0365,0 0.0428,0.06581 0.0773,0.07734 0.0489,0.0163 0.10577,-0.0163 0.15468,0 0.0692,0.02306 0.0855,0.131624 0.15469,0.154684 0.0489,0.0163 0.10576,-0.0163 0.15468,0 0.0346,0.01153 0.0447,0.06103 0.0773,0.07734 0.023,0.0115 0.43151,0 0.46405,0 0.10312,0 0.20824,-0.02022 0.30936,0 0.0799,0.01599 0.15161,0.06394 0.23203,0.07734 0.0763,0.01271 0.15468,0 0.23202,0 0.25781,0 0.5165,-0.02141 0.77342,0 0.15627,0.01302 0.308,0.06174 0.46404,0.07734 0.19883,0.01988 0.41755,0 0.61874,0 0.0538,0 0.35873,0.01398 0.3867,0 0.0326,-0.0163 0.047,-0.05712 0.0773,-0.07734 0.048,-0.03198 0.10857,-0.04275 0.15468,-0.07734 0.0583,-0.04375 0.0895,-0.122072 0.15468,-0.154682 0.0461,-0.02306 0.10577,0.0163 0.15469,0 0.0692,-0.02306 0.0855,-0.131625 0.15468,-0.154683 0.0489,-0.0163 0.10857,0.02306 0.15468,0 0.023,-0.01153 -0.0182,-0.05911 0,-0.07734 0.0182,-0.01823 0.0543,0.01153 0.0773,0 0.0326,-0.0163 0.0447,-0.06104 0.0773,-0.07734 0.023,-0.01153 0.0591,0.01823 0.0773,0 0.0182,-0.01823 -0.023,-0.06581 0,-0.07734 4.5e-4,-1.52e-4 0.52783,-0.0068 0.54139,0 0.0326,0.0163 0.0447,0.06104 0.0773,0.07734 0.0231,0.01153 0.0591,-0.01823 0.0773,0 0.0182,0.01823 -0.0182,0.05911 0,0.07734 0.0365,0.03646 0.11822,-0.03645 0.15468,0 0.0182,0.01823 -0.0182,0.05911 0,0.07734 0.0182,0.01823 0.0591,-0.01823 0.0773,0 0.0182,0.01823 -0.023,0.06581 0,0.07734 0.0922,0.04612 0.21713,-0.04612 0.30937,0 0.0652,0.03261 0.0922,0.117167 0.15468,0.154684 0.0699,0.04194 0.15633,0.04706 0.23203,0.07734 0.0535,0.02141 0.0987,0.06336 0.15468,0.07734 0.05,0.01251 0.10576,-0.0163 0.15468,0 0.0346,0.01153 0.0447,0.06104 0.0773,0.07734 0.023,0.01153 0.0516,0 0.0773,0 0.0258,0 0.0516,0 0.0773,0 0.1289,0 0.2578,0 0.3867,0 0.0617,0 0.34031,0.01546 0.38671,0 0.0547,-0.01823 0.1,-0.05911 0.15468,-0.07734 0.0244,-0.0081 0.0516,0 0.0773,0 0.0516,-0.02578 0.1,-0.05911 0.15469,-0.07734 0.0245,-0.0081 0.0529,0.0081 0.0773,0 0.0547,-0.01823 0.1,-0.05911 0.15469,-0.07734 0.0245,-0.0081 0.0516,0 0.0773,0 0.0516,-0.02578 0.10312,-0.05156 0.15468,-0.07734 0.10313,-0.05156 0.21344,-0.09073 0.30937,-0.154683 0.0303,-0.02022 0.0447,-0.06104 0.0773,-0.07734 0.023,-0.01153 0.0543,0.01153 0.0773,0 0.0326,-0.0163 0.0409,-0.07734 0.0773,-0.07734 0.0258,0 -0.0182,0.05911 0,0.07734 0.0365,0.03646 0.11822,-0.03645 0.15469,0 0.0407,0.04076 0.0571,0.100707 0.0773,0.154683 0.0572,0.152669 0.0941,0.31266 0.15469,0.464048 0.0428,0.107048 0.11822,0.199989 0.15468,0.309366 0.0163,0.04892 -0.0163,0.105767 0,0.154683 0.0115,0.03459 0.0516,0.05156 0.0773,0.07734 0.0516,0.05156 0.094,0.114234 0.15469,0.154683 0.0215,0.0143 0.0591,-0.01823 0.0773,0 0.0182,0.01823 -0.0182,0.05911 0,0.07734 0.0182,0.01823 0.0591,-0.01823 0.0773,0 0.0182,0.01823 -0.0182,0.05911 0,0.07734 0.0182,0.01823 0.0516,0 0.0773,0 0.13596,0 0.34304,-0.02017 0.46405,0 0.56188,0.09365 -0.0272,0.07734 0.38671,0.07734 0.10311,0 0.20624,0 0.30936,0 0.0516,0 0.10313,0 0.15468,0 0.0258,0 0.0529,0.0081 0.0773,0 0.0547,-0.01823 0.0982,-0.06604 0.15468,-0.07734 0.0758,-0.01517 0.15699,0.01876 0.23202,0 0.0354,-0.0088 0.0428,-0.06581 0.0773,-0.07734 0.0489,-0.0163 0.10577,0.0163 0.15469,0 0.0346,-0.01153 0.0447,-0.06103 0.0773,-0.07734 0.023,-0.01153 0.0543,0.01153 0.0773,0 0.0326,-0.0163 0.0447,-0.06104 0.0773,-0.07734 0.023,-0.01153 0.0543,0.01153 0.0773,0 0.15818,-0.07909 -0.002,-0.106422 0.15469,-0.232024 0.09,-0.07202 0.21712,-0.08551 0.30936,-0.154683 0.0206,-0.01547 -0.0182,-0.05911 0,-0.07734 0.0182,-0.01823 0.0543,0.01153 0.0773,0 0.0326,-0.0163 0.0428,-0.06581 0.0773,-0.07734 0.0489,-0.0163 0.10857,0.02306 0.15468,0 0.0231,-0.01153 -0.0115,-0.05428 0,-0.07734 0.0163,-0.03261 0.0516,-0.05156 0.0773,-0.07734 0.11836,-0.118362 0.22409,-0.244322 0.3867,-0.309366 0.0479,-0.01915 0.10312,0 0.15468,0 0.0258,0 0.0543,-0.01153 0.0773,0 0.0761,0.03805 0.23326,0.271312 0.30936,0.309366 0.028,0.01398 0.33291,0 0.38671,0 0.0258,0 0.0591,-0.01823 0.0773,0 0.0182,0.01823 -0.0182,0.05911 0,0.07734 0.002,0.0025 0.21327,0 0.23203,0 0.20625,0 0.41249,0 0.61873,0 0.0258,0 0.0516,0 0.0773,0 0.0258,0 0.0591,0.01823 0.0773,0 0.0182,-0.01823 -0.0182,-0.05911 0,-0.07734 0.0182,-0.01823 0.0543,0.01153 0.0773,0 0.0327,-0.0163 0.0447,-0.06104 0.0773,-0.07734 0.023,-0.01153 0.0543,0.01153 0.0773,0 0.19114,-0.09557 -0.0267,-0.07734 0.15468,-0.07734 0.0258,0 0.0773,-0.02578 0.0773,0 0,0.03646 -0.0516,0.05156 -0.0773,0.07734 l 3.13682,-0.145745 0.15469,11.446519 -2.55227,0.541389 -60.32624,-2.320241 z"
         id="path4574"
         inkscape:connector-curvature="0" />
      <path
         style="fill:#cec99b;fill-opacity:1;fill-rule:evenodd;stroke:#000000;stroke-width:0.24474904px;stroke-linecap:butt;stroke-linejoin:miter;stroke-opacity:1"
         d="m -206.34081,34.722347 60.48093,10.827787 -60.44226,9.977036 z"
         id="path4576"
         inkscape:connector-curvature="0" />
      <path
         style="fill:none;fill-rule:evenodd;stroke:#000000;stroke-width:0.3671236;stroke-linecap:butt;stroke-linejoin:miter;stroke-miterlimit:4;stroke-dasharray:none;stroke-opacity:1"
         d="m -145.90305,45.487952 -60.37642,-10.73118"
         id="path4578"
         inkscape:connector-curvature="0"
         sodipodi:nodetypes="cc" />
      <path
         style="fill:none;fill-rule:evenodd;stroke:#000000;stroke-width:1.22374535;stroke-linecap:butt;stroke-linejoin:miter;stroke-miterlimit:4;stroke-dasharray:none;stroke-opacity:1"
         d="M -206.27935,55.549966 V 29.630805"
         id="path4580"
         inkscape:connector-curvature="0" />
      <text
         xml:space="preserve"
         style="font-style:normal;font-weight:normal;font-size:2.45004845px;line-height:3.82820106px;font-family:sans-serif;letter-spacing:0px;word-spacing:0px;fill:#000000;fill-opacity:1;stroke:none;stroke-width:0.24474904px;stroke-linecap:butt;stroke-linejoin:miter;stroke-opacity:1"
         x="-176.73471"
         y="37.914471"
         id="text4584"><tspan
           sodipodi:role="line"
           id="tspan4582"
           x="-176.73471"
           y="37.914471"
           style="font-size:2.45004845px;stroke-width:0.24474904px">α</tspan></text>
      <text
         id="text4588"
         y="51.551983"
         x="-157.98643"
         style="font-style:normal;font-weight:normal;font-size:2.45004845px;line-height:3.82820106px;font-family:sans-serif;letter-spacing:0px;word-spacing:0px;fill:#000000;fill-opacity:1;stroke:none;stroke-width:0.24474904px;stroke-linecap:butt;stroke-linejoin:miter;stroke-opacity:1"
         xml:space="preserve"><tspan
           style="font-size:2.45004845px;stroke-width:0.24474904px"
           y="51.551983"
           x="-157.98643"
           id="tspan4586"
           sodipodi:role="line">β</tspan></text>
      <path
         style="fill:none;fill-rule:evenodd;stroke:#000000;stroke-width:0.73424721;stroke-linecap:butt;stroke-linejoin:miter;stroke-miterlimit:4;stroke-dasharray:none;stroke-opacity:1"
         d="m -211.74821,56.424987 74.1577,-12.250238"
         id="path4590"
         inkscape:connector-curvature="0" />
      <text
         xml:space="preserve"
         style="font-style:normal;font-weight:normal;font-size:2.45004845px;line-height:3.82820106px;font-family:sans-serif;letter-spacing:0px;word-spacing:0px;fill:#000000;fill-opacity:1;stroke:none;stroke-width:0.24474904px;stroke-linecap:butt;stroke-linejoin:miter;stroke-opacity:1"
         x="-199.40973"
         y="45.286182"
         id="text4596"><tspan
           sodipodi:role="line"
           id="tspan4594"
           x="-199.40973"
           y="45.286182"
           style="font-size:2.45004845px;stroke-width:0.24474904px">ϕ<tspan
   id="tspan4592"
   style="font-size:1.42919564px;baseline-shift:sub;stroke-width:0.24474904px">B</tspan></tspan></text>
      <text
         id="text4602"
         y="54.742348"
         x="-189.67517"
         style="font-style:normal;font-weight:normal;font-size:2.45004845px;line-height:3.82820106px;font-family:sans-serif;letter-spacing:0px;word-spacing:0px;fill:#000000;fill-opacity:1;stroke:none;stroke-width:0.24474904px;stroke-linecap:butt;stroke-linejoin:miter;stroke-opacity:1"
         xml:space="preserve"><tspan
           style="font-size:2.45004845px;stroke-width:0.24474904px"
           y="54.742348"
           x="-189.67517"
           id="tspan4600"
           sodipodi:role="line">ϕ<tspan
   style="font-size:1.42919564px;baseline-shift:sub;stroke-width:0.24474904px"
   id="tspan4598">D</tspan></tspan></text>
      <text
         xml:space="preserve"
         style="font-style:normal;font-weight:normal;font-size:2.45004845px;line-height:3.82820106px;font-family:sans-serif;letter-spacing:0px;word-spacing:0px;fill:#000000;fill-opacity:1;stroke:none;stroke-width:0.24474904px;stroke-linecap:butt;stroke-linejoin:miter;stroke-opacity:1"
         x="-173.22441"
         y="45.513287"
         id="text4608"><tspan
           sodipodi:role="line"
           id="tspan4606"
           x="-173.22441"
           y="45.513287"
           style="font-size:2.45004845px;stroke-width:0.24474904px">ϕ<tspan
   id="tspan4604"
   style="font-size:1.42919564px;baseline-shift:sub;stroke-width:0.24474904px">R</tspan></tspan></text>
      <path
         style="fill:none;fill-rule:evenodd;stroke:#000000;stroke-width:0.24474904px;stroke-linecap:butt;stroke-linejoin:miter;stroke-opacity:1"
         d="m -180.63042,51.174888 10.09004,-10.090044"
         id="path4610"
         inkscape:connector-curvature="0" />
      <path
         inkscape:connector-curvature="0"
         id="path4612"
         d="m -180.63042,51.174888 -9.05095,-13.480737"
         style="fill:none;fill-rule:evenodd;stroke:#000000;stroke-width:0.24513447;stroke-linecap:butt;stroke-linejoin:miter;stroke-miterlimit:4;stroke-dasharray:0.2451345, 0.49026901;stroke-dashoffset:0;stroke-opacity:1"
         sodipodi:nodetypes="cc" />
      <text
         xml:space="preserve"
         style="font-style:normal;font-weight:normal;font-size:2.45004845px;line-height:3.82820106px;font-family:sans-serif;letter-spacing:0px;word-spacing:0px;fill:#000000;fill-opacity:1;stroke:none;stroke-width:0.24474904px;stroke-linecap:butt;stroke-linejoin:miter;stroke-opacity:1"
         x="-199.67342"
         y="52.516239"
         id="text4618"><tspan
           sodipodi:role="line"
           id="tspan4616"
           x="-199.67342"
           y="52.516239"
           style="font-size:2.45004845px;stroke-width:0.24474904px">Δλ<tspan
   id="tspan4614"
   style="font-size:1.42919564px;baseline-shift:sub;stroke-width:0.24474904px">B</tspan></tspan></text>
      <text
         id="text4624"
         y="58.034821"
         x="-190.00575"
         style="font-style:normal;font-weight:normal;font-size:2.45004845px;line-height:3.82820106px;font-family:sans-serif;letter-spacing:0px;word-spacing:0px;fill:#000000;fill-opacity:1;stroke:none;stroke-width:0.24474904px;stroke-linecap:butt;stroke-linejoin:miter;stroke-opacity:1"
         xml:space="preserve"><tspan
           style="font-size:2.45004845px;stroke-width:0.24474904px"
           y="58.034821"
           x="-190.00575"
           id="tspan4622"
           sodipodi:role="line">Δλ<tspan
   style="font-size:1.42919564px;baseline-shift:sub;stroke-width:0.24474904px"
   id="tspan4620">D</tspan></tspan></text>
      <text
         xml:space="preserve"
         style="font-style:normal;font-weight:normal;font-size:2.45004845px;line-height:3.82820106px;font-family:sans-serif;letter-spacing:0px;word-spacing:0px;fill:#000000;fill-opacity:1;stroke:none;stroke-width:0.24474904px;stroke-linecap:butt;stroke-linejoin:miter;stroke-opacity:1"
         x="-173.72539"
         y="48.427193"
         id="text4630"><tspan
           sodipodi:role="line"
           id="tspan4628"
           x="-173.72539"
           y="48.427193"
           style="font-size:2.45004845px;stroke-width:0.24474904px">Δλ<tspan
   id="tspan4626"
   style="font-size:1.42919564px;baseline-shift:sub;stroke-width:0.24474904px">R</tspan></tspan></text>
      <text
         id="text4636"
         y="39.926689"
         x="-199.6722"
         style="font-style:normal;font-weight:normal;font-size:2.45004845px;line-height:3.82820106px;font-family:sans-serif;letter-spacing:0px;word-spacing:0px;fill:#000000;fill-opacity:1;stroke:none;stroke-width:0.24474904px;stroke-linecap:butt;stroke-linejoin:miter;stroke-opacity:1"
         xml:space="preserve"><tspan
           style="font-size:2.45004845px;stroke-width:0.24474904px"
           y="39.926689"
           x="-199.6722"
           id="tspan4634"
           sodipodi:role="line">ρ<tspan
   style="font-size:1.42919505px;baseline-shift:sub;stroke-width:0.24474904px"
   id="tspan4632">sr</tspan></tspan></text>
      <text
         xml:space="preserve"
         style="font-style:normal;font-weight:normal;font-size:2.45004845px;line-height:3.82820106px;font-family:sans-serif;letter-spacing:0px;word-spacing:0px;fill:#000000;fill-opacity:1;stroke:none;stroke-width:0.24474904px;stroke-linecap:butt;stroke-linejoin:miter;stroke-opacity:1"
         x="-155.57129"
         y="38.395424"
         id="text4642"><tspan
           sodipodi:role="line"
           id="tspan4640"
           x="-155.57129"
           y="38.395424"
           style="font-size:2.45004845px;stroke-width:0.24474904px">ρ<tspan
   id="tspan4638"
   style="font-size:1.42919505px;baseline-shift:sub;stroke-width:0.24474904px">f</tspan></tspan></text>
      <path
         style="fill:none;fill-rule:evenodd;stroke:#000000;stroke-width:0.24474904px;stroke-linecap:butt;stroke-linejoin:miter;stroke-opacity:1"
         d="m -184.40703,38.607452 h 13.17996"
         id="path4644"
         inkscape:connector-curvature="0" />
      <path
         style="opacity:1;fill:none;fill-opacity:1;stroke:#000000;stroke-width:0.24513447;stroke-linecap:round;stroke-linejoin:round;stroke-miterlimit:4;stroke-dasharray:none;stroke-dashoffset:0;stroke-opacity:1"
         id="path4646"
         sodipodi:type="arc"
         sodipodi:cx="-184.09766"
         sodipodi:cy="38.662136"
         sodipodi:rx="8.3673534"
         sodipodi:ry="8.3673534"
         sodipodi:start="0"
         sodipodi:end="0.17699023"
         sodipodi:open="true"
         d="m -175.7303,38.662136 a 8.3673534,8.3673534 0 0 1 -0.13072,1.47322" />
      <path
         inkscape:connector-curvature="0"
         id="path4648"
         d="m -165.80643,48.837458 h 13.17995"
         style="fill:none;fill-rule:evenodd;stroke:#000000;stroke-width:0.24474904px;stroke-linecap:butt;stroke-linejoin:miter;stroke-opacity:1" />
      <path
         d="m -157.12972,-48.782768 a 8.3673534,8.3673534 0 0 1 -0.11293,1.370104"
         sodipodi:open="true"
         sodipodi:end="0.16448468"
         sodipodi:start="0"
         sodipodi:ry="8.3673534"
         sodipodi:rx="8.3673534"
         sodipodi:cy="-48.782768"
         sodipodi:cx="-165.49707"
         sodipodi:type="arc"
         id="path4650"
         style="opacity:1;fill:none;fill-opacity:1;stroke:#000000;stroke-width:0.24513447;stroke-linecap:round;stroke-linejoin:round;stroke-miterlimit:4;stroke-dasharray:none;stroke-dashoffset:0;stroke-opacity:1"
         transform="scale(1,-1)" />
      <path
         sodipodi:nodetypes="cccccccc"
         inkscape:connector-curvature="0"
         id="path4652"
         d="m -209.94559,38.331326 v 2.346517 h 3.04823 v 3.889894 h -3.04823 v 2.346532 l -2.78317,-4.291472 z"
         style="fill:#f52900;fill-opacity:1;fill-rule:evenodd;stroke:#000000;stroke-width:0.24474904;stroke-linecap:butt;stroke-linejoin:miter;stroke-miterlimit:4;stroke-dasharray:none;stroke-opacity:1" />
      <path
         inkscape:connector-curvature="0"
         id="path4654"
         d="m -206.15192,32.045132 c 1.12153,0.560771 -0.24458,-0.163048 0.46404,0.309367 0.0215,0.0143 0.0529,-0.0081 0.0773,0 0.0547,0.01823 0.1,0.05911 0.15468,0.07734 0.0245,0.0081 0.0543,-0.01153 0.0773,0 0.0326,0.0163 0.0447,0.06104 0.0773,0.07734 0.0173,0.0087 0.29099,0 0.30937,0 h 0.92809 0.46405 c 0.0773,0 0.15865,0.02446 0.23203,0 0.0882,-0.0294 0.15765,-0.09891 0.23202,-0.154682 0.0292,-0.02188 0.0428,-0.06581 0.0773,-0.07734 0.0489,-0.0163 0.10577,0.0163 0.15469,0 0.0692,-0.02306 0.0894,-0.122073 0.15468,-0.154682 0.023,-0.01153 0.0516,0 0.0773,0 h 0.0773 -0.15468 c 0.0773,0 0.15699,-0.01876 0.23202,0 0.0354,0.0088 0.047,0.05712 0.0773,0.07734 0.048,0.03198 0.11392,0.03658 0.15469,0.07734 0.16002,0.160021 -0.24454,-0.0063 0.0773,0.154682 0.023,0.01153 0.0591,-0.01823 0.0773,0 0.16003,0.160022 -0.24453,-0.0063 0.0773,0.154683 0.023,0.01153 0.0529,-0.0081 0.0773,0 0.0547,0.01823 0.1,0.05911 0.15468,0.07734 0.0489,0.0163 0.10857,-0.02306 0.15468,0 0.0327,0.0163 0.0416,0.07019 0.0773,0.07734 0.10111,0.02022 0.20703,-0.01278 0.30936,0 0.10548,0.01318 0.20452,0.05987 0.30936,0.07734 0.12543,0.0209 0.26129,-0.0209 0.38671,0 0.0804,0.0134 0.15294,0.05757 0.23203,0.07734 0.0659,0.01648 0.16383,0 0.23202,0 h 0.46405 c 0.0405,0 0.28903,0.01017 0.30936,0 0.0326,-0.0163 0.042,-0.0685 0.0773,-0.07734 0.075,-0.01876 0.15545,0.01093 0.23202,0 0.10523,-0.01504 0.20624,-0.05156 0.30936,-0.07734 0.10313,-0.02578 0.20717,-0.04814 0.30937,-0.07734 0.19977,-0.05708 0.32647,-0.127818 0.54139,-0.154682 0.10233,-0.01279 0.20765,0.01695 0.30937,0 0.0569,-0.0095 0.1,-0.05911 0.15468,-0.07734 0.017,-0.0057 0.29786,-0.0057 0.30936,0 0.0326,0.0163 0.0447,0.06104 0.0773,0.07734 0.023,0.01153 0.0516,0 0.0773,0 0.0258,0.02578 0.0447,0.06104 0.0773,0.07734 0.023,0.01153 0.0543,-0.01153 0.0773,0 0.0652,0.03261 0.0895,0.122073 0.15468,0.154683 0.023,0.01153 0.0591,-0.01823 0.0773,0 0.0182,0.01823 -0.0182,0.05911 0,0.07734 0.0182,0.01823 0.0543,-0.01153 0.0773,0 0.0652,0.03261 0.0895,0.122074 0.15469,0.154684 0.023,0.01153 0.0543,-0.01153 0.0773,0 0.0652,0.03261 0.0895,0.122072 0.15468,0.154682 0.0461,0.02306 0.10857,-0.02306 0.15468,0 0.0326,0.0163 0.0447,0.06104 0.0773,0.07734 0.0203,0.01017 0.26892,0 0.30936,0 0.0804,0 0.40321,0.0152 0.46405,0 0.0559,-0.01398 0.097,-0.07734 0.15468,-0.07734 0.0576,0 0.0988,0.06336 0.15469,0.07734 0.05,0.01251 0.10312,0 0.15468,0 h 0.15468 0.15468 c 0.0516,0 0.10466,0.01251 0.15468,0 0.0559,-0.01398 0.0988,-0.06336 0.15469,-0.07734 0.12132,-0.03033 0.26538,0.03033 0.38671,0 0.0559,-0.01398 0.1,-0.05911 0.15468,-0.07734 0.0245,-0.0081 0.0529,0.0081 0.0773,0 0.0547,-0.01823 0.10312,-0.05156 0.15468,-0.07734 0.18055,-0.09028 0.34535,-0.176014 0.54139,-0.232024 0.1022,-0.0292 0.20716,-0.04814 0.30936,-0.07734 0.0784,-0.0224 0.15209,-0.06135 0.23203,-0.07734 0.0506,-0.01011 0.10577,0.0163 0.15468,0 0.0346,-0.01153 0.0447,-0.06104 0.0773,-0.07734 0.0461,-0.02306 0.10857,0.02306 0.15469,0 0.0326,-0.0163 0.0447,-0.06104 0.0773,-0.07734 0.0843,-0.04217 0.10078,0.0414 0.15468,0.07734 0.048,0.03198 0.10312,0.05156 0.15469,0.07734 0.0516,0.02578 0.10671,0.04536 0.15467,0.07734 0.0303,0.02022 0.0447,0.06104 0.0774,0.07734 0.023,0.01153 0.0543,-0.01153 0.0773,0 0.0685,0.03427 0.16162,0.185088 0.23202,0.232024 0.0389,0.170394 0.15911,0.04088 0.23202,0.07734 0.0652,0.03261 0.094,0.114236 0.15469,0.154683 0.048,0.03198 0.10671,0.04536 0.15468,0.07734 0.0303,0.02022 0.0447,0.06104 0.0773,0.07734 0.023,0.01153 0.0543,-0.01153 0.0773,0 0.0326,0.0163 0.0447,0.06103 0.0773,0.07734 0.0236,0.01178 0.19719,0 0.23202,0 0.0648,0 0.32789,0.0147 0.38671,0 0.0559,-0.01398 0.0982,-0.06603 0.15468,-0.07734 0.0758,-0.01517 0.15573,0.01271 0.23202,0 0.0804,-0.0134 0.15161,-0.06394 0.23203,-0.07734 0.0763,-0.01271 0.15546,0.01093 0.23202,0 0.10523,-0.01504 0.20625,-0.05156 0.30937,-0.07734 0.19556,-0.04889 0.35646,-0.08071 0.54139,-0.154683 0.15845,-0.06338 0.30227,-0.178096 0.46404,-0.232024 0.0245,-0.0081 0.0543,0.01153 0.0773,0 0.0326,-0.0163 0.0447,-0.06103 0.0774,-0.07734 0.0461,-0.02306 0.10576,0.0163 0.15468,0 0.0547,-0.01823 0.1,-0.05911 0.15468,-0.07734 0.0245,-0.0081 0.0529,0.0081 0.0773,0 0.10938,-0.03645 0.19564,-0.135727 0.30937,-0.154682 0.178,-0.02967 0.36443,0.03539 0.54139,0 0.0565,-0.0113 0.0987,-0.06336 0.15468,-0.07734 0.0139,-0.0035 0.44283,-0.01061 0.46405,0 0.0652,0.03261 0.094,0.114236 0.15468,0.154683 0.048,0.03198 0.10672,0.04536 0.15468,0.07734 0.0303,0.02022 0.0516,0.05156 0.0773,0.07734 0.0257,0.02578 0.061,0.04473 0.0773,0.07734 0.0115,0.02306 -0.023,0.06581 0,0.07734 0.0461,0.02306 0.11178,-0.0286 0.15468,0 0.048,0.03198 0.0294,0.122706 0.0773,0.154682 0.0429,0.0286 0.10577,-0.0163 0.15468,0 0.0346,0.01153 0.0447,0.06104 0.0773,0.07734 0.023,0.01153 0.0591,-0.01823 0.0773,0 0.0182,0.01823 -0.0182,0.05911 0,0.07734 0.0365,0.03646 0.10856,-0.02306 0.15468,0 0.0326,0.0163 0.0447,0.06104 0.0773,0.07734 0.023,0.01153 0.0516,0 0.0773,0 h 0.15468 0.30937 0.23202 c 0.0516,0 0.10413,0.01011 0.15469,0 0.15987,-0.03198 0.30416,-0.122705 0.46404,-0.154682 0.0506,-0.0101 0.10412,0.01011 0.15468,0 0.0799,-0.01599 0.15208,-0.06135 0.23202,-0.07734 0.0506,-0.01011 0.10467,0.01251 0.15469,0 0.11184,-0.02797 0.19751,-0.126718 0.30936,-0.154682 0.05,-0.01251 0.10577,0.0163 0.15468,0 0.0346,-0.01153 0.0447,-0.06104 0.0773,-0.07734 0.023,-0.01153 0.0543,0.01153 0.0773,0 0.0326,-0.0163 0.0447,-0.06103 0.0773,-0.07734 0.0231,-0.01153 0.0543,0.01153 0.0774,0 0.0326,-0.0163 0.0428,-0.06581 0.0773,-0.07734 0.0489,-0.0163 0.10576,0.0163 0.15467,0 0.0346,-0.01153 0.0447,-0.06104 0.0773,-0.07734 0.0469,-0.02348 0.41708,0.02348 0.46404,0 0.19115,-0.09557 -0.0267,-0.07734 0.15468,-0.07734 0.0258,0 0.0529,-0.0081 0.0773,0 0.14046,0.04682 0.14353,0.06619 0.23202,0.154682 0.0258,0.02578 0.061,0.04473 0.0773,0.07734 0.0115,0.02306 -0.0143,0.05589 0,0.07734 0.0595,0.08924 0.17254,0.142785 0.23203,0.232024 0.032,0.04797 0.0454,0.106718 0.0773,0.154683 0.0219,0.03278 0.20003,0.216025 0.23203,0.232024 0.023,0.01153 0.0591,-0.01823 0.0773,0 0.0182,0.01823 -0.0182,0.05911 0,0.07734 0.0365,0.03646 0.10856,-0.02306 0.15469,0 0.0326,0.0163 0.0447,0.06104 0.0773,0.07734 0.0282,0.01409 0.34215,0 0.38671,0 h 0.69607 1.31481 c 0.035,0 0.44343,0.01031 0.46405,0 0.0326,-0.0163 0.042,-0.0685 0.0773,-0.07734 0.075,-0.01876 0.15865,0.02446 0.23203,0 0.0882,-0.0294 0.14887,-0.113113 0.23201,-0.154683 0.46712,-0.233561 0.0328,0.01115 0.38671,-0.07734 0.37348,-0.09337 -0.004,-0.03676 0.23203,-0.154682 0.0461,-0.02306 0.10856,0.02306 0.15468,0 0.14461,-0.07231 -0.003,-0.136022 0.23202,-0.07734 0.22624,0.05656 0.36604,0.332535 0.54139,0.464049 0.0461,0.03459 0.10672,0.04536 0.15469,0.07734 0.0704,0.04694 0.16347,0.197748 0.23202,0.232024 0.0307,0.01533 0.21621,-0.01581 0.23202,0 0.0182,0.01823 -0.0182,0.05911 0,0.07734 8e-5,7.3e-5 0.23168,-1.16e-4 0.23202,0 0.0346,0.01153 0.0516,0.05156 0.0773,0.07734 0.10313,0 0.20688,-0.01139 0.30937,0 0.13066,0.01452 0.25704,0.05573 0.38672,0.07734 0.17981,0.02997 0.36121,0.04962 0.54138,0.07734 0.15499,0.02385 0.30777,0.06432 0.46405,0.07734 0.15415,0.01285 0.30937,0 0.46404,0 h 1.16012 c 0.0188,0 0.22954,0.0025 0.23203,0 0.0182,-0.01823 -0.0182,-0.05911 0,-0.07734 0.0182,-0.01823 0.0543,0.01153 0.0773,0 0.0652,-0.03261 0.0895,-0.122072 0.1547,-0.154682 0.023,-0.01153 0.0543,0.01153 0.0773,0 0.0928,-0.0464 0.13921,-0.18562 0.23203,-0.232024 0.0461,-0.02306 0.11823,0.03646 0.15468,0 0.0182,-0.01823 -0.0182,-0.05911 0,-0.07734 0.0182,-0.01823 0.0543,0.01153 0.0773,0 0.0326,-0.0163 0.0447,-0.06103 0.0773,-0.07734 0.0159,-0.0079 0.36374,-0.0077 0.38671,0 0.0547,0.01823 0.0988,0.06336 0.15468,0.07734 0.05,0.01251 0.10313,0 0.15469,0 0.0257,0 0.0543,-0.01153 0.0773,0 0.0326,0.0163 0.0447,0.06104 0.0773,0.07734 0.0461,0.02306 0.10857,-0.02306 0.15469,0 0.0825,0.04126 0.0722,0.113419 0.15467,0.154682 0.0231,0.01153 0.0516,0 0.0773,0 h 0.15468 0.54139 0.54139 c 0.0773,0 0.15527,0.0096 0.23202,0 0.46885,-0.05861 0.29865,-0.120501 0.77342,-0.07734 0.15617,0.0142 0.308,0.06174 0.46405,0.07734 0.1026,0.01026 0.20624,0 0.30936,0 h 0.77341 0.30937 c 0.0516,0 0.10857,0.02306 0.15468,0 0.023,-0.01153 -0.0182,-0.05911 0,-0.07734 0.0182,-0.01823 0.0543,0.01153 0.0773,0 0.0133,-0.0066 0.22883,-0.222417 0.23203,-0.232024 0,-0.438268 -0.0516,-0.02578 0.0773,-0.154684 0.0182,-0.01823 -0.0258,-0.07734 0,-0.07734 0.0365,0 0.0428,0.06581 0.0773,0.07734 0.0489,0.0163 0.10577,-0.0163 0.15468,0 0.0692,0.02306 0.0855,0.131624 0.15469,0.154684 0.0489,0.0163 0.10576,-0.0163 0.15468,0 0.0346,0.01153 0.0447,0.06103 0.0773,0.07734 0.023,0.0115 0.43151,0 0.46405,0 0.10312,0 0.20824,-0.02022 0.30936,0 0.0799,0.01599 0.15161,0.06394 0.23203,0.07734 0.0763,0.01271 0.15468,0 0.23202,0 0.25781,0 0.5165,-0.02141 0.77342,0 0.15627,0.01302 0.308,0.06174 0.46404,0.07734 0.19883,0.01988 0.41755,0 0.61874,0 0.0538,0 0.35873,0.01398 0.3867,0 0.0326,-0.0163 0.047,-0.05712 0.0773,-0.07734 0.048,-0.03198 0.10857,-0.04275 0.15468,-0.07734 0.0583,-0.04375 0.0895,-0.122072 0.15468,-0.154682 0.0461,-0.02306 0.10577,0.0163 0.15469,0 0.0692,-0.02306 0.0855,-0.131625 0.15468,-0.154683 0.0489,-0.0163 0.10857,0.02306 0.15468,0 0.023,-0.01153 -0.0182,-0.05911 0,-0.07734 0.0182,-0.01823 0.0543,0.01153 0.0773,0 0.0326,-0.0163 0.0447,-0.06104 0.0773,-0.07734 0.023,-0.01153 0.0591,0.01823 0.0773,0 0.0182,-0.01823 -0.023,-0.06581 0,-0.07734 4.5e-4,-1.52e-4 0.52783,-0.0068 0.54139,0 0.0326,0.0163 0.0447,0.06104 0.0773,0.07734 0.0231,0.01153 0.0591,-0.01823 0.0773,0 0.0182,0.01823 -0.0182,0.05911 0,0.07734 0.0365,0.03646 0.11822,-0.03645 0.15468,0 0.0182,0.01823 -0.0182,0.05911 0,0.07734 0.0182,0.01823 0.0591,-0.01823 0.0773,0 0.0182,0.01823 -0.023,0.06581 0,0.07734 0.0922,0.04612 0.21713,-0.04612 0.30937,0 0.0652,0.03261 0.0922,0.117167 0.15468,0.154684 0.0699,0.04194 0.15633,0.04706 0.23203,0.07734 0.0535,0.02141 0.0987,0.06336 0.15468,0.07734 0.05,0.01251 0.10576,-0.0163 0.15468,0 0.0346,0.01153 0.0447,0.06104 0.0773,0.07734 0.023,0.01153 0.0516,0 0.0773,0 h 0.0773 0.3867 c 0.0617,0 0.34031,0.01546 0.38671,0 0.0547,-0.01823 0.1,-0.05911 0.15468,-0.07734 0.0244,-0.0081 0.0516,0 0.0773,0 0.0516,-0.02578 0.1,-0.05911 0.15469,-0.07734 0.0245,-0.0081 0.0529,0.0081 0.0773,0 0.0547,-0.01823 0.1,-0.05911 0.15469,-0.07734 0.0245,-0.0081 0.0516,0 0.0773,0 0.0516,-0.02578 0.10312,-0.05156 0.15468,-0.07734 0.10313,-0.05156 0.21344,-0.09073 0.30937,-0.154683 0.0303,-0.02022 0.0447,-0.06104 0.0773,-0.07734 0.023,-0.01153 0.0543,0.01153 0.0773,0 0.0326,-0.0163 0.0409,-0.07734 0.0773,-0.07734 0.0258,0 -0.0182,0.05911 0,0.07734 0.0365,0.03646 0.11822,-0.03645 0.15469,0 0.0407,0.04076 0.0571,0.100707 0.0773,0.154683 0.0572,0.152669 0.0941,0.31266 0.15469,0.464048 0.0428,0.107048 0.11822,0.199989 0.15468,0.309366 0.0163,0.04892 -0.0163,0.105767 0,0.154683 0.0115,0.03459 0.0516,0.05156 0.0773,0.07734 0.0516,0.05156 0.094,0.114234 0.15469,0.154683 0.0215,0.0143 0.0591,-0.01823 0.0773,0 0.0182,0.01823 -0.0182,0.05911 0,0.07734 0.0182,0.01823 0.0591,-0.01823 0.0773,0 0.0182,0.01823 -0.0182,0.05911 0,0.07734 0.0182,0.01823 0.0516,0 0.0773,0 0.13596,0 0.34304,-0.02017 0.46405,0 0.56188,0.09365 -0.0272,0.07734 0.38671,0.07734 h 0.30936 0.15468 c 0.0258,0 0.0529,0.0081 0.0773,0 0.0547,-0.01823 0.0982,-0.06604 0.15468,-0.07734 0.0758,-0.01517 0.15699,0.01876 0.23202,0 0.0354,-0.0088 0.0428,-0.06581 0.0773,-0.07734 0.0489,-0.0163 0.10577,0.0163 0.15469,0 0.0346,-0.01153 0.0447,-0.06103 0.0773,-0.07734 0.023,-0.01153 0.0543,0.01153 0.0773,0 0.0326,-0.0163 0.0447,-0.06104 0.0773,-0.07734 0.023,-0.01153 0.0543,0.01153 0.0773,0 0.15818,-0.07909 -0.002,-0.106422 0.15469,-0.232024 0.09,-0.07202 0.21712,-0.08551 0.30936,-0.154683 0.0206,-0.01547 -0.0182,-0.05911 0,-0.07734 0.0182,-0.01823 0.0543,0.01153 0.0773,0 0.0326,-0.0163 0.0428,-0.06581 0.0773,-0.07734 0.0489,-0.0163 0.10857,0.02306 0.15468,0 0.0231,-0.01153 -0.0115,-0.05428 0,-0.07734 0.0163,-0.03261 0.0516,-0.05156 0.0773,-0.07734 0.11836,-0.118362 0.22409,-0.244322 0.3867,-0.309366 0.0479,-0.01915 0.10312,0 0.15468,0 0.0258,0 0.0543,-0.01153 0.0773,0 0.0761,0.03805 0.23326,0.271312 0.30936,0.309366 0.028,0.01398 0.33291,0 0.38671,0 0.0258,0 0.0591,-0.01823 0.0773,0 0.0182,0.01823 -0.0182,0.05911 0,0.07734 0.002,0.0025 0.21327,0 0.23203,0 h 0.61873 0.0773 c 0.0258,0 0.0591,0.01823 0.0773,0 0.0182,-0.01823 -0.0182,-0.05911 0,-0.07734 0.0182,-0.01823 0.0543,0.01153 0.0773,0 0.0327,-0.0163 0.0447,-0.06104 0.0773,-0.07734 0.023,-0.01153 0.0543,0.01153 0.0773,0 0.19114,-0.09557 -0.0267,-0.07734 0.15468,-0.07734 0.0258,0 0.0773,-0.02578 0.0773,0 0,0.03646 -0.0516,0.05156 -0.0773,0.07734 l 3.13682,-0.145745"
         style="fill:none;fill-opacity:1;fill-rule:evenodd;stroke:#000000;stroke-width:0.24474904px;stroke-linecap:butt;stroke-linejoin:miter;stroke-opacity:1"
         sodipodi:nodetypes="ccccccscsccccssccccccccccccccccssccccccccccccccccccccccscscscsccccccccccccccccsccccccccscccccccccscccccccccsccccccccccsccscccccccccccccccscccccccccccscscccccccccccscccccccssscccccscccscsccccsccscccscscccccscccccsccsccsccccccccccccccscccscccccccscscccccccccccsccccccccccscscscsscccccccscccccccccsscsccscssccccsscc" />
    </g>
  </g>
</svg>
