<?xml version="1.0" encoding="UTF-8" standalone="no"?>
<!-- Created with Inkscape (http://www.inkscape.org/) -->

<svg
   xmlns:dc="http://purl.org/dc/elements/1.1/"
   xmlns:cc="http://creativecommons.org/ns#"
   xmlns:rdf="http://www.w3.org/1999/02/22-rdf-syntax-ns#"
   xmlns:svg="http://www.w3.org/2000/svg"
   xmlns="http://www.w3.org/2000/svg"
   xmlns:xlink="http://www.w3.org/1999/xlink"
   xmlns:sodipodi="http://sodipodi.sourceforge.net/DTD/sodipodi-0.dtd"
   xmlns:inkscape="http://www.inkscape.org/namespaces/inkscape"
   width="201.33401mm"
   height="114.30475mm"
   viewBox="0 0 713.38824 405.01682"
   id="svg2"
   version="1.1"
   inkscape:version="0.91 r13725"
   sodipodi:docname="ECCW_maths_domains.svg">
  <defs
     id="defs4"
     style="stroke-linecap:butt;stroke-linejoin:round;stroke-miterlimit:100000">
    <style
       id="style6"
       type="text/css">
*{stroke-linecap:butt;stroke-linejoin:round;stroke-miterlimit:100000;}
  </style>
    <defs
       id="defs7216">
      <path
         style="stroke-linecap:butt;stroke-linejoin:round;stroke-miterlimit:100000"
         inkscape:connector-curvature="0"
         id="path7218"
         d="M 10.6875,12.40625 21,12.40625 21,0 10.6875,0 Z" />
      <path
         style="stroke-linecap:butt;stroke-linejoin:round;stroke-miterlimit:100000"
         inkscape:connector-curvature="0"
         id="path7220"
         d="M 4.890625,0 Q 3.90625,0 3.90625,1.3125 q 0.046875,0.25 0.1875,0.859375 0.15625,0.609375 0.421875,0.96875 0.265625,0.375 0.65625,0.375 6.109375,0 8.546875,0.6875 1.265625,0.4375 1.859375,2.6875 L 29.296875,61.8125 Q 29.5,62.796875 29.5,63.1875 q 0,1.078125 -1.171875,1.21875 -1.90625,0.390625 -7.234375,0.390625 -0.96875,0 -0.96875,1.3125 0.04687,0.25 0.1875,0.859375 0.140625,0.609375 0.40625,0.96875 0.28125,0.375 0.671875,0.375 l 35.9375,0 q 6.984375,0 12.203125,-3.390625 5.21875,-3.390625 8,-9.140625 2.796875,-5.734375 2.796875,-12.671875 0,-7.65625 -3.1875,-15.328125 Q 73.96875,20.125 68.25,13.765625 62.546875,7.421875 55.21875,3.703125 47.90625,0 40.1875,0 Z m 18.6875,4.296875 q 0,-0.78125 3.421875,-0.78125 l 11.625,0 q 5.5625,0 10.734375,2.296875 5.1875,2.296875 9.234375,6.296875 3.765625,3.765625 6.640625,9.859375 2.875,6.109375 4.46875,12.75 1.59375,6.640625 1.59375,12.203125 0,4.0625 -1.203125,7.328125 -1.203125,3.265625 -3.375,5.609375 -2.171875,2.34375 -5.4375,3.640625 -3.265625,1.296875 -7.375,1.296875 l -10.984375,0 q -2.734375,0 -3.625,-0.46875 Q 38.421875,63.875 37.703125,61.375 L 24.03125,6.5 Q 23.578125,5.28125 23.578125,4.296875" />
      <path
         style="stroke-linecap:butt;stroke-linejoin:round;stroke-miterlimit:100000"
         inkscape:connector-curvature="0"
         id="path7222"
         d="m 19.390625,-19.484375 4.484375,18.0625 q -5.078125,0 -9.46875,2.375 -4.390625,2.375 -7.0625,6.609375 -2.65625,4.25 -2.65625,9.234375 0,5.421875 2.6875,10.34375 2.6875,4.9375 7.34375,8.96875 4.671875,4.03125 10.03125,6.203125 5.375,2.171875 10.65625,2.171875 l 6,24.3125 q 0.203125,0.59375 0.78125,0.59375 l 1.21875,0 q 0.390625,0 0.625,-0.34375 0.25,-0.34375 0.25,-0.640625 l -6,-23.921875 q 3.765625,0 7.28125,-1.375 Q 49.078125,41.75 51.78125,39.28125 54.5,36.8125 56,33.46875 57.515625,30.125 57.515625,26.3125 q 0,-5.40625 -2.6875,-10.34375 Q 52.15625,11.03125 47.609375,7.078125 43.0625,3.125 37.46875,0.84375 31.890625,-1.421875 26.8125,-1.421875 l -4.59375,-18.5 q -0.203125,-0.59375 -0.828125,-0.59375 l -1.171875,0 q -0.390625,0 -0.609375,0.375 -0.21875,0.359375 -0.21875,0.65625 m 5.125,20.703125 10.203125,40.671875 q -2.546875,0 -5.328125,-1.03125 -2.78125,-1.015625 -5.25,-2.578125 -2.453125,-1.5625 -4.46875,-3.5625 -2.4375,-2.4375 -4.296875,-5.765625 -1.84375,-3.3125 -2.796875,-7 -0.953125,-3.6875 -0.953125,-7.25 0,-3.765625 1.609375,-6.84375 Q 14.84375,4.78125 17.765625,3 q 2.9375,-1.78125 6.75,-1.78125 m 2.96875,0 q 3.765625,0 8.015625,2.140625 4.25,2.15625 6.984375,5.046875 3.75,3.703125 5.921875,9.09375 2.1875,5.40625 2.1875,10.921875 0,3.703125 -1.625,6.796875 -1.609375,3.109375 -4.546875,4.890625 -2.921875,1.78125 -6.71875,1.78125 z" />
      <path
         style="stroke-linecap:butt;stroke-linejoin:round;stroke-miterlimit:100000"
         inkscape:connector-curvature="0"
         id="path7224"
         d="m 10.59375,45.40625 62.59375,0 0,-8.203125 -62.59375,0 z m 0,-19.921875 62.59375,0 0,-8.296875 -62.59375,0 z" />
      <path
         style="stroke-linecap:butt;stroke-linejoin:round;stroke-miterlimit:100000"
         inkscape:connector-curvature="0"
         id="path7226"
         d="M 4.984375,0 Q 4,0 4,1.3125 q 0.046875,0.25 0.1875,0.828125 0.15625,0.59375 0.390625,0.984375 0.25,0.390625 0.75,0.390625 2.828125,0 4.921875,0.140625 2.109375,0.15625 3.5625,0.546875 1.171875,0.4375 1.90625,2.6875 L 29.390625,61.8125 q 0.203125,0.984375 0.203125,1.375 0,1.078125 -1.171875,1.21875 -1.90625,0.390625 -7.234375,0.390625 -0.96875,0 -0.96875,1.3125 0.04687,0.25 0.1875,0.859375 0.15625,0.609375 0.421875,0.96875 0.265625,0.375 0.65625,0.375 l 35.84375,0 q 3.265625,0 6.46875,-0.8125 Q 67,66.703125 69.703125,64.9375 72.40625,63.1875 74,60.5625 75.59375,57.953125 75.59375,54.5 q 0,-3.765625 -1.9375,-7 Q 71.734375,44.28125 68.671875,41.890625 65.625,39.5 62.078125,37.953125 58.546875,36.421875 54.6875,35.6875 q 2.734375,0 5.53125,-1.078125 2.8125,-1.0625 5.015625,-2.921875 Q 67.4375,29.828125 68.78125,27.234375 70.125,24.65625 70.125,21.6875 q 0,-6.015625 -4.203125,-11 Q 61.71875,5.71875 55.34375,2.859375 48.96875,0 43.015625,0 Z m 18.40625,4.296875 q 0,-0.78125 3.421875,-0.78125 l 14.296875,0 q 4.890625,0 9.375,2.703125 4.5,2.71875 7.203125,7.203125 2.71875,4.5 2.71875,9.375 0,2.984375 -1.25,5.640625 -1.25,2.671875 -3.59375,4.203125 -2.34375,1.546875 -5.359375,1.546875 l -19.484375,0 L 23.78125,6.5 Q 23.390625,5.125 23.390625,4.296875 m 8,32.515625 15.1875,0 q 4.796875,0 9.3125,2.4375 4.515625,2.453125 7.359375,6.640625 2.859375,4.203125 2.859375,8.890625 0,4.34375 -2.71875,7.171875 -2.703125,2.84375 -7,2.84375 l -13.71875,0 q -2.6875,0 -3.609375,-0.5 Q 38.140625,63.8125 37.5,61.375 Z" />
      <path
         style="stroke-linecap:butt;stroke-linejoin:round;stroke-miterlimit:100000"
         inkscape:connector-curvature="0"
         id="path7228"
         d="m 11.71875,12.40625 10.296875,0 0,-8.40625 -8,-15.625 -6.296875,0 4,15.625 z" />
    </defs>
    <defs
       id="defs280">
      <path
         d="M 0,0 4,0"
         id="m641e5bdac8"
         style="stroke:#000000;stroke-width:0.5;stroke-linecap:butt;stroke-linejoin:round;stroke-miterlimit:100000"
         inkscape:connector-curvature="0" />
    </defs>
    <defs
       id="defs40">
      <path
         d="M 0,0 0,-4"
         id="me62aca4e31"
         style="stroke:#000000;stroke-width:0.5;stroke-linecap:butt;stroke-linejoin:round;stroke-miterlimit:100000"
         inkscape:connector-curvature="0" />
    </defs>
    <defs
       id="defs497">
      <path
         style="stroke-linecap:butt;stroke-linejoin:round;stroke-miterlimit:100000"
         inkscape:connector-curvature="0"
         id="DejaVuSans-2e"
         d="M 10.6875,12.40625 21,12.40625 21,0 10.6875,0 Z" />
      <path
         style="stroke-linecap:butt;stroke-linejoin:round;stroke-miterlimit:100000"
         inkscape:connector-curvature="0"
         id="Cmmi10-44"
         d="M 4.890625,0 Q 3.90625,0 3.90625,1.3125 q 0.046875,0.25 0.1875,0.859375 0.15625,0.609375 0.421875,0.96875 0.265625,0.375 0.65625,0.375 6.109375,0 8.546875,0.6875 1.265625,0.4375 1.859375,2.6875 L 29.296875,61.8125 Q 29.5,62.796875 29.5,63.1875 q 0,1.078125 -1.171875,1.21875 -1.90625,0.390625 -7.234375,0.390625 -0.96875,0 -0.96875,1.3125 0.04687,0.25 0.1875,0.859375 0.140625,0.609375 0.40625,0.96875 0.28125,0.375 0.671875,0.375 l 35.9375,0 q 6.984375,0 12.203125,-3.390625 5.21875,-3.390625 8,-9.140625 2.796875,-5.734375 2.796875,-12.671875 0,-7.65625 -3.1875,-15.328125 Q 73.96875,20.125 68.25,13.765625 62.546875,7.421875 55.21875,3.703125 47.90625,0 40.1875,0 Z m 18.6875,4.296875 q 0,-0.78125 3.421875,-0.78125 l 11.625,0 q 5.5625,0 10.734375,2.296875 5.1875,2.296875 9.234375,6.296875 3.765625,3.765625 6.640625,9.859375 2.875,6.109375 4.46875,12.75 1.59375,6.640625 1.59375,12.203125 0,4.0625 -1.203125,7.328125 -1.203125,3.265625 -3.375,5.609375 -2.171875,2.34375 -5.4375,3.640625 -3.265625,1.296875 -7.375,1.296875 l -10.984375,0 q -2.734375,0 -3.625,-0.46875 Q 38.421875,63.875 37.703125,61.375 L 24.03125,6.5 Q 23.578125,5.28125 23.578125,4.296875" />
      <path
         style="stroke-linecap:butt;stroke-linejoin:round;stroke-miterlimit:100000"
         inkscape:connector-curvature="0"
         id="Cmmi10-c1"
         d="m 19.390625,-19.484375 4.484375,18.0625 q -5.078125,0 -9.46875,2.375 -4.390625,2.375 -7.0625,6.609375 -2.65625,4.25 -2.65625,9.234375 0,5.421875 2.6875,10.34375 2.6875,4.9375 7.34375,8.96875 4.671875,4.03125 10.03125,6.203125 5.375,2.171875 10.65625,2.171875 l 6,24.3125 q 0.203125,0.59375 0.78125,0.59375 l 1.21875,0 q 0.390625,0 0.625,-0.34375 0.25,-0.34375 0.25,-0.640625 l -6,-23.921875 q 3.765625,0 7.28125,-1.375 Q 49.078125,41.75 51.78125,39.28125 54.5,36.8125 56,33.46875 57.515625,30.125 57.515625,26.3125 q 0,-5.40625 -2.6875,-10.34375 Q 52.15625,11.03125 47.609375,7.078125 43.0625,3.125 37.46875,0.84375 31.890625,-1.421875 26.8125,-1.421875 l -4.59375,-18.5 q -0.203125,-0.59375 -0.828125,-0.59375 l -1.171875,0 q -0.390625,0 -0.609375,0.375 -0.21875,0.359375 -0.21875,0.65625 m 5.125,20.703125 10.203125,40.671875 q -2.546875,0 -5.328125,-1.03125 -2.78125,-1.015625 -5.25,-2.578125 -2.453125,-1.5625 -4.46875,-3.5625 -2.4375,-2.4375 -4.296875,-5.765625 -1.84375,-3.3125 -2.796875,-7 -0.953125,-3.6875 -0.953125,-7.25 0,-3.765625 1.609375,-6.84375 Q 14.84375,4.78125 17.765625,3 q 2.9375,-1.78125 6.75,-1.78125 m 2.96875,0 q 3.765625,0 8.015625,2.140625 4.25,2.15625 6.984375,5.046875 3.75,3.703125 5.921875,9.09375 2.1875,5.40625 2.1875,10.921875 0,3.703125 -1.625,6.796875 -1.609375,3.109375 -4.546875,4.890625 -2.921875,1.78125 -6.71875,1.78125 z" />
      <path
         style="stroke-linecap:butt;stroke-linejoin:round;stroke-miterlimit:100000"
         inkscape:connector-curvature="0"
         id="DejaVuSans-3d"
         d="m 10.59375,45.40625 62.59375,0 0,-8.203125 -62.59375,0 z m 0,-19.921875 62.59375,0 0,-8.296875 -62.59375,0 z" />
      <path
         style="stroke-linecap:butt;stroke-linejoin:round;stroke-miterlimit:100000"
         inkscape:connector-curvature="0"
         id="Cmmi10-42"
         d="M 4.984375,0 Q 4,0 4,1.3125 q 0.046875,0.25 0.1875,0.828125 0.15625,0.59375 0.390625,0.984375 0.25,0.390625 0.75,0.390625 2.828125,0 4.921875,0.140625 2.109375,0.15625 3.5625,0.546875 1.171875,0.4375 1.90625,2.6875 L 29.390625,61.8125 q 0.203125,0.984375 0.203125,1.375 0,1.078125 -1.171875,1.21875 -1.90625,0.390625 -7.234375,0.390625 -0.96875,0 -0.96875,1.3125 0.04687,0.25 0.1875,0.859375 0.15625,0.609375 0.421875,0.96875 0.265625,0.375 0.65625,0.375 l 35.84375,0 q 3.265625,0 6.46875,-0.8125 Q 67,66.703125 69.703125,64.9375 72.40625,63.1875 74,60.5625 75.59375,57.953125 75.59375,54.5 q 0,-3.765625 -1.9375,-7 Q 71.734375,44.28125 68.671875,41.890625 65.625,39.5 62.078125,37.953125 58.546875,36.421875 54.6875,35.6875 q 2.734375,0 5.53125,-1.078125 2.8125,-1.0625 5.015625,-2.921875 Q 67.4375,29.828125 68.78125,27.234375 70.125,24.65625 70.125,21.6875 q 0,-6.015625 -4.203125,-11 Q 61.71875,5.71875 55.34375,2.859375 48.96875,0 43.015625,0 Z m 18.40625,4.296875 q 0,-0.78125 3.421875,-0.78125 l 14.296875,0 q 4.890625,0 9.375,2.703125 4.5,2.71875 7.203125,7.203125 2.71875,4.5 2.71875,9.375 0,2.984375 -1.25,5.640625 -1.25,2.671875 -3.59375,4.203125 -2.34375,1.546875 -5.359375,1.546875 l -19.484375,0 L 23.78125,6.5 Q 23.390625,5.125 23.390625,4.296875 m 8,32.515625 15.1875,0 q 4.796875,0 9.3125,2.4375 4.515625,2.453125 7.359375,6.640625 2.859375,4.203125 2.859375,8.890625 0,4.34375 -2.71875,7.171875 -2.703125,2.84375 -7,2.84375 l -13.71875,0 q -2.6875,0 -3.609375,-0.5 Q 38.140625,63.8125 37.5,61.375 Z" />
      <path
         style="stroke-linecap:butt;stroke-linejoin:round;stroke-miterlimit:100000"
         inkscape:connector-curvature="0"
         id="DejaVuSans-2c"
         d="m 11.71875,12.40625 10.296875,0 0,-8.40625 -8,-15.625 -6.296875,0 4,15.625 z" />
    </defs>
    <defs
       id="defs439">
      <path
         d="m 9.421875,54.6875 8.984375,0 0,-54.6875 -8.984375,0 z m 0,21.296875 8.984375,0 0,-11.390625 -8.984375,0 z"
         id="DejaVuSans-69"
         inkscape:connector-curvature="0"
         style="stroke-linecap:butt;stroke-linejoin:round;stroke-miterlimit:100000" />
      <path
         d="m 44.28125,53.078125 0,-8.5 Q 40.484375,46.53125 36.375,47.5 q -4.09375,0.984375 -8.5,0.984375 -6.6875,0 -10.03125,-2.046875 Q 14.5,44.390625 14.5,40.28125 q 0,-3.125 2.390625,-4.90625 2.390625,-1.78125 9.625,-3.390625 l 3.078125,-0.6875 Q 39.15625,29.25 43.1875,25.515625 47.21875,21.78125 47.21875,15.09375 q 0,-7.625 -6.03125,-12.078125 -6.03125,-4.4375 -16.578125,-4.4375 -4.390625,0 -9.15625,0.859375 Q 10.6875,0.296875 5.421875,2 l 0,9.28125 q 4.984375,-2.59375 9.8125,-3.890625 4.828125,-1.28125 9.578125,-1.28125 6.34375,0 9.75,2.171875 3.421875,2.171875 3.421875,6.125 0,3.65625 -2.46875,5.609375 -2.453125,1.953125 -10.8125,3.765625 l -3.125,0.734375 q -8.34375,1.75 -12.0625,5.390625 -3.703125,3.640625 -3.703125,9.984375 0,7.71875 5.46875,11.90625 Q 16.75,56 26.8125,56 q 4.96875,0 9.359375,-0.734375 4.40625,-0.71875 8.109375,-2.1875"
         id="DejaVuSans-73"
         inkscape:connector-curvature="0"
         style="stroke-linecap:butt;stroke-linejoin:round;stroke-miterlimit:100000" />
      <path
         d="m 20.125,-1.125 q -4.75,0 -8.4375,2.25 Q 8.015625,3.375 6,7.171875 4,10.984375 4,15.828125 4,22.609375 7.78125,29.25 11.578125,35.890625 17.84375,40.03125 24.125,44.1875 31,44.1875 q 5.078125,0 8.9375,-2.65625 3.859375,-2.65625 5.859375,-7.078125 2,-4.421875 2,-9.453125 l 0.109375,-6.6875 q 3.40625,4.734375 5.78125,9.828125 2.375,5.109375 3.640625,10.578125 0.1875,0.59375 0.78125,0.59375 l 1.171875,0 q 0.921875,0 0.921875,-0.9375 0,-0.09375 -0.09375,-0.28125 -1.171875,-4.59375 -2.9375,-8.828125 -1.75,-4.21875 -4.125,-8.171875 -2.359375,-3.953125 -5.140625,-7.171875 0,-12.40625 2.875,-12.40625 1.859375,0 3.046875,1.09375 1.203125,1.109375 2.109375,2.71875 0.90625,1.609375 1.140625,1.65625 l 1.21875,0 q 0.78125,0 0.78125,-0.984375 0,-2.484375 -2.859375,-4.8125 -2.84375,-2.3125 -5.625,-2.3125 -3.625,0 -6.015625,2.34375 Q 42.1875,3.5625 41.3125,7.328125 36.625,3.328125 31.15625,1.09375 25.6875,-1.125 20.125,-1.125 m 0.1875,2.640625 q 10.6875,0 20.515625,8.78125 -0.0625,0.59375 -0.15625,1.4375 -0.09375,0.859375 -0.09375,0.96875 l 0,10.78125 q 0,18.125 -9.765625,18.125 -5.859375,0 -10.265625,-5.015625 -4.390625,-5 -6.609375,-11.96875 -2.21875,-6.953125 -2.21875,-12.703125 0,-4.359375 2.21875,-7.390625 2.21875,-3.015625 6.375,-3.015625"
         id="Cmmi10-ae"
         inkscape:connector-curvature="0"
         style="stroke-linecap:butt;stroke-linejoin:round;stroke-miterlimit:100000" />
      <path
         d="m 11.71875,11.921875 q 0,-4.359375 2.21875,-7.390625 2.21875,-3.015625 6.375,-3.015625 5.953125,0 11.4375,2.734375 5.5,2.734375 8.96875,7.5625 0.296875,0.296875 0.78125,0.296875 0.5,0 1,-0.5625 0.515625,-0.5625 0.515625,-1.046875 0,-0.390625 -0.1875,-0.59375 -3.671875,-5.125 -9.875,-8.078125 Q 26.765625,-1.125 20.125,-1.125 q -4.796875,0 -8.453125,2.265625 Q 8.015625,3.421875 6,7.21875 q -2,3.8125 -2,8.609375 0,6.734375 3.765625,13.375 3.765625,6.640625 10.015625,10.8125 6.25,4.171875 13.125,4.171875 4.5,0 8.078125,-2.171875 3.59375,-2.171875 3.59375,-6.421875 0,-2.734375 -1.59375,-4.671875 Q 39.40625,29 36.71875,29 35.109375,29 34,30 q -1.09375,1 -1.09375,2.625 0,2.34375 1.703125,4 1.71875,1.65625 4.015625,1.65625 l 0.1875,0 q -1.171875,1.703125 -3.390625,2.515625 -2.21875,0.8125 -4.609375,0.8125 -5.859375,0 -10.265625,-5.015625 -4.390625,-5 -6.609375,-11.96875 -2.21875,-6.953125 -2.21875,-12.703125"
         id="Cmmi10-63"
         inkscape:connector-curvature="0"
         style="stroke-linecap:butt;stroke-linejoin:round;stroke-miterlimit:100000" />
      <path
         d="m 41.109375,46.296875 q -1.515625,0.875 -3.296875,1.28125 Q 36.03125,48 33.890625,48 26.265625,48 22.1875,43.046875 18.109375,38.09375 18.109375,28.8125 l 0,-28.8125 -9.03125,0 0,54.6875 9.03125,0 0,-8.5 q 2.84375,4.984375 7.375,7.390625 Q 30.03125,56 36.53125,56 q 0.921875,0 2.046875,-0.125 1.125,-0.109375 2.484375,-0.359375 z"
         id="DejaVuSans-72"
         inkscape:connector-curvature="0"
         style="stroke-linecap:butt;stroke-linejoin:round;stroke-miterlimit:100000" />
      <path
         d="m 18.109375,8.203125 0,-29 -9.03125,0 0,75.484375 9.03125,0 0,-8.296875 q 2.84375,4.875 7.15625,7.234375 Q 29.59375,56 35.59375,56 q 9.96875,0 16.1875,-7.90625 6.234375,-7.90625 6.234375,-20.796875 0,-12.890625 -6.234375,-20.8125 -6.21875,-7.90625 -16.1875,-7.90625 -6,0 -10.328125,2.375 -4.3125,2.375 -7.15625,7.25 M 48.6875,27.296875 q 0,9.90625 -4.078125,15.546875 -4.078125,5.640625 -11.203125,5.640625 -7.140625,0 -11.21875,-5.640625 -4.078125,-5.640625 -4.078125,-15.546875 0,-9.90625 4.078125,-15.546875 4.078125,-5.640625 11.21875,-5.640625 7.125,0 11.203125,5.640625 4.078125,5.640625 4.078125,15.546875"
         id="DejaVuSans-70"
         inkscape:connector-curvature="0"
         style="stroke-linecap:butt;stroke-linejoin:round;stroke-miterlimit:100000" />
      <path
         d="m 64.40625,67.28125 0,-10.390625 q -4.984375,4.640625 -10.625,6.921875 -5.640625,2.296875 -11.984375,2.296875 -12.5,0 -19.140625,-7.640625 -6.640625,-7.640625 -6.640625,-22.09375 0,-14.40625 6.640625,-22.046875 Q 29.296875,6.6875 41.796875,6.6875 q 6.34375,0 11.984375,2.296875 5.640625,2.296875 10.625,6.9375 l 0,-10.3125 Q 59.234375,2.09375 53.4375,0.328125 q -5.78125,-1.75 -12.21875,-1.75 -16.5625,0 -26.09375,10.125 Q 5.609375,18.84375 5.609375,36.375 q 0,17.578125 9.515625,27.703125 9.53125,10.140625 26.09375,10.140625 6.53125,0 12.3125,-1.734375 5.796875,-1.734375 10.875,-5.203125"
         id="DejaVuSans-43"
         inkscape:connector-curvature="0"
         style="stroke-linecap:butt;stroke-linejoin:round;stroke-miterlimit:100000" />
    </defs>
    <defs
       id="defs345">
      <path
         style="stroke-linecap:butt;stroke-linejoin:round;stroke-miterlimit:100000"
         inkscape:connector-curvature="0"
         id="DejaVuSans-31"
         d="m 12.40625,8.296875 16.109375,0 0,55.625 -17.53125,-3.515625 0,8.984375 17.4375,3.515625 9.859375,0 0,-64.609375 16.109375,0 0,-8.296875 -41.984375,0 z" />
    </defs>
    <defs
       id="defs319">
      <path
         style="stroke-linecap:butt;stroke-linejoin:round;stroke-miterlimit:100000"
         inkscape:connector-curvature="0"
         id="DejaVuSans-32"
         d="m 19.1875,8.296875 34.421875,0 0,-8.296875 -46.28125,0 0,8.296875 q 5.609375,5.8125 15.296875,15.59375 9.703125,9.796875 12.1875,12.640625 4.734375,5.3125 6.609375,9 1.890625,3.6875 1.890625,7.25 0,5.8125 -4.078125,9.46875 -4.078125,3.671875 -10.625,3.671875 -4.640625,0 -9.796875,-1.609375 -5.140625,-1.609375 -11,-4.890625 l 0,9.96875 Q 13.765625,71.78125 18.9375,73 q 5.1875,1.21875 9.484375,1.21875 11.328125,0 18.0625,-5.671875 6.734375,-5.65625 6.734375,-15.125 0,-4.5 -1.6875,-8.53125 Q 49.859375,40.875 45.40625,35.40625 44.1875,33.984375 37.640625,27.21875 31.109375,20.453125 19.1875,8.296875" />
    </defs>
    <defs
       id="defs288">
      <path
         inkscape:connector-curvature="0"
         style="stroke:#000000;stroke-width:0.5;stroke-linecap:butt;stroke-linejoin:round;stroke-miterlimit:100000"
         id="mae2ecd8102"
         d="M 0,0 -4,0" />
    </defs>
    <defs
       id="defs204">
      <path
         d="m 56.203125,29.59375 0,-4.390625 -41.3125,0 q 0.59375,-9.28125 5.59375,-14.140625 5,-4.859375 13.9375,-4.859375 5.171875,0 10.03125,1.265625 4.859375,1.265625 9.65625,3.8125 l 0,-8.5 q -4.84375,-2.046875 -9.921875,-3.125 -5.078125,-1.078125 -10.296875,-1.078125 -13.09375,0 -20.734375,7.609375 -7.640625,7.625 -7.640625,20.625 0,13.421875 7.25,21.296875 Q 20.015625,56 32.328125,56 q 11.03125,0 17.453125,-7.109375 6.421875,-7.09375 6.421875,-19.296875 m -8.984375,2.640625 q -0.09375,7.359375 -4.125,11.75 -4.03125,4.40625 -10.671875,4.40625 -7.515625,0 -12.03125,-4.25 -4.515625,-4.25 -5.203125,-11.96875 z"
         id="DejaVuSans-65"
         inkscape:connector-curvature="0"
         style="stroke-linecap:butt;stroke-linejoin:round;stroke-miterlimit:100000" />
      <path
         id="DejaVuSans-20"
         d=""
         inkscape:connector-curvature="0"
         style="stroke-linecap:butt;stroke-linejoin:round;stroke-miterlimit:100000" />
      <path
         d="m 56.203125,29.59375 0,-4.390625 -41.3125,0 q 0.59375,-9.28125 5.59375,-14.140625 5,-4.859375 13.9375,-4.859375 5.171875,0 10.03125,1.265625 4.859375,1.265625 9.65625,3.8125 l 0,-8.5 q -4.84375,-2.046875 -9.921875,-3.125 -5.078125,-1.078125 -10.296875,-1.078125 -13.09375,0 -20.734375,7.609375 -7.640625,7.625 -7.640625,20.625 0,13.421875 7.25,21.296875 Q 20.015625,56 32.328125,56 q 11.03125,0 17.453125,-7.109375 6.421875,-7.09375 6.421875,-19.296875 m -8.984375,2.640625 q -0.09375,7.359375 -4.125,11.75 -4.03125,4.40625 -10.671875,4.40625 -7.515625,0 -12.03125,-4.25 -4.515625,-4.25 -5.203125,-11.96875 z m -8.6875,47.75 9.71875,0 L 32.34375,61.625 l -7.484375,0 z"
         id="DejaVuSans-e9"
         inkscape:connector-curvature="0"
         style="stroke-linecap:butt;stroke-linejoin:round;stroke-miterlimit:100000" />
      <path
         d="m 30.609375,48.390625 q -7.21875,0 -11.421875,-5.640625 -4.203125,-5.640625 -4.203125,-15.453125 0,-9.8125 4.171875,-15.453125 4.1875,-5.640625 11.453125,-5.640625 7.1875,0 11.375,5.65625 4.203125,5.671875 4.203125,15.4375 0,9.71875 -4.203125,15.40625 -4.1875,5.6875 -11.375,5.6875 m 0,7.609375 q 11.71875,0 18.40625,-7.625 6.703125,-7.609375 6.703125,-21.078125 0,-13.421875 -6.703125,-21.078125 -6.6875,-7.640625 -18.40625,-7.640625 -11.765625,0 -18.4375,7.640625 -6.65625,7.65625 -6.65625,21.078125 0,13.46875 6.65625,21.078125 Q 18.84375,56 30.609375,56"
         id="DejaVuSans-6f"
         inkscape:connector-curvature="0"
         style="stroke-linecap:butt;stroke-linejoin:round;stroke-miterlimit:100000" />
      <path
         d="m 18.3125,70.21875 0,-15.53125 18.5,0 0,-6.984375 -18.5,0 0,-29.6875 q 0,-6.6875 1.828125,-8.59375 1.828125,-1.90625 7.453125,-1.90625 l 9.21875,0 L 36.8125,0 27.59375,0 Q 17.1875,0 13.234375,3.875 9.28125,7.765625 9.28125,18.015625 l 0,29.6875 -6.59375,0 0,6.984375 6.59375,0 0,15.53125 z"
         id="DejaVuSans-74"
         inkscape:connector-curvature="0"
         style="stroke-linecap:butt;stroke-linejoin:round;stroke-miterlimit:100000" />
      <path
         d="M 52,44.1875 Q 55.375,50.25 60.0625,53.125 64.75,56 71.09375,56 q 8.546875,0 13.1875,-5.984375 4.640625,-5.96875 4.640625,-17 l 0,-33.015625 -9.03125,0 0,32.71875 q 0,7.859375 -2.796875,11.65625 -2.78125,3.8125 -8.484375,3.8125 -6.984375,0 -11.046875,-4.640625 -4.046875,-4.625 -4.046875,-12.640625 l 0,-30.90625 -9.03125,0 0,32.71875 q 0,7.90625 -2.78125,11.6875 -2.78125,3.78125 -8.59375,3.78125 -6.890625,0 -10.953125,-4.65625 -4.046875,-4.65625 -4.046875,-12.625 l 0,-30.90625 -9.03125,0 0,54.6875 9.03125,0 0,-8.5 q 3.078125,5.03125 7.375,7.421875 Q 29.78125,56 35.6875,56 41.65625,56 45.828125,52.96875 50,49.953125 52,44.1875"
         id="DejaVuSans-6d"
         inkscape:connector-curvature="0"
         style="stroke-linecap:butt;stroke-linejoin:round;stroke-miterlimit:100000" />
      <path
         d="m 48.78125,52.59375 0,-8.40625 q -3.8125,2.109375 -7.640625,3.15625 -3.828125,1.046875 -7.734375,1.046875 -8.75,0 -13.59375,-5.546875 -4.828125,-5.53125 -4.828125,-15.546875 0,-10.015625 4.828125,-15.5625 4.84375,-5.53125 13.59375,-5.53125 3.90625,0 7.734375,1.046875 3.828125,1.046875 7.640625,3.15625 l 0,-8.3125 q -3.765625,-1.75 -7.796875,-2.625 -4.015625,-0.890625 -8.5625,-0.890625 -12.359375,0 -19.640625,7.765625 -7.265625,7.765625 -7.265625,20.953125 0,13.375 7.34375,21.03125 Q 20.21875,56 33.015625,56 q 4.140625,0 8.09375,-0.859375 3.953125,-0.84375 7.671875,-2.546875"
         id="DejaVuSans-63"
         inkscape:connector-curvature="0"
         style="stroke-linecap:butt;stroke-linejoin:round;stroke-miterlimit:100000" />
      <path
         d="m 8.59375,75.984375 20.703125,0 0,-6.984375 -11.71875,0 0,-75.203125 11.71875,0 0,-6.984375 -20.703125,0 z"
         id="DejaVuSans-5b"
         inkscape:connector-curvature="0"
         style="stroke-linecap:butt;stroke-linejoin:round;stroke-miterlimit:100000" />
      <path
         d="m 45.40625,46.390625 0,29.59375 8.984375,0 0,-75.984375 -8.984375,0 0,8.203125 q -2.828125,-4.875 -7.15625,-7.25 -4.3125,-2.375 -10.375,-2.375 -9.90625,0 -16.140625,7.90625 -6.21875,7.921875 -6.21875,20.8125 0,12.890625 6.21875,20.796875 Q 17.96875,56 27.875,56 q 6.0625,0 10.375,-2.375 4.328125,-2.359375 7.15625,-7.234375 M 14.796875,27.296875 q 0,-9.90625 4.078125,-15.546875 4.078125,-5.640625 11.203125,-5.640625 7.125,0 11.21875,5.640625 4.109375,5.640625 4.109375,15.546875 0,9.90625 -4.109375,15.546875 -4.09375,5.640625 -11.21875,5.640625 -7.125,0 -11.203125,-5.640625 -4.078125,-5.640625 -4.078125,-15.546875"
         id="DejaVuSans-64"
         inkscape:connector-curvature="0"
         style="stroke-linecap:butt;stroke-linejoin:round;stroke-miterlimit:100000" />
      <path
         d="m 34.28125,27.484375 q -10.890625,0 -15.09375,-2.484375 -4.203125,-2.484375 -4.203125,-8.5 0,-4.78125 3.15625,-7.59375 3.15625,-2.796875 8.5625,-2.796875 7.484375,0 12,5.296875 4.515625,5.296875 4.515625,14.078125 l 0,2 z m 17.921875,3.71875 0,-31.203125 -8.984375,0 0,8.296875 q -3.078125,-4.96875 -7.671875,-7.34375 -4.59375,-2.375 -11.234375,-2.375 -8.390625,0 -13.359375,4.71875 Q 6,8.015625 6,15.921875 q 0,9.21875 6.171875,13.90625 6.1875,4.6875 18.4375,4.6875 l 12.609375,0 0,0.890625 q 0,6.203125 -4.078125,9.59375 -4.078125,3.390625 -11.453125,3.390625 -4.6875,0 -9.140625,-1.125 -4.4375,-1.125 -8.53125,-3.375 l 0,8.3125 q 4.921875,1.90625 9.5625,2.84375 Q 24.21875,56 28.609375,56 q 11.875,0 17.734375,-6.15625 5.859375,-6.140625 5.859375,-18.640625"
         id="DejaVuSans-61"
         inkscape:connector-curvature="0"
         style="stroke-linecap:butt;stroke-linejoin:round;stroke-miterlimit:100000" />
      <path
         d="m 45.40625,27.984375 q 0,9.765625 -4.03125,15.125 -4.015625,5.375 -11.296875,5.375 -7.21875,0 -11.25,-5.375 -4.03125,-5.359375 -4.03125,-15.125 0,-9.71875 4.03125,-15.09375 4.03125,-5.375 11.25,-5.375 7.28125,0 11.296875,5.375 4.03125,5.375 4.03125,15.09375 M 54.390625,6.78125 q 0,-13.953125 -6.203125,-20.765625 -6.1875,-6.8125 -18.984375,-6.8125 -4.734375,0 -8.9375,0.703125 -4.203125,0.703125 -8.15625,2.171875 l 0,8.734375 q 3.953125,-2.140625 7.8125,-3.15625 3.859375,-1.03125 7.859375,-1.03125 8.84375,0 13.234375,4.609375 4.390625,4.609375 4.390625,13.9375 l 0,4.453125 Q 42.625,4.78125 38.28125,2.390625 33.9375,0 27.875,0 17.828125,0 11.671875,7.65625 q -6.15625,7.671875 -6.15625,20.328125 0,12.6875 6.15625,20.34375 Q 17.828125,56 27.875,56 q 6.0625,0 10.40625,-2.390625 4.34375,-2.390625 7.125,-7.21875 l 0,8.296875 8.984375,0 z"
         id="DejaVuSans-67"
         inkscape:connector-curvature="0"
         style="stroke-linecap:butt;stroke-linejoin:round;stroke-miterlimit:100000" />
      <path
         d="m 30.421875,75.984375 0,-89.171875 -20.703125,0 0,6.984375 11.671875,0 0,75.203125 -11.671875,0 0,6.984375 z"
         id="DejaVuSans-5d"
         inkscape:connector-curvature="0"
         style="stroke-linecap:butt;stroke-linejoin:round;stroke-miterlimit:100000" />
      <path
         d="m 2.6875,-19.390625 q -0.296875,0 -0.546875,0.34375 -0.234375,0.34375 -0.234375,0.640625 l 15.375,61.8125 q 1.328125,4.984375 3.859375,9.671875 2.546875,4.6875 6.375,8.71875 3.828125,4.03125 8.421875,6.375 4.59375,2.34375 9.765625,2.34375 3.71875,0 6.71875,-1.640625 3,-1.640625 4.734375,-4.59375 1.734375,-2.953125 1.734375,-6.65625 0,-3.578125 -1.375,-6.828125 Q 56.15625,47.5625 53.703125,44.75 q -2.4375,-2.8125 -5.21875,-4.5625 1.609375,-1.03125 2.875,-2.625 1.28125,-1.578125 2.0625,-3.3125 0.78125,-1.734375 1.21875,-3.859375 0.4375,-2.125 0.4375,-3.96875 0,-5.125 -2.203125,-10.109375 Q 50.6875,11.328125 46.890625,7.265625 43.109375,3.21875 38.21875,0.84375 q -4.875,-2.359375 -10,-2.359375 -5.609375,0 -10.109375,3.078125 -4.484375,3.078125 -6.1875,8.34375 L 4.6875,-18.796875 q 0,-0.59375 -0.78125,-0.59375 z M 28.421875,1.21875 q 4.484375,0 8.125,2.953125 3.640625,2.953125 6,7.421875 2.375,4.46875 3.609375,9.46875 1.25,5.015625 1.25,9.109375 0,5.078125 -2.921875,8.015625 -3.421875,-1.265625 -6.6875,-1.265625 -7.90625,0 -7.90625,2.671875 0,3.515625 9.03125,3.515625 3.21875,0 5.90625,-1.015625 2.140625,1.65625 3.890625,4.875 1.765625,3.234375 2.671875,6.75 0.90625,3.515625 0.90625,6.578125 0,3.28125 -1.734375,5.453125 -1.734375,2.171875 -5.046875,2.171875 -6.109375,0 -11.359375,-3.765625 -5.25,-3.75 -8.859375,-9.5 Q 21.6875,48.921875 20.125,42.828125 l -5.53125,-22.125 q -0.53125,-2.296875 -0.671875,-5.125 0,-6.25 4.09375,-10.3125 Q 22.125,1.21875 28.421875,1.21875 M 32.90625,39.890625 Q 34.421875,39.5 37.890625,39.5 q 1.703125,0 3.421875,0.59375 -0.09375,0.09375 -0.390625,0.09375 -1.078125,0.296875 -2.296875,0.296875 -4.546875,0 -5.71875,-0.59375"
         id="Cmmi10-af"
         inkscape:connector-curvature="0"
         style="stroke-linecap:butt;stroke-linejoin:round;stroke-miterlimit:100000" />
      <path
         d="m 9.421875,75.984375 8.984375,0 L 18.40625,0 9.421875,0 Z"
         id="DejaVuSans-6c"
         inkscape:connector-curvature="0"
         style="stroke-linecap:butt;stroke-linejoin:round;stroke-miterlimit:100000" />
      <path
         d="m 19.671875,64.796875 0,-56.6875 11.921875,0 q 15.09375,0 22.09375,6.828125 7,6.84375 7,21.59375 0,14.640625 -7,21.453125 -7,6.8125 -22.09375,6.8125 z M 9.8125,72.90625 l 20.265625,0 q 21.1875,0 31.09375,-8.8125 9.921875,-8.8125 9.921875,-27.5625 0,-18.859375 -9.96875,-27.703125 Q 51.171875,0 30.078125,0 L 9.8125,0 Z"
         id="DejaVuSans-44"
         inkscape:connector-curvature="0"
         style="stroke-linecap:butt;stroke-linejoin:round;stroke-miterlimit:100000" />
      <path
         d="m 54.890625,33.015625 0,-33.015625 -8.984375,0 0,32.71875 q 0,7.765625 -3.03125,11.609375 -3.03125,3.859375 -9.078125,3.859375 -7.28125,0 -11.484375,-4.640625 -4.203125,-4.625 -4.203125,-12.640625 l 0,-30.90625 -9.03125,0 0,54.6875 9.03125,0 0,-8.5 q 3.234375,4.9375 7.59375,7.375 4.375,2.4375 10.09375,2.4375 9.421875,0 14.25,-5.828125 4.84375,-5.828125 4.84375,-17.15625"
         id="DejaVuSans-6e"
         inkscape:connector-curvature="0"
         style="stroke-linecap:butt;stroke-linejoin:round;stroke-miterlimit:100000" />
    </defs>
    <defs
       id="defs110">
      <path
         style="stroke-linecap:butt;stroke-linejoin:round;stroke-miterlimit:100000"
         inkscape:connector-curvature="0"
         id="DejaVuSans-33"
         d="M 40.578125,39.3125 Q 47.65625,37.796875 51.625,33 q 3.984375,-4.78125 3.984375,-11.8125 0,-10.78125 -7.421875,-16.703125 -7.421875,-5.90625 -21.09375,-5.90625 -4.578125,0 -9.4375,0.90625 -4.859375,0.90625 -10.03125,2.71875 l 0,9.515625 q 4.09375,-2.390625 8.96875,-3.609375 4.890625,-1.21875 10.21875,-1.21875 9.265625,0 14.125,3.65625 4.859375,3.65625 4.859375,10.640625 0,6.453125 -4.515625,10.078125 -4.515625,3.640625 -12.5625,3.640625 l -8.5,0 0,8.109375 8.890625,0 q 7.265625,0 11.125,2.90625 3.859375,2.90625 3.859375,8.375 0,5.609375 -3.984375,8.609375 -3.96875,3.015625 -11.390625,3.015625 -4.0625,0 -8.703125,-0.890625 Q 15.375,64.15625 9.8125,62.3125 l 0,8.78125 q 5.625,1.5625 10.53125,2.34375 4.90625,0.78125 9.25,0.78125 11.234375,0 17.765625,-5.109375 6.546875,-5.09375 6.546875,-13.78125 0,-6.0625 -3.46875,-10.234375 -3.46875,-4.171875 -9.859375,-5.78125" />
    </defs>
    <defs
       id="defs84">
      <path
         style="stroke-linecap:butt;stroke-linejoin:round;stroke-miterlimit:100000"
         inkscape:connector-curvature="0"
         id="DejaVuSans-36"
         d="m 33.015625,40.375 q -6.640625,0 -10.53125,-4.546875 -3.875,-4.53125 -3.875,-12.4375 0,-7.859375 3.875,-12.4375 3.890625,-4.5625 10.53125,-4.5625 6.640625,0 10.515625,4.5625 3.875,4.578125 3.875,12.4375 0,7.90625 -3.875,12.4375 Q 39.65625,40.375 33.015625,40.375 m 19.578125,30.921875 0,-8.984375 q -3.71875,1.75 -7.5,2.671875 -3.78125,0.9375 -7.5,0.9375 -9.765625,0 -14.921875,-6.59375 -5.140625,-6.59375 -5.875,-19.921875 2.875,4.25 7.21875,6.515625 4.359375,2.265625 9.578125,2.265625 10.984375,0 17.359375,-6.671875 6.375,-6.65625 6.375,-18.125 0,-11.234375 -6.640625,-18.03125 -6.640625,-6.78125 -17.671875,-6.78125 -12.65625,0 -19.34375,9.6875 -6.6875,9.703125 -6.6875,28.109375 0,17.28125 8.203125,27.5625 8.203125,10.28125 22.015625,10.28125 3.71875,0 7.5,-0.734375 3.78125,-0.734375 7.890625,-2.1875" />
    </defs>
    <defs
       id="defs48">
      <path
         inkscape:connector-curvature="0"
         style="stroke:#000000;stroke-width:0.5;stroke-linecap:butt;stroke-linejoin:round;stroke-miterlimit:100000"
         id="ma8a704a03f"
         d="M 0,0 0,4" />
    </defs>
    <defs
       id="defs56">
      <path
         style="stroke-linecap:butt;stroke-linejoin:round;stroke-miterlimit:100000"
         inkscape:connector-curvature="0"
         id="DejaVuSans-2212"
         d="m 10.59375,35.5 62.59375,0 0,-8.296875 -62.59375,0 z" />
      <path
         style="stroke-linecap:butt;stroke-linejoin:round;stroke-miterlimit:100000"
         inkscape:connector-curvature="0"
         id="DejaVuSans-39"
         d="m 10.984375,1.515625 0,8.984375 Q 14.703125,8.734375 18.5,7.8125 q 3.8125,-0.921875 7.484375,-0.921875 9.765625,0 14.90625,6.5625 5.15625,6.5625 5.890625,19.953125 -2.828125,-4.203125 -7.1875,-6.453125 -4.34375,-2.25 -9.609375,-2.25 -10.9375,0 -17.3125,6.609375 -6.375,6.625 -6.375,18.109375 0,11.21875 6.640625,18 6.640625,6.796875 17.671875,6.796875 12.65625,0 19.3125,-9.703125 6.671875,-9.6875 6.671875,-28.140625 0,-17.234375 -8.1875,-27.515625 -8.171875,-10.28125 -21.984375,-10.28125 -3.71875,0 -7.53125,0.734375 -3.796875,0.734375 -7.90625,2.203125 m 19.625,30.90625 q 6.640625,0 10.515625,4.53125 3.890625,4.546875 3.890625,12.46875 0,7.859375 -3.890625,12.421875 -3.875,4.5625 -10.515625,4.5625 -6.640625,0 -10.515625,-4.5625 -3.875,-4.5625 -3.875,-12.421875 0,-7.921875 3.875,-12.46875 3.875,-4.53125 10.515625,-4.53125" />
      <path
         style="stroke-linecap:butt;stroke-linejoin:round;stroke-miterlimit:100000"
         inkscape:connector-curvature="0"
         id="DejaVuSans-30"
         d="m 31.78125,66.40625 q -7.609375,0 -11.453125,-7.5 Q 16.5,51.421875 16.5,36.375 q 0,-14.984375 3.828125,-22.484375 3.84375,-7.5 11.453125,-7.5 7.671875,0 11.5,7.5 3.84375,7.5 3.84375,22.484375 0,15.046875 -3.84375,22.53125 -3.828125,7.5 -11.5,7.5 m 0,7.8125 q 12.265625,0 18.734375,-9.703125 6.46875,-9.6875 6.46875,-28.140625 0,-18.40625 -6.46875,-28.109375 -6.46875,-9.6875 -18.734375,-9.6875 -12.25,0 -18.71875,9.6875 Q 6.59375,17.96875 6.59375,36.375 q 0,18.453125 6.46875,28.140625 6.46875,9.703125 18.71875,9.703125" />
    </defs>
  </defs>
  <sodipodi:namedview
     id="base"
     pagecolor="#ffffff"
     bordercolor="#666666"
     borderopacity="1.0"
     inkscape:pageopacity="0.0"
     inkscape:pageshadow="2"
     inkscape:zoom="0.7"
     inkscape:cx="506.10938"
     inkscape:cy="157.07314"
     inkscape:document-units="px"
     inkscape:current-layer="layer1"
     showgrid="false"
     inkscape:window-width="1920"
     inkscape:window-height="1008"
     inkscape:window-x="0"
     inkscape:window-y="35"
     inkscape:window-maximized="1"
     fit-margin-top="0"
     fit-margin-left="0"
     fit-margin-right="0"
     fit-margin-bottom="0" />
  <metadata
     id="metadata7">
    <rdf:RDF>
      <cc:Work
         rdf:about="">
        <dc:format>image/svg+xml</dc:format>
        <dc:type
           rdf:resource="http://purl.org/dc/dcmitype/StillImage" />
        <dc:title></dc:title>
      </cc:Work>
    </rdf:RDF>
  </metadata>
  <g
     inkscape:label="Calque 1"
     inkscape:groupmode="layer"
     id="layer1"
     transform="translate(19.024405,-81.953892)">
    <path
       style="fill:none;fill-rule:evenodd;stroke:#000000;stroke-width:1px;stroke-linecap:butt;stroke-linejoin:miter;stroke-miterlimit:100000;stroke-opacity:1"
       d="m 98.450324,81.953892 0,405.016818"
       id="path6553"
       inkscape:connector-curvature="0" />
    <path
       inkscape:connector-curvature="0"
       id="path6555"
       d="m 656.19779,81.953892 0,405.016818"
       style="fill:none;fill-rule:evenodd;stroke:#000000;stroke-width:1px;stroke-linecap:butt;stroke-linejoin:miter;stroke-miterlimit:100000;stroke-opacity:1" />
    <path
       inkscape:connector-curvature="0"
       id="path6505"
       d="m -19.024405,451.86554 713.388215,0"
       style="fill:none;fill-rule:evenodd;stroke:#000000;stroke-width:1px;stroke-linecap:butt;stroke-linejoin:miter;stroke-miterlimit:100000;stroke-opacity:1" />
    <use
       height="100%"
       width="100%"
       y="0"
       x="0"
       style="stroke-linecap:butt;stroke-linejoin:round;stroke-miterlimit:100000"
       id="use246"
       xlink:href="#DejaVuSans-20"
       transform="matrix(0.3,0,0,-0.3,355.36773,791.88347)" />
    <use
       height="100%"
       width="100%"
       y="0"
       x="0"
       style="stroke-linecap:butt;stroke-linejoin:round;stroke-miterlimit:100000"
       id="use258"
       xlink:href="#DejaVuSans-20"
       transform="matrix(0.3,0,0,-0.3,448.13629,791.88347)" />
    <use
       height="100%"
       width="100%"
       y="0"
       x="0"
       style="stroke-linecap:butt;stroke-linejoin:round;stroke-miterlimit:100000"
       id="use262"
       xlink:href="#DejaVuSans-20"
       transform="matrix(0.3,0,0,-0.3,474.62065,791.88347)" />
    <use
       height="100%"
       width="100%"
       y="0"
       x="0"
       style="stroke-linecap:butt;stroke-linejoin:round;stroke-miterlimit:100000"
       id="use466"
       xlink:href="#DejaVuSans-20"
       transform="matrix(0,-0.3,-0.3,0,-542.45716,508.89554)" />
    <use
       height="100%"
       width="100%"
       y="0"
       x="0"
       style="stroke-linecap:butt;stroke-linejoin:round;stroke-miterlimit:100000"
       id="use478"
       xlink:href="#DejaVuSans-20"
       transform="matrix(0,-0.3,-0.3,0,-542.45716,419.54007)" />
    <use
       height="100%"
       width="100%"
       y="0"
       x="0"
       style="stroke-linecap:butt;stroke-linejoin:round;stroke-miterlimit:100000"
       id="use484"
       xlink:href="#DejaVuSans-20"
       transform="matrix(0,-0.3,-0.3,0,-542.45716,379.84123)" />
    <use
       transform="matrix(0.3,0,0,-0.3,364.18414,157.43892)"
       xlink:href="#DejaVuSans-20"
       id="use523"
       style="stroke-linecap:butt;stroke-linejoin:round;stroke-miterlimit:100000"
       x="0"
       y="0"
       width="100%"
       height="100%" />
    <use
       height="100%"
       width="100%"
       y="0"
       x="0"
       style="stroke-linecap:butt;stroke-linejoin:round;stroke-miterlimit:100000"
       id="use7248"
       xlink:href="#DejaVuSans-20"
       transform="matrix(0.2,0,0,-0.2,-122.87779,35.519545)" />
    <text
       xml:space="preserve"
       style="font-style:normal;font-weight:normal;font-size:25px;line-height:125%;font-family:sans-serif;text-align:center;letter-spacing:0px;word-spacing:0px;text-anchor:middle;fill:#000000;fill-opacity:1;stroke:none;stroke-width:1px;stroke-linecap:butt;stroke-linejoin:miter;stroke-miterlimit:100000;stroke-opacity:1"
       x="-151.52287"
       y="-236.59244"
       id="text6495"
       sodipodi:linespacing="125%"><tspan
         sodipodi:role="line"
         id="tspan6497"
         style="stroke-linecap:butt;stroke-linejoin:round;stroke-miterlimit:100000"
         x="-151.52287"
         y="-236.59244" /></text>
    <text
       xml:space="preserve"
       style="font-style:normal;font-weight:normal;font-size:25px;line-height:125%;font-family:sans-serif;text-align:center;letter-spacing:0px;word-spacing:0px;text-anchor:middle;fill:#000000;fill-opacity:1;stroke:none;stroke-width:1px;stroke-linecap:butt;stroke-linejoin:miter;stroke-miterlimit:100000;stroke-opacity:1"
       x="29.206797"
       y="107.31441"
       id="text6499"
       sodipodi:linespacing="125%"><tspan
         sodipodi:role="line"
         id="tspan6501"
         style="font-style:normal;font-variant:normal;font-weight:normal;font-stretch:normal;font-family:serif;-inkscape-font-specification:serif;stroke-linecap:butt;stroke-linejoin:round;stroke-miterlimit:100000"
         x="29.206797"
         y="107.31441">max(α<tspan
   style="font-size:64.99999762%;baseline-shift:sub;stroke-linecap:butt;stroke-linejoin:round;stroke-miterlimit:100000"
   id="tspan6541">c</tspan>)<tspan
   style="font-size:64.99999762%;baseline-shift:sub;stroke-linecap:butt;stroke-linejoin:round;stroke-miterlimit:100000"
   id="tspan6539" /></tspan></text>
    <path
       style="fill:none;fill-rule:evenodd;stroke:#000000;stroke-width:1px;stroke-linecap:butt;stroke-linejoin:miter;stroke-miterlimit:100000;stroke-opacity:1"
       d="m -19.024405,116.99802 713.388215,0"
       id="path6503"
       inkscape:connector-curvature="0" />
    <path
       inkscape:connector-curvature="0"
       id="path6511"
       d="m 237.09874,117.22166 c 0.85576,0.003 1.78991,0.0215 2.55608,0.0357 1.36379,0.0311 2.72838,0.0812 4.09336,0.14961 2.72998,0.13686 5.46158,0.34698 8.19167,0.62439 21.84073,2.21926 43.58535,8.74506 63.63725,16.52353 73.09024,29.30087 138.89407,73.38504 204.68551,115.97962 45.44872,29.8809 90.49674,60.37061 136.17189,89.90713"
       clip-path="url(#p8050e4671f)"
       style="fill:none;stroke:#9e9e9e;stroke-width:4;stroke-linecap:square;stroke-linejoin:round;stroke-miterlimit:100;stroke-dasharray:none;stroke-opacity:1"
       sodipodi:nodetypes="ccssccc" />
    <path
       sodipodi:nodetypes="cccc"
       inkscape:connector-curvature="0"
       id="path6517"
       d="m 97.479,228.83664 c 93.06808,59.5519 182.55254,125.05407 279.94803,177.59665 43.47899,22.36759 89.68111,44.58391 139.53245,45.62736 0.57686,0.0208 1.1532,0.0366 1.72899,0.0473"
       clip-path="url(#p8050e4671f)"
       style="fill:none;stroke:#9e9e9e;stroke-width:4;stroke-linecap:square;stroke-linejoin:round;stroke-miterlimit:100;stroke-dasharray:none;stroke-opacity:1" />
    <path
       sodipodi:nodetypes="ccscc"
       style="fill:none;stroke:#000000;stroke-width:4;stroke-linecap:butt;stroke-linejoin:round;stroke-miterlimit:100;stroke-dasharray:none;stroke-opacity:1"
       clip-path="url(#p8050e4671f)"
       d="M 97.450496,228.80315 C 119.66129,189.38387 145.26345,147.4485 187.72589,127.3471 c 10.21818,-4.72385 20.81149,-7.6076 31.58034,-9.03297 5.38442,-0.71269 10.81274,-1.06078 16.25999,-1.092 0.54446,-0.004 1.03136,-0.002 1.53252,-4.7e-4"
       id="path6513"
       inkscape:connector-curvature="0" />
    <path
       style="fill:none;stroke:#000000;stroke-width:4;stroke-linecap:butt;stroke-linejoin:round;stroke-miterlimit:100;stroke-dasharray:none;stroke-opacity:1"
       clip-path="url(#p8050e4671f)"
       d="m 518.68847,452.10795 c 0.57579,0.0108 1.15103,0.0166 1.72568,0.0175 1.1493,0.002 2.29624,-0.0162 3.44054,-0.0536 2.28861,-0.0747 4.56667,-0.22684 6.83191,-0.45347 4.53047,-0.45326 9.00966,-1.20444 13.41942,-2.22978 8.81951,-2.05068 17.36129,-5.19799 25.48011,-9.25181 16.23765,-8.10763 30.78347,-19.8413 42.47575,-33.67999 17.63471,-19.92209 31.53158,-42.80281 44.40111,-65.98171"
       id="path6493"
       inkscape:connector-curvature="0"
       sodipodi:nodetypes="cssssscc" />
    <text
       sodipodi:linespacing="125%"
       id="text6519"
       y="181.19913"
       x="165.04355"
       style="font-style:normal;font-weight:normal;font-size:25px;line-height:125%;font-family:sans-serif;text-align:center;letter-spacing:0px;word-spacing:0px;text-anchor:middle;fill:#000000;fill-opacity:1;stroke:none;stroke-width:1px;stroke-linecap:butt;stroke-linejoin:miter;stroke-miterlimit:100000;stroke-opacity:1"
       xml:space="preserve"><tspan
         y="181.19913"
         x="165.04355"
         style="font-style:normal;font-variant:normal;font-weight:normal;font-stretch:normal;font-family:serif;-inkscape-font-specification:serif;stroke-linecap:butt;stroke-linejoin:round;stroke-miterlimit:100000"
         id="tspan6521"
         sodipodi:role="line">A1</tspan></text>
    <text
       xml:space="preserve"
       style="font-style:normal;font-weight:normal;font-size:25px;line-height:125%;font-family:sans-serif;text-align:center;letter-spacing:0px;word-spacing:0px;text-anchor:middle;fill:#000000;fill-opacity:1;stroke:none;stroke-width:1px;stroke-linecap:butt;stroke-linejoin:miter;stroke-miterlimit:100000;stroke-opacity:1"
       x="593.44"
       y="404.08386"
       id="text6523"
       sodipodi:linespacing="125%"><tspan
         sodipodi:role="line"
         id="tspan6525"
         style="font-style:normal;font-variant:normal;font-weight:normal;font-stretch:normal;font-family:serif;-inkscape-font-specification:serif;stroke-linecap:butt;stroke-linejoin:round;stroke-miterlimit:100000"
         x="593.44"
         y="404.08386">A2</tspan></text>
    <text
       sodipodi:linespacing="125%"
       id="text6527"
       y="368.33984"
       x="339.72202"
       style="font-style:normal;font-weight:normal;font-size:25px;line-height:125%;font-family:sans-serif;text-align:center;letter-spacing:0px;word-spacing:0px;text-anchor:middle;fill:#757575;fill-opacity:1;stroke:none;stroke-width:1px;stroke-linecap:butt;stroke-linejoin:miter;stroke-miterlimit:100000;stroke-opacity:1"
       xml:space="preserve"><tspan
         y="368.33984"
         x="339.72202"
         style="font-style:normal;font-variant:normal;font-weight:normal;font-stretch:normal;font-family:serif;-inkscape-font-specification:serif;fill:#757575;fill-opacity:1;stroke-linecap:butt;stroke-linejoin:round;stroke-miterlimit:100000"
         id="tspan6529"
         sodipodi:role="line">B1</tspan></text>
    <text
       xml:space="preserve"
       style="font-style:normal;font-weight:normal;font-size:25px;line-height:125%;font-family:sans-serif;text-align:center;letter-spacing:0px;word-spacing:0px;text-anchor:middle;fill:#757575;fill-opacity:1;stroke:none;stroke-width:1px;stroke-linecap:butt;stroke-linejoin:miter;stroke-miterlimit:100000;stroke-opacity:1"
       x="420.13321"
       y="222.70816"
       id="text6531"
       sodipodi:linespacing="125%"><tspan
         sodipodi:role="line"
         id="tspan6533"
         style="font-style:normal;font-variant:normal;font-weight:normal;font-stretch:normal;font-family:serif;-inkscape-font-specification:serif;fill:#757575;fill-opacity:1;stroke-linecap:butt;stroke-linejoin:round;stroke-miterlimit:100000"
         x="420.13321"
         y="222.70816">B2</tspan></text>
    <text
       sodipodi:linespacing="125%"
       id="text6543"
       y="476.90768"
       x="26.76539"
       style="font-style:normal;font-weight:normal;font-size:25px;line-height:125%;font-family:sans-serif;text-align:center;letter-spacing:0px;word-spacing:0px;text-anchor:middle;fill:#000000;fill-opacity:1;stroke:none;stroke-width:1px;stroke-linecap:butt;stroke-linejoin:miter;stroke-miterlimit:100000;stroke-opacity:1"
       xml:space="preserve"><tspan
         y="476.90768"
         x="26.76539"
         style="font-style:normal;font-variant:normal;font-weight:normal;font-stretch:normal;font-family:serif;-inkscape-font-specification:serif;stroke-linecap:butt;stroke-linejoin:round;stroke-miterlimit:100000"
         id="tspan6545"
         sodipodi:role="line">min(α<tspan
   id="tspan6547"
   style="font-size:64.99999762%;baseline-shift:sub;stroke-linecap:butt;stroke-linejoin:round;stroke-miterlimit:100000">c</tspan>)</tspan></text>
  </g>
</svg>
