<?xml version="1.0" encoding="UTF-8" standalone="no"?>
<svg
   xmlns:dc="http://purl.org/dc/elements/1.1/"
   xmlns:cc="http://creativecommons.org/ns#"
   xmlns:rdf="http://www.w3.org/1999/02/22-rdf-syntax-ns#"
   xmlns:svg="http://www.w3.org/2000/svg"
   xmlns="http://www.w3.org/2000/svg"
   xmlns:xlink="http://www.w3.org/1999/xlink"
   xmlns:sodipodi="http://sodipodi.sourceforge.net/DTD/sodipodi-0.dtd"
   xmlns:inkscape="http://www.inkscape.org/namespaces/inkscape"
   id="svg2"
   width="450pt"
   viewBox="0 0 450 600"
   version="1.1"
   height="600pt"
   sodipodi:docname="title.svg"
   inkscape:version="0.92.5 (2060ec1f9f, 2020-04-08)"
   inkscape:export-filename="/home/bmary/Programmation/eccw_gui/eccw_gui/images/icon_eccw.png"
   inkscape:export-xdpi="40.887863"
   inkscape:export-ydpi="40.887863">
  <sodipodi:namedview
     pagecolor="#ffffff"
     bordercolor="#666666"
     borderopacity="1"
     objecttolerance="10"
     gridtolerance="10"
     guidetolerance="10"
     inkscape:pageopacity="0"
     inkscape:pageshadow="2"
     inkscape:window-width="1920"
     inkscape:window-height="1043"
     id="namedview161"
     showgrid="false"
     inkscape:zoom="0.78528123"
     inkscape:cx="88.934466"
     inkscape:cy="395.49916"
     inkscape:window-x="0"
     inkscape:window-y="1200"
     inkscape:window-maximized="1"
     inkscape:current-layer="svg2"
     fit-margin-top="0"
     fit-margin-left="0"
     fit-margin-right="0"
     fit-margin-bottom="0" />
  <metadata
     id="metadata563">
    <rdf:RDF>
      <cc:Work
         rdf:about="">
        <dc:format>image/svg+xml</dc:format>
        <dc:type
           rdf:resource="http://purl.org/dc/dcmitype/StillImage" />
        <dc:title></dc:title>
      </cc:Work>
    </rdf:RDF>
  </metadata>
  <defs
     style="stroke-linecap:butt;stroke-linejoin:round"
     id="defs4">
    <linearGradient
       id="linearGradient4479">
      <stop
         id="stop4481"
         offset="0"
         style="stop-color:#ffffff;stop-opacity:1;" />
      <stop
         id="stop4483"
         offset="1"
         style="stop-color:#ffffff;stop-opacity:0;" />
    </linearGradient>
    <linearGradient
       id="linearGradient4359">
      <stop
         id="stop4361"
         offset="0"
         style="stop-color:#000000;stop-opacity:1;" />
      <stop
         id="stop4363"
         offset="1"
         style="stop-color:#000000;stop-opacity:0;" />
    </linearGradient>
    <linearGradient
       id="linearGradient4296">
      <stop
         id="stop4298"
         offset="0"
         style="stop-color:#624000;stop-opacity:1;" />
      <stop
         id="stop4300"
         offset="1"
         style="stop-color:#624000;stop-opacity:0;" />
    </linearGradient>
    <linearGradient
       id="linearGradient4630">
      <stop
         id="stop4632"
         offset="0"
         style="stop-color:#ffffff;stop-opacity:1;" />
      <stop
         id="stop4634"
         offset="1"
         style="stop-color:#ffffff;stop-opacity:0;" />
    </linearGradient>
    <linearGradient
       id="linearGradient4622">
      <stop
         id="stop4624"
         offset="0"
         style="stop-color:#ffffff;stop-opacity:1;" />
      <stop
         id="stop4626"
         offset="1"
         style="stop-color:#ffffff;stop-opacity:0;" />
    </linearGradient>
    <linearGradient
       id="linearGradient4602">
      <stop
         id="stop4604"
         offset="0"
         style="stop-color:#ffffff;stop-opacity:1;" />
      <stop
         id="stop4606"
         offset="1"
         style="stop-color:#ffffff;stop-opacity:0;" />
    </linearGradient>
    <linearGradient
       id="linearGradient4594">
      <stop
         id="stop4596"
         offset="0"
         style="stop-color:#ffffff;stop-opacity:1;" />
      <stop
         id="stop4598"
         offset="1"
         style="stop-color:#ffffff;stop-opacity:0;" />
    </linearGradient>
    <linearGradient
       id="linearGradient4434">
      <stop
         id="stop4436"
         offset="0"
         style="stop-color:#ffffff;stop-opacity:1;" />
      <stop
         id="stop4438"
         offset="1"
         style="stop-color:#ffffff;stop-opacity:0;" />
    </linearGradient>
    <linearGradient
       id="linearGradient4368">
      <stop
         id="stop4370"
         offset="0"
         style="stop-color:#ffffff;stop-opacity:1;" />
      <stop
         id="stop4372"
         offset="1"
         style="stop-color:#ffffff;stop-opacity:0;" />
    </linearGradient>
    <linearGradient
       id="linearGradient4348">
      <stop
         id="stop4350"
         offset="0"
         style="stop-color:#ffffff;stop-opacity:1;" />
      <stop
         id="stop4352"
         offset="1"
         style="stop-color:#ffffff;stop-opacity:0;" />
    </linearGradient>
    <style
       id="style6"
       type="text/css">
*{stroke-linecap:butt;stroke-linejoin:round;}
  </style>
    <defs
       id="defs514">
      <path
         d="M 10.6875,12.4062 H 21 V 0 H 10.6875 Z"
         id="DejaVuSans-2e"
         style="stroke-linecap:butt;stroke-linejoin:round"
         inkscape:connector-curvature="0" />
      <path
         d="M 4.98438,0 Q 4,0 4,1.3125 q 0.04688,0.25 0.1875,0.82812 0.15625,0.59376 0.39062,0.98438 0.25,0.39062 0.75,0.39062 2.82813,0 4.92188,0.14063 2.1094,0.15625 3.5625,0.54687 1.1719,0.4375 1.9063,2.6875 L 29.3906,61.8125 q 0.2032,0.9844 0.2032,1.375 0,1.0781 -1.1719,1.2187 -1.9063,0.3907 -7.2344,0.3907 -0.9687,0 -0.9687,1.3125 0.0468,0.25 0.1874,0.8594 0.1563,0.6093 0.4219,0.9687 0.2657,0.375 0.6563,0.375 h 35.8437 q 3.2657,0 6.4688,-0.8125 3.2031,-0.7969 5.9062,-2.5625 2.7031,-1.75 4.2969,-4.375 1.5938,-2.6094 1.5938,-6.0625 0,-3.7656 -1.9376,-7 -1.9218,-3.2188 -4.9843,-5.6094 -3.0469,-2.3906 -6.5938,-3.9375 -3.5312,-1.5312 -7.3906,-2.2656 2.7344,0 5.5313,-1.0781 2.8124,-1.0625 5.0156,-2.9219 2.2031,-1.8594 3.5468,-4.4531 1.3438,-2.5782 1.3438,-5.5469 0,-6.0156 -4.2031,-11 Q 61.7188,5.71875 55.3438,2.85938 48.9688,0 43.0156,0 Z M 23.3906,4.29688 q 0,-0.78126 3.4219,-0.78126 h 14.2969 q 4.8906,0 9.375,2.70313 4.5,2.71875 7.2031,7.20315 2.7187,4.5 2.7187,9.375 0,2.9843 -1.25,5.6406 -1.25,2.6719 -3.5937,4.2031 -2.3437,1.5469 -5.3594,1.5469 H 30.7188 L 23.7812,6.5 Q 23.3906,5.125 23.3906,4.29688 m 8,32.51562 h 15.1875 q 4.7969,0 9.3125,2.4375 4.5156,2.4531 7.3594,6.6406 2.8594,4.2032 2.8594,8.8906 0,4.3438 -2.7188,7.1719 -2.7031,2.8438 -7,2.8438 H 42.6719 q -2.6875,0 -3.6094,-0.5 Q 38.1406,63.8125 37.5,61.375 Z"
         id="Cmmi10-42"
         style="stroke-linecap:butt;stroke-linejoin:round"
         inkscape:connector-curvature="0" />
      <path
         d="m 4.89062,0 q -0.98437,0 -0.98437,1.3125 0.04687,0.25 0.1875,0.85938 0.15625,0.60937 0.42187,0.96874 0.26563,0.375 0.65626,0.375 6.10932,0 8.54692,0.6875 1.2656,0.4375 1.8593,2.6875 L 29.2969,61.8125 q 0.2031,0.9844 0.2031,1.375 0,1.0781 -1.1719,1.2187 -1.9062,0.3907 -7.2343,0.3907 -0.9688,0 -0.9688,1.3125 0.0469,0.25 0.1875,0.8594 0.1406,0.6093 0.4063,0.9687 0.2812,0.375 0.6718,0.375 h 35.9375 q 6.9844,0 12.2031,-3.3906 5.2188,-3.3907 8,-9.1407 2.7969,-5.7343 2.7969,-12.6718 0,-7.6563 -3.1875,-15.3282 Q 73.9688,20.125 68.25,13.7656 62.5469,7.42188 55.2188,3.70312 47.9062,0 40.1875,0 Z M 23.5781,4.29688 q 0,-0.78126 3.4219,-0.78126 h 11.625 q 5.5625,0 10.7344,2.29688 5.1875,2.29688 9.2344,6.2969 3.7656,3.7656 6.6406,9.8594 2.875,6.1093 4.4687,12.75 1.5938,6.6406 1.5938,12.2031 0,4.0625 -1.2031,7.3281 -1.2032,3.2656 -3.375,5.6094 -2.1719,2.3437 -5.4376,3.6406 -3.2656,1.2969 -7.375,1.2969 H 42.9219 q -2.7344,0 -3.625,-0.4688 -0.875,-0.4531 -1.5938,-2.9531 L 24.0312,6.5 Q 23.5781,5.28125 23.5781,4.29688"
         id="Cmmi10-44"
         style="stroke-linecap:butt;stroke-linejoin:round"
         inkscape:connector-curvature="0" />
      <path
         d="M 10.5938,45.4062 H 73.1875 V 37.2031 H 10.5938 Z m 0,-19.9218 H 73.1875 V 17.1875 H 10.5938 Z"
         id="DejaVuSans-3d"
         style="stroke-linecap:butt;stroke-linejoin:round"
         inkscape:connector-curvature="0" />
      <path
         d="M 11.7188,12.4062 H 22.0156 V 4 l -8,-15.625 H 7.71875 L 11.7188,4 Z"
         id="DejaVuSans-2c"
         style="stroke-linecap:butt;stroke-linejoin:round"
         inkscape:connector-curvature="0" />
      <path
         d="m 19.3906,-19.4844 4.4844,18.06252 q -5.0781,0 -9.4688,2.375005 -4.3906,2.374995 -7.06245,6.609375 -2.65625,4.25 -2.65625,9.2344 0,5.4219 2.6875,10.3437 2.6875,4.9375 7.3438,8.9688 4.6718,4.0312 10.0312,6.2031 5.375,2.1719 10.6562,2.1719 l 6,24.3125 q 0.2032,0.5937 0.7813,0.5937 h 1.2187 q 0.3907,0 0.625,-0.3437 0.25,-0.3438 0.25,-0.6407 l -6,-23.9218 q 3.7657,0 7.2813,-1.375 Q 49.0781,41.75 51.7812,39.2812 54.5,36.8125 56,33.4688 q 1.5156,-3.3438 1.5156,-7.1563 0,-5.4063 -2.6875,-10.3437 Q 52.1562,11.0312 47.6094,7.07812 43.0625,3.125 37.4688,0.84375 31.8906,-1.42188 26.8125,-1.42188 L 22.2188,-19.9219 q -0.2032,-0.5937 -0.8282,-0.5937 h -1.1718 q -0.3907,0 -0.6094,0.375 -0.2188,0.3594 -0.2188,0.6562 m 5.125,20.70315 10.2032,40.67185 q -2.5469,0 -5.3282,-1.0312 -2.7812,-1.0156 -5.25,-2.5782 -2.4531,-1.5624 -4.4687,-3.5624 -2.4375,-2.4376 -4.2969,-5.7657 -1.8438,-3.3125 -2.7969,-7 -0.9531,-3.6875 -0.9531,-7.25 0,-3.7656 1.6094,-6.84372 Q 14.8438,4.78125 17.7656,3 q 2.9375,-1.78125 6.75,-1.78125 m 2.9688,0 q 3.7656,0 8.0156,2.14063 4.25,2.15624 6.9844,5.04687 3.75,3.70315 5.9218,9.09375 2.1876,5.4062 2.1876,10.9219 0,3.7031 -1.625,6.7969 -1.6094,3.1093 -4.5469,4.8906 -2.9219,1.7812 -6.7188,1.7812 z"
         id="Cmmi10-c1"
         style="stroke-linecap:butt;stroke-linejoin:round"
         inkscape:connector-curvature="0" />
    </defs>
    <defs
       id="defs26">
      <path
         d="M 0,3 C 0.795609,3 1.55874,2.6839 2.12132,2.12132 2.6839,1.55874 3,0.795609 3,0 3,-0.795609 2.6839,-1.55874 2.12132,-2.12132 1.55874,-2.6839 0.795609,-3 0,-3 -0.795609,-3 -1.55874,-2.6839 -2.12132,-2.12132 -2.6839,-1.55874 -3,-0.795609 -3,0 -3,0.795609 -2.6839,1.55874 -2.12132,2.12132 -1.55874,2.6839 -0.795609,3 0,3 Z"
         id="md21b4ff0a3"
         style="stroke:#000000;stroke-width:0.5;stroke-linecap:butt;stroke-linejoin:round"
         inkscape:connector-curvature="0" />
    </defs>
    <style
       type="text/css"
       id="style5699">
*{stroke-linecap:butt;stroke-linejoin:round;}
  </style>
    <defs
       id="defs6191">
      <path
         id="Cmmi10-44-0"
         d="m 4.89062,0 q -0.98437,0 -0.98437,1.3125 0.04687,0.25 0.1875,0.85938 0.15625,0.60937 0.42187,0.96874 0.26563,0.375 0.65626,0.375 6.10932,0 8.54692,0.6875 1.2656,0.4375 1.8593,2.6875 L 29.2969,61.8125 q 0.2031,0.9844 0.2031,1.375 0,1.0781 -1.1719,1.2187 -1.9062,0.3907 -7.2343,0.3907 -0.9688,0 -0.9688,1.3125 0.0469,0.25 0.1875,0.8594 0.1406,0.6093 0.4063,0.9687 0.2812,0.375 0.6718,0.375 h 35.9375 q 6.9844,0 12.2031,-3.3906 5.2188,-3.3907 8,-9.1407 2.7969,-5.7343 2.7969,-12.6718 0,-7.6563 -3.1875,-15.3282 Q 73.9688,20.125 68.25,13.7656 62.5469,7.42188 55.2188,3.70312 47.9062,0 40.1875,0 Z M 23.5781,4.29688 q 0,-0.78126 3.4219,-0.78126 h 11.625 q 5.5625,0 10.7344,2.29688 5.1875,2.29688 9.2344,6.2969 3.7656,3.7656 6.6406,9.8594 2.875,6.1093 4.4687,12.75 1.5938,6.6406 1.5938,12.2031 0,4.0625 -1.2031,7.3281 -1.2032,3.2656 -3.375,5.6094 -2.1719,2.3437 -5.4376,3.6406 -3.2656,1.2969 -7.375,1.2969 H 42.9219 q -2.7344,0 -3.625,-0.4688 -0.875,-0.4531 -1.5938,-2.9531 L 24.0312,6.5 Q 23.5781,5.28125 23.5781,4.29688"
         style="stroke-linecap:butt;stroke-linejoin:round"
         inkscape:connector-curvature="0" />
      <path
         id="DejaVuSans-2e-5"
         d="M 10.6875,12.4062 H 21 V 0 H 10.6875 Z"
         style="stroke-linecap:butt;stroke-linejoin:round"
         inkscape:connector-curvature="0" />
      <path
         id="Cmmi10-42-7"
         d="M 4.98438,0 Q 4,0 4,1.3125 q 0.04688,0.25 0.1875,0.82812 0.15625,0.59376 0.39062,0.98438 0.25,0.39062 0.75,0.39062 2.82813,0 4.92188,0.14063 2.1094,0.15625 3.5625,0.54687 1.1719,0.4375 1.9063,2.6875 L 29.3906,61.8125 q 0.2032,0.9844 0.2032,1.375 0,1.0781 -1.1719,1.2187 -1.9063,0.3907 -7.2344,0.3907 -0.9687,0 -0.9687,1.3125 0.0468,0.25 0.1874,0.8594 0.1563,0.6093 0.4219,0.9687 0.2657,0.375 0.6563,0.375 h 35.8437 q 3.2657,0 6.4688,-0.8125 3.2031,-0.7969 5.9062,-2.5625 2.7031,-1.75 4.2969,-4.375 1.5938,-2.6094 1.5938,-6.0625 0,-3.7656 -1.9376,-7 -1.9218,-3.2188 -4.9843,-5.6094 -3.0469,-2.3906 -6.5938,-3.9375 -3.5312,-1.5312 -7.3906,-2.2656 2.7344,0 5.5313,-1.0781 2.8124,-1.0625 5.0156,-2.9219 2.2031,-1.8594 3.5468,-4.4531 1.3438,-2.5782 1.3438,-5.5469 0,-6.0156 -4.2031,-11 Q 61.7188,5.71875 55.3438,2.85938 48.9688,0 43.0156,0 Z M 23.3906,4.29688 q 0,-0.78126 3.4219,-0.78126 h 14.2969 q 4.8906,0 9.375,2.70313 4.5,2.71875 7.2031,7.20315 2.7187,4.5 2.7187,9.375 0,2.9843 -1.25,5.6406 -1.25,2.6719 -3.5937,4.2031 -2.3437,1.5469 -5.3594,1.5469 H 30.7188 L 23.7812,6.5 Q 23.3906,5.125 23.3906,4.29688 m 8,32.51562 h 15.1875 q 4.7969,0 9.3125,2.4375 4.5156,2.4531 7.3594,6.6406 2.8594,4.2032 2.8594,8.8906 0,4.3438 -2.7188,7.1719 -2.7031,2.8438 -7,2.8438 H 42.6719 q -2.6875,0 -3.6094,-0.5 Q 38.1406,63.8125 37.5,61.375 Z"
         style="stroke-linecap:butt;stroke-linejoin:round"
         inkscape:connector-curvature="0" />
      <path
         id="DejaVuSans-2c-2"
         d="M 11.7188,12.4062 H 22.0156 V 4 l -8,-15.625 H 7.71875 L 11.7188,4 Z"
         style="stroke-linecap:butt;stroke-linejoin:round"
         inkscape:connector-curvature="0" />
      <path
         id="Cmmi10-c1-6"
         d="m 19.3906,-19.4844 4.4844,18.06252 q -5.0781,0 -9.4688,2.375005 -4.3906,2.374995 -7.06245,6.609375 -2.65625,4.25 -2.65625,9.2344 0,5.4219 2.6875,10.3437 2.6875,4.9375 7.3438,8.9688 4.6718,4.0312 10.0312,6.2031 5.375,2.1719 10.6562,2.1719 l 6,24.3125 q 0.2032,0.5937 0.7813,0.5937 h 1.2187 q 0.3907,0 0.625,-0.3437 0.25,-0.3438 0.25,-0.6407 l -6,-23.9218 q 3.7657,0 7.2813,-1.375 Q 49.0781,41.75 51.7812,39.2812 54.5,36.8125 56,33.4688 q 1.5156,-3.3438 1.5156,-7.1563 0,-5.4063 -2.6875,-10.3437 Q 52.1562,11.0312 47.6094,7.07812 43.0625,3.125 37.4688,0.84375 31.8906,-1.42188 26.8125,-1.42188 L 22.2188,-19.9219 q -0.2032,-0.5937 -0.8282,-0.5937 h -1.1718 q -0.3907,0 -0.6094,0.375 -0.2188,0.3594 -0.2188,0.6562 m 5.125,20.70315 10.2032,40.67185 q -2.5469,0 -5.3282,-1.0312 -2.7812,-1.0156 -5.25,-2.5782 -2.4531,-1.5624 -4.4687,-3.5624 -2.4375,-2.4376 -4.2969,-5.7657 -1.8438,-3.3125 -2.7969,-7 -0.9531,-3.6875 -0.9531,-7.25 0,-3.7656 1.6094,-6.84372 Q 14.8438,4.78125 17.7656,3 q 2.9375,-1.78125 6.75,-1.78125 m 2.9688,0 q 3.7656,0 8.0156,2.14063 4.25,2.15624 6.9844,5.04687 3.75,3.70315 5.9218,9.09375 2.1876,5.4062 2.1876,10.9219 0,3.7031 -1.625,6.7969 -1.6094,3.1093 -4.5469,4.8906 -2.9219,1.7812 -6.7188,1.7812 z"
         style="stroke-linecap:butt;stroke-linejoin:round"
         inkscape:connector-curvature="0" />
      <path
         id="DejaVuSans-3d-4"
         d="M 10.5938,45.4062 H 73.1875 V 37.2031 H 10.5938 Z m 0,-19.9218 H 73.1875 V 17.1875 H 10.5938 Z"
         style="stroke-linecap:butt;stroke-linejoin:round"
         inkscape:connector-curvature="0" />
    </defs>
    <style
       type="text/css"
       id="style7733">
*{stroke-linecap:butt;stroke-linejoin:round;}
  </style>
    <defs
       id="defs8657">
      <path
         id="Cmmi10-44-1"
         d="m 4.89062,0 q -0.98437,0 -0.98437,1.3125 0.04687,0.25 0.1875,0.85938 0.15625,0.60937 0.42187,0.96874 0.26563,0.375 0.65626,0.375 6.10932,0 8.54692,0.6875 1.2656,0.4375 1.8593,2.6875 L 29.2969,61.8125 q 0.2031,0.9844 0.2031,1.375 0,1.0781 -1.1719,1.2187 -1.9062,0.3907 -7.2343,0.3907 -0.9688,0 -0.9688,1.3125 0.0469,0.25 0.1875,0.8594 0.1406,0.6093 0.4063,0.9687 0.2812,0.375 0.6718,0.375 h 35.9375 q 6.9844,0 12.2031,-3.3906 5.2188,-3.3907 8,-9.1407 2.7969,-5.7343 2.7969,-12.6718 0,-7.6563 -3.1875,-15.3282 Q 73.9688,20.125 68.25,13.7656 62.5469,7.42188 55.2188,3.70312 47.9062,0 40.1875,0 Z M 23.5781,4.29688 q 0,-0.78126 3.4219,-0.78126 h 11.625 q 5.5625,0 10.7344,2.29688 5.1875,2.29688 9.2344,6.2969 3.7656,3.7656 6.6406,9.8594 2.875,6.1093 4.4687,12.75 1.5938,6.6406 1.5938,12.2031 0,4.0625 -1.2031,7.3281 -1.2032,3.2656 -3.375,5.6094 -2.1719,2.3437 -5.4376,3.6406 -3.2656,1.2969 -7.375,1.2969 H 42.9219 q -2.7344,0 -3.625,-0.4688 -0.875,-0.4531 -1.5938,-2.9531 L 24.0312,6.5 Q 23.5781,5.28125 23.5781,4.29688"
         style="stroke-linecap:butt;stroke-linejoin:round"
         inkscape:connector-curvature="0" />
      <path
         id="DejaVuSans-2e-9"
         d="M 10.6875,12.4062 H 21 V 0 H 10.6875 Z"
         style="stroke-linecap:butt;stroke-linejoin:round"
         inkscape:connector-curvature="0" />
      <path
         id="DejaVuSans-33"
         d="M 40.5781,39.3125 Q 47.6562,37.7969 51.625,33 q 3.9844,-4.7812 3.9844,-11.8125 0,-10.7813 -7.4219,-16.70312 -7.4219,-5.90626 -21.0937,-5.90626 -4.5782,0 -9.4376,0.906255 Q 12.7969,0.390625 7.625,2.20312 v 9.51568 q 4.0938,-2.39068 8.9688,-3.60942 4.8906,-1.21876 10.2187,-1.21876 9.2656,0 14.125,3.65628 4.8594,3.6562 4.8594,10.6406 0,6.4531 -4.5157,10.0781 -4.5156,3.6406 -12.5624,3.6406 h -8.5 v 8.1094 h 8.8906 q 7.2656,0 11.125,2.9063 3.8594,2.9062 3.8594,8.375 0,5.6093 -3.9844,8.6093 -3.9688,3.0157 -11.3906,3.0157 -4.0626,0 -8.7032,-0.8907 -4.6406,-0.875 -10.2031,-2.7187 v 8.7813 q 5.625,1.5624 10.5313,2.3437 4.9062,0.7813 9.25,0.7813 11.2343,0 17.7656,-5.1094 6.5468,-5.0938 6.5468,-13.7813 0,-6.0625 -3.4687,-10.2343 -3.4687,-4.1719 -9.8594,-5.7813"
         style="stroke-linecap:butt;stroke-linejoin:round"
         inkscape:connector-curvature="0" />
      <path
         id="DejaVuSans-2c-8"
         d="M 11.7188,12.4062 H 22.0156 V 4 l -8,-15.625 H 7.71875 L 11.7188,4 Z"
         style="stroke-linecap:butt;stroke-linejoin:round"
         inkscape:connector-curvature="0" />
      <path
         id="Cmmi10-c1-0"
         d="m 19.3906,-19.4844 4.4844,18.06252 q -5.0781,0 -9.4688,2.375005 -4.3906,2.374995 -7.06245,6.609375 -2.65625,4.25 -2.65625,9.2344 0,5.4219 2.6875,10.3437 2.6875,4.9375 7.3438,8.9688 4.6718,4.0312 10.0312,6.2031 5.375,2.1719 10.6562,2.1719 l 6,24.3125 q 0.2032,0.5937 0.7813,0.5937 h 1.2187 q 0.3907,0 0.625,-0.3437 0.25,-0.3438 0.25,-0.6407 l -6,-23.9218 q 3.7657,0 7.2813,-1.375 Q 49.0781,41.75 51.7812,39.2812 54.5,36.8125 56,33.4688 q 1.5156,-3.3438 1.5156,-7.1563 0,-5.4063 -2.6875,-10.3437 Q 52.1562,11.0312 47.6094,7.07812 43.0625,3.125 37.4688,0.84375 31.8906,-1.42188 26.8125,-1.42188 L 22.2188,-19.9219 q -0.2032,-0.5937 -0.8282,-0.5937 h -1.1718 q -0.3907,0 -0.6094,0.375 -0.2188,0.3594 -0.2188,0.6562 m 5.125,20.70315 10.2032,40.67185 q -2.5469,0 -5.3282,-1.0312 -2.7812,-1.0156 -5.25,-2.5782 -2.4531,-1.5624 -4.4687,-3.5624 -2.4375,-2.4376 -4.2969,-5.7657 -1.8438,-3.3125 -2.7969,-7 -0.9531,-3.6875 -0.9531,-7.25 0,-3.7656 1.6094,-6.84372 Q 14.8438,4.78125 17.7656,3 q 2.9375,-1.78125 6.75,-1.78125 m 2.9688,0 q 3.7656,0 8.0156,2.14063 4.25,2.15624 6.9844,5.04687 3.75,3.70315 5.9218,9.09375 2.1876,5.4062 2.1876,10.9219 0,3.7031 -1.625,6.7969 -1.6094,3.1093 -4.5469,4.8906 -2.9219,1.7812 -6.7188,1.7812 z"
         style="stroke-linecap:butt;stroke-linejoin:round"
         inkscape:connector-curvature="0" />
      <path
         id="DejaVuSans-3d-46"
         d="M 10.5938,45.4062 H 73.1875 V 37.2031 H 10.5938 Z m 0,-19.9218 H 73.1875 V 17.1875 H 10.5938 Z"
         style="stroke-linecap:butt;stroke-linejoin:round"
         inkscape:connector-curvature="0" />
      <path
         id="Cmmi10-42-6"
         d="M 4.98438,0 Q 4,0 4,1.3125 q 0.04688,0.25 0.1875,0.82812 0.15625,0.59376 0.39062,0.98438 0.25,0.39062 0.75,0.39062 2.82813,0 4.92188,0.14063 2.1094,0.15625 3.5625,0.54687 1.1719,0.4375 1.9063,2.6875 L 29.3906,61.8125 q 0.2032,0.9844 0.2032,1.375 0,1.0781 -1.1719,1.2187 -1.9063,0.3907 -7.2344,0.3907 -0.9687,0 -0.9687,1.3125 0.0468,0.25 0.1874,0.8594 0.1563,0.6093 0.4219,0.9687 0.2657,0.375 0.6563,0.375 h 35.8437 q 3.2657,0 6.4688,-0.8125 3.2031,-0.7969 5.9062,-2.5625 2.7031,-1.75 4.2969,-4.375 1.5938,-2.6094 1.5938,-6.0625 0,-3.7656 -1.9376,-7 -1.9218,-3.2188 -4.9843,-5.6094 -3.0469,-2.3906 -6.5938,-3.9375 -3.5312,-1.5312 -7.3906,-2.2656 2.7344,0 5.5313,-1.0781 2.8124,-1.0625 5.0156,-2.9219 2.2031,-1.8594 3.5468,-4.4531 1.3438,-2.5782 1.3438,-5.5469 0,-6.0156 -4.2031,-11 Q 61.7188,5.71875 55.3438,2.85938 48.9688,0 43.0156,0 Z M 23.3906,4.29688 q 0,-0.78126 3.4219,-0.78126 h 14.2969 q 4.8906,0 9.375,2.70313 4.5,2.71875 7.2031,7.20315 2.7187,4.5 2.7187,9.375 0,2.9843 -1.25,5.6406 -1.25,2.6719 -3.5937,4.2031 -2.3437,1.5469 -5.3594,1.5469 H 30.7188 L 23.7812,6.5 Q 23.3906,5.125 23.3906,4.29688 m 8,32.51562 h 15.1875 q 4.7969,0 9.3125,2.4375 4.5156,2.4531 7.3594,6.6406 2.8594,4.2032 2.8594,8.8906 0,4.3438 -2.7188,7.1719 -2.7031,2.8438 -7,2.8438 H 42.6719 q -2.6875,0 -3.6094,-0.5 Q 38.1406,63.8125 37.5,61.375 Z"
         style="stroke-linecap:butt;stroke-linejoin:round"
         inkscape:connector-curvature="0" />
    </defs>
    <defs
       id="defs7750">
      <path
         style="stroke:#000000;stroke-width:0.5;stroke-linecap:butt;stroke-linejoin:bevel"
         id="m11ac47eaca"
         d="m 0,-3 -0.673542,2.072949 H -2.85317 L -1.08981,0.354102 -1.76336,2.42705 0,1.1459 1.76336,2.42705 1.08981,0.354102 2.85317,-0.927051 H 0.673542 Z"
         inkscape:connector-curvature="0" />
    </defs>
    <radialGradient
       gradientUnits="userSpaceOnUse"
       gradientTransform="matrix(0.30219636,0.42066677,-0.90739292,0.42103977,-245.21242,-300.50234)"
       r="191.19141"
       fy="-389.35092"
       fx="213.97231"
       cy="-389.35092"
       cx="213.97231"
       id="radialGradient4354"
       xlink:href="#linearGradient4348" />
    <radialGradient
       gradientUnits="userSpaceOnUse"
       gradientTransform="matrix(-0.0015245,0.26720628,-0.41383145,-0.00236934,114.52051,17.487622)"
       r="204.22871"
       fy="44.250137"
       fx="56.072598"
       cy="44.250137"
       cx="56.072598"
       id="radialGradient4374"
       xlink:href="#linearGradient4368" />
    <linearGradient
       gradientUnits="userSpaceOnUse"
       y2="-59.211342"
       x2="549.41272"
       y1="-341.36197"
       x1="198.34358"
       id="linearGradient4440"
       xlink:href="#linearGradient4434" />
    <linearGradient
       gradientUnits="userSpaceOnUse"
       y2="-25.96298"
       x2="284.25464"
       y1="-29.440853"
       x1="284.25464"
       id="linearGradient4600"
       xlink:href="#linearGradient4594" />
    <linearGradient
       gradientUnits="userSpaceOnUse"
       y2="-54.096489"
       x2="286.61276"
       y1="-68.71032"
       x1="286.61276"
       id="linearGradient4608"
       xlink:href="#linearGradient4602" />
    <linearGradient
       gradientUnits="userSpaceOnUse"
       y2="-54.548664"
       x2="297.56653"
       y1="-71.589592"
       x1="297.56653"
       id="linearGradient4628"
       xlink:href="#linearGradient4622" />
    <linearGradient
       gradientUnits="userSpaceOnUse"
       y2="-26.330183"
       x2="302.1445"
       y1="-29.879274"
       x1="302.1445"
       id="linearGradient4636"
       xlink:href="#linearGradient4630" />
    <linearGradient
       y2="-54.548664"
       x2="297.56653"
       y1="-71.589592"
       x1="297.56653"
       gradientUnits="userSpaceOnUse"
       id="linearGradient4650"
       xlink:href="#linearGradient4622" />
    <linearGradient
       y2="-26.330183"
       x2="302.1445"
       y1="-29.879274"
       x1="302.1445"
       gradientUnits="userSpaceOnUse"
       id="linearGradient4652"
       xlink:href="#linearGradient4630" />
    <linearGradient
       y2="-54.096489"
       x2="286.61276"
       y1="-68.71032"
       x1="286.61276"
       gradientUnits="userSpaceOnUse"
       id="linearGradient4666"
       xlink:href="#linearGradient4602" />
    <linearGradient
       y2="-25.96298"
       x2="284.25464"
       y1="-29.440853"
       x1="284.25464"
       gradientUnits="userSpaceOnUse"
       id="linearGradient4668"
       xlink:href="#linearGradient4594" />
    <linearGradient
       gradientUnits="userSpaceOnUse"
       y2="-186.69746"
       x2="337.19406"
       y1="-78.45575"
       x1="471.87506"
       id="linearGradient4302"
       xlink:href="#linearGradient4296" />
    <filter
       height="1.2663528"
       y="-0.13317639"
       width="1.2162602"
       x="-0.1081301"
       id="filter4330"
       style="color-interpolation-filters:sRGB;stroke-linecap:butt;stroke-linejoin:round">
      <feGaussianBlur
         id="feGaussianBlur4332"
         stdDeviation="17.879568"
         style="stroke-linecap:butt;stroke-linejoin:round" />
    </filter>
    <linearGradient
       y2="-232.89227"
       x2="279.71564"
       y1="-44.488976"
       x1="514.13861"
       gradientUnits="userSpaceOnUse"
       id="linearGradient4336"
       xlink:href="#linearGradient4296" />
    <linearGradient
       y2="-59.211342"
       x2="549.41272"
       y1="-341.36197"
       x1="198.34358"
       gradientUnits="userSpaceOnUse"
       id="linearGradient4340"
       xlink:href="#linearGradient4434" />
    <linearGradient
       gradientTransform="matrix(0.72457626,0,0,0.72457626,8.7166198,7.3137383)"
       gradientUnits="userSpaceOnUse"
       y2="292.89349"
       x2="227.97458"
       y1="691.84906"
       x1="227.97458"
       id="linearGradient4365"
       xlink:href="#linearGradient4359" />
    <radialGradient
       r="191.19141"
       fy="-449.63297"
       fx="935.20312"
       cy="-449.63297"
       cx="935.20312"
       gradientTransform="matrix(0.12243167,0.13991031,-0.29532637,0.16692562,183.54592,-142.1746)"
       gradientUnits="userSpaceOnUse"
       id="radialGradient4371"
       xlink:href="#linearGradient4348" />
    <radialGradient
       r="204.22871"
       fy="-602.66077"
       fx="1075.0796"
       cy="-602.66077"
       cx="1075.0796"
       gradientTransform="matrix(0.1338715,0.10101726,-0.20046707,0.26566018,97.545373,357.68492)"
       gradientUnits="userSpaceOnUse"
       id="radialGradient4381"
       xlink:href="#linearGradient4368" />
    <filter
       height="1.3533769"
       y="-0.17668845"
       width="1.1817029"
       x="-0.090851381"
       id="filter4425"
       style="color-interpolation-filters:sRGB;stroke-linecap:butt;stroke-linejoin:round">
      <feGaussianBlur
         id="feGaussianBlur4427"
         stdDeviation="3.4415953"
         style="stroke-linecap:butt;stroke-linejoin:round" />
    </filter>
    <filter
       height="1.3533669"
       y="-0.17668346"
       width="1.1817054"
       x="-0.0908527"
       id="filter4433"
       style="color-interpolation-filters:sRGB;stroke-linecap:butt;stroke-linejoin:round">
      <feGaussianBlur
         id="feGaussianBlur4435"
         stdDeviation="3.441618"
         style="stroke-linecap:butt;stroke-linejoin:round" />
    </filter>
    <radialGradient
       gradientTransform="matrix(0,0.46109399,-0.72457626,1.0132935e-7,204.46915,1.7070034)"
       gradientUnits="userSpaceOnUse"
       r="43.60392"
       fy="67.607956"
       fx="127.22529"
       cy="67.607956"
       cx="127.22529"
       id="radialGradient4485"
       xlink:href="#linearGradient4479" />
    <radialGradient
       r="43.60392"
       fy="67.607956"
       fx="127.22529"
       cy="67.607956"
       cx="127.22529"
       gradientTransform="matrix(0,0.46109399,-0.72457626,1.0132935e-7,142.24844,18.129991)"
       gradientUnits="userSpaceOnUse"
       id="radialGradient4489"
       xlink:href="#linearGradient4479" />
  </defs>
  <defs
     id="defs556">
    <clipPath
       style="stroke-linecap:butt;stroke-linejoin:round"
       id="p5873ec822d">
      <rect
         style="stroke-linecap:butt;stroke-linejoin:round"
         id="rect559"
         y="44.099998"
         x="73.125"
         width="453.375"
         height="352.79999" />
    </clipPath>
  </defs>
  <g
     transform="translate(-180.7164,1897.9821)"
     id="line2d_128"
     style="stroke-linecap:butt;stroke-linejoin:round" />
  <g
     transform="translate(-180.7164,1897.9821)"
     id="line2d_130"
     style="stroke-linecap:butt;stroke-linejoin:round" />
  <g
     style="stroke-linecap:butt;stroke-linejoin:round"
     transform="matrix(-0.8660254,-0.5,-0.5,0.8660254,1215.2535,1216.3188)"
     id="g4226" />
  <g
     id="g4316"
     transform="matrix(0.60068401,0,0,0.74740795,40.350349,388.87194)"
     style="fill:#747474;fill-opacity:1;stroke:none;stroke-width:23.87910843;stroke-linecap:butt;stroke-linejoin:round;stroke-miterlimit:4;stroke-dasharray:none;stroke-opacity:1">
    <path
       id="path4318"
       d="m 207.69922,-385.10573 c -31.24302,1.04844 -57.21052,23.82932 -72.34766,49.69922 -11.82601,20.44607 -24.63942,41.31988 -29.36328,64.70703 4.37136,12.97172 18.52724,17.9732 26.95071,27.73201 67.24099,57.96418 130.51301,122.31299 208.20845,166.658008 26.11792,13.894044 58.15146,23.720343 87.06461,12.547207 30.22192,-12.083583 48.84202,-41.126235 62.62884,-69.126915 6.46488,-12.92724 13.38069,-26.17265 15.78802,-40.51539 -4.12991,-12.30821 -17.68786,-16.87963 -25.55044,-26.24585 -67.54466,-58.33346 -131.25137,-122.80588 -209.14488,-167.67797 -19.74992,-10.45852 -41.62548,-18.17636 -64.23437,-17.77735 z"
       style="opacity:1;fill:#333333;fill-opacity:1;stroke:none;stroke-width:23.87910843;stroke-linecap:round;stroke-linejoin:round;stroke-miterlimit:4;stroke-dasharray:none;stroke-opacity:1;filter:url(#filter4330)"
       inkscape:connector-curvature="0" />
  </g>
  <g
     transform="matrix(0.62750145,-0.36228813,0.36228813,0.62750145,106.54024,237.22486)"
     id="g4397"
     style="fill:#616161;fill-opacity:1;stroke-width:1.38011694;stroke-linecap:butt;stroke-linejoin:round">
    <path
       id="path4399"
       d="m 277.24805,-80.273438 c -1.48859,4.773783 3.64972,16.174464 -4,14.78711 -10.38086,0 -20.76172,0 -31.14258,0 1.16657,5.017669 -2.43997,14.808462 2,16.552734 31.14127,0 62.28255,0 93.42383,0 -20.09386,-11.601379 -40.18775,-23.202694 -60.28125,-34.804687 0,1.154948 0,2.309896 0,3.464843 z"
       style="fill:#616161;fill-opacity:1;fill-rule:evenodd;stroke:none;stroke-width:1.10409355px;stroke-linecap:butt;stroke-linejoin:miter;stroke-opacity:1;filter:url(#filter4425)"
       inkscape:connector-curvature="0" />
    <path
       id="path4401"
       d="m 243.10547,-32.142578 c 17.93877,10.35812 35.87777,20.715852 53.81641,31.0742186 -10e-6,-6.0839843 0,-12.1679686 0,-18.2519526 11.71419,0 23.42838,-10e-7 35.14257,0 -1.16656,-5.018329 2.43995,-14.80974 -2,-16.554688 -31.14062,0 -62.28125,0 -93.42187,0 2.1543,1.244141 4.30859,2.488281 6.46289,3.732422 z"
       style="fill:#616161;fill-opacity:1;fill-rule:evenodd;stroke:none;stroke-width:1.10409355px;stroke-linecap:butt;stroke-linejoin:miter;stroke-opacity:1;filter:url(#filter4433)"
       inkscape:connector-curvature="0" />
  </g>
  <g
     style="fill:#616161;fill-opacity:1;stroke-width:1.38011694;stroke-linecap:butt;stroke-linejoin:round"
     id="g4437"
     transform="matrix(0.62750145,-0.36228813,0.36228813,0.62750145,15.469483,463.96135)">
    <path
       style="fill:#616161;fill-opacity:1;fill-rule:evenodd;stroke:none;stroke-width:1.10409355px;stroke-linecap:butt;stroke-linejoin:miter;stroke-opacity:1;filter:url(#filter4425)"
       d="m 277.24805,-80.273438 c -1.48859,4.773783 3.64972,16.174464 -4,14.78711 -10.38086,0 -20.76172,0 -31.14258,0 1.16657,5.017669 -2.43997,14.808462 2,16.552734 31.14127,0 62.28255,0 93.42383,0 -20.09386,-11.601379 -40.18775,-23.202694 -60.28125,-34.804687 0,1.154948 0,2.309896 0,3.464843 z"
       id="path4439"
       inkscape:connector-curvature="0" />
    <path
       style="fill:#616161;fill-opacity:1;fill-rule:evenodd;stroke:none;stroke-width:1.10409355px;stroke-linecap:butt;stroke-linejoin:miter;stroke-opacity:1;filter:url(#filter4433)"
       d="m 243.10547,-32.142578 c 17.93877,10.35812 35.87777,20.715852 53.81641,31.0742186 -10e-6,-6.0839843 0,-12.1679686 0,-18.2519526 11.71419,0 23.42838,-10e-7 35.14257,0 -1.16656,-5.018329 2.43995,-14.80974 -2,-16.554688 -31.14062,0 -62.28125,0 -93.42187,0 2.1543,1.244141 4.30859,2.488281 6.46289,3.732422 z"
       id="path4441"
       inkscape:connector-curvature="0" />
  </g>
  <g
     id="g1102"
     style="stroke-linecap:butt;stroke-linejoin:round"
     transform="translate(-5.692244,46.548934)">
    <rect
       rx="30.716702"
       ry="30.716702"
       y="27.164934"
       x="86.53392"
       height="286.93219"
       width="286.93219"
       id="rect4204"
       style="opacity:1;fill:#e6e6e6;fill-opacity:1;stroke:none;stroke-width:8;stroke-linecap:round;stroke-linejoin:bevel;stroke-miterlimit:4;stroke-dasharray:none;stroke-dashoffset:0;stroke-opacity:1" />
    <path
       inkscape:connector-curvature="0"
       style="color:#000000;font-style:normal;font-variant:normal;font-weight:normal;font-stretch:normal;font-size:medium;line-height:normal;font-family:sans-serif;text-indent:0;text-align:start;text-decoration:none;text-decoration-line:none;text-decoration-style:solid;text-decoration-color:#000000;letter-spacing:normal;word-spacing:normal;text-transform:none;writing-mode:lr-tb;direction:ltr;baseline-shift:baseline;text-anchor:start;white-space:normal;clip-rule:nonzero;display:inline;overflow:visible;visibility:visible;opacity:1;isolation:auto;mix-blend-mode:normal;color-interpolation:sRGB;color-interpolation-filters:linearRGB;solid-color:#000000;solid-opacity:1;fill:#999999;fill-opacity:1;fill-rule:evenodd;stroke:none;stroke-width:3.19999981;stroke-linecap:butt;stroke-linejoin:miter;stroke-miterlimit:4;stroke-dasharray:none;stroke-dashoffset:0;stroke-opacity:1;color-rendering:auto;image-rendering:auto;shape-rendering:auto;text-rendering:auto;enable-background:accumulate"
       d="m 122.80057,26.005226 v 0.03507 c -0.3304,0.01065 -0.66637,0.01051 -0.9929,0.02833 l -0.27511,0.01362 -0.23889,0.136988 C 109.33471,33.089712 97.245058,40.035645 92.102305,42.988641 l -0.238885,0.136996 -0.151712,0.230958 c -1.05728,1.606531 -1.994896,3.29604 -2.805465,5.057318 l -1.517082,3.29909 0.225293,-0.129069 -0.05884,0.168689 c -0.336232,0.958563 -0.640119,1.935843 -0.902329,2.932273 l -0.224162,0.854768 42.531497,24.623139 C 104.73613,94.082195 92.438588,101.14247 85.957022,104.86406 l -0.583059,0.33399 v 6.01624 l 1.737852,-0.99629 c 6.065609,-3.48267 19.816215,-11.379222 47.062355,-27.03575 l 45.35395,26.2591 c -20.31287,11.68097 -39.05394,22.45277 -55.06214,31.6504 L 85.373963,118.46006 v 6.02757 l 33.864887,19.60771 c -17.89897,10.28285 -27.084085,15.55753 -33.281828,19.11636 l -0.583059,0.33398 v 6.01512 l 1.737852,-0.99743 c 5.787437,-3.32307 15.971505,-9.16917 37.343975,-21.44858 l 45.35622,26.25909 c -23.25053,13.368 -38.88758,22.35508 -55.0678,31.64927 L 85.373963,188.01938 v 6.02757 l 24.141977,13.97866 c -10.565759,6.06867 -17.401665,9.99519 -23.558918,13.53146 l -0.583059,0.33399 v 6.01738 l 1.737852,-0.99856 c 6.075442,-3.48945 14.261985,-8.19006 27.621075,-15.86369 l 45.3596,26.26023 c -25.73136,14.79222 -40.26154,23.14278 -55.07119,31.64813 L 85.373963,257.5787 v 6.0287 l 14.420198,8.34848 c -4.727513,2.71501 -8.563361,4.91725 -13.610716,7.81636 l -0.65664,0.37701 0.08152,0.75288 c 0.11612,1.07259 0.276889,2.12866 0.477771,3.17002 l 0.309075,1.5952 1.407257,-0.80836 c 5.726319,-3.28909 10.670792,-6.13132 17.206432,-9.8848 l 45.36413,26.26363 c -9.60055,5.51786 -13.36732,7.68053 -20.63004,11.85361 l -3.76667,2.16468 h 10.47126 l 0.26719,-0.15398 c 6.93322,-3.98407 9.54273,-5.48082 18.87295,-10.84374 l 18.99408,10.99772 h 10.41352 L 160.81254,301.2548 c 17.37781,-9.98976 35.56457,-20.44924 55.04629,-31.65945 l 45.31318,26.23305 c -9.24568,5.32752 -18.27183,10.5322 -27.69239,15.9554 -0.7744,0.44579 -1.5053,0.86603 -2.2745,1.30876 l -3.75987,2.16355 h 10.45654 l 0.26719,-0.15398 c 9.54466,-5.49586 18.78569,-10.82451 28.21319,-16.25655 l 28.34339,16.41053 h 10.41351 l -33.53882,-19.41752 c 19.7335,-11.37211 38.05926,-21.94698 54.95572,-31.71266 l 45.15355,26.14248 -2.38884,1.39254 c -7.54334,4.3963 -16.16341,9.4065 -26.73346,15.52631 -2.996,1.73468 -6.78372,3.9186 -10.22332,5.9053 l -3.74516,2.16355 h 7.42125 c 1.0192,0 2.01646,-0.0512 2.9968,-0.12567 l 0.26492,-0.0193 0.22756,-0.13247 c 1.83211,-1.05887 4.0078,-2.31402 5.67207,-3.27757 8.61432,-4.98762 15.83397,-9.18133 22.4347,-13.02199 l 0.22982,-0.1336 0.14832,-0.21737 c 1.10929,-1.6385 2.0899,-3.36959 2.93907,-5.1728 l 1.5884,-3.37267 -0.23776,0.13925 0.25927,-0.76193 c 0.32664,-0.96068 0.62467,-1.94137 0.87854,-2.94586 l 0.21512,-0.84798 -41.88503,-24.25066 c 4.47231,-2.58376 9.49058,-5.47916 13.42955,-7.75976 11.45946,-6.63487 20.83998,-12.08673 28.84833,-16.75582 l 0.57627,-0.33512 v -6.04002 l -1.74352,1.0178 c -8.22523,4.79944 -18.14817,10.56642 -30.2952,17.59928 -4.69708,2.71951 -10.79672,6.23505 -16.02673,9.25759 l -45.25431,-26.20022 c 19.90262,-11.47346 38.5059,-22.21108 54.94552,-31.72059 l 38.37424,22.21844 v -6.0287 l -33.16182,-19.199 c 1.29123,-0.74549 2.64035,-1.52392 3.73722,-2.15901 11.4595,-6.63489 20.84,-12.08638 28.84833,-16.75583 l 0.57627,-0.33511 v -6.04003 l -1.74352,1.01781 c -8.22524,4.79937 -18.14817,10.56634 -30.2952,17.59927 -1.85414,1.07353 -4.30034,2.48471 -6.32986,3.65798 L 291.0155,167.96104 c 19.7181,-11.37131 38.47835,-22.20159 54.18584,-31.29603 0.27343,-0.15829 0.50877,-0.29362 0.74609,-0.43135 l 28.67851,16.60411 v -6.0287 l -23.47967,-13.59373 c 8.69142,-5.03737 16.37751,-9.50253 22.9034,-13.30616 l 0.57627,-0.33512 v -6.04001 l -1.74352,1.0178 c -7.43563,4.3375 -16.37311,9.53108 -26.93952,15.65198 l -45.22827,-26.18551 c 15.99812,-9.230054 31.44351,-18.146907 44.48671,-25.69868 3.81435,-2.20845 6.99841,-4.057627 10.42145,-6.043424 l 19.00315,11.002236 v -6.028699 l -13.80318,-7.992984 c 4.79285,-2.784191 8.91234,-5.184024 13.02539,-7.580872 l 0.64646,-0.375881 -0.0781,-0.744951 c -0.11156,-1.082589 -0.2753,-2.142442 -0.47097,-3.183614 l -0.30342,-1.615573 -1.41858,0.828734 c -5.07155,2.956677 -10.22604,5.960081 -16.60299,9.660637 l -45.2113,-26.173056 c 7.11414,-4.107428 13.76435,-7.951442 20.60514,-11.903426 l 3.74403,-2.162404 h -10.42711 l -0.26832,0.153965 c -6.37647,3.682963 -12.27408,7.093682 -18.8605,10.895823 L 286.11555,26.006363 H 275.7043 l 24.28462,14.060178 C 282.44429,50.1909 264.12848,60.749686 245.00491,71.762224 L 199.67927,45.520108 c 9.99134,-5.747296 19.99563,-11.502236 30.15708,-17.350211 l 3.761,-2.163534 h -10.45993 l -0.26719,0.153965 c -9.5232,5.479876 -19.01267,10.939247 -28.40451,16.341463 L 165.97401,26.006363 h -10.41352 l 3.73497,2.162404 29.94651,17.338885 C 169.28107,56.98828 150.65258,67.696373 134.18549,77.159181 L 88.81457,50.89329 90.536569,49.904924 C 96.023335,46.754648 112.17002,37.478405 128.37077,28.169897 l 3.76666,-2.164664 h -9.33684 z M 305.19792,43.081445 350.416,69.264689 c -2.55062,1.47978 -4.96411,2.881321 -7.82881,4.539921 -13.8018,7.991112 -30.04429,17.369977 -47.07934,27.19766 L 250.21503,74.778259 c 19.14129,-11.023552 37.4934,-21.60317 54.98289,-31.696814 z m -110.7413,5.444516 45.32678,26.243248 c -2.10048,1.210253 -4.15943,2.398572 -6.30381,3.633062 -16.59647,9.554284 -32.88043,18.919222 -48.73002,28.034319 L 139.40015,80.179751 c 16.62494,-9.554011 35.05646,-20.150127 55.05647,-31.65379 z m 50.53807,29.26042 45.29847,26.225139 c -17.63381,10.17057 -36.27107,20.90962 -54.99647,31.69002 l -45.33357,-26.24778 c 15.05599,-8.65904 30.41001,-17.48974 46.11701,-26.531937 3.03325,-1.746179 5.90695,-3.403154 8.91456,-5.135442 z m 50.50863,29.242319 45.23393,26.1889 c -16.07267,9.30371 -34.89435,20.16974 -54.93307,31.72512 l -45.2962,-26.224 c 18.78194,-10.81356 37.41104,-21.54708 54.99534,-31.69002 z m -110.76168,5.43092 45.33244,26.24778 c -18.77889,10.80983 -37.45887,21.55554 -55.03836,31.66398 l -45.35508,-26.26022 c 16.10404,-9.25338 34.95037,-20.08626 55.061,-31.65154 z m 50.54599,29.26496 45.29734,26.22627 c -15.36684,8.85983 -31.08107,17.9166 -47.10652,27.14217 -2.68926,1.54813 -5.23163,3.00853 -7.89674,4.54219 l -45.33244,-26.24438 c 17.64926,-10.14916 36.29396,-20.87565 55.03836,-31.66625 z m 50.51089,29.24345 45.24526,26.19683 c -16.59487,9.59713 -35.00484,20.22238 -54.94666,31.71718 l -45.30186,-26.22739 c 1.75633,-1.01039 3.48479,-2.00361 5.28487,-3.03982 16.91381,-9.73703 33.56194,-19.33123 49.71839,-28.6468 z m -110.77299,5.42753 45.33243,26.24551 c -19.15413,11.02339 -37.54474,21.60346 -55.04175,31.66285 l -45.35735,-26.26023 c 16.23753,-9.32784 31.89402,-18.32401 55.06667,-31.64813 z m 50.54824,29.26495 45.30413,26.22966 c -12.36927,7.12912 -24.67647,14.22383 -37.39945,21.54822 -5.99803,3.45301 -11.67041,6.71413 -17.61173,10.13274 l -45.33696,-26.2489 c 17.5528,-10.09194 35.91143,-20.65015 55.04401,-31.66172 z m 50.51656,29.24571 45.25545,26.20475 c -17.00592,9.82705 -35.19096,20.32192 -54.95685,31.71153 L 221.0814,266.58945 c 5.03021,-2.89419 9.88985,-5.68813 14.99873,-8.62925 13.6114,-7.83588 26.80092,-15.44032 40.0102,-23.05398 z m -110.78432,5.42073 45.3381,26.25004 c -19.47366,11.205 -37.74207,21.71189 -55.04742,31.65946 l -45.36186,-26.26363 c 15.06634,-8.65333 29.21233,-16.77963 55.07118,-31.64587 z"
       id="path4260" />
    <path
       inkscape:connector-curvature="0"
       style="color:#000000;font-style:normal;font-variant:normal;font-weight:normal;font-stretch:normal;font-size:medium;line-height:normal;font-family:sans-serif;text-indent:0;text-align:start;text-decoration:none;text-decoration-line:none;text-decoration-style:solid;text-decoration-color:#000000;letter-spacing:normal;word-spacing:normal;text-transform:none;writing-mode:lr-tb;direction:ltr;baseline-shift:baseline;text-anchor:start;white-space:normal;clip-rule:nonzero;display:inline;overflow:visible;visibility:visible;opacity:1;isolation:auto;mix-blend-mode:normal;color-interpolation:sRGB;color-interpolation-filters:linearRGB;solid-color:#000000;solid-opacity:1;fill:#5d5d5d;fill-opacity:1;fill-rule:evenodd;stroke:none;stroke-width:3.19999981;stroke-linecap:butt;stroke-linejoin:miter;stroke-miterlimit:4;stroke-dasharray:none;stroke-dashoffset:0;stroke-opacity:1;color-rendering:auto;image-rendering:auto;shape-rendering:auto;text-rendering:auto;enable-background:accumulate"
       d="m 124.24974,27.457523 c -5.49013,0.320267 -9.83224,5.137533 -14.86659,7.275524 -5.57853,3.69932 -12.375634,6.129172 -17.208647,10.605377 -3.257638,4.482685 1.47141,1.093456 4.100564,-0.401206 10.143343,-5.827508 20.286683,-11.655017 30.430023,-17.482525 -0.81665,0.0027 -1.64361,-0.0047 -2.45535,0.0028 z m 65.7185,16.796867 c 4.91024,2.171565 -5.03166,4.321537 -6.91415,6.482887 -16.29045,9.36468 -32.58036,18.730319 -48.87115,28.0944 -15.12436,-8.75615 -30.24921,-17.51147 -45.373755,-26.267303 -2.256821,3.657665 4.119118,4.174037 6.2029,6.270439 12.283285,7.111463 24.566835,14.222462 36.849945,21.334221 -15.01344,8.621595 -30.02546,17.245669 -45.038353,25.868216 -0.660173,5.65505 6.466475,-2.14338 9.42428,-2.7392 12.643133,-7.262897 25.286063,-14.526158 37.929323,-21.788832 16.0835,9.312131 32.16688,18.624472 48.25084,27.935802 -19.3212,11.10705 -38.64282,22.21332 -57.96469,33.31919 -12.54638,-7.26404 -25.093203,-14.52732 -37.639753,-21.79106 -0.661925,4.89747 6.452014,5.31211 9.405625,8.1252 8.636798,5.00108 17.273608,10.00212 25.910388,15.00321 -11.77265,6.76017 -23.543904,13.52278 -35.316013,20.28389 -0.658163,5.65052 6.467922,-2.14659 9.424773,-2.74116 9.40359,-5.40083 18.80708,-10.80183 28.21074,-16.20254 16.08395,9.31216 32.16786,18.6244 48.25225,27.93581 -19.32291,11.10686 -38.64668,22.21224 -57.97035,33.31777 -9.30561,-5.38796 -18.611643,-10.77518 -27.917413,-16.16286 -0.661925,4.89747 6.452011,5.31211 9.405621,8.12521 5.396012,3.12453 10.792052,6.24903 16.188052,9.37359 -8.53186,4.89874 -17.062352,9.79987 -25.593673,14.69956 -0.659181,5.65275 6.467323,-2.14477 9.424707,-2.73987 6.162366,-3.53934 12.324606,-7.07888 18.487046,-10.6181 16.08534,9.31268 32.17074,18.62528 48.2565,27.93724 -19.3238,11.10695 -38.64859,22.21219 -57.97318,33.31777 -6.064896,-3.51226 -12.130072,-7.02402 -18.195073,-10.53608 -0.662972,4.89858 6.45174,5.31289 9.406032,8.12591 4.536191,2.15311 8.609391,4.30468 1.772724,6.43793 -3.388793,2.40726 -8.470658,3.96636 -10.858924,6.87484 0.19391,4.18782 5.468557,-2.13429 7.832132,-2.46348 3.585806,-1.44478 7.175739,-5.32034 10.759189,-5.34694 15.84593,9.17409 31.69135,18.34903 47.53759,27.52258 -7.28698,4.18935 -14.57561,8.37583 -21.86325,12.56403 6.88146,0.9719 11.89977,-5.03905 17.84389,-7.58017 3.61109,-2.4227 7.22264,-5.0702 10.82298,-1.04369 5.50751,2.65383 10.5139,7.17333 16.3446,8.62386 7.07456,0.70726 -3.68005,-3.37419 -5.59904,-5.08249 -4.30296,-2.49097 -8.60558,-4.98251 -12.90879,-7.47305 19.31611,-11.11018 38.63154,-22.22151 57.94913,-33.3291 16.0688,9.3033 32.1379,18.60609 48.20696,27.90893 -10.39996,5.99148 -20.7986,11.98563 -31.19924,17.97571 6.88095,0.97285 11.89027,-5.05134 17.83013,-7.59672 5.22792,-3.01328 10.45744,-6.02379 15.68436,-9.03881 9.85092,5.42335 19.44141,11.8193 29.45572,16.63553 8.02769,0.96331 -1.80111,-2.86966 -4.24729,-4.71964 -7.62968,-4.41723 -15.25912,-8.83484 -22.88894,-13.25183 19.28952,-11.11937 38.57498,-22.24581 57.8543,-33.38287 14.91395,8.63625 29.82946,17.26981 44.744,25.90502 2.17012,-3.75627 -4.18572,-4.1892 -6.21841,-6.28186 -12.0687,-6.98732 -24.13744,-13.97454 -36.20609,-20.96192 14.78311,-8.53242 29.55194,-17.08942 44.29963,-25.68284 0.66308,-5.67001 -6.44244,2.17066 -9.39328,2.78575 -12.39183,7.2115 -24.80472,14.39093 -37.22443,21.5569 -16.04942,-9.29335 -32.10027,-18.5842 -48.15036,-27.87637 19.28761,-11.12028 38.56953,-22.25041 57.84439,-33.39278 12.3072,7.12761 24.6159,14.25263 36.92368,21.37925 0.66297,-4.89859 -6.4518,-5.31279 -9.40613,-8.12576 -8.40028,-4.86317 -16.8007,-9.72609 -25.20088,-14.58943 11.54858,-6.67215 23.08169,-13.37074 34.60701,-20.08293 0.66308,-5.67001 -6.44244,2.17065 -9.39328,2.78575 -9.1676,5.33128 -18.34191,10.65487 -27.52757,15.95701 -16.04478,-9.29037 -32.0903,-18.57946 -48.1362,-27.86789 19.28028,-11.12503 38.5631,-22.25567 57.82741,-33.40127 9.07656,5.25504 18.15309,10.51014 27.22964,15.7652 0.66298,-4.89859 -6.45181,-5.31277 -9.40613,-8.12574 -5.17133,-2.99365 -10.34243,-5.9877 -15.51392,-8.98105 8.30934,-4.82137 16.61827,-9.64305 24.92005,-14.47738 0.66311,-5.66996 -6.44274,2.17014 -9.39371,2.785 -5.9412,3.45803 -11.89329,6.90174 -17.83876,10.35503 -16.04126,-9.28852 -32.08261,-18.57689 -48.12489,-27.86364 19.27473,-11.12624 38.55261,-22.246812 57.80336,-33.41401 5.85132,3.387517 11.70267,6.774976 17.554,10.162464 0.66294,-4.898527 -6.45149,-5.313325 -9.40567,-8.12655 -5.50889,-2.147051 -6.72527,-4.296763 -0.54662,-6.456642 2.99268,-2.202759 7.67001,-3.561052 9.65934,-6.266772 0.0227,-4.317635 -5.02892,1.91701 -7.17667,2.143227 -3.57027,1.49236 -7.14137,5.263597 -10.71264,5.499068 -15.82703,-9.161992 -31.6535,-18.324969 -47.48105,-27.486061 7.27944,-4.20467 14.55848,-8.410037 21.83776,-12.614986 -6.87747,-0.971665 -11.87588,5.06502 -17.8099,7.612159 -3.61012,2.431724 -7.22015,5.099799 -10.82732,1.0642 -5.53617,-2.678682 -10.57804,-7.197765 -16.43652,-8.676359 -7.07267,-0.706896 3.68258,3.374731 5.60038,5.082646 4.33599,2.510285 8.67181,5.020859 13.00793,7.530925 -19.29034,11.129513 -38.58584,22.248942 -57.8826,33.367303 -16.07404,-9.308284 -32.14901,-18.614948 -48.22395,-27.92166 10.46321,-6.02012 20.92689,-12.039415 31.39028,-18.059214 -6.88033,-0.971777 -11.89344,5.04582 -17.8349,7.588426 -5.29095,3.043067 -10.5799,6.089623 -15.87205,9.130606 -9.89987,-5.452585 -19.54029,-11.872011 -29.6029,-16.719032 -8.02767,-0.963329 1.80106,2.869758 4.24721,4.719805 6.95368,4.026159 13.90737,8.052318 20.86106,12.078477 z M 305.9245,41.827342 c 15.79404,9.145284 31.58747,18.291633 47.38191,27.436251 -19.24877,11.168484 -38.52677,22.286824 -57.80053,33.412587 -16.06173,-9.301265 -32.12467,-18.600448 -48.18715,-27.900428 19.29725,-11.117208 38.5921,-22.237404 57.88119,-33.36872 l 0.62676,0.363569 z m -110.74129,5.444229 c 15.83221,9.166583 31.66414,18.333661 47.49653,27.499935 -19.30198,11.126651 -38.62163,22.226123 -57.93354,33.337584 -16.08162,-9.311178 -32.16309,-18.622621 -48.24518,-27.932984 19.31957,-11.107985 38.63892,-22.21637 57.95903,-33.323431 l 0.62698,0.363184 0.0962,0.05571 z m 50.53778,29.260431 c 15.82324,9.160933 31.64627,18.322237 47.46965,27.482948 -19.29593,11.12398 -38.59383,22.24452 -57.89534,33.35881 -16.07808,-9.30712 -32.15449,-18.61714 -48.23244,-27.92449 19.31049,-11.114616 38.63111,-22.215023 57.93355,-33.33758 l 0.62676,0.36357 z m 50.50806,29.243438 c 15.80056,9.1478 31.6012,18.29545 47.40172,27.44333 -19.26896,11.14466 -38.54512,22.27686 -57.82741,33.39844 -16.06417,-9.30161 -32.12877,-18.60248 -48.19423,-27.90185 19.30163,-11.11456 38.60147,-22.2322 57.89534,-33.36023 l 0.62676,0.36357 0.0978,0.0567 z m -110.76111,5.43008 c 15.83555,9.16841 31.67055,18.33778 47.50645,27.5056 -19.31404,11.11107 -38.62668,22.22457 -57.94204,33.33334 -16.08353,-9.31256 -32.16682,-18.62553 -48.25084,-27.93723 19.3208,-11.10738 38.64184,-22.21433 57.96327,-33.3206 l 0.62698,0.36318 0.0962,0.0557 z m 50.54627,29.26467 c 15.82278,9.16093 31.6453,18.3223 47.46823,27.48295 -19.30225,11.1165 -38.59494,22.24979 -57.90383,33.35457 -16.07638,-9.30748 -32.1528,-18.6149 -48.2296,-27.92166 19.31408,-11.11145 38.62665,-22.22556 57.94204,-33.33475 l 0.62698,0.36319 0.0962,0.0557 z m 50.51089,29.24345 c 15.80436,9.15105 31.60862,18.3023 47.41305,27.45323 -19.27442,11.14137 -38.55653,22.26942 -57.84298,33.38995 -16.06598,-9.30316 -32.13304,-18.60445 -48.19989,-27.9061 19.30653,-11.10464 38.60738,-22.23131 57.90524,-33.35739 l 0.62676,0.36357 0.0978,0.0567 z m -110.77384,5.42866 c 15.83553,9.1675 31.67067,18.33569 47.50645,27.50277 -19.31487,11.11079 -38.62862,22.22355 -57.94488,33.33192 -16.08443,-9.31262 -32.16877,-18.6254 -48.25366,-27.93723 19.32242,-11.10643 38.64574,-22.21128 57.96893,-33.31636 l 0.62699,0.36319 0.0962,0.0557 z m 50.5491,29.26467 c 15.82466,9.16188 31.6491,18.32415 47.4739,27.48578 -19.30362,11.11857 -38.59776,22.25101 -57.91091,33.35174 -16.07783,-9.30883 -32.15556,-18.61786 -48.23385,-27.92591 19.3157,-11.11051 38.63055,-22.22251 57.9477,-33.33051 l 0.62698,0.36319 0.0962,0.0557 z m 50.51656,29.24487 c 15.80826,9.15318 31.61539,18.30833 47.42436,27.4603 -19.27875,11.13853 -38.56427,22.26531 -57.85431,33.38428 -16.06791,-9.30495 -32.1367,-18.6084 -48.20554,-27.91175 19.31215,-11.10241 38.60865,-22.22946 57.91091,-33.35315 l 0.62676,0.36357 0.0978,0.0567 z m -110.78517,5.42158 c 15.83743,9.16936 31.67434,18.33963 47.51211,27.50842 -19.31649,11.10985 -38.63252,22.2205 -57.95054,33.32768 -16.08589,-9.31397 -32.17152,-18.62836 -48.25791,-27.94147 19.32364,-11.10582 38.64866,-22.20924 57.97318,-33.31353 l 0.62698,0.36319 0.0962,0.0557 z m 191.78628,60.95639 c -7.92572,4.5987 -15.85322,9.20073 -23.79356,13.77685 6.9338,0.928 11.97628,-5.13741 17.97459,-7.72237 5.06167,-3.40223 11.29665,-5.57778 15.60075,-9.78067 3.4368,-4.62827 -1.36543,-1.15814 -4.01332,0.3699 -1.92282,1.11877 -3.84564,2.23753 -5.76846,3.35629 z"
       id="path4471" />
    <path
       inkscape:connector-curvature="0"
       style="color:#000000;font-style:normal;font-variant:normal;font-weight:normal;font-stretch:normal;font-size:medium;line-height:normal;font-family:sans-serif;text-indent:0;text-align:start;text-decoration:none;text-decoration-line:none;text-decoration-style:solid;text-decoration-color:#000000;letter-spacing:normal;word-spacing:normal;text-transform:none;writing-mode:lr-tb;direction:ltr;baseline-shift:baseline;text-anchor:start;white-space:normal;clip-rule:nonzero;display:inline;overflow:visible;visibility:visible;opacity:1;isolation:auto;mix-blend-mode:normal;color-interpolation:sRGB;color-interpolation-filters:linearRGB;solid-color:#000000;solid-opacity:1;fill:#000000;fill-opacity:1;fill-rule:nonzero;stroke:none;stroke-width:16;stroke-linecap:round;stroke-linejoin:bevel;stroke-miterlimit:4;stroke-dasharray:none;stroke-dashoffset:0;stroke-opacity:1;color-rendering:auto;image-rendering:auto;shape-rendering:auto;text-rendering:auto;enable-background:accumulate"
       d="m 121.81814,18.470198 c -24.263898,0 -43.979799,19.714488 -43.979799,43.97838 V 278.81384 c 0,24.2639 19.715901,43.97839 43.979799,43.97839 h 216.36385 c 24.26389,0 43.97838,-19.71449 43.97838,-43.97839 V 62.448578 c 0,-24.263892 -19.71449,-43.97838 -43.97838,-43.97838 z m 0,11.59322 h 216.36385 c 18.04178,0 32.38516,14.343378 32.38516,32.38516 V 278.81384 c 0,18.04178 -14.34338,32.38517 -32.38516,32.38517 H 121.81814 c -18.04178,0 -32.386579,-14.34339 -32.386579,-32.38517 V 62.448578 c 0,-18.041782 14.344799,-32.38516 32.386579,-32.38516 z"
       id="rect4248" />
    <path
       inkscape:connector-curvature="0"
       style="color:#000000;font-style:normal;font-variant:normal;font-weight:normal;font-stretch:normal;font-size:medium;line-height:normal;font-family:sans-serif;text-indent:0;text-align:start;text-decoration:none;text-decoration-line:none;text-decoration-style:solid;text-decoration-color:#000000;letter-spacing:normal;word-spacing:normal;text-transform:none;writing-mode:lr-tb;direction:ltr;baseline-shift:baseline;text-anchor:start;white-space:normal;clip-rule:nonzero;display:inline;overflow:visible;visibility:visible;opacity:1;isolation:auto;mix-blend-mode:normal;color-interpolation:sRGB;color-interpolation-filters:linearRGB;solid-color:#000000;solid-opacity:1;fill:url(#radialGradient4374);fill-opacity:1;fill-rule:nonzero;stroke:none;stroke-width:16;stroke-linecap:round;stroke-linejoin:bevel;stroke-miterlimit:4;stroke-dasharray:none;stroke-dashoffset:0;stroke-opacity:1;color-rendering:auto;image-rendering:auto;shape-rendering:auto;text-rendering:auto;enable-background:accumulate"
       d="M 337.64027,22.72372 C 264.34864,23.044694 191.034,22.579046 117.7427,22.955811 96.767879,24.709164 79.644206,45.549814 82.290722,66.505388 82.187594,138.89553 81.958167,211.29685 82.432348,283.68015 c 2.155168,20.72262 22.714262,37.18526 43.442022,34.66089 72.62745,0.048 145.27905,0.43898 217.89153,-0.22636 20.24548,-2.56261 36.28257,-22.60523 33.99496,-42.95821 -0.11138,-72.87287 0.50048,-145.76438 -0.3354,-218.625324 -2.5301,-18.980065 -20.65067,-34.374203 -39.78519,-33.807426 z m -216.136,2.882738 c 71.33083,0.353155 142.67801,-0.160521 214.01123,0.263699 9.80188,-0.735169 19.83879,2.281679 27.05331,9.080787 9.10634,8.012082 13.71575,20.477198 12.33087,32.4913 -0.16765,72.263566 0.42952,144.544036 -0.32299,216.796896 -2.31171,19.08582 -21.69867,33.69928 -40.66685,31.29381 -72.50368,-0.17377 -145.02425,0.42952 -217.51722,-0.32525 C 97.306325,312.89805 82.692069,293.51033 85.097546,274.54227 85.281705,202.02346 84.649358,129.48793 85.436792,56.979761 87.602111,39.563433 104.041,25.510375 121.50427,25.606458 Z"
       id="path4360" />
    <g
       transform="matrix(-0.62750145,-0.36228813,-0.36228813,0.62750145,497.26597,257.19259)"
       id="g4459"
       style="fill:#616161;fill-opacity:1;stroke-width:1.38011694;stroke-linecap:butt;stroke-linejoin:round">
      <path
         inkscape:connector-curvature="0"
         id="path4461"
         d="m 277.24805,-80.273438 c -1.48859,4.773783 3.64972,16.174464 -4,14.78711 -10.38086,0 -20.76172,0 -31.14258,0 1.16657,5.017669 -2.43997,14.808462 2,16.552734 31.14127,0 62.28255,0 93.42383,0 -20.09386,-11.601379 -40.18775,-23.202694 -60.28125,-34.804687 0,1.154948 0,2.309896 0,3.464843 z"
         style="fill:#616161;fill-opacity:1;fill-rule:evenodd;stroke:none;stroke-width:1.10409355px;stroke-linecap:butt;stroke-linejoin:miter;stroke-opacity:1;filter:url(#filter4425)" />
      <path
         inkscape:connector-curvature="0"
         id="path4463"
         d="m 243.10547,-32.142578 c 17.93877,10.35812 35.87777,20.715852 53.81641,31.0742186 -10e-6,-6.0839843 0,-12.1679686 0,-18.2519526 11.71419,0 23.42838,-10e-7 35.14257,0 -1.16656,-5.018329 2.43995,-14.80974 -2,-16.554688 -31.14062,0 -62.28125,0 -93.42187,0 2.1543,1.244141 4.30859,2.488281 6.46289,3.732422 z"
         style="fill:#616161;fill-opacity:1;fill-rule:evenodd;stroke:none;stroke-width:1.10409355px;stroke-linecap:butt;stroke-linejoin:miter;stroke-opacity:1;filter:url(#filter4433)" />
    </g>
    <g
       style="stroke-width:1.38011694;stroke-linecap:butt;stroke-linejoin:round"
       transform="matrix(-0.62750145,-0.36228813,-0.36228813,0.62750145,751.02435,846.26585)"
       id="g4232">
      <path
         inkscape:connector-curvature="0"
         id="path4234"
         d="m 1168.8438,-361.31875 v 16.7875 h -35.1422 v 12.55312 h 85.9594 z"
         style="fill:#000000;fill-opacity:1;fill-rule:evenodd;stroke:none;stroke-width:1.10409355px;stroke-linecap:butt;stroke-linejoin:miter;stroke-opacity:1" />
      <path
         inkscape:connector-curvature="0"
         style="fill:#000000;fill-opacity:1;fill-rule:evenodd;stroke:none;stroke-width:1.10409355px;stroke-linecap:butt;stroke-linejoin:miter;stroke-opacity:1"
         d="m 1184.5188,-285.57814 v -16.7875 h 35.1422 v -12.5531 h -85.9594 z"
         id="path4236" />
    </g>
    <g
       style="fill:#616161;fill-opacity:1;stroke-width:1.38011694;stroke-linecap:butt;stroke-linejoin:round"
       id="g4465"
       transform="matrix(-0.62750145,-0.36228813,-0.36228813,0.62750145,296.93933,349.93835)">
      <path
         inkscape:connector-curvature="0"
         style="fill:#616161;fill-opacity:1;fill-rule:evenodd;stroke:none;stroke-width:1.10409355px;stroke-linecap:butt;stroke-linejoin:miter;stroke-opacity:1;filter:url(#filter4425)"
         d="m 277.24805,-80.273438 c -1.48859,4.773783 3.64972,16.174464 -4,14.78711 -10.38086,0 -20.76172,0 -31.14258,0 1.16657,5.017669 -2.43997,14.808462 2,16.552734 31.14127,0 62.28255,0 93.42383,0 -20.09386,-11.601379 -40.18775,-23.202694 -60.28125,-34.804687 0,1.154948 0,2.309896 0,3.464843 z"
         id="path4467" />
      <path
         inkscape:connector-curvature="0"
         style="fill:#616161;fill-opacity:1;fill-rule:evenodd;stroke:none;stroke-width:1.10409355px;stroke-linecap:butt;stroke-linejoin:miter;stroke-opacity:1;filter:url(#filter4433)"
         d="m 243.10547,-32.142578 c 17.93877,10.35812 35.87777,20.715852 53.81641,31.0742186 -10e-6,-6.0839843 0,-12.1679686 0,-18.2519526 11.71419,0 23.42838,-10e-7 35.14257,0 -1.16656,-5.018329 2.43995,-14.80974 -2,-16.554688 -31.14062,0 -62.28125,0 -93.42187,0 2.1543,1.244141 4.30859,2.488281 6.46289,3.732422 z"
         id="path4469" />
    </g>
    <path
       inkscape:connector-curvature="0"
       id="path4379"
       d="M 337.64027,22.72372 C 264.34864,23.044694 191.034,22.579046 117.7427,22.955811 96.767879,24.709164 79.644206,45.549814 82.290722,66.505388 82.187594,138.89553 81.958167,211.29685 82.432348,283.68015 c 2.155168,20.72262 22.714262,37.18526 43.442022,34.66089 72.62745,0.048 145.27905,0.43898 217.89153,-0.22636 20.24548,-2.56261 36.28257,-22.60523 33.99496,-42.95821 -0.11138,-72.87287 0.50048,-145.76438 -0.3354,-218.625324 -2.5301,-18.980065 -20.65067,-34.374203 -39.78519,-33.807426 z m -216.136,2.882738 c 71.33083,0.353155 142.67801,-0.160521 214.01123,0.263699 9.80188,-0.735169 19.83879,2.281679 27.05331,9.080787 9.10634,8.012082 13.71575,20.477198 12.33087,32.4913 -0.16765,72.263566 0.42952,144.544036 -0.32299,216.796896 -2.31171,19.08582 -21.69867,33.69928 -40.66685,31.29381 -72.50368,-0.17377 -145.02425,0.42952 -217.51722,-0.32525 C 97.306325,312.89805 82.692069,293.51033 85.097546,274.54227 85.281705,202.02346 84.649358,129.48793 85.436792,56.979761 87.602111,39.563433 104.041,25.510375 121.50427,25.606458 Z"
       style="color:#000000;font-style:normal;font-variant:normal;font-weight:normal;font-stretch:normal;font-size:medium;line-height:normal;font-family:sans-serif;text-indent:0;text-align:start;text-decoration:none;text-decoration-line:none;text-decoration-style:solid;text-decoration-color:#000000;letter-spacing:normal;word-spacing:normal;text-transform:none;writing-mode:lr-tb;direction:ltr;baseline-shift:baseline;text-anchor:start;white-space:normal;clip-rule:nonzero;display:inline;overflow:visible;visibility:visible;opacity:0.5;isolation:auto;mix-blend-mode:normal;color-interpolation:sRGB;color-interpolation-filters:linearRGB;solid-color:#000000;solid-opacity:1;fill:url(#radialGradient4381);fill-opacity:1;fill-rule:nonzero;stroke:none;stroke-width:16;stroke-linecap:round;stroke-linejoin:bevel;stroke-miterlimit:4;stroke-dasharray:none;stroke-dashoffset:0;stroke-opacity:1;color-rendering:auto;image-rendering:auto;shape-rendering:auto;text-rendering:auto;enable-background:accumulate" />
    <rect
       rx="42.197445"
       style="opacity:1;fill:url(#linearGradient4365);fill-opacity:1;stroke:none;stroke-width:8;stroke-linecap:round;stroke-linejoin:bevel;stroke-miterlimit:4;stroke-dasharray:none;stroke-dashoffset:0;stroke-opacity:1"
       id="rect4206"
       width="286.93219"
       height="286.93219"
       x="87.210907"
       y="27.841919"
       ry="42.197445" />
    <g
       transform="matrix(0.72457626,0,0,0.72457626,66.68272,7.3137383)"
       id="g4443"
       style="stroke-width:1.38011694;stroke-linecap:butt;stroke-linejoin:round">
      <g
         id="g4212"
         transform="matrix(0.8290142,0,0,1.0315104,-28.48579,462.35198)"
         style="fill:#ffbc3b;fill-opacity:1;stroke:none;stroke-width:23.87910843;stroke-linecap:butt;stroke-linejoin:round;stroke-miterlimit:4;stroke-dasharray:none;stroke-opacity:1">
        <path
           inkscape:connector-curvature="0"
           clip-path="url(#p5873ec822d-3)"
           d="m 495.14386,-179.30676 -0.513,1.24 -4.597,10.826 -4.264,9.525 -4.042,8.528 -3.853,7.651 -3.719,6.925 -3.613,6.29 -3.523,5.715 -3.452,5.201 -3.402,4.748 -3.357,4.324 -3.32,3.932 -3.29,3.568 -3.27,3.236 -3.268,2.933 -3.288,2.661 -3.298,2.389 -3.292,2.117 -3.317,1.875 -3.328,1.633 -3.394,1.421 -3.463,1.209 -3.539,0.998 -3.627,0.787 -3.743,0.574 -3.991,0.363 -6.151,0.091 -2.096,-0.091 -3.989,-0.333 -4.26,-0.574 -4.404,-0.817 -4.64,-1.088 -4.917,-1.391 -5.133,-1.694 -5.396,-2.026 -5.693,-2.389 -6.018,-2.782 -6.308,-3.175 -6.685,-3.629 -7.084,-4.113 -7.549,-4.656 -8.031,-5.232 -8.615,-5.897 -9.254,-6.622 -9.984,-7.439 -10.839,-8.377 -11.892,-9.495 -13.24,-10.887 -15.016,-12.67 -17.767,-15.332 -62.038,-54.885 -23.202,-20.473 -17.821,-15.483 -0.02,-0.03 4.847,-11.461 4.444,-9.949 4.169,-8.8 3.966,-7.862 3.831,-7.107 3.705,-6.411 3.609,-5.806 3.529,-5.261 3.468,-4.778 3.409,-4.3246 3.378,-3.9312 3.356,-3.5683 3.316,-3.2055 3.318,-2.903 3.307,-2.6006 3.317,-2.3285 3.31,-2.0563 3.335,-1.8144 3.345,-1.5725 3.411,-1.3608 3.481,-1.1491 3.559,-0.9375 3.649,-0.7257 3.774,-0.5141 3.471,-0.2722 1.487,-0.0605 6.219,0.0908 4.262,0.3628 4.359,0.6048 4.459,0.8468 4.677,1.1188 4.845,1.3911 5.082,1.6934 5.282,1.9959 5.603,2.3587 5.881,2.7216 6.192,3.1147 6.532,3.5381 6.897,3.9917 7.336,4.5057 7.792,5.0499 8.31,5.655 8.889,6.32 9.563,7.076 10.327,7.923 11.257,8.921 12.342,10.07 13.761,11.521 15.68,13.427 18.751,16.36 25.835,22.861 48.213,42.699 17.648,15.332 0.01,0.015 z"
           style="opacity:1;fill:#ffbc3b;fill-opacity:1;stroke:none;stroke-width:23.87910843;stroke-linecap:round;stroke-linejoin:round;stroke-miterlimit:4;stroke-dasharray:none;stroke-opacity:1"
           id="path4214" />
      </g>
      <g
         style="fill:url(#linearGradient4302);fill-opacity:1;stroke:none;stroke-width:23.87910843;stroke-linecap:butt;stroke-linejoin:round;stroke-miterlimit:4;stroke-dasharray:none;stroke-opacity:1"
         transform="matrix(0.8290142,0,0,1.0315104,-28.48579,462.35198)"
         id="g4760">
        <path
           inkscape:connector-curvature="0"
           id="path4762"
           style="opacity:1;fill:url(#linearGradient4336);fill-opacity:1;stroke:none;stroke-width:23.87910843;stroke-linecap:round;stroke-linejoin:round;stroke-miterlimit:4;stroke-dasharray:none;stroke-opacity:1"
           d="m 495.14386,-179.30676 -0.513,1.24 -4.597,10.826 -4.264,9.525 -4.042,8.528 -3.853,7.651 -3.719,6.925 -3.613,6.29 -3.523,5.715 -3.452,5.201 -3.402,4.748 -3.357,4.324 -3.32,3.932 -3.29,3.568 -3.27,3.236 -3.268,2.933 -3.288,2.661 -3.298,2.389 -3.292,2.117 -3.317,1.875 -3.328,1.633 -3.394,1.421 -3.463,1.209 -3.539,0.998 -3.627,0.787 -3.743,0.574 -3.991,0.363 -6.151,0.091 -2.096,-0.091 -3.989,-0.333 -4.26,-0.574 -4.404,-0.817 -4.64,-1.088 -4.917,-1.391 -5.133,-1.694 -5.396,-2.026 -5.693,-2.389 -6.018,-2.782 -6.308,-3.175 -6.685,-3.629 -7.084,-4.113 -7.549,-4.656 -8.031,-5.232 -8.615,-5.897 -9.254,-6.622 -9.984,-7.439 -10.839,-8.377 -11.892,-9.495 -13.24,-10.887 -15.016,-12.67 -17.767,-15.332 -62.038,-54.885 -23.202,-20.473 -17.821,-15.483 -0.02,-0.03 4.847,-11.461 4.444,-9.949 4.169,-8.8 3.966,-7.862 3.831,-7.107 3.705,-6.411 3.609,-5.806 3.529,-5.261 3.468,-4.778 3.409,-4.3246 3.378,-3.9312 3.356,-3.5683 3.316,-3.2055 3.318,-2.903 3.307,-2.6006 3.317,-2.3285 3.31,-2.0563 3.335,-1.8144 3.345,-1.5725 3.411,-1.3608 3.481,-1.1491 3.559,-0.9375 3.649,-0.7257 3.774,-0.5141 3.471,-0.2722 1.487,-0.0605 6.219,0.0908 4.262,0.3628 4.359,0.6048 4.459,0.8468 4.677,1.1188 4.845,1.3911 5.082,1.6934 5.282,1.9959 5.603,2.3587 5.881,2.7216 6.192,3.1147 6.532,3.5381 6.897,3.9917 7.336,4.5057 7.792,5.0499 8.31,5.655 8.889,6.32 9.563,7.076 10.327,7.923 11.257,8.921 12.342,10.07 13.761,11.521 15.68,13.427 18.751,16.36 25.835,22.861 48.213,42.699 17.648,15.332 0.01,0.015 z"
           clip-path="url(#p5873ec822d-3)" />
      </g>
      <g
         style="fill:#105a00;fill-opacity:0;stroke:none;stroke-width:23.87910843;stroke-linecap:butt;stroke-linejoin:round;stroke-miterlimit:4;stroke-dasharray:none;stroke-opacity:1"
         transform="matrix(0.8290142,0,0,1.0315104,-172.48579,462.35198)"
         id="g4414">
        <path
           inkscape:connector-curvature="0"
           id="path4416"
           style="opacity:1;fill:#105a00;fill-opacity:0;stroke:none;stroke-width:23.87910843;stroke-linecap:round;stroke-linejoin:round;stroke-miterlimit:4;stroke-dasharray:none;stroke-opacity:1"
           d="m 668.84413,-179.30676 -0.513,1.24 -4.597,10.826 -4.264,9.525 -4.042,8.528 -3.853,7.651 -3.719,6.925 -3.613,6.29 -3.523,5.715 -3.452,5.201 -3.402,4.748 -3.357,4.324 -3.32,3.932 -3.29,3.568 -3.27,3.236 -3.268,2.933 -3.288,2.661 -3.298,2.389 -3.292,2.117 -3.317,1.875 -3.328,1.633 -3.394,1.421 -3.463,1.209 -3.539,0.998 -3.627,0.787 -3.743,0.574 -3.991,0.363 -6.151,0.091 -2.096,-0.091 -3.989,-0.333 -4.26,-0.574 -4.404,-0.817 -4.64,-1.088 -4.917,-1.391 -5.133,-1.694 -5.396,-2.026 -5.693,-2.389 -6.018,-2.782 -6.308,-3.175 -6.685,-3.629 -7.084,-4.113 -7.549,-4.656 -8.031,-5.232 -8.615,-5.897 -9.254,-6.622 -9.984,-7.439 -10.839,-8.377 -11.892,-9.495 -13.24,-10.887 -15.016,-12.67 -17.767,-15.332 -62.038,-54.885 -23.202,-20.473 -17.821,-15.483 -0.02,-0.03 4.847,-11.461 4.444,-9.949 4.169,-8.8 3.966,-7.862 3.831,-7.107 3.705,-6.411 3.609,-5.806 3.529,-5.261 3.468,-4.778 3.409,-4.3246 3.378,-3.9312 3.356,-3.5683 3.316,-3.2055 3.318,-2.903 3.307,-2.6006 3.317,-2.3285 3.31,-2.0563 3.335,-1.8144 3.345,-1.5725 3.411,-1.3608 3.481,-1.1491 3.559,-0.9375 3.649,-0.7257 3.774,-0.5141 3.471,-0.2722 1.487,-0.0605 6.219,0.0908 4.262,0.3628 4.359,0.6048 4.459,0.8468 4.677,1.1188 4.845,1.3911 5.082,1.6934 5.282,1.9959 5.603,2.3587 5.881,2.7216 6.192,3.1147 6.532,3.5381 6.897,3.9917 7.336,4.5057 7.792,5.0499 8.31,5.655 8.889,6.32 9.563,7.076 10.327,7.923 11.257,8.921 12.342,10.07 13.761,11.521 15.68,13.427 18.751,16.36 25.835,22.861 48.213,42.699 17.648,15.332 0.01,0.015 z"
           clip-path="url(#p5873ec822d-3)" />
      </g>
      <g
         style="fill:url(#linearGradient4440);fill-opacity:1;stroke:none;stroke-width:23.87910843;stroke-linecap:butt;stroke-linejoin:round;stroke-miterlimit:4;stroke-dasharray:none;stroke-opacity:1"
         transform="matrix(0.8290142,0,0,1.0315104,-28.48579,462.35198)"
         id="g4216">
        <path
           inkscape:connector-curvature="0"
           id="path4218"
           d="m 207.50391,-364.76562 c -23.68658,1.93761 -40.48655,21.95735 -51.46541,41.32561 -7.44828,12.43672 -13.63907,25.53404 -19.3842,38.80329 31.17537,-4.50239 78.52078,-20.93083 134.23799,19.58609 55.71721,40.51691 75.97387,63.33274 112.69564,75.09587 36.72177,11.76313 55.26737,19.4332 91.46691,14.47626 -71.15092,-60.6148 -136.96402,-129.14511 -218.52535,-176.07036 -15.14321,-7.75016 -31.79799,-13.65826 -49.02558,-13.21676 z"
           style="opacity:1;fill:url(#linearGradient4340);fill-opacity:1;stroke:none;stroke-width:23.87910843;stroke-linecap:round;stroke-linejoin:round;stroke-miterlimit:4;stroke-dasharray:none;stroke-opacity:1" />
      </g>
      <g
         style="fill:none;fill-opacity:1;stroke:#000000;stroke-width:23.87910843;stroke-linecap:butt;stroke-linejoin:round;stroke-miterlimit:4;stroke-dasharray:none;stroke-opacity:1"
         transform="matrix(0.8290142,0,0,1.0315104,-28.48579,462.35198)"
         id="g4244">
        <path
           inkscape:connector-curvature="0"
           style="color:#000000;font-style:normal;font-variant:normal;font-weight:normal;font-stretch:normal;font-size:medium;line-height:normal;font-family:sans-serif;text-indent:0;text-align:start;text-decoration:none;text-decoration-line:none;text-decoration-style:solid;text-decoration-color:#000000;letter-spacing:normal;word-spacing:normal;text-transform:none;writing-mode:lr-tb;direction:ltr;baseline-shift:baseline;text-anchor:start;white-space:normal;clip-rule:nonzero;display:inline;overflow:visible;visibility:visible;opacity:1;isolation:auto;mix-blend-mode:normal;color-interpolation:sRGB;color-interpolation-filters:linearRGB;solid-color:#000000;solid-opacity:1;fill:#000000;fill-opacity:1;fill-rule:nonzero;stroke:none;stroke-width:23.87910843;stroke-linecap:round;stroke-linejoin:round;stroke-miterlimit:4;stroke-dasharray:none;stroke-dashoffset:0;stroke-opacity:1;color-rendering:auto;image-rendering:auto;shape-rendering:auto;text-rendering:auto;enable-background:accumulate"
           d="m 209.25586,-389.53711 a 8.6519824,8.6519824 0 0 0 -0.47852,0.006 l -1.48632,0.0605 a 8.6519824,8.6519824 0 0 0 -0.32422,0.0195 l -3.47071,0.27344 a 8.6519824,8.6519824 0 0 0 -0.49218,0.0527 l -3.77344,0.51367 a 8.6519824,8.6519824 0 0 0 -0.51953,0.0859 l -3.65039,0.72656 a 8.6519824,8.6519824 0 0 0 -0.51563,0.11914 l -3.55859,0.9375 a 8.6519824,8.6519824 0 0 0 -0.50781,0.15039 l -3.48243,1.14844 a 8.6519824,8.6519824 0 0 0 -0.49218,0.17969 l -3.41211,1.36133 a 8.6519824,8.6519824 0 0 0 -0.47461,0.20703 l -3.34571,1.57226 a 8.6519824,8.6519824 0 0 0 -0.45312,0.23047 l -3.33398,1.81446 a 8.6519824,8.6519824 0 0 0 -0.43165,0.25 l -3.31054,2.05664 a 8.6519824,8.6519824 0 0 0 -0.4043,0.26757 l -3.31836,2.32813 a 8.6519824,8.6519824 0 0 0 -0.37695,0.28125 l -3.30664,2.59961 a 8.6519824,8.6519824 0 0 0 -0.34766,0.28906 l -3.31836,2.9043 a 8.6519824,8.6519824 0 0 0 -0.3164,0.29101 l -3.31641,3.20508 a 8.6519824,8.6519824 0 0 0 -0.28906,0.29297 l -3.35547,3.56836 a 8.6519824,8.6519824 0 0 0 -0.25977,0.28906 l -3.3789,3.92969 a 8.6519824,8.6519824 0 0 0 -0.23243,0.2832 l -3.4082,4.32422 a 8.6519824,8.6519824 0 0 0 -0.20703,0.27539 l -3.46875,4.77735 a 8.6519824,8.6519824 0 0 0 -0.18359,0.26171 l -3.5293,5.26172 a 8.6519824,8.6519824 0 0 0 -0.16211,0.25196 l -3.60938,5.80664 a 8.6519824,8.6519824 0 0 0 -0.14257,0.23828 l -3.70508,6.41015 a 8.6519824,8.6519824 0 0 0 -0.125,0.22461 l -3.83008,7.10743 a 8.6519824,8.6519824 0 0 0 -0.10937,0.20703 l -3.9668,7.86328 a 8.6519824,8.6519824 0 0 0 -0.0937,0.1914 l -4.16797,8.80079 a 8.6519824,8.6519824 0 0 0 -0.082,0.17578 l -4.44336,9.94922 a 8.6519824,8.6519824 0 0 0 -0.0684,0.1582 l -4.84766,11.46094 a 8.6519824,8.6519824 0 0 0 0.76953,8.16797 l 0.0195,0.0293 a 8.6519824,8.6519824 0 0 0 1.52539,1.73242 l 17.79492,15.46094 23.17383,20.44727 62.0332,54.88086 a 8.6519824,8.6519824 0 0 0 0.0801,0.0703 l 17.76758,15.33203 a 8.6519824,8.6519824 0 0 0 0.0723,0.0625 l 15.01563,12.66992 a 8.6519824,8.6519824 0 0 0 0.0859,0.0703 l 13.24024,10.88672 a 8.6519824,8.6519824 0 0 0 0.0957,0.0801 l 11.89258,9.49414 a 8.6519824,8.6519824 0 0 0 0.10742,0.084 l 10.83789,8.37695 a 8.6519824,8.6519824 0 0 0 0.12305,0.0937 l 9.98242,7.4375 a 8.6519824,8.6519824 0 0 0 0.13477,0.0996 l 9.2539,6.62109 a 8.6519824,8.6519824 0 0 0 0.14844,0.10352 l 8.61523,5.89648 a 8.6519824,8.6519824 0 0 0 0.16407,0.10938 l 8.03125,5.23242 a 8.6519824,8.6519824 0 0 0 0.17968,0.115234 l 7.55079,4.65625 a 8.6519824,8.6519824 0 0 0 0.19726,0.117187 l 7.08399,4.113281 a 8.6519824,8.6519824 0 0 0 0.21679,0.121094 l 6.6836,3.63086 a 8.6519824,8.6519824 0 0 0 0.23828,0.123046 l 6.30859,3.175782 a 8.6519824,8.6519824 0 0 0 0.25977,0.125 l 6.01758,2.78125 a 8.6519824,8.6519824 0 0 0 0.28125,0.125 l 5.69336,2.388672 a 8.6519824,8.6519824 0 0 0 0.30664,0.123046 l 5.39648,2.025391 a 8.6519824,8.6519824 0 0 0 0.33008,0.115235 l 5.13281,1.695312 a 8.6519824,8.6519824 0 0 0 0.35547,0.109375 l 4.91797,1.390625 a 8.6519824,8.6519824 0 0 0 0.3789,0.09766 l 4.64063,1.087891 a 8.6519824,8.6519824 0 0 0 0.39648,0.08398 l 4.4043,0.816407 a 8.6519824,8.6519824 0 0 0 0.42383,0.06836 l 4.25976,0.574219 a 8.6519824,8.6519824 0 0 0 0.43555,0.04687 l 3.98828,0.332031 a 8.6519824,8.6519824 0 0 0 0.34375,0.02344 l 2.09766,0.08984 a 8.6519824,8.6519824 0 0 0 0.50195,0.0078 l 6.15235,-0.0918 a 8.6519824,8.6519824 0 0 0 0.65429,-0.0332 l 3.99219,-0.363282 a 8.6519824,8.6519824 0 0 0 0.52734,-0.06445 l 3.74219,-0.574219 a 8.6519824,8.6519824 0 0 0 0.52344,-0.09766 l 3.62695,-0.787109 a 8.6519824,8.6519824 0 0 0 0.51367,-0.126953 l 3.53907,-0.998047 a 8.6519824,8.6519824 0 0 0 0.5039,-0.158203 l 3.46289,-1.208985 a 8.6519824,8.6519824 0 0 0 0.48828,-0.1875 l 3.39454,-1.421875 a 8.6519824,8.6519824 0 0 0 0.4707,-0.21289 l 3.32812,-1.632813 a 8.6519824,8.6519824 0 0 0 0.44532,-0.236328 l 3.3164,-1.875 a 8.6519824,8.6519824 0 0 0 0.42383,-0.253906 l 3.29102,-2.117188 a 8.6519824,8.6519824 0 0 0 0.39648,-0.271484 l 3.29688,-2.388672 a 8.6519824,8.6519824 0 0 0 0.36718,-0.28125 l 3.28907,-2.660156 a 8.6519824,8.6519824 0 0 0 0.33593,-0.287109 l 3.26758,-2.933594 a 8.6519824,8.6519824 0 0 0 0.30664,-0.289063 l 3.26953,-3.236328 a 8.6519824,8.6519824 0 0 0 0.27539,-0.283203 l 3.29102,-3.568359 a 8.6519824,8.6519824 0 0 0 0.25,-0.283203 l 3.31836,-3.931639 a 8.6519824,8.6519824 0 0 0 0.22461,-0.27735 L 467,-107.35156 a 8.6519824,8.6519824 0 0 0 0.19727,-0.26758 l 3.40234,-4.74805 a 8.6519824,8.6519824 0 0 0 0.17578,-0.2539 l 3.45313,-5.20118 a 8.6519824,8.6519824 0 0 0 0.15625,-0.24414 l 3.52148,-5.71484 a 8.6519824,8.6519824 0 0 0 0.13867,-0.23242 l 3.61328,-6.28906 a 8.6519824,8.6519824 0 0 0 0.11914,-0.2168 l 3.71875,-6.92383 a 8.6519824,8.6519824 0 0 0 0.10547,-0.20312 l 3.85352,-7.6504 a 8.6519824,8.6519824 0 0 0 0.0898,-0.18554 l 4.04297,-8.52735 a 8.6519824,8.6519824 0 0 0 0.0781,-0.17187 l 4.26367,-9.52344 a 8.6519824,8.6519824 0 0 0 0.0664,-0.1543 l 4.59766,-10.82617 a 8.6519824,8.6519824 0 0 0 0.0312,-0.0742 L 503.13867,-176 a 8.6519824,8.6519824 0 0 0 -0.79687,-8.10547 l -0.01,-0.0156 -0.01,-0.0137 a 8.6519824,8.6519824 0 0 0 -1.52539,-1.73242 l -17.61524,-15.30469 -48.18359,-42.67187 a 8.6519824,8.6519824 0 0 0 -0.002,-0.002 l -25.83593,-22.86133 a 8.6519824,8.6519824 0 0 0 -0.0449,-0.041 l -18.75,-16.35937 a 8.6519824,8.6519824 0 0 0 -0.0605,-0.0527 l -15.68164,-13.42578 a 8.6519824,8.6519824 0 0 0 -0.0723,-0.0625 l -13.76172,-11.52148 a 8.6519824,8.6519824 0 0 0 -0.084,-0.0703 l -12.3418,-10.07032 a 8.6519824,8.6519824 0 0 0 -0.0957,-0.0762 l -11.25781,-8.92187 a 8.6519824,8.6519824 0 0 0 -0.10743,-0.082 l -10.32617,-7.92383 a 8.6519824,8.6519824 0 0 0 -0.12109,-0.0898 l -9.5625,-7.07617 a 8.6519824,8.6519824 0 0 0 -0.13281,-0.0976 l -8.88868,-6.31836 a 8.6519824,8.6519824 0 0 0 -0.14648,-0.10157 l -8.31055,-5.65625 a 8.6519824,8.6519824 0 0 0 -0.16211,-0.10742 l -7.79101,-5.04883 a 8.6519824,8.6519824 0 0 0 -0.17774,-0.11328 l -7.33593,-4.50586 a 8.6519824,8.6519824 0 0 0 -0.19336,-0.11523 l -6.89844,-3.99219 a 8.6519824,8.6519824 0 0 0 -0.21289,-0.11914 l -6.53125,-3.53711 a 8.6519824,8.6519824 0 0 0 -0.23242,-0.12305 l -6.19336,-3.11328 a 8.6519824,8.6519824 0 0 0 -0.25391,-0.12304 l -5.88086,-2.72266 a 8.6519824,8.6519824 0 0 0 -0.27539,-0.12109 l -5.60351,-2.35938 a 8.6519824,8.6519824 0 0 0 -0.29883,-0.11914 l -5.28321,-1.99609 a 8.6519824,8.6519824 0 0 0 -0.32226,-0.11524 l -5.08203,-1.69336 a 8.6519824,8.6519824 0 0 0 -0.34766,-0.10742 l -4.84375,-1.39062 a 8.6519824,8.6519824 0 0 0 -0.375,-0.0977 l -4.67773,-1.11914 a 8.6519824,8.6519824 0 0 0 -0.39844,-0.0859 l -4.45899,-0.84765 a 8.6519824,8.6519824 0 0 0 -0.42578,-0.0684 l -4.35937,-0.60547 a 8.6519824,8.6519824 0 0 0 -0.45508,-0.0508 l -4.26172,-0.36329 a 8.6519824,8.6519824 0 0 0 -0.60742,-0.0293 l -6.21875,-0.0918 z m -0.0137,17.30469 5.67578,0.082 3.73047,0.31836 3.91992,0.54297 4.04687,0.76953 4.28907,1.02539 4.48437,1.28711 4.7461,1.58203 4.97265,1.87891 5.31446,2.23828 5.61523,2.59765 5.94922,2.99219 6.30859,3.41797 6.69336,3.87305 7.15039,4.39257 7.62305,4.93946 8.15625,5.55078 8.75,6.2207 9.43555,6.98242 10.21289,7.83594 11.15625,8.83985 12.25195,9.99609 13.68164,11.45508 15.61328,13.37109 18.69727,16.3125 25.8125,22.83985 48.21093,42.69921 a 8.6519824,8.6519824 0 0 0 0.0625,0.0527 l 12.93555,11.23633 -2.63476,6.20312 -4.19141,9.36328 -3.95703,8.34961 -3.75586,7.45703 -3.60742,6.71485 -3.48438,6.0664 -3.375,5.47852 -3.28711,4.95117 -3.21484,4.48633 -3.14649,4.05273 -3.08398,3.65235 -3.02734,3.2832 -2.97852,2.94922 -2.94726,2.64453 -2.93555,2.375 -2.91797,2.113281 -2.88281,1.853516 -2.88282,1.630859 -2.86914,1.408203 -2.91406,1.21875 -2.9668,1.035157 -3.02929,0.855468 -3.10742,0.673828 -3.2168,0.494141 -3.40039,0.308594 -5.57031,0.08203 -1.67188,-0.07227 -3.59961,-0.300781 -3.83008,-0.515625 -3.99414,-0.740234 -4.25,-0.998047 -4.54883,-1.287109 -4.79101,-1.580078 -5.07813,-1.90625 -5.39843,-2.265626 -5.7461,-2.65625 -6.06054,-3.050787 -6.45704,-3.50586 -6.87695,-3.99219 -7.36133,-4.53906 -7.85742,-5.11914 -8.45898,-5.79101 -9.11328,-6.52149 -9.85547,-7.34375 -10.72461,-8.28906 -11.79102,-9.41211 -13.14844,-10.8125 -14.9375,-12.60352 -17.6914,-15.26562 -61.99805,-54.85156 a 8.6519824,8.6519824 0 0 0 -0.008,-0.006 l -23.20117,-20.47461 a 8.6519824,8.6519824 0 0 0 -0.0508,-0.043 l -13.10547,-11.38672 2.37109,-5.60742 4.37109,-9.78125 4.08008,-8.61524 3.86524,-7.66211 3.71484,-6.89062 3.57031,-6.17969 3.45703,-5.56054 3.35547,-5.00391 3.27344,-4.50977 3.18945,-4.04492 3.13282,-3.64453 3.08203,-3.27734 3.01367,-2.91407 2.98437,-2.61132 2.94532,-2.31446 2.92578,-2.05468 2.89062,-1.79688 2.89258,-1.57422 2.88086,-1.35351 2.92578,-1.16797 2.98047,-0.98242 3.04492,-0.80274 3.13086,-0.62305 3.26758,-0.44531 3.0625,-0.24023 1.08594,-0.043 z"
           clip-path="url(#p5873ec822d-3)"
           id="path4246" />
      </g>
      <g
         id="g4312"
         transform="matrix(0.8290142,0,0,1.0315104,-28.48579,462.35198)"
         style="fill:#ffffff;fill-opacity:1;stroke:none;stroke-width:23.87910843;stroke-linecap:butt;stroke-linejoin:round;stroke-miterlimit:4;stroke-dasharray:none;stroke-opacity:1">
        <path
           inkscape:connector-curvature="0"
           id="path4314"
           d="m 207.66016,-383.50781 c -27.62454,0.93696 -50.16522,21.79245 -63.67188,44.21655 -11.86365,18.64171 -21.6594,38.61127 -29.01367,59.45142 3.72263,6.90428 11.87754,9.70526 16.73909,15.69702 65.27335,56.01614 126.52343,117.64297 199.48942,163.70141 23.99757,14.354847 51.27637,27.256819 79.82813,23.955082 23.8851,-3.542152 43.12994,-21.048596 55.63672,-40.923832 12.91658,-19.28661 23.25832,-40.67193 30.68945,-62.39453 -3.73372,-6.82596 -11.84429,-9.5251 -16.61162,-15.52831 -64.30506,-55.41684 -125.01098,-115.89528 -196.68525,-161.94044 -23.03852,-14.29828 -48.76285,-26.76131 -76.40039,-26.23437 z m 3.21484,5.24219 c 36.54772,1.3543 67.82984,23.0773 96.82812,43.17773 64.03559,46.87966 121.28214,102.11782 181.10352,154.0332 4.49686,7.03234 -3.23431,14.24554 -4.97066,20.87883 -12.23945,27.08961 -27.19841,55.43726 -53.21684,71.586016 -21.47319,11.820342 -47.92567,7.975796 -69.20656,-2.270148 -42.5833,-18.587318 -78.02456,-49.507718 -113.71634,-78.545948 -42.1231,-35.72715 -83.01949,-72.97187 -124.44624,-109.41828 -3.24306,-9.01587 4.90977,-16.42409 7.26146,-24.58321 12.80005,-26.8818 28.13551,-55.83676 55.98073,-69.65116 7.64026,-3.43071 16.01464,-5.16798 24.38281,-5.20703 z"
           style="color:#000000;font-style:normal;font-variant:normal;font-weight:normal;font-stretch:normal;font-size:medium;line-height:normal;font-family:sans-serif;text-indent:0;text-align:start;text-decoration:none;text-decoration-line:none;text-decoration-style:solid;text-decoration-color:#000000;letter-spacing:normal;word-spacing:normal;text-transform:none;writing-mode:lr-tb;direction:ltr;baseline-shift:baseline;text-anchor:start;white-space:normal;clip-rule:nonzero;display:inline;overflow:visible;visibility:visible;opacity:1;isolation:auto;mix-blend-mode:normal;color-interpolation:sRGB;color-interpolation-filters:linearRGB;solid-color:#000000;solid-opacity:1;fill:url(#radialGradient4354);fill-opacity:1;fill-rule:nonzero;stroke:none;stroke-width:23.87910843;stroke-linecap:round;stroke-linejoin:round;stroke-miterlimit:4;stroke-dasharray:none;stroke-dashoffset:0;stroke-opacity:1;color-rendering:auto;image-rendering:auto;shape-rendering:auto;text-rendering:auto;enable-background:accumulate" />
      </g>
      <g
         style="opacity:0.5;fill:#ffffff;fill-opacity:1;stroke:none;stroke-width:23.87910843;stroke-linecap:butt;stroke-linejoin:round;stroke-miterlimit:4;stroke-dasharray:none;stroke-opacity:1"
         transform="matrix(0.8290142,0,0,1.0315104,-28.48579,462.35198)"
         id="g4367">
        <path
           inkscape:connector-curvature="0"
           style="color:#000000;font-style:normal;font-variant:normal;font-weight:normal;font-stretch:normal;font-size:medium;line-height:normal;font-family:sans-serif;text-indent:0;text-align:start;text-decoration:none;text-decoration-line:none;text-decoration-style:solid;text-decoration-color:#000000;letter-spacing:normal;word-spacing:normal;text-transform:none;writing-mode:lr-tb;direction:ltr;baseline-shift:baseline;text-anchor:start;white-space:normal;clip-rule:nonzero;display:inline;overflow:visible;visibility:visible;opacity:0.328;isolation:auto;mix-blend-mode:normal;color-interpolation:sRGB;color-interpolation-filters:linearRGB;solid-color:#000000;solid-opacity:1;fill:url(#radialGradient4371);fill-opacity:1;fill-rule:nonzero;stroke:none;stroke-width:23.87910843;stroke-linecap:round;stroke-linejoin:round;stroke-miterlimit:4;stroke-dasharray:none;stroke-dashoffset:0;stroke-opacity:1;color-rendering:auto;image-rendering:auto;shape-rendering:auto;text-rendering:auto;enable-background:accumulate"
           d="m 207.66016,-383.50781 c -27.62454,0.93696 -50.16522,21.79245 -63.67188,44.21655 -11.86365,18.64171 -21.6594,38.61127 -29.01367,59.45142 3.72263,6.90428 11.87754,9.70526 16.73909,15.69702 65.27335,56.01614 126.52343,117.64297 199.48942,163.70141 23.99757,14.354847 51.27637,27.256819 79.82813,23.955082 23.8851,-3.542152 43.12994,-21.048596 55.63672,-40.923832 12.91658,-19.28661 23.25832,-40.67193 30.68945,-62.39453 -3.73372,-6.82596 -11.84429,-9.5251 -16.61162,-15.52831 -64.30506,-55.41684 -125.01098,-115.89528 -196.68525,-161.94044 -23.03852,-14.29828 -48.76285,-26.76131 -76.40039,-26.23437 z m 3.21484,5.24219 c 36.54772,1.3543 67.82984,23.0773 96.82812,43.17773 64.03559,46.87966 121.28214,102.11782 181.10352,154.0332 4.49686,7.03234 -3.23431,14.24554 -4.97066,20.87883 -12.23945,27.08961 -27.19841,55.43726 -53.21684,71.586016 -21.47319,11.820342 -47.92567,7.975796 -69.20656,-2.270148 -42.5833,-18.587318 -78.02456,-49.507718 -113.71634,-78.545948 -42.1231,-35.72715 -83.01949,-72.97187 -124.44624,-109.41828 -3.24306,-9.01587 4.90977,-16.42409 7.26146,-24.58321 12.80005,-26.8818 28.13551,-55.83676 55.98073,-69.65116 7.64026,-3.43071 16.01464,-5.16798 24.38281,-5.20703 z"
           id="path4369" />
      </g>
    </g>
    <g
       style="stroke-width:1.38011694;stroke-linecap:butt;stroke-linejoin:round"
       transform="matrix(-0.62750145,-0.36228813,-0.36228813,0.62750145,294.62027,347.61965)"
       id="g4610">
      <g
         style="stroke-width:1.38011694;stroke-linecap:butt;stroke-linejoin:round"
         id="g4612">
        <path
           inkscape:connector-curvature="0"
           style="fill:#000000;fill-opacity:1;fill-rule:evenodd;stroke:none;stroke-width:1.10409355px;stroke-linecap:butt;stroke-linejoin:miter;stroke-opacity:1"
           d="m 279.24714,-80.27421 v 16.7875 h -35.1422 v 12.55312 h 85.9594 z"
           id="path4614" />
        <path
           inkscape:connector-curvature="0"
           id="path4616"
           d="m 294.92214,-4.5336 v -16.7875 h 35.1422 v -12.5531 h -85.9594 z"
           style="fill:#000000;fill-opacity:1;fill-rule:evenodd;stroke:none;stroke-width:1.10409355px;stroke-linecap:butt;stroke-linejoin:miter;stroke-opacity:1" />
      </g>
      <path
         inkscape:connector-curvature="0"
         style="fill:url(#linearGradient4628);fill-opacity:1;fill-rule:evenodd;stroke:none;stroke-width:1.10409355px;stroke-linecap:butt;stroke-linejoin:miter;stroke-opacity:1"
         d="m 284.04714,-72.27421 v 13.5875 h -35.1422 v 2.95312 h 38.1797 l -0.0551,-11.2 20.34457,11.2 h 5.0902 z"
         id="path4618" />
      <path
         inkscape:connector-curvature="0"
         id="path4620"
         d="m 267.72214,-26.12109 h 57.5422 v -2.95312 h -63.5594 l 3.55215,2.067577 z"
         style="fill:url(#linearGradient4636);fill-opacity:1;fill-rule:evenodd;stroke:none;stroke-width:1.10409355px;stroke-linecap:butt;stroke-linejoin:miter;stroke-opacity:1" />
    </g>
    <g
       id="g4654"
       transform="matrix(0.62750145,-0.36228813,0.36228813,0.62750145,18.843504,415.09369)"
       style="stroke-width:1.38011694;stroke-linecap:butt;stroke-linejoin:round">
      <g
         id="g4656"
         style="stroke-width:1.38011694;stroke-linecap:butt;stroke-linejoin:round">
        <path
           inkscape:connector-curvature="0"
           id="path4658"
           d="m 279.24714,-80.27421 v 16.7875 h -35.1422 v 12.55312 h 85.9594 z"
           style="fill:#000000;fill-opacity:1;fill-rule:evenodd;stroke:none;stroke-width:1.10409355px;stroke-linecap:butt;stroke-linejoin:miter;stroke-opacity:1" />
        <path
           inkscape:connector-curvature="0"
           style="fill:#000000;fill-opacity:1;fill-rule:evenodd;stroke:none;stroke-width:1.10409355px;stroke-linecap:butt;stroke-linejoin:miter;stroke-opacity:1"
           d="m 294.92214,-4.5336 v -16.7875 h 35.1422 v -12.5531 h -85.9594 z"
           id="path4660" />
      </g>
      <path
         inkscape:connector-curvature="0"
         id="path4662"
         d="m 284.04714,-72.27421 v 13.5875 h -35.1422 v 2.95312 h 38.1797 l -0.0551,-11.2 20.34457,11.2 h 5.0902 z"
         style="fill:url(#linearGradient4666);fill-opacity:1;fill-rule:evenodd;stroke:none;stroke-width:1.10409355px;stroke-linecap:butt;stroke-linejoin:miter;stroke-opacity:1" />
      <path
         inkscape:connector-curvature="0"
         style="fill:url(#linearGradient4668);fill-opacity:1;fill-rule:evenodd;stroke:none;stroke-width:1.10409355px;stroke-linecap:butt;stroke-linejoin:miter;stroke-opacity:1"
         d="m 267.72214,-26.12109 h 57.5422 v -2.95312 h -63.5594 l 3.55215,2.067577 z"
         id="path4664" />
    </g>
    <g
       style="stroke-width:1.38011694;stroke-linecap:butt;stroke-linejoin:round"
       transform="matrix(0.62750145,-0.36228813,0.36228813,0.62750145,109.91383,188.35729)"
       id="g4558">
      <g
         style="stroke-width:1.38011694;stroke-linecap:butt;stroke-linejoin:round"
         id="g4560">
        <path
           inkscape:connector-curvature="0"
           style="fill:#000000;fill-opacity:1;fill-rule:evenodd;stroke:none;stroke-width:1.10409355px;stroke-linecap:butt;stroke-linejoin:miter;stroke-opacity:1"
           d="m 279.24714,-80.27421 v 16.7875 h -35.1422 v 12.55312 h 85.9594 z"
           id="path4562" />
        <path
           inkscape:connector-curvature="0"
           id="path4564"
           d="m 294.92214,-4.5336 v -16.7875 h 35.1422 v -12.5531 h -85.9594 z"
           style="fill:#000000;fill-opacity:1;fill-rule:evenodd;stroke:none;stroke-width:1.10409355px;stroke-linecap:butt;stroke-linejoin:miter;stroke-opacity:1" />
      </g>
      <path
         inkscape:connector-curvature="0"
         style="fill:url(#linearGradient4608);fill-opacity:1;fill-rule:evenodd;stroke:none;stroke-width:1.10409355px;stroke-linecap:butt;stroke-linejoin:miter;stroke-opacity:1"
         d="m 284.04714,-72.27421 v 13.5875 h -35.1422 v 2.95312 h 38.1797 l -0.0551,-11.2 20.34457,11.2 h 5.0902 z"
         id="path4566" />
      <path
         inkscape:connector-curvature="0"
         id="path4568"
         d="m 267.72214,-26.12109 h 57.5422 v -2.95312 h -63.5594 l 3.55215,2.067577 z"
         style="fill:url(#linearGradient4600);fill-opacity:1;fill-rule:evenodd;stroke:none;stroke-width:1.10409355px;stroke-linecap:butt;stroke-linejoin:miter;stroke-opacity:1" />
    </g>
    <g
       id="g4638"
       transform="matrix(-0.62750145,-0.36228813,-0.36228813,0.62750145,494.9469,254.87388)"
       style="stroke-width:1.38011694;stroke-linecap:butt;stroke-linejoin:round">
      <g
         id="g4640"
         style="stroke-width:1.38011694;stroke-linecap:butt;stroke-linejoin:round">
        <path
           inkscape:connector-curvature="0"
           id="path4642"
           d="m 279.24714,-80.27421 v 16.7875 h -35.1422 v 12.55312 h 85.9594 z"
           style="fill:#000000;fill-opacity:1;fill-rule:evenodd;stroke:none;stroke-width:1.10409355px;stroke-linecap:butt;stroke-linejoin:miter;stroke-opacity:1" />
        <path
           inkscape:connector-curvature="0"
           style="fill:#000000;fill-opacity:1;fill-rule:evenodd;stroke:none;stroke-width:1.10409355px;stroke-linecap:butt;stroke-linejoin:miter;stroke-opacity:1"
           d="m 294.92214,-4.5336 v -16.7875 h 35.1422 v -12.5531 h -85.9594 z"
           id="path4644" />
      </g>
      <path
         inkscape:connector-curvature="0"
         id="path4646"
         d="m 284.04714,-72.27421 v 13.5875 h -35.1422 v 2.95312 h 38.1797 l -0.0551,-11.2 20.34457,11.2 h 5.0902 z"
         style="fill:url(#linearGradient4650);fill-opacity:1;fill-rule:evenodd;stroke:none;stroke-width:1.10409355px;stroke-linecap:butt;stroke-linejoin:miter;stroke-opacity:1" />
      <path
         inkscape:connector-curvature="0"
         style="fill:url(#linearGradient4652);fill-opacity:1;fill-rule:evenodd;stroke:none;stroke-width:1.10409355px;stroke-linecap:butt;stroke-linejoin:miter;stroke-opacity:1"
         d="m 267.72214,-26.12109 h 57.5422 v -2.95312 h -63.5594 l 3.55215,2.067577 z"
         id="path4648" />
    </g>
    <circle
       style="opacity:0.631;fill:url(#radialGradient4485);fill-opacity:1;stroke:none;stroke-width:20;stroke-linecap:round;stroke-linejoin:bevel;stroke-miterlimit:4;stroke-dasharray:none;stroke-dashoffset:0;stroke-opacity:1"
       id="path4477"
       cx="158.83295"
       cy="64.678154"
       r="31.594366" />
  </g>
  <circle
     style="opacity:0.631;fill:url(#radialGradient4489);fill-opacity:1;stroke:none;stroke-width:20;stroke-linecap:round;stroke-linejoin:bevel;stroke-miterlimit:4;stroke-dasharray:none;stroke-dashoffset:0;stroke-opacity:1"
     id="circle4487"
     cx="96.612251"
     cy="81.101135"
     r="31.594366" />
  <text
     xml:space="preserve"
     style="font-style:normal;font-variant:normal;font-weight:bold;font-stretch:normal;font-size:97.20080566px;line-height:1.25;font-family:sans-serif;-inkscape-font-specification:'sans-serif Bold';letter-spacing:0px;word-spacing:0px;fill:#000000;fill-opacity:1;stroke:none;stroke-width:0.75;stroke-linecap:butt;stroke-linejoin:round"
     x="63.901001"
     y="458.30853"
     id="text969"><tspan
       sodipodi:role="line"
       id="tspan967"
       style="font-style:normal;font-variant:normal;font-weight:bold;font-stretch:normal;font-size:97.20080566px;font-family:sans-serif;-inkscape-font-specification:'sans-serif Bold';stroke-width:0.75;stroke-linecap:butt;stroke-linejoin:round"
       x="63.901001"
       y="458.30853">ECCW</tspan></text>
  <text
     xml:space="preserve"
     style="font-style:normal;font-variant:normal;font-weight:bold;font-stretch:normal;font-size:15.74862862px;line-height:1.25;font-family:sans-serif;-inkscape-font-specification:'sans-serif Bold';letter-spacing:0px;word-spacing:0px;fill:#000000;fill-opacity:1;stroke:none;stroke-width:0.75;stroke-linecap:butt;stroke-linejoin:round"
     x="70.700958"
     y="489.37729"
     id="text972"><tspan
       sodipodi:role="line"
       id="tspan970"
       style="font-style:normal;font-variant:normal;font-weight:bold;font-stretch:normal;font-size:15.74862862px;font-family:sans-serif;-inkscape-font-specification:'sans-serif Bold';stroke-width:0.75;stroke-linecap:butt;stroke-linejoin:round"
       x="70.700958"
       y="489.37729">EXACT CRITICAL COULOMB WEDGE</tspan></text>
  <text
     id="text976"
     y="534.15143"
     x="69.236526"
     style="font-style:normal;font-variant:normal;font-weight:bold;font-stretch:normal;font-size:31.70152473px;line-height:1.25;font-family:sans-serif;-inkscape-font-specification:'sans-serif Bold';letter-spacing:0px;word-spacing:0px;fill:#000000;fill-opacity:1;stroke:none;stroke-width:0.75;stroke-linecap:butt;stroke-linejoin:round"
     xml:space="preserve"><tspan
       y="534.15143"
       x="69.236526"
       style="font-style:normal;font-variant:normal;font-weight:bold;font-stretch:normal;font-size:31.70152473px;font-family:sans-serif;-inkscape-font-specification:'sans-serif Bold';stroke-width:0.75;stroke-linecap:butt;stroke-linejoin:round"
       id="tspan974"
       sodipodi:role="line">DOCUMENTATION</tspan></text>
</svg>
